<svg width="134" height="105" viewBox="0 0 134 105" fill="none" xmlns="http://www.w3.org/2000/svg">
<g clip-path="url(#clip0)">
<path d="M72.6545 1.81246C72.1367 -0.160327 69.3756 -0.205892 67.3803 0.209254C58.0649 2.14492 47.6481 5.52178 38.5772 8.39912C33.1985 10.1745 27.9665 12.3953 22.952 15.033C21.4408 15.8279 19.7001 17.4294 20.5485 18.9128C21.1608 19.9844 22.6703 20.008 23.8982 19.8798C36.7776 18.5314 49.468 15.3857 61.4888 10.5626C64.8756 9.20409 68.2675 7.67514 71.0066 5.26358C72.0136 4.37253 72.9969 3.11359 72.6545 1.81246Z" fill="#D196A8"/>
<path d="M121.046 74.2572C121.197 76.981 120.847 79.8735 119.515 82.523C119.49 82.5736 119.463 82.6243 119.436 82.6749C119.422 82.7036 119.407 82.7306 119.392 82.7593C119.307 82.9213 119.218 83.0833 119.124 83.2419C118.66 84.0385 118.1 84.808 117.43 85.5387C116.6 86.445 115.572 87.2618 114.398 87.9976C114.249 88.0921 114.099 88.1832 113.946 88.2726C113.608 88.4734 113.259 88.6675 112.9 88.8548C105.752 92.5979 94.7025 93.9615 88.5175 94.4509C86.9843 94.4779 85.4529 94.5656 83.9281 94.7108H83.9214H83.9197C81.2598 94.9622 78.6168 95.3875 76.0143 95.9866C67.0733 98.0404 58.6754 102.089 49.7058 104.018C41.6807 105.744 32.6166 105.462 25.907 100.99C24.497 100.05 23.3703 98.739 22.6096 97.2236C21.7444 95.4989 21.0191 93.9632 20.2719 92.5118C20.1555 92.2857 20.0391 92.063 19.9211 91.8402C19.9025 91.8064 19.8856 91.7727 19.8671 91.7389C18.9428 90.0092 17.9409 88.3722 16.568 86.639C16.3622 86.3792 16.148 86.1159 15.9237 85.8509L15.922 85.8493C15.8107 85.7159 15.696 85.5809 15.5762 85.4442C15.5408 85.402 15.5037 85.3598 15.4666 85.3177C15.1225 84.9261 14.7582 84.5279 14.3703 84.1212C13.0277 82.7154 11.5805 81.4126 10.189 80.0541C10.0659 79.9342 9.94279 79.8128 9.81967 79.6912C9.72184 79.5951 9.6257 79.4972 9.52787 79.3993C9.15175 79.0213 8.78237 78.6365 8.42143 78.2433C1.77093 70.9749 -1.25325 60.5354 0.48232 50.8335C2.21789 41.1332 8.67274 32.3915 17.4316 27.8823C19.0406 27.0537 20.7037 26.3685 22.4055 25.7863C22.6298 25.7087 22.8542 25.6344 23.0802 25.5602C28.717 23.7308 34.7468 22.9731 40.613 21.8964C52.5242 19.7144 64.1706 16.0911 75.2182 11.1313C77.0566 10.3061 78.885 9.44204 80.7184 8.58137C80.9427 8.47505 81.1687 8.37042 81.3931 8.26579C87.2846 5.50827 93.2233 2.85369 99.6022 1.76351C102.345 1.29605 105.18 1.12898 107.89 1.7517C115.101 3.41229 120.178 10.8427 120.179 18.2462C120.183 26.7044 114.649 34.4605 114.811 42.917C114.868 45.9243 115.646 48.8219 116.818 51.5963C117.919 54.207 119.37 56.708 120.898 59.0892C120.996 59.2411 121.094 59.3913 121.193 59.5431C122.227 61.1413 123.303 62.7225 124.346 64.319L120.844 72.2068C120.94 72.8751 121.009 73.5602 121.046 74.2572Z" fill="#D196A8"/>
<path d="M119.515 82.523C119.49 82.5736 119.463 82.6242 119.436 82.6749L42.0973 90.5829L42.0366 90.5896L15.5763 85.4442C15.5409 85.402 15.5038 85.3598 15.4667 85.3176C15.1226 84.9261 14.7583 84.5278 14.3703 84.1211C13.0278 82.7154 11.5806 81.4126 10.1891 80.0541C10.066 79.9342 9.94286 79.8127 9.81973 79.6912L79.4669 76.3532L111.807 74.804L119.903 74.3247L121.046 74.2572C121.197 76.981 120.847 79.8735 119.515 82.523Z" fill="#B29EEF"/>
<path d="M81.393 8.26575V54.509C81.393 54.6947 81.2412 54.8465 81.0557 54.8465C80.8685 54.8465 80.7184 54.6947 80.7184 54.509V8.58133C80.9427 8.47501 81.1687 8.37038 81.393 8.26575Z" fill="#D9A5B5"/>
<path d="M119.392 82.7592C119.307 82.9212 119.218 83.0832 119.124 83.2419C118.66 84.0384 118.1 84.8079 117.43 85.5387C116.6 86.4449 115.571 87.2617 114.398 87.9975C114.249 88.092 114.099 88.1831 113.946 88.2726L52.6641 95.3182L43.0232 96.427L42.8562 93.3606L42.7314 91.0807L42.7466 91.079L47.8184 90.5289L119.392 82.7592Z" fill="white"/>
<path d="M23.0802 25.5601V74.4664C23.0802 74.6537 22.9301 74.8039 22.7428 74.8039C22.5573 74.8039 22.4055 74.6537 22.4055 74.4664V25.7863C22.6298 25.7086 22.8542 25.6344 23.0802 25.5601Z" fill="#D9A5B5"/>
<path d="M48.994 49.2978C48.0579 47.4702 46.2397 46.2888 43.5663 45.7623C43.5646 45.7606 43.5629 45.7606 43.5596 45.7606C41.9201 45.4366 39.9602 45.3573 37.6816 45.5261C27.1737 46.3074 19.4437 48.3781 14.7076 51.679C11.4743 53.9336 10.1081 58.1374 11.3882 61.9041L17.2494 79.1529L17.4484 79.7402L32.6941 78.6669L36.2428 78.4171L36.3154 78.4121L36.3609 78.3564C36.3626 78.353 36.3761 78.3378 36.3997 78.3091C36.8399 77.7792 40.8525 72.892 44.3304 67.1187C49.2773 58.9103 50.8459 52.9143 48.994 49.2978ZM36.1484 78.0847L24.0652 78.9369L18.5127 79.3267H18.511L17.6845 79.3858L17.6019 79.1411L11.707 61.7944C10.4758 58.1711 11.7897 54.1243 14.9015 51.9558C18.398 49.5172 23.5592 47.757 30.2957 46.6989C30.3075 46.6972 30.321 46.6956 30.3362 46.6922C32.6131 46.3361 35.0723 46.061 37.7069 45.8636C38.481 45.8062 39.2181 45.7775 39.9181 45.7775C44.4957 45.7775 47.4422 47.0094 48.6937 49.4531C52.8783 57.6261 37.1216 76.9084 36.1484 78.0847Z" fill="#FEECD6"/>
<path d="M18.5903 79.5631L12.5723 61.8484C11.3157 58.1509 12.6279 54.0484 15.8292 51.8174C19.55 49.2236 26.3371 46.6146 38.7188 45.6949C66.2671 43.6478 37.2565 78.2484 37.2565 78.2484L18.5903 79.5631Z" fill="#FEECD6"/>
<path d="M68.9624 16.7223C69.094 16.2025 69.1243 15.73 69.1142 15.2659C69.1024 14.8035 69.0434 14.3411 69.0096 13.8365C68.9641 13.5209 68.8933 13.207 68.7971 12.8999C68.4176 11.6663 67.662 10.5204 66.6787 9.68335C64.712 8.01095 62.0404 7.39498 59.4615 7.3106C55.5956 7.18234 51.406 8.33159 49.1003 11.4384C47.132 14.0879 46.8958 17.588 46.0036 20.7657C44.5379 25.9922 41.1966 30.5166 37.3645 34.3576C35.1196 36.6088 32.5508 38.9022 31.9605 42.0276C31.382 45.094 32.9877 48.3004 35.4552 50.2074C36.3542 50.9027 37.3747 51.4596 38.4777 51.733C39.5994 52.0114 40.78 51.9895 41.9185 51.7954C45.4133 51.1997 48.4138 49.0615 51.3689 47.1039C51.664 46.9081 51.9626 46.7124 52.2594 46.4964C54.4049 44.8814 54.5735 42.0125 56.2602 39.9874C56.5553 39.5857 56.8589 39.3022 57.1659 39.1132C61.1515 38.9748 67.7295 36.7809 68.76 42.404C68.868 42.7145 68.9759 43.0233 69.0957 43.3186C69.5764 44.4983 70.2443 45.4653 71.7454 45.5412C72.0051 45.5615 72.2683 45.5699 72.5331 45.5665C73.8537 45.548 75.1912 45.2087 76.1071 44.284C77.0803 43.3018 77.3991 41.8386 77.4092 40.4565C77.4244 38.531 76.9184 36.6037 75.9604 34.9347C75.591 34.2901 75.1609 33.691 74.692 33.1189C74.4575 32.8337 74.2147 32.5535 73.9634 32.2852C70.4281 29.8618 68.0668 25.8116 68.5424 21.4492C68.5475 21.0273 68.566 20.6071 68.5947 20.1835C68.6824 18.9178 68.868 17.6403 69.067 16.3814L68.9624 16.7223Z" fill="#3F4553"/>
<path d="M67.3465 17.4142C66.5504 19.7819 67.586 22.2255 69.0972 24.065C70.9795 26.3567 73.4117 28.0494 75.0275 30.5808C76.6434 33.1138 77.9455 36.327 77.2877 39.3799C77.0178 40.6354 76.328 41.1468 75.1372 41.4708C74.137 41.7425 73.2059 42.0327 72.3441 42.6318C72.145 42.7702 72.3339 43.0993 72.5363 42.9592C73.5365 42.2639 74.616 42.0665 75.7427 41.6902C76.4477 41.4539 77.0262 41.0691 77.3619 40.3857C78.4987 38.0669 77.6064 34.8807 76.6096 32.6886C75.3564 29.9311 73.4421 27.8621 71.2798 25.7965C69.0686 23.6853 66.6077 20.8046 67.7142 17.5155C67.7918 17.2826 67.4241 17.183 67.3465 17.4142Z" fill="#4E5567"/>
<path d="M54.6257 36.9935L56.5823 35.5608L59.0853 34.3795L66.7747 36.9935L70.0586 71.7764L61.5714 73.9112L55.7204 56.2759L54.6257 36.9935Z" fill="white"/>
<path d="M70.2509 32.0338C73.4421 32.6717 76.4511 34.4757 78.1395 37.3176C79.8953 40.2726 79.9256 44.1372 77.9809 47.0061C77.8443 47.2086 78.1715 47.3993 78.3081 47.1984C80.2765 44.2924 80.2883 40.3874 78.5932 37.348C76.8964 34.3036 73.712 32.3409 70.3505 31.6693C70.1126 31.6187 70.0114 31.9849 70.2509 32.0338Z" fill="#4E5567"/>
<path d="M44.403 27.5363C41.9084 29.5023 39.5201 31.6 37.0289 33.5711C35.0639 35.1254 32.8611 36.5075 31.4815 38.6592C28.7541 42.9119 30.7343 48.1603 34.4921 51.0224C36.6022 52.6307 39.4644 53.9082 42.1344 53.0897C42.3672 53.0188 42.2676 52.6509 42.0332 52.7235C39.5842 53.4745 36.9682 52.3539 34.9897 50.9212C33.0214 49.4968 31.4275 47.4751 30.822 45.0922C30.2333 42.7735 30.714 40.3096 32.1291 38.3858C33.5021 36.5193 35.5041 35.2587 37.2971 33.8411C39.7883 31.8717 42.1766 29.7723 44.6711 27.8063C44.8634 27.6544 44.5935 27.3861 44.403 27.5363Z" fill="#4E5567"/>
<path d="M77.3316 81.3822L51.8192 80.7696C51.8192 80.0828 52.3353 79.5073 53.0184 79.4347L79.3674 76.5878L77.3316 81.3822Z" fill="#400F58"/>
<path d="M48.2199 18.2309C47.9197 21.1657 47.3074 24.1054 46.0424 26.787C44.7875 29.4483 42.8141 31.5241 40.7986 33.6201C38.9972 35.4933 37.1841 37.4711 36.3036 39.9671C35.5683 42.0462 35.7234 44.3008 36.7068 46.2719C37.6901 48.2413 39.4897 49.6808 41.7549 49.6336C41.9995 49.6285 41.9995 49.2488 41.7549 49.2539C39.4594 49.3011 37.7356 47.7215 36.8619 45.7015C35.8162 43.2832 36.1468 40.7147 37.4135 38.4432C38.7021 36.1329 40.6856 34.3238 42.4802 32.4168C44.1989 30.5908 45.673 28.6383 46.6665 26.3196C47.7662 23.7527 48.3177 20.9986 48.5994 18.2309C48.623 17.9879 48.2435 17.9896 48.2199 18.2309Z" fill="#4E5567"/>
<path d="M67.1239 25.2564C67.1087 28.5388 69.8175 30.6989 71.8314 32.9231C73.0221 34.2394 74.0864 35.7667 74.2011 37.596C74.3141 39.3984 73.5653 41.1501 72.2379 42.3567C72.0574 42.5221 72.3256 42.7887 72.506 42.625C74.8825 40.4649 75.1693 37.0206 73.4522 34.3711C71.5109 31.3739 67.4848 29.2307 67.5034 25.2564C67.5051 25.0117 67.1256 25.0117 67.1239 25.2564Z" fill="#4E5567"/>
<path d="M65.6835 36.6577C66.4172 38.2221 65.7695 40.0599 66.0174 41.7711C67.4612 51.7498 67.102 61.9665 67.2571 72.0245C67.2807 73.5517 67.3465 75.2056 68.3062 76.3953C68.4884 76.6215 68.711 76.8324 68.9893 76.9202C69.2086 76.9893 69.4447 76.9758 69.6758 76.9623C72.9361 76.7649 76.1964 76.5675 79.4567 76.37C78.3975 70.1057 77.3383 63.8397 76.2791 57.5754C78.8225 60.7328 81.3643 63.8903 83.9078 67.0478C84.9839 64.2295 86.0583 61.4112 87.1344 58.5913C87.2626 58.2538 87.3941 57.8994 87.3452 57.5416C87.3014 57.2243 87.1209 56.9459 86.9438 56.6792C84.4593 52.9379 81.8501 49.2809 79.1059 45.7251C77.4412 43.5667 75.6988 41.4201 73.4859 39.8304C71.1938 38.1799 68.3754 37.3074 65.6835 36.6577Z" fill="#FB7C85"/>
<path d="M78.1513 75.0537C78.1563 75.2714 77.9893 75.4553 77.8089 75.5751C77.4766 75.7928 77.0769 75.8755 76.6839 75.9295C74.9044 76.1709 73.0576 75.8874 71.4316 75.1263C72.0928 76.0173 72.7523 76.9067 73.4134 77.7977C73.5011 77.9158 73.5939 78.0576 73.5551 78.1994C73.5248 78.3141 73.4185 78.3884 73.319 78.4508C73.1841 78.5335 73.0424 78.6077 72.899 78.6736C72.1366 79.028 71.2731 79.163 70.4399 79.0516C68.6621 78.8136 67.1593 77.5176 65.3799 77.2813C64.4809 77.1598 63.5701 77.3201 62.6627 77.3724C61.7553 77.4231 60.7888 77.3488 60.0467 76.8257C59.8679 76.7008 59.7009 76.5455 59.6199 76.343C59.4125 75.8334 59.8055 75.2967 60.1243 74.8478C60.2238 74.7077 60.3165 74.5643 60.4042 74.4175C60.8647 73.6581 61.1784 72.8126 61.3252 71.9367C62.3051 71.8776 63.5482 71.5469 64.4944 71.2921C65.8724 70.9225 67.355 70.3538 68.6655 70.9157C68.9708 71.0474 69.2491 71.2347 69.5257 71.4203C71.8162 72.9611 74.3158 74.5035 77.0769 74.5018C77.5272 74.5018 78.1428 74.6031 78.1513 75.0537Z" fill="#FFB9A3"/>
<path d="M72.899 78.6737C72.1366 79.0281 71.2731 79.1631 70.4399 79.0517C68.6621 78.8138 67.1593 77.5177 65.3799 77.2814C64.4809 77.1599 63.5701 77.3203 62.6627 77.3726C61.7553 77.4232 60.7888 77.3489 60.0467 76.8258C59.8679 76.7009 59.7009 76.5457 59.6199 76.3431C59.4125 75.8335 59.8055 75.2968 60.1243 74.8479C60.2238 74.7079 60.3165 74.5644 60.4042 74.4176C61.0519 74.8834 62.4063 75.4538 64.9886 75.1348C69.0787 74.6286 68.2354 76.9912 71.1449 77.835C72.081 78.1067 72.6106 78.4003 72.899 78.6737Z" fill="#FF9B8D"/>
<path d="M68.2253 12.1388C66.4881 6.52078 59.9455 5.24328 54.8501 6.54272C52.3876 7.1705 50.0667 8.47838 48.4459 10.463C46.5315 12.807 45.7725 15.8278 45.3306 18.7609C45.0422 20.6729 44.8921 22.6102 44.4468 24.4953C44.187 25.5956 43.6068 26.5659 43.2138 27.6207C43.1278 27.8502 43.4955 27.9498 43.5798 27.7219C43.875 26.9288 44.3102 26.193 44.5902 25.3981C45.0135 24.1999 45.1602 22.8752 45.3289 21.6213C45.7287 18.6478 46.0339 15.5882 47.3731 12.856C49.7328 8.04299 55.2043 5.94869 60.3368 6.57141C63.7827 6.98824 66.7917 8.79227 67.8576 12.24C67.9318 12.4729 68.2978 12.3733 68.2253 12.1388Z" fill="#4E5567"/>
<path d="M55.7541 20.894C53.9967 20.3641 53.1179 21.0763 52.9071 22.3167C52.6946 23.5554 53.8196 24.8413 55.0744 24.7974C55.1959 26.3264 55.4134 27.8705 56.0308 29.2746C56.6464 30.6787 57.7056 31.9427 59.1224 32.5266C60.7011 33.1797 62.6306 32.8776 63.9361 31.7756C64.459 31.3334 64.879 30.7833 65.2753 30.2247C66.4863 28.5169 67.5371 26.6521 67.9976 24.6084C68.458 22.5647 68.2759 20.3169 67.1678 18.5398C67.048 18.3475 66.908 18.1534 66.7056 18.0504C66.4172 17.9036 66.0714 17.9745 65.7594 18.0555C62.3895 18.9432 59.2371 20.9041 55.7541 20.894Z" fill="#FFB9A3"/>
<path d="M68.8224 13.4568C69.0737 14.3496 69.3267 15.2592 69.2913 16.1857C69.2559 17.1122 68.8815 18.0741 68.1123 18.5922C67.4984 19.0056 66.7259 19.085 66.0259 19.3229C64.6075 19.8039 63.5111 20.9143 62.4047 21.9252C61.3573 22.882 60.0417 23.8355 58.6519 23.5571C57.3734 23.3005 56.5284 22.0838 56.0072 20.8873C55.7272 20.246 55.4978 19.5339 55.6614 18.8538C55.7559 18.4622 55.9752 18.1112 56.218 17.7906C57.6163 15.9545 59.8848 14.9436 62.1635 14.5926C64.4439 14.2416 66.7681 14.4778 69.0619 14.7158L68.8224 13.4568Z" fill="#3F4553"/>
<path d="M56.0391 20.9565C56.5316 23.8507 59.8375 25.2885 62.2663 23.5857C63.4199 22.7774 64.1638 21.5471 65.1707 20.5835C66.24 19.5608 68.1055 19.1187 68.4023 17.48C68.4462 17.2404 68.0802 17.1391 68.0363 17.3788C67.7698 18.8419 66.0646 19.2638 65.0746 20.1532C64.2768 20.8704 63.6611 21.7614 62.9106 22.5259C61.9087 23.5469 60.6167 24.1916 59.1594 23.8743C57.6752 23.5503 56.6531 22.3184 56.4035 20.8552C56.3647 20.6156 55.9987 20.7185 56.0391 20.9565Z" fill="#4E5567"/>
<path d="M119.515 82.523C119.49 82.5736 119.463 82.6243 119.436 82.6749C119.422 82.7036 119.407 82.7306 119.392 82.7593C119.307 82.9213 119.218 83.0833 119.124 83.2419L47.8184 90.5289L42.7449 91.047L42.7466 91.0791L42.8562 93.3607L43.0046 96.4642L52.6641 95.3183L114.398 87.9975C114.249 88.092 114.099 88.1832 113.945 88.2726C113.608 88.4734 113.259 88.6675 112.9 88.8548L42.7247 97.1763C42.7128 97.178 42.6994 97.1797 42.6859 97.1797C42.6066 97.1797 42.529 97.151 42.4683 97.0987C42.3958 97.0396 42.3536 96.9519 42.3485 96.8574L42.0567 90.7601C42.0534 90.696 42.0685 90.6352 42.0972 90.5829C42.1478 90.4884 42.244 90.4192 42.3586 90.4074L119.515 82.523Z" fill="#6737C3"/>
<path d="M42.7247 90.809C42.6926 90.9694 42.5509 91.0807 42.3941 91.0807C42.3722 91.0807 42.3502 91.079 42.3283 91.0757L42.104 91.0318L16.2475 85.915V85.9134L15.9236 85.8509L15.922 85.8492C15.7752 85.6737 15.6234 85.4965 15.4666 85.3176C15.5323 85.1894 15.6774 85.1134 15.8292 85.1438L42.4582 90.4125C42.642 90.4496 42.7601 90.6268 42.7247 90.809Z" fill="#6737C3"/>
<path d="M43.0165 96.9114C42.9828 97.07 42.8428 97.1797 42.686 97.1797C42.664 97.1797 42.6404 97.1763 42.6168 97.1729L20.272 92.5118C20.1556 92.2857 20.0392 92.0629 19.9211 91.8402C19.9026 91.8064 19.8857 91.7726 19.8672 91.7389L42.3166 96.4203L42.7551 96.5114C42.9373 96.5502 43.0537 96.7291 43.0165 96.9114Z" fill="#6737C3"/>
<path d="M32.9843 78.9908C32.9894 79.1765 32.8443 79.3334 32.6571 79.3385L10.1891 80.054C9.96645 79.838 9.74719 79.6203 9.52792 79.3992L17.2494 79.1529L17.602 79.141L18.4402 79.1157L24.0652 78.9368L30.3126 78.7377L32.6368 78.6635C32.6571 78.6635 32.6756 78.6635 32.6942 78.6668C32.8527 78.6888 32.9775 78.8238 32.9843 78.9908Z" fill="#6737C3"/>
<path d="M101.627 37.252C101.857 36.2816 101.258 35.3084 100.288 35.0782C99.318 34.8481 98.3453 35.4481 98.1153 36.4184C97.8852 37.3888 98.4849 38.362 99.4547 38.5922C100.425 38.8223 101.397 38.2223 101.627 37.252Z" fill="#D9A5B5"/>
<path d="M99.8721 40.6995C97.7436 40.6995 96.0114 38.9664 96.0114 36.8366C96.0114 34.7069 97.7436 32.9738 99.8721 32.9738C102.001 32.9738 103.733 34.7069 103.733 36.8366C103.735 38.9664 102.002 40.6995 99.8721 40.6995ZM99.8721 33.1408C97.8363 33.1408 96.18 34.798 96.18 36.835C96.18 38.8719 97.8363 40.5291 99.8721 40.5291C101.908 40.5291 103.564 38.8719 103.564 36.835C103.566 34.798 101.91 33.1408 99.8721 33.1408Z" fill="#D9A5B5"/>
<path d="M75.7124 17.151C76.085 17.151 76.387 16.8487 76.387 16.4759C76.387 16.1031 76.085 15.8009 75.7124 15.8009C75.3398 15.8009 75.0377 16.1031 75.0377 16.4759C75.0377 16.8487 75.3398 17.151 75.7124 17.151Z" fill="#D9A5B5"/>
<path d="M11.3157 44.9877C9.93943 44.9877 8.81949 43.8671 8.81949 42.4901C8.81949 41.113 9.93943 39.9924 11.3157 39.9924C12.6921 39.9924 13.812 41.113 13.812 42.4901C13.812 43.8671 12.6921 44.9877 11.3157 44.9877ZM11.3157 40.3299C10.125 40.3299 9.15682 41.2986 9.15682 42.4901C9.15682 43.6815 10.125 44.6502 11.3157 44.6502C12.5065 44.6502 13.4747 43.6815 13.4747 42.4901C13.4747 41.2986 12.5065 40.3299 11.3157 40.3299Z" fill="#D9A5B5"/>
<path d="M32.3669 15.8008C32.3669 16.3645 31.9099 16.8218 31.3465 16.8218C30.7832 16.8218 30.3261 16.3645 30.3261 15.8008C30.3261 15.2372 30.7832 14.7798 31.3465 14.7798C31.9115 14.7815 32.3669 15.2372 32.3669 15.8008Z" fill="#D9A5B5"/>
<path d="M127.643 56.8953L124.346 64.319L120.844 72.2068L119.903 74.3247L117.243 80.314L77.3333 81.3822L79.4669 76.3532L88.7317 54.5192C89.236 53.3328 90.3627 52.5295 91.6479 52.4384C96.2576 52.1178 107.587 51.4191 116.818 51.5963C119.871 51.6537 122.696 51.8089 124.97 52.1042C125.772 52.2089 126.459 52.5785 126.968 53.1067C127.899 54.0652 128.243 55.5452 127.643 56.8953Z" fill="#FEECD6"/>
<path d="M76.0902 81.443L75.7765 81.3198L77.9101 75.901L87.1766 53.8476C87.7079 52.5853 88.8802 51.7398 90.2362 51.6436C94.7278 51.328 106.173 50.6142 115.421 50.7931C118.719 50.8555 121.466 51.0293 123.592 51.3078C124.403 51.4141 125.128 51.782 125.69 52.3709C126.72 53.4426 126.999 55.0171 126.397 56.3823L118.656 73.9839L118.348 73.8472L126.088 56.2457C126.634 55.007 126.381 53.5776 125.445 52.6038C124.936 52.0706 124.28 51.7381 123.546 51.6419C121.434 51.3651 118.697 51.193 115.413 51.1306C106.179 50.9517 94.7447 51.6655 90.2582 51.9811C89.0303 52.0689 87.9677 52.835 87.4853 53.9792L78.2205 76.0292L76.0902 81.443Z" fill="#FEECD6"/>
<path d="M106.68 67.8498C108.342 66.3197 108.86 64.1787 107.838 63.0679C106.816 61.9571 104.64 62.297 102.979 63.8272C101.318 65.3574 100.8 67.4983 101.822 68.6092C102.844 69.72 105.019 69.38 106.68 67.8498Z" fill="#B29EEF"/>
<path d="M76.7784 58.156C75.9857 56.5866 74.9349 55.1504 74.3057 53.5C74.1911 53.1979 73.7019 53.3295 73.8183 53.635C74.466 55.3293 75.5286 56.8009 76.3432 58.4125C76.4883 58.7028 76.9251 58.4463 76.7784 58.156Z" fill="white"/>
<path d="M69.8411 73.6784C70.9004 76.036 74.4862 76.4359 76.6822 76.1811C77.0027 76.144 77.0061 75.6377 76.6822 75.6748C74.6599 75.9094 71.263 75.6174 70.278 73.4236C70.1447 73.1266 69.7079 73.3848 69.8411 73.6784Z" fill="white"/>
<path d="M61.5715 71.6785C61.2966 67.0731 60.8631 62.4778 60.2711 57.9028C59.7921 54.1968 59.34 50.474 58.4377 46.8406C57.9873 45.0282 57.424 43.2427 56.7055 41.5163C56.0258 39.881 54.9159 38.0972 55.6058 36.2729C53.7977 37.5724 52.6069 38.104 50.534 38.914C48.8642 39.5671 47.1303 40.0498 45.4757 40.7417C44.5143 41.1433 43.5715 41.6209 42.7872 42.3061C41.9 43.0807 41.2489 44.0865 40.64 45.094C39.9519 46.2331 39.2992 47.3958 38.7392 48.6042C37.8402 50.5432 37.1858 52.5835 36.4386 54.585C35.1027 58.1593 33.465 61.6171 31.6738 64.9872C30.5437 67.1136 29.3293 69.272 29.0122 71.66C28.6951 74.0479 29.5064 76.7649 31.5979 77.9564C32.5525 78.4998 33.6708 78.6753 34.7671 78.758C42.7737 79.3571 50.3636 78.2568 59.4126 77.0805C59.6605 77.0484 59.1815 77.175 59.4126 77.0805C59.6791 76.9725 59.8325 76.7008 59.959 76.4426C60.6894 74.9508 61.4652 73.3391 61.5715 71.6785Z" fill="#FB7C85"/>
<path d="M48.5049 58.0951C47.2669 61.1952 46.2465 64.373 45.4437 67.6131C45.4099 67.7498 45.4875 67.8832 45.6208 67.9253C49.8813 69.2619 54.361 69.4492 58.716 70.3319C59.308 70.4517 61.1465 70.612 61.2797 71.2718C61.3725 71.7342 61.1718 72.3721 61.0773 72.821C60.7467 74.3989 60.18 76.0393 59.0752 77.2459C58.856 77.4855 59.2119 77.845 59.4328 77.6037C60.5764 76.3532 61.192 74.6808 61.5445 73.0472C61.7351 72.1663 62.1838 70.8904 61.1532 70.423C60.0569 69.9251 58.6569 69.7918 57.478 69.5893C56.2029 69.3699 54.921 69.1944 53.6391 69.0155C50.9793 68.6443 48.3228 68.2443 45.754 67.4376C45.813 67.5406 45.8721 67.6452 45.9311 67.7498C46.7323 64.508 47.7544 61.3319 48.9924 58.2318C49.1121 57.9281 48.623 57.7964 48.5049 58.0951Z" fill="white"/>
<path d="M45.6528 67.4361C44.2529 67.647 42.9153 68.047 41.6251 68.6241C41.3282 68.7574 41.5846 69.1928 41.8797 69.0612C43.1312 68.5009 44.4317 68.128 45.7877 67.9238C46.1082 67.8765 45.9716 67.3871 45.6528 67.4361Z" fill="white"/>
<path d="M63.1332 41.4185C61.9458 41.8488 60.6302 41.7172 59.3905 41.4691C58.161 41.2227 56.8319 40.7806 56.2011 39.6955C55.405 38.3302 56.0476 36.6257 56.4271 35.0917C56.9145 33.1324 56.9331 31.0584 56.4844 29.0906L61.1464 29.9901L62.7284 30.2956C62.6863 32.3291 63.2058 34.3711 64.2161 36.1363C64.3122 36.3034 64.4117 36.4688 64.5096 36.6359C64.8772 37.2552 65.2314 37.888 65.2686 38.5968C65.336 39.8592 64.3223 40.9881 63.1332 41.4185Z" fill="#FFB9A3"/>
<path d="M64.5096 36.6358C60.1462 36.3151 58.4832 33.2792 57.9333 31.8211C58.2943 32.1097 58.6923 32.3493 59.1224 32.5265C60.32 33.021 61.7182 32.967 62.8921 32.4337C63.1131 33.7331 63.5617 34.9921 64.2161 36.1363C64.3123 36.3033 64.4118 36.4687 64.5096 36.6358Z" fill="#FF9B8D"/>
<mask id="path-43-inside-1" fill="white">
<path d="M99.8721 24.578C94.5321 24.578 90.1873 20.2308 90.1873 14.8879C90.1873 9.54498 94.5321 5.19775 99.8721 5.19775C105.212 5.19775 109.557 9.54498 109.557 14.8879C109.557 20.2308 105.214 24.578 99.8721 24.578ZM99.8721 5.36651C94.6249 5.36651 90.356 9.6378 90.356 14.8879C90.356 20.138 94.6249 24.4092 99.8721 24.4092C105.119 24.4092 109.388 20.138 109.388 14.8879C109.388 9.6378 105.119 5.36651 99.8721 5.36651Z"/>
</mask>
<path d="M99.8721 24.578C94.5321 24.578 90.1873 20.2308 90.1873 14.8879C90.1873 9.54498 94.5321 5.19775 99.8721 5.19775C105.212 5.19775 109.557 9.54498 109.557 14.8879C109.557 20.2308 105.214 24.578 99.8721 24.578ZM99.8721 5.36651C94.6249 5.36651 90.356 9.6378 90.356 14.8879C90.356 20.138 94.6249 24.4092 99.8721 24.4092C105.119 24.4092 109.388 20.138 109.388 14.8879C109.388 9.6378 105.119 5.36651 99.8721 5.36651Z" fill="#F9F7F1"/>
<path d="M99.8721 19.578C97.2962 19.578 95.1873 17.472 95.1873 14.8879H85.1873C85.1873 22.9896 91.7681 29.578 99.8721 29.578V19.578ZM95.1873 14.8879C95.1873 12.3038 97.2962 10.1978 99.8721 10.1978V0.197754C91.7681 0.197754 85.1873 6.78615 85.1873 14.8879H95.1873ZM99.8721 10.1978C102.448 10.1978 104.557 12.3038 104.557 14.8879H114.557C114.557 6.78615 107.976 0.197754 99.8721 0.197754V10.1978ZM104.557 14.8879C104.557 17.4725 102.449 19.578 99.8721 19.578V29.578C107.978 29.578 114.557 22.989 114.557 14.8879H104.557ZM99.8721 0.366513C91.8609 0.366513 85.356 6.87897 85.356 14.8879H95.356C95.356 12.3966 97.3889 10.3665 99.8721 10.3665V0.366513ZM85.356 14.8879C85.356 22.8968 91.8609 29.4092 99.8721 29.4092V19.4092C97.3889 19.4092 95.356 17.3791 95.356 14.8879H85.356ZM99.8721 29.4092C107.883 29.4092 114.388 22.8968 114.388 14.8879H104.388C104.388 17.3791 102.355 19.4092 99.8721 19.4092V29.4092ZM114.388 14.8879C114.388 6.87897 107.883 0.366513 99.8721 0.366513V10.3665C102.355 10.3665 104.388 12.3966 104.388 14.8879H114.388Z" fill="#F9F7F1" mask="url(#path-43-inside-1)"/>
<mask id="path-45-inside-2" fill="white">
<path d="M99.7709 14.9858L101.043 7.50977L101.21 7.53845L99.9766 14.79C101.592 14.5858 103.952 14.2686 104.116 14.1892L104.146 14.2534L104.16 14.2551L104.222 14.1926L104.244 14.2837C104.224 14.3445 104.195 14.4289 99.8856 14.9706L99.7709 14.9858Z"/>
</mask>
<path d="M99.7709 14.9858L101.043 7.50977L101.21 7.53845L99.9766 14.79C101.592 14.5858 103.952 14.2686 104.116 14.1892L104.146 14.2534L104.16 14.2551L104.222 14.1926L104.244 14.2837C104.224 14.3445 104.195 14.4289 99.8856 14.9706L99.7709 14.9858Z" fill="#F9F7F1"/>
<path d="M99.7709 14.9858L94.8417 14.1473L93.7044 20.8328L100.427 19.9425L99.7709 14.9858ZM101.043 7.50977L101.889 2.58197L96.9533 1.73391L96.1134 6.67127L101.043 7.50977ZM101.21 7.53845L106.139 8.37655L106.975 3.45584L102.056 2.61066L101.21 7.53845ZM99.9766 14.79L95.0474 13.9519L93.9178 20.5955L100.604 19.7506L99.9766 14.79ZM104.116 14.1892L108.635 12.0498L106.476 7.48857L101.934 9.69009L104.116 14.1892ZM104.146 14.2534L99.6269 16.3928L100.802 18.874L103.526 19.2147L104.146 14.2534ZM104.16 14.2551L103.539 19.2164L105.967 19.52L107.696 17.7896L104.16 14.2551ZM104.222 14.1926L109.083 13.0229L106.995 4.34478L100.685 10.6581L104.222 14.1926ZM104.244 14.2837L108.988 15.8641L109.44 14.5059L109.105 13.114L104.244 14.2837ZM99.8856 14.9706L99.2619 10.0096L99.2455 10.0117L99.2291 10.0139L99.8856 14.9706ZM104.7 15.8243L105.972 8.34826L96.1134 6.67127L94.8417 14.1473L104.7 15.8243ZM100.196 12.4376L100.363 12.4663L102.056 2.61066L101.889 2.58197L100.196 12.4376ZM96.2803 6.70036L95.0474 13.9519L104.906 15.6281L106.139 8.37655L96.2803 6.70036ZM100.604 19.7506C101.425 19.6467 102.445 19.513 103.29 19.3936C103.708 19.3346 104.111 19.2751 104.434 19.2222C104.591 19.1966 104.77 19.166 104.938 19.1324C105.018 19.1163 105.143 19.0903 105.284 19.0548C105.291 19.0529 105.771 18.9433 106.297 18.6884L101.934 9.69009C102.253 9.53565 102.514 9.45284 102.592 9.42827C102.705 9.39277 102.793 9.36986 102.836 9.35887C102.885 9.34657 102.922 9.33834 102.94 9.33422C102.96 9.3298 102.973 9.32722 102.977 9.32652C102.978 9.32624 102.933 9.33498 102.82 9.35346C102.604 9.38875 102.286 9.43627 101.891 9.49195C101.112 9.6021 100.144 9.72913 99.3498 9.82947L100.604 19.7506ZM99.5965 16.3286L99.6269 16.3928L108.665 12.114L108.635 12.0498L99.5965 16.3286ZM103.526 19.2147L103.539 19.2164L104.78 9.29371L104.767 9.29202L103.526 19.2147ZM107.696 17.7896L107.758 17.7271L100.685 10.6581L100.623 10.7205L107.696 17.7896ZM99.3607 15.3623L99.3826 15.4534L109.105 13.114L109.083 13.0229L99.3607 15.3623ZM99.5002 12.7034C99.4905 12.7326 99.6279 12.2792 99.9152 11.7845C100.234 11.2364 100.631 10.7936 101.048 10.4501C101.429 10.1357 101.782 9.94175 102.008 9.83124C102.238 9.71864 102.429 9.64819 102.543 9.60949C102.661 9.56883 102.754 9.54285 102.806 9.52918C102.86 9.51482 102.896 9.50661 102.907 9.50408C102.927 9.49975 102.902 9.50574 102.807 9.52232C102.395 9.59487 101.423 9.73799 99.2619 10.0096L100.509 19.9315C102.658 19.6615 103.855 19.4915 104.539 19.3713C104.805 19.3245 105.295 19.2366 105.778 19.0715C105.98 19.0025 106.689 18.7588 107.408 18.1669C107.835 17.8142 108.24 17.3628 108.563 16.8066C108.714 16.5466 108.817 16.3141 108.887 16.1386C108.921 16.0538 108.946 15.9834 108.963 15.9375C108.971 15.9145 108.977 15.8956 108.981 15.8837C108.983 15.8776 108.985 15.8727 108.986 15.8695C108.986 15.8683 108.987 15.8664 108.987 15.8657C108.987 15.865 108.988 15.8643 108.988 15.8641L99.5002 12.7034ZM99.2291 10.0139L99.1144 10.0291L100.427 19.9425L100.542 19.9273L99.2291 10.0139Z" fill="#F9F7F1" mask="url(#path-45-inside-2)"/>
<path d="M132.634 28.2418C132.244 27.0841 131.758 25.9095 130.859 25.0826C129.152 23.5115 126.321 23.6853 124.423 25.0219C122.526 26.3584 121.441 28.5894 120.874 30.839C120.355 34.4217 120.486 36.9599 121.566 40.7299C122.092 42.566 122.902 44.3886 124.315 45.6746C125.728 46.9605 127.845 47.6001 129.609 46.8694C131.293 46.1724 132.305 44.4359 132.919 42.7213C134.578 38.0905 134.201 32.9029 132.634 28.2418Z" fill="#D196A8"/>
<path d="M46.9177 56.9594C47.2095 57.1923 47.422 57.5012 47.7003 57.7475C47.9651 57.9821 48.2721 58.1593 48.5791 58.3331C48.8641 58.4935 49.1188 58.0564 48.8338 57.8961C48.5335 57.7273 48.2299 57.5585 47.9803 57.3189C47.7374 57.0843 47.5401 56.8126 47.2753 56.6017C47.0223 56.4008 46.663 56.7569 46.9177 56.9594Z" fill="white"/>
<path d="M74.2888 53.7361C74.6379 53.24 74.9753 52.7354 75.3008 52.2241C75.4762 51.949 75.0394 51.6941 74.8639 51.9692C74.5384 52.4806 74.2011 52.9852 73.8519 53.4813C73.6647 53.748 74.1033 54.0011 74.2888 53.7361Z" fill="white"/>
<path d="M55.039 24.9678C55.2414 27.4452 55.8401 30.9318 58.1728 32.3207C59.2354 32.9535 60.6589 33.4058 61.9003 33.1999C63.1602 32.9906 64.0778 32.0574 64.8435 31.1056C64.9953 30.9166 64.7288 30.6466 64.5754 30.8373C63.8535 31.7351 63.0118 32.6261 61.8227 32.8185C60.6033 33.0159 59.1342 32.5299 58.1273 31.8448C56.1336 30.4879 55.6023 27.1921 55.4202 24.9695C55.3982 24.7248 55.0187 24.7231 55.039 24.9678Z" fill="#FF9B8D"/>
<path d="M46.3088 84.5919H38.8875L37.3391 74.5322H48.0208L46.3088 84.5919Z" fill="white"/>
<path d="M42.588 85.8391C44.6429 85.8391 46.3088 85.2807 46.3088 84.592C46.3088 83.9032 44.6429 83.3448 42.588 83.3448C40.5331 83.3448 38.8672 83.9032 38.8672 84.592C38.8672 85.2807 40.5331 85.8391 42.588 85.8391Z" fill="white"/>
<path d="M42.6808 75.7794C45.6309 75.7794 48.0225 75.2211 48.0225 74.5323C48.0225 73.8435 45.6309 73.2852 42.6808 73.2852C39.7307 73.2852 37.3391 73.8435 37.3391 74.5323C37.3391 75.2211 39.7307 75.7794 42.6808 75.7794Z" fill="white"/>
<path d="M42.6808 75.5702C45.1344 75.5702 47.1235 75.1055 47.1235 74.5323C47.1235 73.9591 45.1344 73.4944 42.6808 73.4944C40.2272 73.4944 38.2381 73.9591 38.2381 74.5323C38.2381 75.1055 40.2272 75.5702 42.6808 75.5702Z" fill="#400F58"/>
<path d="M38.0391 75.5988C36.285 75.8452 34.5292 76.0916 32.7751 76.3397C32.377 76.3953 32.3163 76.9404 32.5524 77.1851C33.7567 78.4491 34.9576 79.7165 36.1669 80.9755C37.2093 82.0623 38.282 83.1052 39.5925 83.8629C40.1576 84.1903 40.6669 83.3162 40.1036 82.9888C38.7813 82.2226 37.7288 81.1442 36.6814 80.0473C35.5429 78.8558 34.4061 77.661 33.2693 76.4679C33.195 76.7497 33.1208 77.0316 33.0466 77.3134C34.8007 77.067 36.5566 76.8206 38.3107 76.5725C38.9499 76.4848 38.6767 75.5094 38.0391 75.5988Z" fill="white"/>
<path d="M41.3078 74.507C41.1493 74.3112 41.0009 74.1019 40.8744 73.8826C40.6821 73.5535 40.6416 73.5045 40.7698 73.1316C40.898 72.7569 41.1965 72.6388 41.4107 72.3317C41.6418 72.0026 41.7228 71.606 41.4698 71.2651C41.178 70.8736 40.5809 70.774 40.1306 70.8314C40.0226 70.8449 39.9197 70.8787 39.8168 70.9074C39.4879 70.9968 38.8875 70.931 38.6632 70.607C38.3275 70.1226 39.181 69.4088 39.5031 69.1202C39.6853 68.9565 39.4171 68.6882 39.2349 68.8519C38.7323 69.3025 38.1538 69.7682 38.2584 70.5141C38.3427 71.1166 38.734 71.5048 39.3463 71.4339C39.8033 71.3799 41.7497 70.7892 41.1105 72.0515C40.9132 72.4414 40.4375 72.5797 40.2857 73.0016C40.0631 73.621 40.6838 74.3348 41.0397 74.7753C41.1931 74.966 41.4596 74.696 41.3078 74.507Z" fill="white"/>
<path d="M42.9862 73.8472C42.7821 73.616 42.4582 73.297 42.4161 72.9679C42.33 72.2929 42.7989 72.2743 43.1076 71.9841C43.2661 71.8356 43.3775 71.6938 43.3994 71.4744C43.4685 70.7505 42.6387 70.6762 42.1782 70.4146C40.8137 69.6383 41.4901 68.1819 42.131 67.2065C42.5746 66.5332 42.9642 65.8834 42.9136 65.0498C42.8985 64.8068 42.519 64.8051 42.5341 65.0498C42.6488 66.8943 39.967 68.317 41.3956 70.2206C41.6351 70.5395 41.9168 70.7083 42.2744 70.8635C42.7534 71.0728 43.0182 71.3884 42.5965 71.8811C42.5038 71.9891 42.3435 72.0364 42.244 72.1545C41.6874 72.8178 42.2558 73.5957 42.7163 74.1155C42.8799 74.2978 43.1481 74.0294 42.9862 73.8472Z" fill="white"/>
<path d="M44.5479 74.1408C44.4063 73.837 44.2072 73.4945 44.526 73.2076C44.612 73.1316 44.7402 73.108 44.8397 73.0574C45.0388 72.9544 45.1889 72.8312 45.2597 72.6119C45.4048 72.163 45.1096 71.7546 44.6863 71.6297C44.4518 71.5605 44.3506 71.9267 44.5851 71.9959C44.8819 72.0836 45.0455 72.4515 44.7487 72.681C44.6795 72.7351 44.5142 72.7772 44.4299 72.8262C44.2882 72.9055 44.1634 72.9949 44.0791 73.1367C43.8429 73.5248 44.047 73.9653 44.2191 74.3349C44.3236 74.5526 44.6508 74.3602 44.5479 74.1408Z" fill="white"/>
</g>
<defs>
<clipPath id="clip0">
<rect width="134" height="105" fill="white"/>
</clipPath>
</defs>
</svg>
