<svg width="177" height="86" viewBox="0 0 177 86" fill="none" xmlns="http://www.w3.org/2000/svg">
<path d="M119.824 33.5822C120.697 38.9182 74.1508 37.5303 65.9991 35.4814C61.3607 34.5109 66.7917 11.9317 63.8772 4.56763C62.1984 -2.32684 114.522 -0.511042 118.384 4.05628C121.358 7.56961 118.596 26.0685 119.824 33.5822Z" fill="#FBF5EB"/>
<path d="M72.3717 20.6002C72.5552 19.6784 72.3198 18.6175 72.4514 18.1061C72.749 16.9582 72.8979 16.3842 72.7213 16.2207C72.0048 15.5529 71.5064 18.5931 70.8314 18.5688C70.5614 18.4192 70.3329 17.5009 70.2429 16.8399C70.1356 16.0503 70.4368 13.7127 69.966 13.7545C69.568 13.7892 69.3014 15.4903 69.3118 16.0607C69.298 15.4659 69.5368 12.857 68.9068 13.0761C68.4465 13.2362 68.4395 16.2173 68.4499 16.6138C68.4361 16.4225 68.5434 13.5631 68.0865 13.7614C67.5603 13.9875 67.6676 16.5616 67.678 16.9547C67.6573 16.7147 67.8234 14.2623 67.2661 14.5302C66.92 14.6971 66.778 17.073 66.7884 17.4695C66.83 19.2158 68.4603 23.4283 68.7545 23.9153L71.4614 23.9709C71.4614 23.9709 71.8421 22.8474 71.9529 22.2978C72.0948 21.6055 72.3025 20.9446 72.3717 20.6002Z" fill="#FDBCA0"/>
<path d="M86.8337 41.4298C87.1625 43.9552 83.6423 52.7211 84.3934 57.0728C91.6728 58.6103 108.842 55.8518 110.178 50.067C110.285 46.1502 110.146 41.7672 110.223 39.1583C110.416 32.3404 109.163 20.6559 97.8688 24.2736C97.2907 24.1519 97.3115 23.2961 91.6174 23.6857C86.1103 24.0545 85.8437 33.8814 86.8337 41.4298Z" fill="#8E97FD"/>
<path d="M67.6952 24.0962C65.4072 35.8154 72.4927 44.5952 82.382 44.1256C96.432 43.4612 104.892 32.3682 101.05 24.6702L97.2662 24.7258C86.0546 22.757 83.372 31.1855 79.9971 30.8793C77.5707 30.6602 73.5658 28.5244 72.7419 23.5814C72.5619 22.503 67.8786 23.1605 67.6952 24.0962Z" fill="#8E97FD"/>
<path d="M94.1925 24.837C92.3164 29.3452 84.9539 31.4776 86.1342 24.8196C86.4977 22.7638 83.8116 21.1359 83.5693 19.6749C83.0189 16.3494 86.3246 15.2815 87.0515 12.2517C88.1453 7.68782 89.9557 0.111557 102.226 7.26344C105.958 9.43405 94.1925 24.837 94.1925 24.837Z" fill="#3F414E"/>
<path d="M100.219 16.5825L100.24 25.0215C99.8068 27.4495 93.8808 27.8078 94.1924 25.0423L94.1751 21.4177L100.219 16.5825Z" fill="#F0A38B"/>
<path d="M90.3054 16.4573C90.2674 16.9721 90.2016 17.4417 90.2293 17.9461C90.2674 18.6035 90.4093 19.2714 90.6585 19.8976C91.3231 21.5603 92.7077 23.9222 94.4419 23.964C97.5018 24.0336 101.469 20.562 100.977 16.0781C100.548 12.1648 97.256 6.16428 96.0653 8.47403C94.2169 12.0604 92.1435 10.6794 90.8212 12.8953C90.5443 13.3579 90.2881 13.9423 90.3089 15.2885C90.3158 15.7268 90.3297 16.1025 90.3054 16.4573Z" fill="#FDBCA0"/>
<path d="M96.6053 18.6662C96.5707 19.6228 97.3114 20.4263 98.2633 20.4646C99.2152 20.4994 100.015 19.7549 100.053 18.7983C100.088 17.8417 99.3468 17.0382 98.3949 16.9999C97.443 16.9617 96.6434 17.7096 96.6053 18.6662Z" fill="#F4A07B"/>
<path d="M90.2293 17.9461C90.2674 18.6035 90.4162 19.2679 90.6585 19.8976C91.4443 19.7584 92.0569 19.0871 92.0881 18.2522C92.1227 17.2956 91.382 16.4921 90.4301 16.4538C90.3885 16.4538 90.347 16.4538 90.3054 16.4538C90.2674 16.9721 90.2016 17.4417 90.2293 17.9461Z" fill="#F4A07B"/>
<path d="M95.4248 16.4503C95.4248 16.4503 96.1171 17.6052 98.2459 16.2973C98.5125 16.1338 97.3321 16.499 96.6017 16.5581C95.8541 16.6138 95.2379 16.1999 95.4248 16.4503Z" fill="#002869"/>
<path d="M90.6723 15.706C90.8453 15.9912 92.3788 17.1774 92.943 16.1269C93.0918 15.852 92.4999 16.4295 91.8111 16.1756C91.105 15.9181 90.5615 15.5251 90.6723 15.706Z" fill="#002869"/>
<path d="M94.4593 19.2331C94.0059 19.254 93.3067 19.1426 93.189 18.6069C93.1371 18.3704 93.2582 18.1687 93.3655 17.9669C93.6424 17.4486 93.8882 16.9755 93.8709 16.3668C93.8674 16.2868 93.992 16.2694 93.9955 16.3494C94.0128 16.9303 93.812 17.4034 93.542 17.9078C93.3828 18.2034 93.1924 18.4643 93.4347 18.7878C93.6563 19.08 94.0993 19.1287 94.442 19.1113C94.5216 19.1079 94.5389 19.2296 94.4593 19.2331Z" fill="#F27979"/>
<path d="M95.7608 20.4645C95.8958 20.1932 94.4662 21.1498 92.9086 20.301C92.2405 19.9357 93.8432 21.9046 95.7608 20.4645Z" fill="#F27979"/>
<path fill-rule="evenodd" clip-rule="evenodd" d="M0.5 74.7718V53.287C1.32898 48.8905 2.66844 45.1851 4.49518 43.4875C4.66441 43.3291 4.84133 43.1809 5.02594 43.0604C12.7102 35.0496 20.4507 31 38.4064 37.4981C51.9356 34.5646 60.5379 35.911 69.4732 37.3096C77.2848 38.5322 85.3508 39.7947 97.1859 38.2721L97.2076 38.2728C97.3071 38.276 97.4003 38.279 97.4936 38.279C101.697 38.3642 104.524 37.7104 107.109 37.1124C111.737 36.0418 115.591 35.1503 125.192 39.0001C125.38 39.0086 125.785 38.8688 126.388 38.6609C128.95 37.7777 135.072 35.6668 143.148 38.5001C161.426 35.019 167.587 39.0001 172.076 42.0001C173.927 43.4434 175.391 45.9289 176.5 48.9843V81.7475C176.151 82.2038 175.771 82.5226 175.361 82.6824C167.568 85.729 135.884 85.5078 106.201 85.3006C91.1447 85.1956 76.603 85.0941 65.9557 85.4245C65.2249 85.4486 64.4942 85.4692 63.7634 85.4899C50.4944 85.8861 37.71 86.1031 27.2948 85.9515C26.0564 85.9343 24.8487 85.9102 23.6795 85.8792C12.2412 85.5967 4.31057 84.7837 2.83367 83.1406C2.2538 82.4948 1.23915 78.7138 0.5 74.7718Z" fill="#3F414E"/>
<path d="M83.1582 40.0335C84.5186 39.9848 85.8789 39.9396 87.2393 39.8909C87.807 39.87 87.8104 38.9795 87.2393 39.0004C85.8789 39.0491 84.5186 39.0943 83.1582 39.143C82.5906 39.1638 82.5871 40.0543 83.1582 40.0335Z" fill="#656B7B"/>
<path d="M77.9004 74.6172C76.7858 75.3999 75.6678 76.1825 74.5532 76.9652C74.0859 77.2922 74.567 78.0401 75.0343 77.7131C76.1489 76.9304 77.267 76.1478 78.3815 75.3651C78.8488 75.0381 78.3677 74.2902 77.9004 74.6172Z" fill="#656B7B"/>
<path d="M85.5086 45.3765C84.5221 47.0601 83.5321 48.7402 82.5456 50.4238C82.2583 50.9143 82.9748 51.4396 83.2621 50.9456C84.2486 49.262 85.2386 47.5819 86.2251 45.8983C86.5158 45.4113 85.7993 44.8825 85.5086 45.3765Z" fill="#656B7B"/>
<path d="M86.9693 69.9524C87.8935 71.2395 88.9215 72.4396 90.0569 73.5457C90.4653 73.9458 91.0919 73.3162 90.6834 72.9161C89.6034 71.8621 88.6169 70.7281 87.7343 69.5037C87.402 69.041 86.6335 69.4863 86.9693 69.9524Z" fill="#656B7B"/>
<path d="M89.8803 55.1895C89.8803 55.1895 89.8803 58.108 89.8803 59.6385C89.8803 60.2125 90.7664 60.2125 90.7664 59.6385C90.7664 58.1045 90.7664 56.6713 90.7664 55.1895C90.7664 54.5981 89.8803 54.5981 89.8803 55.1895C89.8803 55.1895 89.8803 54.5981 89.8803 55.1895Z" fill="#656B7B"/>
<path d="M68.7033 63.7188C67.5645 63.3953 66.4291 63.0718 65.2903 62.7483C64.7434 62.5918 64.4526 63.4336 65.003 63.5901C66.1418 63.9136 67.2772 64.2371 68.416 64.5606C68.9629 64.7137 69.2537 63.8754 68.7033 63.7188Z" fill="#656B7B"/>
<path d="M72.2306 43.4355C73.5771 44.253 74.8475 45.1783 76.0417 46.2079C76.4743 46.5801 76.9624 45.8357 76.5332 45.467C75.339 44.4374 74.0686 43.5155 72.7221 42.6946C72.2341 42.3989 71.7391 43.1399 72.2306 43.4355Z" fill="#656B7B"/>
<path d="M14.9784 63.9519C14.1615 63.9032 13.3446 63.858 12.5277 63.8128C12.5138 63.5206 12.5069 63.2249 12.5 62.9223C13.3169 62.971 14.1303 63.0162 14.9472 63.0614C15.5115 63.0962 15.5495 63.9867 14.9784 63.9519Z" fill="#656B7B"/>
<path d="M53.5803 73.4275C54.9406 73.4762 56.301 73.5214 57.6613 73.5701C58.229 73.591 58.2324 74.4815 57.6613 74.4606C56.301 74.4119 54.9406 74.3667 53.5803 74.318C53.0091 74.2971 53.0091 73.4066 53.5803 73.4275Z" fill="#656B7B"/>
<path d="M54.6083 51.7144C53.6218 50.0308 52.6319 48.3507 51.6453 46.6671C51.358 46.1766 52.0746 45.6513 52.3619 46.1453C53.3484 47.8289 54.3383 49.509 55.3249 51.1926C55.6156 51.6831 54.8991 52.2084 54.6083 51.7144Z" fill="#656B7B"/>
<path d="M42.348 80.2767C42.0192 80.3011 41.6904 80.3219 41.3615 80.3428C40.78 79.3514 40.1985 78.3635 39.617 77.3721C39.3297 76.8817 40.0462 76.3564 40.3335 76.8504C41.005 77.9948 41.6765 79.1357 42.348 80.2767Z" fill="#656B7B"/>
<path d="M64.2658 52.1284C64.2658 52.1284 64.2658 49.2099 64.2658 47.6794C64.2658 47.1054 65.1519 47.1054 65.1519 47.6794C65.1519 49.2134 65.1519 50.6466 65.1519 52.1284C65.1519 52.7232 64.2658 52.7232 64.2658 52.1284C64.2658 52.1284 64.2658 52.7232 64.2658 52.1284Z" fill="#656B7B"/>
<path d="M48.9109 55.8575C47.7721 56.181 46.6367 56.5045 45.4979 56.828C44.951 56.9845 44.6602 56.1427 45.2106 55.9862C46.3494 55.6627 47.4848 55.3392 48.6236 55.0156C49.167 54.8591 49.4578 55.7009 48.9109 55.8575Z" fill="#656B7B"/>
<path d="M45.5254 68.0879C46.8719 67.2704 48.1422 66.3451 49.3364 65.3155C49.7691 64.9433 50.2572 65.6877 49.8279 66.0564C48.6337 67.086 47.3634 68.0078 46.0169 68.8288C45.5288 69.1245 45.0338 68.387 45.5254 68.0879Z" fill="#656B7B"/>
<path d="M24.9507 80.809C24.3934 80.7916 23.85 80.7672 23.3239 80.7359C22.7181 80.2802 22.1331 79.8002 21.5654 79.2958C21.1397 78.9166 21.6935 78.2244 22.1193 78.6036C23.0192 79.3967 23.9608 80.1341 24.9507 80.809Z" fill="#656B7B"/>
<path d="M34.8331 65.9068C34.1512 67.7365 33.4693 69.5663 32.7874 71.3925C32.5901 71.9247 31.7316 71.6951 31.9324 71.1594C32.6143 69.3297 33.2962 67.5 33.9781 65.6738C34.1789 65.1415 35.0338 65.3711 34.8331 65.9068Z" fill="#656B7B"/>
<path d="M20.849 43.6616C19.551 43.2581 18.2495 42.8511 16.9514 42.4476C16.408 42.2772 16.6399 41.418 17.1833 41.5884C18.4814 41.9919 19.7829 42.3989 21.0809 42.8024C21.6244 42.9729 21.3925 43.8321 20.849 43.6616Z" fill="#656B7B"/>
<path d="M30.0874 47.7558C30.5997 49.6412 31.1155 51.5231 31.6278 53.4084C31.7766 53.9546 30.9493 54.2746 30.8005 53.7215C30.2882 51.8361 29.7724 49.9542 29.2601 48.0689C29.1078 47.5227 29.9351 47.2027 30.0874 47.7558Z" fill="#656B7B"/>
<path d="M23.5939 67.7296C22.365 68.728 21.0601 69.615 19.6755 70.3837C19.1771 70.662 18.734 69.8898 19.2359 69.6115C20.5547 68.881 21.8008 68.0462 22.9743 67.0965C23.4104 66.7382 24.0369 67.3679 23.5939 67.7296Z" fill="#656B7B"/>
<path d="M21.2192 52.9737C21.2192 52.9737 20.4577 55.7878 20.0561 57.2697C19.9073 57.8228 19.0523 57.5897 19.2012 57.0366C19.6027 55.5583 19.9765 54.1738 20.3642 52.7406C20.52 52.1667 21.3715 52.3998 21.2192 52.9737C21.2192 52.9737 21.3715 52.3998 21.2192 52.9737Z" fill="#656B7B"/>
<path d="M36.2108 61.2214C37.3911 61.2109 38.575 61.197 39.7553 61.1866C40.323 61.1796 40.3853 62.0701 39.8142 62.0736C38.6338 62.084 37.45 62.0979 36.2696 62.1084C35.702 62.1153 35.6397 61.2283 36.2108 61.2214Z" fill="#656B7B"/>
<path d="M45.1656 49.0255C43.653 49.4604 42.1853 50.0169 40.7662 50.6952C40.2504 50.9422 39.9769 50.0935 40.4858 49.85C41.905 49.1716 43.3726 48.6151 44.8853 48.1803C45.4322 48.0237 45.716 48.869 45.1656 49.0255Z" fill="#656B7B"/>
<path d="M161.158 40.0335C162.519 39.9848 163.879 39.9396 165.239 39.8909C165.807 39.87 165.81 38.9795 165.239 39.0004C163.879 39.0491 162.519 39.0943 161.158 39.143C160.591 39.1638 160.587 40.0543 161.158 40.0335Z" fill="#656B7B"/>
<path d="M155.9 74.6172C154.786 75.3999 153.668 76.1825 152.553 76.9652C152.086 77.2922 152.567 78.0401 153.034 77.7131C154.149 76.9304 155.267 76.1478 156.382 75.3651C156.849 75.0381 156.368 74.2902 155.9 74.6172Z" fill="#656B7B"/>
<path d="M163.509 45.3765C162.522 47.0601 161.532 48.7402 160.546 50.4238C160.258 50.9143 160.975 51.4396 161.262 50.9456C162.249 49.262 163.239 47.5819 164.225 45.8983C164.516 45.4113 163.799 44.8825 163.509 45.3765Z" fill="#656B7B"/>
<path d="M164.969 69.9524C165.893 71.2395 166.922 72.4396 168.057 73.5457C168.465 73.9458 169.092 73.3162 168.683 72.9161C167.603 71.8621 166.617 70.7281 165.734 69.5037C165.402 69.041 164.634 69.4863 164.969 69.9524Z" fill="#656B7B"/>
<path d="M167.88 55.1895C167.88 55.1895 167.88 58.108 167.88 59.6385C167.88 60.2125 168.766 60.2125 168.766 59.6385C168.766 58.1045 168.766 56.6713 168.766 55.1895C168.766 54.5981 167.88 54.5981 167.88 55.1895C167.88 55.1895 167.88 54.5981 167.88 55.1895Z" fill="#656B7B"/>
<path d="M146.703 63.7188C145.564 63.3953 144.429 63.0718 143.29 62.7483C142.743 62.5918 142.453 63.4336 143.003 63.5901C144.142 63.9136 145.277 64.2371 146.416 64.5606C146.963 64.7137 147.254 63.8754 146.703 63.7188Z" fill="#656B7B"/>
<path d="M150.231 43.4355C151.577 44.253 152.847 45.1783 154.042 46.2079C154.474 46.5801 154.962 45.8357 154.533 45.467C153.339 44.4374 152.069 43.5155 150.722 42.6946C150.234 42.3989 149.739 43.1399 150.231 43.4355Z" fill="#656B7B"/>
<path d="M92.9784 63.9519C92.1615 63.9032 91.3446 63.858 90.5277 63.8128C90.5138 63.5206 90.5069 63.2249 90.5 62.9223C91.3169 62.971 92.1303 63.0162 92.9472 63.0614C93.5115 63.0962 93.5495 63.9867 92.9784 63.9519Z" fill="#656B7B"/>
<path d="M131.58 73.4275C132.941 73.4762 134.301 73.5214 135.661 73.5701C136.229 73.591 136.232 74.4815 135.661 74.4606C134.301 74.4119 132.941 74.3667 131.58 74.318C131.009 74.2971 131.009 73.4066 131.58 73.4275Z" fill="#656B7B"/>
<path d="M132.608 51.7144C131.622 50.0308 130.632 48.3507 129.645 46.6671C129.358 46.1766 130.075 45.6513 130.362 46.1453C131.348 47.8289 132.338 49.509 133.325 51.1926C133.616 51.6831 132.899 52.2084 132.608 51.7144Z" fill="#656B7B"/>
<path d="M120.348 80.2767C120.019 80.3011 119.69 80.3219 119.362 80.3428C118.78 79.3514 118.198 78.3635 117.617 77.3721C117.33 76.8817 118.046 76.3564 118.333 76.8504C119.005 77.9948 119.677 79.1357 120.348 80.2767Z" fill="#656B7B"/>
<path d="M142.266 52.1284C142.266 52.1284 142.266 49.2099 142.266 47.6794C142.266 47.1054 143.152 47.1054 143.152 47.6794C143.152 49.2134 143.152 50.6466 143.152 52.1284C143.152 52.7232 142.266 52.7232 142.266 52.1284C142.266 52.1284 142.266 52.7232 142.266 52.1284Z" fill="#656B7B"/>
<path d="M126.911 55.8575C125.772 56.181 124.637 56.5045 123.498 56.828C122.951 56.9845 122.66 56.1427 123.211 55.9862C124.349 55.6627 125.485 55.3392 126.624 55.0156C127.167 54.8591 127.458 55.7009 126.911 55.8575Z" fill="#656B7B"/>
<path d="M123.525 68.0879C124.872 67.2704 126.142 66.3451 127.336 65.3155C127.769 64.9433 128.257 65.6877 127.828 66.0564C126.634 67.086 125.363 68.0078 124.017 68.8288C123.529 69.1245 123.034 68.387 123.525 68.0879Z" fill="#656B7B"/>
<path d="M102.951 80.809C102.393 80.7916 101.85 80.7672 101.324 80.7359C100.718 80.2802 100.133 79.8002 99.5654 79.2958C99.1397 78.9166 99.6935 78.2244 100.119 78.6036C101.019 79.3967 101.961 80.1341 102.951 80.809Z" fill="#656B7B"/>
<path d="M112.833 65.9068C112.151 67.7365 111.469 69.5663 110.787 71.3925C110.59 71.9247 109.732 71.6951 109.932 71.1594C110.614 69.3297 111.296 67.5 111.978 65.6738C112.179 65.1415 113.034 65.3711 112.833 65.9068Z" fill="#656B7B"/>
<path d="M98.849 43.6616C97.551 43.2581 96.2495 42.8511 94.9514 42.4476C94.408 42.2772 94.6399 41.418 95.1833 41.5884C96.4814 41.9919 97.7829 42.3989 99.0809 42.8024C99.6244 42.9729 99.3925 43.8321 98.849 43.6616Z" fill="#656B7B"/>
<path d="M108.087 47.7558C108.6 49.6412 109.115 51.5231 109.628 53.4084C109.777 53.9546 108.949 54.2746 108.8 53.7215C108.288 51.8361 107.772 49.9542 107.26 48.0689C107.108 47.5227 107.935 47.2027 108.087 47.7558Z" fill="#656B7B"/>
<path d="M101.594 67.7296C100.365 68.728 99.0601 69.615 97.6755 70.3837C97.1771 70.662 96.734 69.8898 97.2359 69.6115C98.5547 68.881 99.8008 68.0462 100.974 67.0965C101.41 66.7382 102.037 67.3679 101.594 67.7296Z" fill="#656B7B"/>
<path d="M99.2192 52.9737C99.2192 52.9737 98.4577 55.7878 98.0561 57.2697C97.9073 57.8228 97.0523 57.5897 97.2012 57.0366C97.6027 55.5583 97.9765 54.1738 98.3642 52.7406C98.52 52.1667 99.3715 52.3998 99.2192 52.9737C99.2192 52.9737 99.3715 52.3998 99.2192 52.9737Z" fill="#656B7B"/>
<path d="M114.211 61.2214C115.391 61.2109 116.575 61.197 117.755 61.1866C118.323 61.1796 118.385 62.0701 117.814 62.0736C116.634 62.084 115.45 62.0979 114.27 62.1084C113.702 62.1153 113.64 61.2283 114.211 61.2214Z" fill="#656B7B"/>
<path d="M123.166 49.0255C121.653 49.4604 120.185 50.0169 118.766 50.6952C118.25 50.9422 117.977 50.0935 118.486 49.85C119.905 49.1716 121.373 48.6151 122.885 48.1803C123.432 48.0237 123.716 48.869 123.166 49.0255Z" fill="#656B7B"/>
<path d="M114.411 73.4392C113.307 76.0898 106.418 80.2293 105.283 79.6205C103.424 78.6187 96.543 68.7466 97.1141 66.3951C97.6576 64.1584 104.2 60.1164 104.2 60.1164C104.2 60.1164 110.908 57.4031 114.66 57.337C116.723 57.2987 124.982 69.8632 123.978 72.4652C123.487 73.7279 117.533 74.521 114.411 73.4392Z" fill="white"/>
<path d="M114.241 72.6879C113.916 75.5577 105.923 80.1181 104.355 79.4954C103.435 79.1302 95.6809 68.1936 96.2486 65.8456C96.792 63.6089 107 58.652 107 58.652C107 58.652 112.552 57.598 116.308 57.5284C118.371 57.4901 124.709 69.4981 123.705 72.1035C123.217 73.3662 115.993 74.7855 114.241 72.6879Z" fill="white"/>
<path d="M114.082 72.2461C112.954 75.8847 104.535 79.6693 103.559 79.0119C101.977 77.9405 95.9925 68.4789 96.5602 66.1274C97.1036 63.8907 107.204 59.0555 107.204 59.0555C110.299 58.8676 112.805 57.838 116.817 57.7267C118.886 57.6675 125.411 68.7571 124.626 71.366C124.162 72.9105 115.37 73.7697 114.082 72.2461Z" fill="white"/>
<path d="M112.424 73.1644C112.424 73.1644 113.109 74.6149 114.729 73.9853C116.484 73.3035 116.294 71.526 116.294 71.526C114.715 71.6756 113.362 72.1347 112.424 73.1644Z" fill="#E8E2E3"/>
<path d="M113.732 71.3939C113.137 71.8391 112.853 72.5313 112.895 73.4879C113.113 74.3993 104.871 78.264 102.767 78.4518C101.354 78.577 95.1964 66.4787 95.4456 65.042C95.6395 63.9324 105.387 59.6051 105.844 58.725C105.844 58.725 107.301 57.6223 108.298 57.8693C109.281 58.1128 117.63 56.0883 118.613 56.0639C120.153 56.0291 126.017 67.7066 125.996 70.0616C125.986 71.0356 116.297 73.1436 115.965 72.3435C115.609 71.4773 113.732 71.3939 113.732 71.3939Z" fill="#8E97FD"/>
<path d="M105.432 58.7842L112.895 73.4845C113.646 72.5453 114.968 71.6826 115.965 72.3436L108.776 57.6989C108.409 56.9684 105.186 58.2972 105.432 58.7842Z" fill="#4E5567"/>
<path d="M103.622 75.175C105.598 74.4028 107.467 73.4322 109.143 72.1208C109.381 71.9365 109.648 72.3191 109.413 72.5069C107.703 73.8427 105.795 74.8306 103.784 75.6168C103.504 75.7281 103.341 75.2863 103.622 75.175Z" fill="#4E5567"/>
<path d="M103.026 73.2966C104.283 72.7087 105.657 72.1661 106.768 71.3173C107.007 71.133 107.277 71.5191 107.038 71.7034C105.899 72.5731 104.477 73.1366 103.189 73.7384C102.915 73.8636 102.756 73.4218 103.026 73.2966Z" fill="#4E5567"/>
<path d="M91.6658 46.4214C90.7763 46.1396 89.6963 46.2614 89.2048 46.0735C88.104 45.6526 87.5502 45.4405 87.3667 45.6005C86.6295 46.244 89.5855 47.0684 89.4851 47.7398C89.3086 47.9937 88.374 48.1259 87.7129 48.1433C86.9202 48.1641 84.6426 47.6145 84.6322 48.0911C84.6253 48.4911 86.2764 48.9399 86.8441 48.992C86.2522 48.9399 83.7011 48.425 83.8499 49.0755C83.9607 49.5521 86.9064 49.8791 87.301 49.9104C87.1106 49.9034 84.293 49.4895 84.4384 49.966C84.6045 50.5156 87.1625 50.6861 87.5537 50.7174C87.3114 50.7104 84.9057 50.2826 85.1099 50.867C85.238 51.2287 87.5744 51.6253 87.9656 51.6601C89.6963 51.8062 94.0404 50.6304 94.5527 50.3869L94.8988 47.6876C94.8988 47.6876 93.8292 47.1867 93.2962 47.0162C92.635 46.8075 92.0016 46.5258 91.6658 46.4214Z" fill="#FDBCA0"/>
<path d="M94.4729 51.3018C97.3147 51.674 110.42 58.5093 114.369 49.2147C119.894 36.2188 109.776 22.6699 101.285 23.8318L104.539 35.9823C103.244 38.1286 103.988 41.788 103.673 42.7133C102.884 45.03 103.777 46.3205 94.3102 46.1849C93.2268 46.1744 93.5314 51.1801 94.4729 51.3018Z" fill="#8E97FD"/>
<path d="M94.5524 5.58341C94.3274 4.29635 105.681 0.901291 109.059 11.7717C110.264 15.6538 119.215 15.5425 115.075 23.0213C113.767 25.3833 123.057 27.4913 114.996 33.5822C107.453 39.28 95.9301 34.2883 96.9685 30.3193C98.1177 25.9259 102.064 28.267 99.4815 22.6735C98.1696 19.828 99.7134 18.134 100.032 17.1809C100.094 16.9826 100.157 16.7843 100.219 16.5826C100.409 15.9042 100.489 15.2711 100.219 14.652C99.4088 12.8014 93.8844 13.925 95.0647 9.57678C96.1793 5.46862 94.5524 5.58341 94.5524 5.58341Z" fill="#3F414E"/>
<path d="M101.77 45.8197C105.335 44.9605 102.905 37.9477 104.754 35.6693C104.857 35.5406 104.674 35.3527 104.57 35.4849C102.697 37.7912 104.899 44.797 101.701 45.5692C101.538 45.6075 101.607 45.8614 101.77 45.8197Z" fill="#5863E3"/>
<path d="M98.4536 52.6516C102.081 53.8795 106.906 55.0379 110.562 53.4273C110.714 53.3612 110.583 53.1351 110.43 53.2012C106.851 54.7805 102.085 53.6047 98.5229 52.3976C98.3636 52.3455 98.2944 52.5994 98.4536 52.6516Z" fill="#5863E3"/>
<path d="M107.471 8.975C108.087 10.1299 108.845 11.0969 109.894 11.8796C110.987 12.697 111.991 13.2953 112.628 14.572C112.704 14.7216 112.933 14.5998 112.86 14.4502C112.386 13.5006 111.728 12.8536 110.877 12.2448C109.516 11.2778 108.505 10.3595 107.702 8.84977C107.619 8.70368 107.391 8.82542 107.471 8.975Z" fill="#002869"/>
<path d="M85.8298 22.2004C86.1725 23.4771 85.1548 24.8754 85.1271 26.1695C85.096 27.5226 86.0652 28.1001 87.2836 28.3227C87.4463 28.354 87.519 28.1001 87.3528 28.0687C83.5729 27.3765 86.6709 24.3258 86.0825 22.1274C86.0375 21.9709 85.7848 22.0404 85.8298 22.2004Z" fill="#002869"/>
</svg>
