<svg width="177" height="210" viewBox="0 0 177 210" fill="none" xmlns="http://www.w3.org/2000/svg">
<mask id="mask0" mask-type="alpha" maskUnits="userSpaceOnUse" x="0" y="0" width="177" height="210">
<rect width="176.435" height="210" rx="10" fill="#8E97FD"/>
</mask>
<g mask="url(#mask0)">
<g clip-path="url(#clip0)">
<path d="M154.386 27H151V44H154.386V27Z" fill="#9BA3FF"/>
<path d="M159.693 32.7142H156.307V43.9997H159.693V32.7142Z" fill="#9BA3FF"/>
<path d="M165.007 38.1H161.621V44H165.007V38.1Z" fill="#9BA3FF"/>
</g>
<path d="M89.5 132C108.554 132 124 129.314 124 126C124 122.686 108.554 120 89.5 120C70.4462 120 55 122.686 55 126C55 129.314 70.4462 132 89.5 132Z" fill="#808AFF"/>
<path d="M83.6817 48.1561C83.6817 48.1561 82.3301 63.0966 87.9284 62.8715C93.9338 62.6269 92.3185 48.1561 92.3185 48.1561C91.5336 45.8236 91.221 44.4405 91.5727 41.9939H84.2809C84.6326 44.4405 84.4633 45.8236 83.6817 48.1561Z" fill="#FDBCA0"/>
<path d="M84.4274 44.884C85.2546 45.1319 86.0883 45.3603 86.9514 45.432C87.7688 45.5005 88.609 45.4483 89.4232 45.3603C90.1006 45.2852 90.8236 45.1645 91.501 44.9394C91.3935 44.0521 91.4098 43.1387 91.5759 41.9905H84.2841C84.4437 43.1159 84.4925 44.0163 84.4274 44.884Z" fill="#F0A38B"/>
<path d="M87.9283 44.0327C90.0093 44.0327 92.0122 43.2107 93.4777 41.7297C95.2233 39.9681 96.5912 38.0043 96.9918 35.698C97.5063 32.736 96.5065 29.7772 94.3245 27.3959H81.5288C79.3468 29.774 78.347 32.736 78.8615 35.698C79.2621 38.0043 80.6332 39.9681 82.3755 41.7297C83.8443 43.2074 85.8472 44.0327 87.9283 44.0327Z" fill="#FDBCA0"/>
<path d="M88.5635 49.8981C88.2997 50.1884 88.0522 50.5049 87.8177 50.8213C87.5344 50.6256 87.3097 50.3874 87.0622 50.1428C87.0394 50.1199 86.9938 50.1428 87.0035 50.1754C87.1436 50.5603 87.4367 50.8735 87.7363 51.141C87.8014 51.1964 87.8926 51.203 87.9578 51.141C88.2737 50.8311 88.583 50.469 88.8273 50.0971C88.9315 49.9438 88.6905 49.7578 88.5635 49.8981Z" fill="#DF8370"/>
<path d="M95.6046 49.3272C93.6603 49.4936 91.7421 49.81 89.8499 50.2928C89.736 50.3222 89.7848 50.4951 89.8988 50.469C91.7812 50.0514 93.6831 49.7676 95.6046 49.6371C95.8065 49.6241 95.8032 49.3109 95.6046 49.3272Z" fill="#DF8370"/>
<path d="M80.2491 49.3272C82.1933 49.4936 84.1115 49.81 86.0037 50.2928C86.1177 50.3222 86.0688 50.4951 85.9549 50.469C84.0725 50.0514 82.1705 49.7676 80.2491 49.6371C80.0504 49.6241 80.0504 49.3109 80.2491 49.3272Z" fill="#DF8370"/>
<path d="M80.5844 22.4702C77.865 24.0295 75.9501 26.4858 75.9175 29.7871C75.8849 33.5092 80.4118 39.4365 80.3499 39.2897C78.8453 35.6687 78.4512 30.6842 82.2062 28.1887C82.5808 27.9407 83.0497 27.7972 83.3852 27.5069C83.3754 25.5398 82.2909 23.6347 80.5844 22.4702Z" fill="#3F4553"/>
<path d="M95.0049 22.4702C97.7242 24.0295 99.6392 26.4858 99.6718 29.7871C99.7043 33.5092 97.48 36.8203 95.2654 39.6322C95.8288 38.4056 97.1348 30.6809 93.3798 28.1887C93.0052 27.9407 92.5363 27.7972 92.2008 27.5069C92.2139 25.5398 93.3016 23.6347 95.0049 22.4702Z" fill="#424495"/>
<path d="M134.05 20.4999C131.973 19.4658 129.546 19.244 127.286 19.7039C126.192 19.9257 125.156 20.3139 124.169 20.8391C123.515 21.1849 122.85 21.6808 122.088 21.7395C121.163 21.808 120.353 21.2045 119.665 20.6695C117.529 19.0058 115.357 17.5476 112.608 17.1464C111.279 16.9507 109.794 17.0942 108.765 17.9097C107.71 16.5136 106.137 15.5186 104.404 15.1532C102.112 14.6705 99.9328 15.3588 98.1319 16.7419C97.1158 16.2428 95.3376 15.5251 95.1129 15.4631C88.3389 13.5972 79.0898 18.3306 80.2882 26.313C81.3174 33.1732 89.99 36.344 95.9987 34.9348C97.2949 37.3912 100.402 37.962 102.795 36.6833C102.978 36.8236 103.16 36.9638 103.346 37.1008C107.166 39.9063 111.611 41.7298 116.412 40.9012C118.236 40.5848 119.942 39.9258 121.512 38.9798C123.003 40.102 124.967 40.4576 126.775 39.5898C128.12 38.9472 129.022 37.7598 129.344 36.4158C129.367 36.4158 129.39 36.4158 129.413 36.4158C133.405 36.3669 137.639 34.3802 138.659 30.1884C139.587 26.3782 137.522 22.2255 134.05 20.4999Z" fill="#4E5567"/>
<path d="M115.897 19.2571C117.21 20.3303 117.988 21.8015 117.171 23.4228C116.506 24.744 115.311 25.7063 114.441 26.8774C113.422 28.2475 113.246 30.0058 114.917 31.0073C116.562 31.9924 118.623 30.7659 119.994 29.8362C121.688 28.6846 123.505 25.354 124.964 23.9252C131.445 17.5803 137.88 24.3623 137.906 24.3851C137.066 22.7345 135.724 21.335 134.05 20.4999C131.972 19.4658 129.546 19.244 127.286 19.704C126.192 19.9258 125.156 20.314 124.169 20.8392C123.515 21.185 122.85 21.6808 122.088 21.7395C121.163 21.8081 120.352 21.2046 119.665 20.6696C117.529 19.0059 115.357 17.5477 112.608 17.1465C111.308 16.9573 109.859 17.0943 108.833 17.8641C111.071 16.9932 114.103 17.7858 115.897 19.2571Z" fill="#3F4553"/>
<path d="M133.158 35.3394C131.572 35.5253 130.087 35.4372 128.628 34.7881C127.999 36.4224 126.713 38.073 124.895 38.3307C123.674 38.5036 122.231 38.122 121.981 36.8269C113.396 43.8274 103.772 36.0179 102.844 34.5532C100.167 36.3017 96.793 34.1683 95.7932 31.4379C93.7545 32.2306 91.4032 31.9859 89.4231 31.1345C85.7332 29.5524 83.688 25.1909 84.9776 21.3416C86.0524 18.1414 88.915 15.9525 92.0871 15.062C85.9025 15.0261 79.2621 19.4756 80.2879 26.3131C81.3171 33.1733 89.9865 36.3441 95.9984 34.9349C97.2946 37.3912 100.401 37.9621 102.795 36.6834C102.978 36.8236 103.16 36.9639 103.346 37.1009C107.166 39.9063 111.611 41.7299 116.412 40.9013C118.235 40.5849 119.942 39.9259 121.512 38.9799C123.003 40.1021 124.967 40.4576 126.774 39.5899C128.12 38.9473 129.022 37.7599 129.344 36.4159C129.367 36.4159 129.39 36.4159 129.412 36.4159C131.318 36.393 133.275 35.9266 134.916 34.9936C134.34 35.1665 133.741 35.2709 133.158 35.3394Z" fill="#3F4553"/>
<path d="M85.642 37.4467C84.5022 37.6359 82.6491 37.6979 81.5972 36.5692C81.3887 36.3441 81.1054 36.5985 81.3659 36.8236C81.4083 36.8595 81.4506 36.8921 81.4929 36.9247C81.3692 36.9606 81.2389 36.9769 81.1021 36.9672C81.0989 36.9672 81.0989 36.9704 81.1021 36.9737C81.2682 37.0291 81.4376 37.0454 81.6037 37.0128C81.6069 37.0161 81.6102 37.0193 81.6134 37.0193C81.4701 37.114 81.2975 37.1531 81.1282 37.2086C81.1249 37.2086 81.1249 37.2118 81.1282 37.2151C81.3366 37.2346 81.5548 37.2086 81.7274 37.0976C81.747 37.1107 81.7665 37.1172 81.786 37.1303C81.6558 37.2314 81.5092 37.3064 81.3431 37.3456C81.3268 37.3488 81.3301 37.3749 81.3464 37.3749C81.5581 37.3847 81.76 37.3325 81.9293 37.2151C81.9652 37.2346 82.0042 37.251 82.0401 37.2705C81.9196 37.3586 81.7958 37.4369 81.6558 37.5021C81.6427 37.5087 81.6493 37.5315 81.6623 37.5315C81.8479 37.538 82.0108 37.4434 82.1573 37.3325C82.2029 37.3553 82.2485 37.3717 82.2973 37.3912C82.2355 37.4532 82.1638 37.5119 82.0954 37.5706C82.0857 37.5804 82.0954 37.5935 82.1085 37.5935C82.2257 37.5641 82.3332 37.5152 82.4244 37.4467C83.4698 37.8773 84.6943 37.8903 85.743 37.5119C85.8537 37.4663 85.769 37.4271 85.642 37.4467Z" fill="#3F4553"/>
<path d="M90.3219 37.4467C91.4618 37.6359 93.3148 37.6979 94.3668 36.5692C94.5752 36.3441 94.8585 36.5985 94.598 36.8236C94.5557 36.8595 94.5133 36.8921 94.471 36.9247C94.598 36.9606 94.725 36.9769 94.8618 36.9672C94.865 36.9672 94.865 36.9704 94.8618 36.9737C94.6957 37.0291 94.5263 37.0454 94.3603 37.0128C94.357 37.0161 94.3537 37.0193 94.3505 37.0193C94.4938 37.114 94.6664 37.1531 94.8357 37.2086C94.839 37.2086 94.839 37.2118 94.8357 37.2151C94.6273 37.2346 94.4091 37.2086 94.2365 37.0976C94.217 37.1107 94.1974 37.1172 94.1779 37.1303C94.3081 37.2314 94.4547 37.3064 94.6208 37.3456C94.6371 37.3488 94.6338 37.3749 94.6175 37.3749C94.4058 37.3847 94.2039 37.3325 94.0346 37.2151C93.9988 37.2346 93.9597 37.251 93.9238 37.2705C94.0443 37.3586 94.1681 37.4369 94.3081 37.5021C94.3212 37.5087 94.3147 37.5315 94.3016 37.5315C94.116 37.538 93.9532 37.4434 93.8066 37.3325C93.761 37.3553 93.7154 37.3717 93.6698 37.3912C93.7317 37.4532 93.8034 37.5119 93.8717 37.5706C93.8815 37.5804 93.8717 37.5935 93.8587 37.5935C93.7415 37.5641 93.634 37.5152 93.5428 37.4467C92.4974 37.8773 91.2729 37.8903 90.2209 37.5119C90.1135 37.4663 90.1949 37.4271 90.3219 37.4467Z" fill="#3F4553"/>
<path d="M88.7001 39.8249C88.166 40.1021 87.6352 40.213 87.0848 39.8803C87.0457 39.8575 87.0001 39.9129 87.0359 39.9456C87.5081 40.3664 88.3484 40.474 88.8206 39.9814C88.8988 39.8966 88.8011 39.7727 88.7001 39.8249Z" fill="#3F4553"/>
<path d="M89.9213 41.7493C89.2536 41.9483 88.5958 42.0233 87.9444 41.9939C87.2931 42.0233 86.6352 41.9483 85.9676 41.7493C85.9513 41.7428 85.9383 41.7721 85.9546 41.7786C86.5961 42.0527 87.2703 42.1995 87.9444 42.2158C88.6186 42.1995 89.2927 42.0527 89.9343 41.7786C89.9506 41.7721 89.9375 41.746 89.9213 41.7493Z" fill="#3F4553"/>
<path d="M84.883 39.0451C84.8277 39.019 84.7691 38.9962 84.7104 38.9799C83.9647 38.7874 83.0821 38.4221 82.3037 38.5558C81.7533 38.6504 81.6263 39.3191 81.939 39.7139C82.2744 40.1379 82.9323 40.2586 83.4403 40.2978C83.9516 40.3369 84.7528 40.3924 85.1338 39.9911C85.479 39.629 85.2445 39.2213 84.883 39.0451Z" fill="#FBAD8B"/>
<path d="M90.9795 39.0451C91.0348 39.019 91.0934 38.9962 91.1521 38.9799C91.8979 38.7874 92.7804 38.4221 93.5588 38.5558C94.1092 38.6504 94.2362 39.3191 93.9235 39.7139C93.5881 40.1379 92.9302 40.2586 92.4222 40.2978C91.9109 40.3369 91.1097 40.3924 90.7287 39.9911C90.3835 39.629 90.6212 39.2213 90.9795 39.0451Z" fill="#FBAD8B"/>
<path d="M78.0931 34.1616C77.3212 34.0474 76.494 34.3671 76.6341 35.2837C76.7448 36.0145 77.5297 36.7419 78.7282 36.5234C78.4025 35.7665 78.1778 34.9706 78.0931 34.1616Z" fill="#F9CDB9"/>
<path d="M77.3472 34.8793C77.5589 34.7032 77.8878 34.6249 78.1712 34.6706C78.1549 34.5825 78.1451 34.4911 78.1321 34.4031C77.7445 34.3672 77.2886 34.527 77.0671 34.8076C76.7219 35.248 76.9825 35.7373 77.3635 36.0374C77.4189 36.0831 77.497 36.0113 77.4449 35.9558C77.1681 35.6622 76.976 35.1892 77.3472 34.8793Z" fill="#F8C4AB"/>
<path d="M78.3244 35.3686C78.1225 35.1859 77.8587 35.0848 77.5558 35.0978C77.4874 35.1011 77.4613 35.2152 77.5395 35.225C77.8163 35.2642 78.0541 35.4077 78.2006 35.6295C78.0313 35.7209 77.9075 35.9199 78.0801 36.083C78.2169 36.2135 78.4188 36.2428 78.611 36.2232C78.5035 35.9427 78.4025 35.6589 78.3244 35.3686Z" fill="#F8C4AB"/>
<path d="M78.0248 36.3113C78.0216 36.3081 78.0151 36.3113 78.0183 36.3146C78.1421 36.6213 78.318 37.3389 77.8946 37.4857C77.6112 37.5836 77.5852 37.2182 77.6275 37.0258C77.6666 36.8496 77.7643 36.6669 77.8457 36.5103C77.8457 36.5103 77.6503 36.4679 77.4712 36.3766C77.2269 36.5854 77.139 36.8953 77.1814 37.2215C77.2204 37.5183 77.4093 37.8446 77.7448 37.8543C78.0444 37.8641 78.2593 37.6064 78.3049 37.3324C78.357 36.9768 78.2137 36.6017 78.0248 36.3113Z" fill="#FDCA27"/>
<path d="M140.345 92.4918C138.515 90.3094 134.555 90.1333 131.956 89.8625C124.143 89.047 116.132 89.2492 108.315 89.8821C104.424 90.1985 100.551 90.6715 96.6955 91.2946C93.9044 91.748 90.7878 92.0644 88 92.9583C85.2122 92.0644 82.0955 91.7447 79.3045 91.2946C75.4518 90.6682 71.5763 90.1952 67.6845 89.8821C59.8684 89.2492 51.8536 89.047 44.0439 89.8625C41.4483 90.1333 37.4849 90.3094 35.6546 92.4918C33.8862 94.5991 36.0682 97.1534 37.7487 98.4941C40.0707 100.347 43.0181 101.26 45.8319 102.06C49.3654 103.058 52.9804 103.736 56.6149 104.252C72.8823 106.548 81.7145 104.855 90.2178 104.751C90.5435 105.165 90.8496 105.596 91.1297 106.043C99.7503 106.098 110.823 105.41 119.382 104.252C123.02 103.759 126.631 103.061 130.165 102.06C132.982 101.264 135.926 100.35 138.248 98.4941C139.929 97.1534 142.111 94.5991 140.345 92.4918Z" fill="#93BFA8"/>
<path d="M128.803 94.0023C129.074 93.6565 130.712 93.2291 131.357 92.9421C128.318 93.1867 125.267 93.5521 122.235 93.8653C116.467 94.459 110.693 95.9889 105.228 97.9038C102.613 98.8204 100.004 99.7828 97.4054 100.748C95.3471 101.512 93.3117 102.347 91.3804 103.387C91.6768 103.296 91.9731 103.205 92.2695 103.117C95.3504 102.21 107.905 95.4082 131.152 94.5699C130.614 94.4524 128.699 94.136 128.803 94.0023Z" fill="#66A986"/>
<path d="M47.5384 93.5226C47.2681 93.1768 45.6299 92.7495 44.9851 92.4624C48.0236 92.7071 51.0752 93.0724 54.1072 93.3856C59.8749 93.9793 65.649 95.5092 71.1138 97.4241C73.729 98.3407 76.3376 99.3031 78.9365 100.269C80.9947 101.032 83.0302 101.867 84.9614 102.908C84.6651 102.816 84.3687 102.725 84.0723 102.637C80.9915 101.73 68.4368 94.9286 45.1903 94.0902C45.7244 93.9728 47.6393 93.6563 47.5384 93.5226Z" fill="#66A986"/>
<path d="M95.8585 100.735C94.5493 100.21 93.1652 100.197 91.8918 100.742C89.7164 101.678 87.0491 100.243 84.7889 100.5C82.7079 100.739 81.441 103.11 83.0335 104.624C83.4178 104.989 87.2803 106.392 93.3997 103.534C94.0706 103.221 94.7252 103.042 95.484 103.051C95.6599 103.055 95.826 103.221 96.0116 103.201C96.4089 103.153 96.7346 103.081 96.9561 102.696C97.4771 101.789 96.6076 101.035 95.8585 100.735Z" fill="#FDB597"/>
<path d="M80.5844 105.547C81.6884 104.669 83.0139 104.258 84.385 104.418C86.7363 104.692 88.8825 102.552 91.1231 102.151C93.1847 101.782 95.0768 103.691 93.9826 105.602C93.7188 106.062 90.4164 108.512 83.7369 107.527C83.0041 107.419 82.3267 107.436 81.6037 107.661C81.4376 107.713 81.3236 107.922 81.138 107.954C80.744 108.023 80.4118 108.046 80.0893 107.742C79.3338 107.021 79.9526 106.049 80.5844 105.547Z" fill="#FDBCA0"/>
<path d="M124.967 51.9565C124.214 52.3447 123.423 52.7818 122.684 53.1896C123.075 52.8699 125.244 50.6582 126.087 50.1134C126.178 50.0547 125.963 49.1576 123.745 50.9322C123.084 51.4607 122.303 51.9957 121.681 52.5731C122.472 51.0692 123.133 49.5458 124.169 48.1692C124.211 48.1137 124.198 48.0518 124.162 48.0094C123.951 47.843 123.42 48.0322 123.182 48.2866C122.759 48.7368 121.15 50.4788 120.368 52.3154C120.381 51.6858 120.326 50.6647 119.88 50.456C119.6 50.3222 119.134 50.4984 118.834 50.5212C118.245 50.5636 117.473 50.6484 116.923 50.4135C116.841 50.3809 116.636 50.3548 116.711 50.6256C116.962 51.5129 118.199 51.6238 118.968 51.8195C119.228 52.4524 118.496 53.4897 118.033 53.8029C117.281 54.315 116.183 53.8127 116.372 52.8079C116.538 51.9239 117.066 51.5227 116.6 50.6549C116.447 50.3679 115.789 50.1069 115.936 50.5701C116.314 51.7543 115.229 52.7492 115.089 53.8942C114.978 54.8011 115.457 55.6068 115.939 56.3343C115.91 56.4093 115.887 56.4844 115.861 56.5561C115.206 57.6913 114.698 58.8885 114.33 60.1412C115.17 60.4185 117.639 60.2423 117.629 60.2228C117.639 60.2423 117.926 58.4873 118.584 57.7468C119.303 56.9345 120.209 56.3082 121.075 55.6688C122.895 54.3216 124.745 53.0135 126.621 51.7412C126.729 51.6727 126.641 51.0921 124.967 51.9565Z" fill="#FDBCA0"/>
<path d="M51.2314 51.9565C51.9837 52.3447 52.7751 52.7818 53.5144 53.1896C53.1236 52.8699 50.9546 50.6582 50.1111 50.1134C50.0199 50.0547 50.2349 49.1576 52.4527 50.9322C53.1138 51.4607 53.8954 51.9957 54.5175 52.5731C53.7261 51.0692 53.065 49.5458 52.0293 48.1692C51.987 48.1137 52 48.0518 52.0358 48.0094C52.2475 47.843 52.7784 48.0322 53.0161 48.2866C53.4395 48.7368 55.0483 50.4788 55.8299 52.3154C55.8169 51.6858 55.8723 50.6647 56.3184 50.456C56.5985 50.3222 57.0642 50.4984 57.3638 50.5212C57.9533 50.5636 58.7251 50.6484 59.2755 50.4135C59.357 50.3809 59.5621 50.3548 59.4872 50.6256C59.2365 51.5129 57.9989 51.6238 57.2303 51.8195C56.9698 52.4524 57.7025 53.4897 58.165 53.8029C58.9173 54.315 60.0148 53.8127 59.8259 52.8079C59.6598 51.9239 59.1322 51.5227 59.5979 50.6549C59.751 50.3679 60.4089 50.1069 60.2623 50.5701C59.8845 51.7543 60.969 52.7492 61.1091 53.8942C61.2198 54.8011 60.7411 55.6068 60.2591 56.3343C60.2884 56.4093 60.3112 56.4844 60.3372 56.5561C60.9918 57.6913 61.4999 58.8885 61.8679 60.1412C61.0277 60.4185 58.5591 60.2423 58.5688 60.2228C58.5591 60.2423 58.2725 58.4873 57.6146 57.7468C56.8949 56.9345 55.9895 56.3082 55.1232 55.6688C53.3027 54.3216 51.4529 53.0135 49.577 51.7412C49.4695 51.6727 49.5575 51.0921 51.2314 51.9565Z" fill="#FDBCA0"/>
<path d="M113.451 58.9865C112.23 62.1409 108.088 73.7867 106.358 78.7256C105.329 76.0833 102.548 64.6104 100.206 51.2911C99.4768 47.1515 94.8164 47.7419 92.3218 48.1562C92.1427 50.9355 89.4493 58.6407 88.0034 58.657C86.5574 58.6407 83.6914 51.4803 83.6849 48.1562C81.1935 47.7419 76.5299 47.1515 75.8004 51.2911C73.4555 64.6104 70.6776 76.0865 69.6484 78.7256C67.9159 73.7867 63.7766 62.1409 62.5553 58.9865C60.9888 59.727 59.2562 60.1347 57.5269 60.2359C58.8654 63.8014 63.2848 89.0502 69.7982 89.0502C72.6218 89.0502 74.4098 86.0458 77.2887 74.9154C77.432 76.7748 77.4809 80.3469 77.4092 84.1016C77.3571 86.8059 75.491 89.931 72.9931 89.3275C72.4883 89.2068 71.8304 89.5885 72.4557 90.267C72.6251 90.4529 72.8433 90.59 73.068 90.6943C77.0575 92.5864 77.2138 95.4146 79.5684 97.062C80.9916 98.057 82.7437 98.3701 84.4144 98.7094C86.2252 99.0747 88.0913 99.3488 89.9346 99.0715C92.9992 98.6115 95.3798 96.5597 97.9168 94.9547C99.3335 94.0576 100.773 93.3399 102.437 93.0953C106.72 92.4657 106.436 89.4384 105.541 89.5004C102.541 89.7059 98.591 85.8762 98.5682 81.6615C98.5519 78.8561 98.6073 76.3671 98.718 74.9154C101.597 86.0458 103.385 89.0502 106.208 89.0502C112.722 89.0502 117.141 63.8014 118.48 60.2359C116.75 60.1347 115.018 59.7237 113.451 58.9865Z" fill="#F2EDE4"/>
<path d="M96.2203 70.0124C96.1877 70.0352 96.1616 70.058 96.1356 70.0809C95.6047 70.5996 95.1911 71.2226 94.67 71.7511C94.149 72.2763 93.4748 72.7167 92.7355 72.7134C90.9606 72.7036 90.0715 70.5702 89.0033 69.4839C87.3619 67.8202 85.7694 71.6108 84.5481 72.3546C83.2943 73.1179 82.4443 72.658 81.5194 71.7543C80.9527 71.1998 80.4707 70.5767 79.9464 69.983C79.8096 69.8264 79.4969 69.9928 79.5816 70.195C80.1939 71.6695 81.578 74.1161 83.405 74.1553C84.5253 74.1781 85.4437 73.5355 86.1797 72.746C86.5412 72.3578 87.5378 70.2733 88.1859 70.5474C88.3064 70.5996 88.3911 70.7072 88.4725 70.8116C88.7949 71.2357 89.0945 71.6826 89.4397 72.0871C89.6189 72.2959 90.1367 72.6416 90.1367 72.9287C90.8694 73.6757 91.8758 74.2629 92.9147 74.1357C93.9764 74.0052 94.8166 73.1734 95.4321 72.2959C95.8685 71.6728 96.2365 71.0008 96.5264 70.2962C96.5687 70.195 96.6045 70.0678 96.5296 69.9863C96.4482 69.9015 96.3245 69.9406 96.2203 70.0124Z" fill="#D9C9AC"/>
<g clip-path="url(#clip1)">
<path d="M155.99 86.9552L167.135 83.2196L161.548 66.8198L150.403 70.5555C149.966 70.7012 149.729 71.1707 149.88 71.6038L154.933 86.4331C155.08 86.8662 155.553 87.101 155.99 86.9552Z" fill="#3F4553"/>
<path d="M155.998 86.6314L167.421 82.8027L162.038 67.006L150.615 70.8347C150.333 70.9278 150.182 71.2314 150.276 71.5147L155.312 86.2955C155.41 86.5748 155.716 86.7245 155.998 86.6314Z" fill="#DDDDE3"/>
<path d="M156.239 86.5506L167.662 82.7219L162.279 66.9252L150.856 70.7539C150.574 70.847 150.423 71.1506 150.517 71.4339L155.553 86.2147C155.651 86.494 155.957 86.6478 156.239 86.5506Z" fill="#E2E5FF"/>
<path d="M156.855 86.6638L168 82.9281L162.413 66.5324L151.268 70.2681C150.831 70.4138 150.594 70.8833 150.745 71.3163L155.798 86.1457C155.945 86.5788 156.418 86.8095 156.855 86.6638Z" fill="#4E5567"/>
<path d="M161.789 66.7419L161.549 66.8223L167.136 83.2221L167.376 83.1418L161.789 66.7419Z" fill="#3F4553"/>
<path d="M163.381 79.5527L163.63 79.0265L164.152 79.2936L160.071 67.3176C159.997 67.1072 159.814 67.1233 159.602 67.1962C159.389 67.269 159.23 67.3662 159.304 67.5766L163.381 79.5527Z" fill="#93BFA8"/>
<path d="M138.338 71.0902L145.84 62.2698L144.323 61.0017L136.822 69.8221L138.338 71.0902Z" fill="#3F4553"/>
<path d="M136.821 69.8191L138.335 71.0859L136.147 72.2799C136.074 72.3203 135.976 72.2353 136 72.1584L136.821 69.8191Z" fill="#F2EDE4"/>
<path d="M136.151 72.2838L136.743 71.96L136.229 71.5269L136.009 72.1583C135.98 72.2352 136.078 72.3202 136.151 72.2838Z" fill="#3F4553"/>
<path d="M137.836 70.6701L145.337 61.8497L144.822 61.4192L137.321 70.2395L137.836 70.6701Z" fill="#4E5567"/>
</g>
<g clip-path="url(#clip2)">
<path d="M55.5028 -14C45.8335 -14 38 -6.16648 38 3.50276C38 13.1665 45.8335 21.0055 55.5028 21.0055C65.1665 21.0055 73.0055 13.172 73.0055 3.50276C73 -6.16648 65.1665 -14 55.5028 -14ZM55.5028 18.0452C47.4708 18.0452 40.9603 11.5347 40.9603 3.50276C40.9603 -4.52922 47.4708 -11.0397 55.5028 -11.0397C63.5347 -11.0397 70.0452 -4.52922 70.0452 3.50276C70.0452 11.5347 63.5347 18.0452 55.5028 18.0452Z" fill="#808AFF"/>
<path d="M68.9209 9.1097C72.0195 1.69977 68.5244 -6.81906 61.1145 -9.91764C53.7046 -13.0162 45.1857 -9.52119 42.0872 -2.11126C38.9886 5.29867 42.4836 13.8175 49.8935 16.9161C57.3035 20.0147 65.8223 16.5196 68.9209 9.1097Z" fill="#AEB4FC"/>
<path d="M68.7382 3.52959C68.7382 2.50974 67.1506 2.50423 67.1506 3.52959C67.1506 4.55495 68.7382 4.55495 68.7382 3.52959Z" fill="#808AFF"/>
<path d="M55.469 16.7383C56.4888 16.7383 56.4943 15.1507 55.469 15.1507C54.4491 15.1507 54.4436 16.7383 55.469 16.7383Z" fill="#808AFF"/>
<path d="M42.2618 3.46977C42.2618 4.48962 43.8495 4.49513 43.8495 3.46977C43.8495 2.44993 42.2618 2.44441 42.2618 3.46977Z" fill="#808AFF"/>
<path d="M61.7544 7.75302C61.6607 7.75302 61.567 7.73097 61.4843 7.67584L55.2274 3.95479C55.0675 3.86107 54.9683 3.68466 54.9683 3.49723V-6.50277C54.9683 -6.79494 55.2053 -7.03198 55.4975 -7.03198C55.7897 -7.03198 56.0267 -6.79494 56.0267 -6.50277V3.19955L62.0245 6.76625C62.2781 6.91509 62.3608 7.24034 62.2064 7.49393C62.1127 7.65931 61.9363 7.75302 61.7544 7.75302Z" fill="#808AFF"/>
</g>
<path d="M20.6207 39.4066L20.2715 37.4255L18.2463 37.7707C17.925 36.8457 17.4013 36.0312 16.7239 35.3686L17.9111 33.7051L16.249 32.5524L15.0688 34.209C14.2168 33.7948 13.2671 33.567 12.2754 33.5739L11.9193 31.5653L9.915 31.9104L10.2642 33.9122C9.32839 34.2297 8.50434 34.7474 7.83392 35.4169L6.15091 34.2435L4.98467 35.8863L6.6607 37.0528C6.24169 37.8949 6.01124 38.8337 6.01822 39.8138L4 40.1589L4.34917 42.14L6.37438 41.7948C6.69562 42.7198 7.21938 43.5343 7.89677 44.1969L6.70959 45.8604L8.37165 47.0131L9.55186 45.3565C10.4038 45.7707 11.3536 45.9985 12.3452 45.9916L12.7014 48.0002L14.7057 47.6551L14.3565 45.6533C15.2923 45.3358 16.1163 44.8181 16.7867 44.1486L18.4697 45.322L19.636 43.6792L17.96 42.5127C18.379 41.6706 18.6094 40.7318 18.6024 39.7517L20.6207 39.4066ZM12.6316 41.6223C11.605 41.8017 10.6273 41.1184 10.4457 40.1037C10.2642 39.089 10.9555 38.1227 11.9821 37.9432C13.0087 37.7638 13.9864 38.4471 14.1679 39.4618C14.3495 40.4764 13.6651 41.4428 12.6316 41.6223Z" fill="#9BA3FF"/>
<path d="M39.7278 35.4099V32.918H37.1788C36.9903 31.717 36.5224 30.6126 35.838 29.6601L37.6467 27.8723L35.8659 26.1122L34.0642 27.893C33.1075 27.2097 31.9971 26.7334 30.782 26.5332V24H28.2609V26.5194C27.0458 26.7058 25.9215 27.1683 24.9647 27.8447L23.156 26.0569L21.3752 27.8171L23.177 29.5979C22.4856 30.5436 22.0037 31.6411 21.8012 32.8421H19.2383V35.3339H21.7873C21.9758 36.535 22.4437 37.6394 23.1281 38.5919L21.3194 40.3797L23.1001 42.1398L24.9019 40.3589C25.8586 41.0423 26.969 41.5186 28.1841 41.7187V44.252H30.7051V41.7325C31.9203 41.5462 33.0376 41.0837 34.0013 40.4073L35.8101 42.195L37.5908 40.4349L35.7891 38.654C36.4805 37.7084 36.9623 36.6109 37.1648 35.4099H39.7278ZM29.483 36.4452C28.1911 36.4452 27.1366 35.4099 27.1366 34.126C27.1366 32.849 28.1841 31.8067 29.483 31.8067C30.775 31.8067 31.8295 32.8421 31.8295 34.126C31.8225 35.4029 30.775 36.4452 29.483 36.4452Z" fill="#AEB4FC"/>
<g opacity="0.3">
<path d="M157.995 16.8971L139.266 12.6877C139.082 12.6477 138.966 12.4642 139.009 12.2808L141.367 1.78054C141.407 1.59708 141.591 1.48034 141.774 1.5237L160.503 5.73647C160.687 5.7765 160.803 5.95995 160.76 6.14341L158.398 16.6436C158.358 16.8238 158.178 16.9405 157.995 16.8971Z" fill="#ECECEC"/>
<path d="M139.319 12.4408C139.269 12.4308 139.239 12.3808 139.253 12.3341L141.614 1.83386C141.624 1.78382 141.674 1.7538 141.721 1.76715L160.45 5.97992C160.5 5.98992 160.53 6.03995 160.517 6.08665L158.155 16.5869C158.145 16.6369 158.095 16.6669 158.048 16.6536L139.319 12.4408Z" fill="#F5F4F5"/>
<path d="M157.867 5.14062L144.414 2.1153L144.359 2.35936L157.812 5.38468L157.867 5.14062Z" fill="#706F6E"/>
<path d="M143.105 3.62501L142.485 3.48491C142.408 3.46824 142.358 3.39152 142.375 3.31147L142.471 2.87451C142.488 2.7978 142.565 2.74776 142.645 2.76444L143.265 2.90453C143.342 2.92121 143.392 2.99793 143.375 3.07798L143.279 3.51493C143.259 3.59165 143.182 3.64168 143.105 3.62501Z" fill="#585857"/>
<path d="M142.511 3.36154C142.501 3.3582 142.494 3.34819 142.498 3.33819L142.594 2.90123C142.598 2.89123 142.608 2.88456 142.618 2.88789L143.238 3.02798C143.248 3.03132 143.255 3.04133 143.252 3.05133L143.155 3.48829C143.152 3.49829 143.141 3.50496 143.131 3.50163L142.511 3.36154Z" fill="#5E5E5D"/>
<path d="M144.242 3.87861L143.622 3.73851C143.545 3.72184 143.495 3.64512 143.512 3.56507L143.609 3.12811C143.625 3.0514 143.702 3.00136 143.782 3.01804L144.402 3.15813C144.479 3.17481 144.529 3.25153 144.512 3.33158L144.416 3.76853C144.396 3.84859 144.319 3.89529 144.242 3.87861Z" fill="#585857"/>
<path d="M143.649 3.61825C143.639 3.61492 143.632 3.60491 143.635 3.5949L143.732 3.15795C143.735 3.14794 143.745 3.14127 143.755 3.14461L144.376 3.2847C144.386 3.28803 144.392 3.29804 144.389 3.30805L144.292 3.745C144.289 3.75501 144.279 3.76168 144.269 3.75834L143.649 3.61825Z" fill="#5E5E5D"/>
<path d="M145.38 4.13532L144.759 3.99523C144.683 3.97855 144.633 3.90183 144.649 3.82178L144.746 3.38483C144.763 3.30811 144.839 3.25808 144.92 3.27476L145.54 3.41485C145.617 3.43153 145.667 3.50824 145.65 3.5883L145.553 4.02525C145.533 4.10197 145.457 4.152 145.38 4.13532Z" fill="#585857"/>
<path d="M144.786 3.87185C144.776 3.86852 144.769 3.85851 144.773 3.8485L144.87 3.41155C144.873 3.40154 144.883 3.39487 144.893 3.39821L145.513 3.5383C145.523 3.54163 145.53 3.55164 145.527 3.56165L145.43 3.9986C145.427 4.00861 145.417 4.01528 145.407 4.01194L144.786 3.87185Z" fill="#5E5E5D"/>
<path d="M146.517 4.38868L145.897 4.24859C145.82 4.23191 145.77 4.15519 145.787 4.07514L145.884 3.63818C145.9 3.56147 145.977 3.51143 146.057 3.52811L146.677 3.6682C146.754 3.68488 146.804 3.7616 146.788 3.84165L146.691 4.27861C146.671 4.35866 146.594 4.40869 146.517 4.38868Z" fill="#585857"/>
<path d="M145.924 4.12857C145.914 4.12523 145.907 4.11522 145.91 4.10522L146.007 3.66826C146.01 3.65826 146.02 3.65158 146.03 3.65492L146.651 3.79501C146.661 3.79835 146.667 3.80836 146.664 3.81836L146.567 4.25532C146.564 4.26532 146.554 4.27199 146.544 4.26866L145.924 4.12857Z" fill="#5E5E5D"/>
<path d="M147.651 4.64564L147.031 4.50554C146.954 4.48887 146.904 4.41215 146.921 4.3321L147.018 3.89514C147.034 3.81842 147.111 3.76839 147.191 3.78507L147.811 3.92516C147.888 3.94184 147.938 4.01856 147.921 4.09861L147.825 4.53556C147.808 4.61562 147.731 4.66231 147.651 4.64564Z" fill="#585857"/>
<path d="M147.061 4.38552C147.051 4.38219 147.044 4.37218 147.048 4.36218L147.145 3.92522C147.148 3.91521 147.158 3.90854 147.168 3.91188L147.788 4.05197C147.798 4.05531 147.805 4.06531 147.802 4.07532L147.705 4.51227C147.702 4.52228 147.692 4.52895 147.682 4.52562L147.061 4.38552Z" fill="#5E5E5D"/>
<path d="M148.789 4.90235L148.168 4.76226C148.092 4.74558 148.042 4.66886 148.058 4.58881L148.155 4.15186C148.172 4.07514 148.248 4.02511 148.329 4.04178L148.949 4.18188C149.026 4.19855 149.076 4.27527 149.059 4.35532L148.962 4.79228C148.946 4.86899 148.869 4.91903 148.789 4.90235Z" fill="#585857"/>
<path d="M148.198 4.63888C148.188 4.63554 148.182 4.62554 148.185 4.61553L148.282 4.17858C148.285 4.16857 148.295 4.1619 148.305 4.16524L148.925 4.30533C148.935 4.30866 148.942 4.31867 148.939 4.32868L148.842 4.76563C148.839 4.77564 148.829 4.78231 148.819 4.77897L148.198 4.63888Z" fill="#5E5E5D"/>
<path d="M149.926 5.15595L149.306 5.01586C149.229 4.99918 149.179 4.92246 149.196 4.84241L149.293 4.40546C149.309 4.32874 149.386 4.27871 149.466 4.29539L150.086 4.43548C150.163 4.45215 150.213 4.52887 150.197 4.60892L150.1 5.04588C150.083 5.12593 150.003 5.17596 149.926 5.15595Z" fill="#585857"/>
<path d="M149.336 4.89584C149.326 4.8925 149.319 4.8825 149.322 4.87249L149.419 4.43553C149.422 4.42553 149.433 4.41886 149.443 4.42219L150.063 4.56228C150.073 4.56562 150.08 4.57563 150.076 4.58563L149.98 5.02259C149.976 5.03259 149.966 5.03927 149.956 5.03593L149.336 4.89584Z" fill="#5E5E5D"/>
<path d="M151.064 5.41291L150.443 5.27282C150.367 5.25614 150.317 5.17942 150.333 5.09937L150.43 4.66241C150.447 4.5857 150.523 4.53567 150.604 4.55234L151.224 4.69243C151.301 4.70911 151.351 4.78583 151.334 4.86588L151.237 5.30284C151.217 5.38289 151.141 5.42959 151.064 5.41291Z" fill="#585857"/>
<path d="M150.473 5.15255C150.463 5.14922 150.457 5.13921 150.46 5.1292L150.557 4.69225C150.56 4.68224 150.57 4.67557 150.58 4.67891L151.2 4.819C151.21 4.82234 151.217 4.83234 151.214 4.84235L151.117 5.2793C151.114 5.28931 151.104 5.29598 151.094 5.29264L150.473 5.15255Z" fill="#5E5E5D"/>
<path d="M152.201 5.66962L151.581 5.52953C151.504 5.51285 151.454 5.43614 151.471 5.35608L151.568 4.91913C151.584 4.84241 151.661 4.79238 151.741 4.80906L152.361 4.94915C152.438 4.96583 152.488 5.04254 152.472 5.1226L152.375 5.55955C152.355 5.63627 152.278 5.6863 152.201 5.66962Z" fill="#585857"/>
<path d="M151.607 5.40615C151.597 5.40282 151.591 5.39281 151.594 5.3828L151.691 4.94585C151.694 4.93584 151.704 4.92917 151.714 4.93251L152.334 5.0726C152.344 5.07594 152.351 5.08594 152.348 5.09595L152.251 5.5329C152.248 5.54291 152.238 5.54958 152.228 5.54624L151.607 5.40615Z" fill="#5E5E5D"/>
<path d="M153.338 5.92322L152.718 5.78313C152.641 5.76645 152.591 5.68974 152.608 5.60968L152.705 5.17273C152.721 5.09601 152.798 5.04598 152.878 5.06266L153.499 5.20275C153.575 5.21943 153.625 5.29614 153.609 5.3762L153.512 5.81315C153.492 5.8932 153.415 5.94324 153.338 5.92322Z" fill="#585857"/>
<path d="M152.745 5.66311C152.735 5.65977 152.728 5.64977 152.731 5.63976L152.828 5.20281C152.831 5.1928 152.842 5.18613 152.852 5.18947L153.472 5.32956C153.482 5.33289 153.489 5.3429 153.485 5.35291L153.389 5.78986C153.385 5.79987 153.375 5.80654 153.365 5.8032L152.745 5.66311Z" fill="#5E5E5D"/>
<path d="M154.476 6.17994L153.856 6.03985C153.779 6.02317 153.729 5.94645 153.745 5.8664L153.842 5.42944C153.859 5.35273 153.936 5.30269 154.016 5.31937L154.636 5.45946C154.713 5.47614 154.763 5.55286 154.746 5.63291L154.649 6.06987C154.629 6.14992 154.553 6.19661 154.476 6.17994Z" fill="#585857"/>
<path d="M153.882 5.91982C153.872 5.91649 153.865 5.90648 153.868 5.89648L153.965 5.45952C153.969 5.44951 153.979 5.44284 153.989 5.44618L154.609 5.58627C154.619 5.58961 154.626 5.59961 154.622 5.60962L154.526 6.04657C154.522 6.05658 154.512 6.06325 154.502 6.05992L153.882 5.91982Z" fill="#5E5E5D"/>
<path d="M155.613 6.43689L154.993 6.2968C154.916 6.28013 154.866 6.20341 154.883 6.12336L154.979 5.6864C154.996 5.60968 155.073 5.55965 155.153 5.57633L155.773 5.71642C155.85 5.7331 155.9 5.80982 155.883 5.88987L155.786 6.32682C155.766 6.40354 155.69 6.45357 155.613 6.43689Z" fill="#585857"/>
<path d="M155.019 6.17318C155.009 6.16985 155.003 6.15984 155.006 6.14983L155.103 5.71288C155.106 5.70287 155.116 5.6962 155.126 5.69954L155.747 5.83963C155.757 5.84297 155.763 5.85297 155.76 5.86298L155.663 6.29993C155.66 6.30994 155.65 6.31661 155.64 6.31327L155.019 6.17318Z" fill="#5E5E5D"/>
<path d="M156.751 6.69025L156.13 6.55016C156.053 6.53348 156.003 6.45677 156.02 6.37671L156.117 5.93976C156.133 5.86304 156.21 5.81301 156.29 5.82969L156.911 5.96978C156.987 5.98646 157.037 6.06317 157.021 6.14323L156.924 6.58018C156.904 6.66023 156.827 6.71027 156.751 6.69025Z" fill="#585857"/>
<path d="M156.157 6.43014C156.147 6.4268 156.14 6.4168 156.144 6.40679L156.24 5.96984C156.244 5.95983 156.254 5.95316 156.264 5.9565L156.884 6.09659C156.894 6.09992 156.901 6.10993 156.897 6.11994L156.801 6.55689C156.797 6.5669 156.787 6.57357 156.777 6.57023L156.157 6.43014Z" fill="#5E5E5D"/>
<path d="M157.888 6.94697L157.268 6.80687C157.191 6.7902 157.141 6.71348 157.158 6.63343L157.254 6.19647C157.271 6.11976 157.348 6.06972 157.428 6.0864L158.048 6.22649C158.125 6.24317 158.175 6.31989 158.158 6.39994L158.062 6.83689C158.042 6.91695 157.965 6.96364 157.888 6.94697Z" fill="#585857"/>
<path d="M157.294 6.6871C157.284 6.68376 157.278 6.67376 157.281 6.66375L157.378 6.2268C157.381 6.21679 157.391 6.21012 157.401 6.21345L158.022 6.35354C158.032 6.35688 158.038 6.36689 158.035 6.37689L157.938 6.81385C157.935 6.82385 157.925 6.83053 157.915 6.82719L157.294 6.6871Z" fill="#5E5E5D"/>
<path d="M159.022 7.20392L158.402 7.06383C158.325 7.04715 158.275 6.97044 158.292 6.89038L158.388 6.45343C158.405 6.37671 158.482 6.32668 158.562 6.34336L159.182 6.48345C159.259 6.50013 159.309 6.57685 159.292 6.6569L159.195 7.09385C159.179 7.17057 159.102 7.2206 159.022 7.20392Z" fill="#585857"/>
<path d="M158.432 6.94046C158.422 6.93712 158.415 6.92711 158.419 6.91711L158.515 6.48015C158.519 6.47015 158.529 6.46347 158.539 6.46681L159.159 6.6069C159.169 6.61024 159.176 6.62024 159.172 6.63025L159.076 7.0672C159.072 7.07721 159.062 7.08388 159.052 7.08055L158.432 6.94046Z" fill="#5E5E5D"/>
<path d="M142.471 3.63513L143.238 3.80858C143.325 3.82859 143.382 3.91531 143.362 4.00537L143.192 4.7592C143.172 4.84592 143.085 4.90263 142.995 4.88262L142.228 4.70917C142.141 4.68915 142.084 4.60243 142.104 4.51237L142.274 3.75854C142.294 3.67182 142.381 3.61512 142.471 3.63513Z" fill="#585857"/>
<path d="M142.258 4.58545C142.238 4.58211 142.225 4.55877 142.228 4.53875L142.398 3.78493C142.401 3.76491 142.425 3.75157 142.445 3.75491L143.212 3.92835C143.232 3.93169 143.245 3.95504 143.242 3.97505L143.072 4.72888C143.068 4.74889 143.045 4.76223 143.025 4.7589L142.258 4.58545Z" fill="#5E5E5D"/>
<path d="M143.782 3.93168L144.549 4.10513C144.636 4.12514 144.692 4.21187 144.672 4.30193L144.502 5.05575C144.482 5.14248 144.396 5.19918 144.306 5.17917L143.538 5.00572C143.452 4.98571 143.395 4.89898 143.415 4.80893L143.585 4.0551C143.605 3.96504 143.692 3.91167 143.782 3.93168Z" fill="#585857"/>
<path d="M143.569 4.88233C143.549 4.87899 143.535 4.85564 143.539 4.83563L143.709 4.0818C143.712 4.06179 143.735 4.04844 143.755 4.05178L144.523 4.22523C144.543 4.22856 144.556 4.25191 144.553 4.27192L144.382 5.02575C144.379 5.04577 144.356 5.05911 144.336 5.05577L143.569 4.88233Z" fill="#5E5E5D"/>
<path d="M145.093 4.22552L145.861 4.39897C145.947 4.41898 146.004 4.50571 145.984 4.59576L145.814 5.34959C145.794 5.43632 145.707 5.49302 145.617 5.47301L144.85 5.29956C144.763 5.27955 144.706 5.19282 144.726 5.10276L144.897 4.34894C144.917 4.26221 145.007 4.20551 145.093 4.22552Z" fill="#585857"/>
<path d="M144.88 5.17584C144.86 5.17251 144.846 5.14916 144.85 5.12915L145.02 4.37532C145.023 4.35531 145.046 4.34196 145.066 4.3453L145.834 4.51875C145.854 4.52208 145.867 4.54543 145.864 4.56544L145.693 5.31927C145.69 5.33929 145.667 5.35263 145.647 5.34929L144.88 5.17584Z" fill="#5E5E5D"/>
<path d="M146.404 4.51904L147.171 4.69249C147.258 4.7125 147.315 4.79922 147.295 4.88928L147.124 5.64311C147.104 5.72984 147.018 5.78654 146.928 5.76653L146.16 5.59308C146.074 5.57307 146.017 5.48634 146.037 5.39628L146.207 4.64246C146.227 4.55573 146.317 4.49903 146.404 4.51904Z" fill="#585857"/>
<path d="M146.191 5.47272C146.171 5.46938 146.157 5.44603 146.161 5.42602L146.331 4.67219C146.334 4.65218 146.357 4.63884 146.377 4.64217L147.145 4.81562C147.165 4.81896 147.178 4.8423 147.175 4.86232L147.005 5.61615C147.001 5.63616 146.978 5.6495 146.958 5.64617L146.191 5.47272Z" fill="#5E5E5D"/>
<path d="M147.715 4.81584L148.482 4.98928C148.568 5.0093 148.625 5.09602 148.605 5.18608L148.435 5.93991C148.415 6.02663 148.328 6.08334 148.238 6.06332L147.471 5.88988C147.384 5.86986 147.328 5.78314 147.348 5.69308L147.518 4.93925C147.541 4.84919 147.628 4.79582 147.715 4.81584Z" fill="#585857"/>
<path d="M147.501 5.7663C147.481 5.76296 147.468 5.73961 147.471 5.7196L147.641 4.96577C147.645 4.94576 147.668 4.93242 147.688 4.93575L148.455 5.1092C148.475 5.11254 148.489 5.13588 148.485 5.1559L148.315 5.90973C148.312 5.92974 148.288 5.94308 148.268 5.93975L147.501 5.7663Z" fill="#5E5E5D"/>
<path d="M149.026 5.10943L149.793 5.28288C149.879 5.30289 149.936 5.38962 149.916 5.47968L149.746 6.23351C149.726 6.32023 149.639 6.37693 149.549 6.35692L148.782 6.18347C148.695 6.16346 148.639 6.07674 148.659 5.98668L148.829 5.23285C148.852 5.14612 148.939 5.08942 149.026 5.10943Z" fill="#585857"/>
<path d="M148.812 6.06C148.792 6.05666 148.779 6.03331 148.782 6.0133L148.952 5.25947C148.955 5.23946 148.979 5.22612 148.999 5.22945L149.766 5.4029C149.786 5.40624 149.799 5.42959 149.796 5.4496L149.626 6.20343C149.622 6.22344 149.599 6.23678 149.579 6.23345L148.812 6.06Z" fill="#5E5E5D"/>
<path d="M150.337 5.40599L151.104 5.57943C151.191 5.59945 151.247 5.68617 151.227 5.77623L151.057 6.53006C151.037 6.61678 150.95 6.67349 150.86 6.65347L150.093 6.48003C150.006 6.46001 149.95 6.37329 149.97 6.28323L150.14 5.5294C150.163 5.43934 150.25 5.38597 150.337 5.40599Z" fill="#585857"/>
<path d="M150.123 6.35669C150.103 6.35336 150.09 6.33001 150.093 6.30999L150.263 5.55617C150.266 5.53615 150.29 5.52281 150.31 5.52615L151.077 5.69959C151.097 5.70293 151.11 5.72628 151.107 5.74629L150.937 6.50012C150.933 6.52013 150.91 6.53347 150.89 6.53014L150.123 6.35669Z" fill="#5E5E5D"/>
<path d="M151.651 5.69983L152.418 5.87327C152.505 5.89329 152.561 5.98001 152.541 6.07007L152.371 6.8239C152.351 6.91062 152.265 6.96733 152.174 6.94731L151.407 6.77387C151.321 6.75385 151.264 6.66713 151.284 6.57707L151.454 5.82324C151.474 5.73652 151.561 5.67981 151.651 5.69983Z" fill="#585857"/>
<path d="M151.434 6.65039C151.414 6.64706 151.401 6.62371 151.404 6.60369L151.574 5.84987C151.577 5.82985 151.601 5.81651 151.621 5.81985L152.388 5.99329C152.408 5.99663 152.421 6.01998 152.418 6.03999L152.248 6.79382C152.245 6.81383 152.221 6.82717 152.201 6.82384L151.434 6.65039Z" fill="#5E5E5D"/>
<path d="M152.961 5.9931L153.729 6.16655C153.815 6.18656 153.872 6.27328 153.852 6.36334L153.682 7.11717C153.662 7.2039 153.575 7.2606 153.485 7.24059L152.718 7.06714C152.631 7.04713 152.574 6.9604 152.595 6.87034L152.765 6.11651C152.785 6.02979 152.871 5.97309 152.961 5.9931Z" fill="#585857"/>
<path d="M152.748 6.94708C152.728 6.94375 152.715 6.9204 152.718 6.90039L152.888 6.14656C152.892 6.12655 152.915 6.1132 152.935 6.11654L153.702 6.28999C153.722 6.29332 153.735 6.31667 153.732 6.33668L153.562 7.09051C153.559 7.11053 153.535 7.12387 153.515 7.12053L152.748 6.94708Z" fill="#5E5E5D"/>
<path d="M154.272 6.29014L155.04 6.46359C155.126 6.4836 155.183 6.57033 155.163 6.66038L154.993 7.41421C154.973 7.50094 154.886 7.55764 154.796 7.53763L154.029 7.36418C153.942 7.34417 153.886 7.25744 153.906 7.16738L154.076 6.41356C154.096 6.3235 154.182 6.27013 154.272 6.29014Z" fill="#585857"/>
<path d="M154.059 7.24078C154.039 7.23745 154.025 7.2141 154.029 7.19409L154.199 6.44026C154.202 6.42025 154.226 6.4069 154.246 6.41024L155.013 6.58369C155.033 6.58702 155.046 6.61037 155.043 6.63038L154.873 7.38421C154.869 7.40423 154.846 7.41757 154.826 7.41423L154.059 7.24078Z" fill="#5E5E5D"/>
<path d="M155.583 6.58349L156.35 6.75694C156.437 6.77695 156.494 6.86368 156.474 6.95374L156.304 7.70757C156.284 7.79429 156.197 7.85099 156.107 7.83098L155.343 7.65753C155.256 7.63752 155.2 7.5508 155.22 7.46074L155.39 6.70691C155.407 6.62018 155.493 6.56348 155.583 6.58349Z" fill="#585857"/>
<path d="M155.37 7.5343C155.35 7.53097 155.336 7.50762 155.34 7.48761L155.51 6.73378C155.513 6.71376 155.537 6.70042 155.557 6.70376L156.324 6.8772C156.344 6.88054 156.357 6.90389 156.354 6.9239L156.18 7.67773C156.177 7.69774 156.154 7.71109 156.134 7.70775L155.37 7.5343Z" fill="#5E5E5D"/>
<path d="M156.894 6.88053L157.661 7.05398C157.748 7.074 157.805 7.16072 157.785 7.25078L157.615 8.00461C157.595 8.09133 157.508 8.14803 157.418 8.12802L156.651 7.95457C156.564 7.93456 156.507 7.84784 156.527 7.75778L156.697 7.00395C156.717 6.91389 156.807 6.86052 156.894 6.88053Z" fill="#585857"/>
<path d="M156.681 7.83118C156.661 7.82784 156.648 7.80449 156.651 7.78448L156.821 7.03065C156.824 7.01064 156.848 6.9973 156.868 7.00063L157.635 7.17408C157.655 7.17742 157.668 7.20076 157.665 7.22078L157.495 7.97461C157.491 7.99462 157.468 8.00796 157.448 8.00463L156.681 7.83118Z" fill="#5E5E5D"/>
<path d="M158.205 7.17389L158.972 7.34733C159.059 7.36735 159.115 7.45407 159.095 7.54413L158.925 8.29796C158.905 8.38468 158.818 8.44139 158.728 8.42137L157.961 8.24792C157.875 8.22791 157.818 8.14119 157.838 8.05113L158.011 7.2973C158.028 7.21058 158.118 7.15387 158.205 7.17389Z" fill="#585857"/>
<path d="M157.991 8.12476C157.971 8.12142 157.958 8.09807 157.961 8.07806L158.132 7.32423C158.135 7.30422 158.158 7.29088 158.178 7.29421L158.945 7.46766C158.965 7.47099 158.979 7.49434 158.975 7.51436L158.805 8.26819C158.802 8.2882 158.779 8.30154 158.759 8.29821L157.991 8.12476Z" fill="#5E5E5D"/>
<path d="M142.194 4.85583L142.961 5.02928C143.048 5.04929 143.105 5.13602 143.085 5.22608L142.915 5.9799C142.895 6.06663 142.808 6.12333 142.718 6.10332L141.951 5.92987C141.864 5.90986 141.807 5.82313 141.827 5.73307L142.001 4.97925C142.021 4.89252 142.107 4.83582 142.194 4.85583Z" fill="#585857"/>
<path d="M141.981 5.8064C141.961 5.80306 141.948 5.77971 141.951 5.7597L142.121 5.00587C142.124 4.98586 142.148 4.97252 142.168 4.97585L142.935 5.1493C142.955 5.15263 142.968 5.17598 142.965 5.196L142.795 5.94983C142.791 5.96984 142.768 5.98318 142.748 5.97985L141.981 5.8064Z" fill="#5E5E5D"/>
<path d="M143.509 5.15263L144.276 5.32608C144.363 5.34609 144.419 5.43281 144.399 5.52287L144.229 6.2767C144.209 6.36342 144.123 6.42013 144.033 6.40011L143.265 6.22667C143.179 6.20666 143.122 6.11993 143.142 6.02987L143.312 5.27604C143.332 5.18598 143.419 5.13262 143.509 5.15263Z" fill="#585857"/>
<path d="M143.292 6.10327C143.272 6.09994 143.259 6.07659 143.262 6.05658L143.432 5.30275C143.435 5.28273 143.459 5.26939 143.479 5.27273L144.246 5.44618C144.266 5.44951 144.279 5.47286 144.276 5.49287L144.106 6.2467C144.103 6.26671 144.079 6.28006 144.059 6.27672L143.292 6.10327Z" fill="#5E5E5D"/>
<path d="M144.819 5.44623L145.587 5.61967C145.673 5.63969 145.73 5.72641 145.71 5.81647L145.54 6.5703C145.52 6.65702 145.433 6.71372 145.343 6.69371L144.576 6.52026C144.489 6.50025 144.433 6.41353 144.453 6.32347L144.623 5.56964C144.643 5.48292 144.729 5.42621 144.819 5.44623Z" fill="#585857"/>
<path d="M144.606 6.39679C144.586 6.39346 144.573 6.37011 144.576 6.35009L144.746 5.59627C144.75 5.57625 144.773 5.56291 144.793 5.56625L145.56 5.73969C145.58 5.74303 145.593 5.76638 145.59 5.78639L145.42 6.54022C145.417 6.56023 145.393 6.57357 145.373 6.57024L144.606 6.39679Z" fill="#5E5E5D"/>
<path d="M146.13 5.73974L146.897 5.91319C146.984 5.9332 147.041 6.01993 147.021 6.10999L146.851 6.86382C146.831 6.95054 146.744 7.00724 146.654 6.98723L145.887 6.81378C145.8 6.79377 145.743 6.70705 145.763 6.61699L145.933 5.86316C145.953 5.77644 146.04 5.71973 146.13 5.73974Z" fill="#585857"/>
<path d="M145.917 6.69031C145.897 6.68697 145.883 6.66363 145.887 6.64361L146.057 5.88978C146.06 5.86977 146.084 5.85643 146.104 5.85976L146.871 6.03321C146.891 6.03655 146.904 6.0599 146.901 6.07991L146.731 6.83374C146.727 6.85375 146.704 6.86709 146.684 6.86376L145.917 6.69031Z" fill="#5E5E5D"/>
<path d="M147.442 6.03654L148.209 6.20999C148.295 6.23 148.352 6.31672 148.332 6.40678L148.162 7.16061C148.142 7.24734 148.055 7.30404 147.965 7.28403L147.198 7.11058C147.111 7.09057 147.055 7.00384 147.075 6.91378L147.245 6.15995C147.265 6.0699 147.355 6.01653 147.442 6.03654Z" fill="#585857"/>
<path d="M147.228 6.98718C147.208 6.98385 147.194 6.9605 147.198 6.94049L147.368 6.18666C147.371 6.16665 147.395 6.1533 147.415 6.15664L148.182 6.33009C148.202 6.33342 148.215 6.35677 148.212 6.37678L148.042 7.13061C148.038 7.15063 148.015 7.16397 147.995 7.16063L147.228 6.98718Z" fill="#5E5E5D"/>
<path d="M148.752 6.32989L149.519 6.50334C149.606 6.52335 149.663 6.61008 149.643 6.70014L149.473 7.45397C149.453 7.54069 149.366 7.59739 149.276 7.57738L148.509 7.40393C148.422 7.38392 148.365 7.2972 148.385 7.20714L148.555 6.45331C148.575 6.36658 148.665 6.30988 148.752 6.32989Z" fill="#585857"/>
<path d="M148.539 7.28076C148.519 7.27743 148.506 7.25408 148.509 7.23407L148.679 6.48024C148.682 6.46022 148.706 6.44688 148.726 6.45022L149.493 6.62367C149.513 6.627 149.526 6.65035 149.523 6.67036L149.353 7.42419C149.349 7.4442 149.326 7.45755 149.306 7.45421L148.539 7.28076Z" fill="#5E5E5D"/>
<path d="M150.063 6.62693L150.83 6.80038C150.917 6.82039 150.973 6.90712 150.953 6.99718L150.783 7.75101C150.763 7.83773 150.676 7.89443 150.586 7.87442L149.819 7.70097C149.733 7.68096 149.676 7.59424 149.696 7.50418L149.866 6.75035C149.889 6.66029 149.976 6.60692 150.063 6.62693Z" fill="#585857"/>
<path d="M149.849 7.57758C149.829 7.57424 149.816 7.55089 149.819 7.53088L149.99 6.77705C149.993 6.75704 150.016 6.7437 150.036 6.74703L150.803 6.92048C150.823 6.92381 150.837 6.94716 150.833 6.96718L150.663 7.72101C150.66 7.74102 150.637 7.75436 150.617 7.75103L149.849 7.57758Z" fill="#5E5E5D"/>
<path d="M151.374 6.92029L152.141 7.09373C152.228 7.11375 152.284 7.20047 152.264 7.29053L152.094 8.04436C152.074 8.13108 151.988 8.18779 151.897 8.16777L151.13 7.99433C151.044 7.97431 150.987 7.88759 151.007 7.79753L151.177 7.0437C151.2 6.95698 151.287 6.90027 151.374 6.92029Z" fill="#585857"/>
<path d="M151.16 7.87116C151.14 7.86782 151.127 7.84447 151.13 7.82446L151.3 7.07063C151.304 7.05062 151.327 7.03728 151.347 7.04061L152.114 7.21406C152.134 7.21739 152.147 7.24074 152.144 7.26076L151.974 8.01458C151.971 8.0346 151.947 8.04794 151.927 8.0446L151.16 7.87116Z" fill="#5E5E5D"/>
<path d="M152.685 7.21405L153.452 7.3875C153.539 7.40751 153.595 7.49423 153.575 7.58429L153.405 8.33812C153.385 8.42484 153.299 8.48155 153.209 8.46153L152.441 8.28809C152.355 8.26807 152.298 8.18135 152.318 8.09129L152.488 7.33746C152.511 7.25074 152.598 7.19403 152.685 7.21405Z" fill="#585857"/>
<path d="M152.471 8.16467C152.451 8.16134 152.438 8.13799 152.441 8.11798L152.611 7.36415C152.615 7.34414 152.638 7.33079 152.658 7.33413L153.425 7.50758C153.445 7.51091 153.458 7.53426 153.455 7.55427L153.285 8.3081C153.282 8.32811 153.258 8.34146 153.238 8.33812L152.471 8.16467Z" fill="#5E5E5D"/>
<path d="M153.995 7.51084L154.763 7.68429C154.849 7.70431 154.906 7.79103 154.886 7.88109L154.716 8.63492C154.696 8.72164 154.609 8.77834 154.519 8.75833L153.752 8.58488C153.665 8.56487 153.609 8.47815 153.629 8.38809L153.799 7.63426C153.822 7.5442 153.909 7.49083 153.995 7.51084Z" fill="#585857"/>
<path d="M153.782 8.46155C153.762 8.45821 153.749 8.43486 153.752 8.41485L153.922 7.66102C153.926 7.64101 153.949 7.62767 153.969 7.631L154.736 7.80445C154.756 7.80779 154.769 7.83114 154.766 7.85115L154.596 8.60498C154.593 8.62499 154.569 8.63833 154.549 8.635L153.782 8.46155Z" fill="#5E5E5D"/>
<path d="M155.31 7.80444L156.077 7.97789C156.164 7.9979 156.22 8.08463 156.2 8.17468L156.03 8.92851C156.01 9.01524 155.923 9.07194 155.833 9.05193L155.066 8.87848C154.979 8.85847 154.923 8.77174 154.943 8.68168L155.113 7.92786C155.133 7.84113 155.22 7.78443 155.31 7.80444Z" fill="#585857"/>
<path d="M155.093 8.75507C155.073 8.75173 155.059 8.72838 155.063 8.70837L155.233 7.95454C155.236 7.93453 155.26 7.92119 155.28 7.92452L156.047 8.09797C156.067 8.1013 156.08 8.12465 156.077 8.14467L155.907 8.89849C155.903 8.91851 155.88 8.93185 155.86 8.92851L155.093 8.75507Z" fill="#5E5E5D"/>
<path d="M156.621 8.10124L157.388 8.27469C157.475 8.2947 157.531 8.38142 157.511 8.47148L157.341 9.22531C157.321 9.31203 157.234 9.36874 157.144 9.34872L156.377 9.17528C156.29 9.15526 156.234 9.06854 156.254 8.97848L156.424 8.22465C156.444 8.13459 156.531 8.08122 156.621 8.10124Z" fill="#585857"/>
<path d="M156.407 9.05194C156.387 9.04861 156.374 9.02526 156.377 9.00524L156.547 8.25142C156.551 8.2314 156.574 8.21806 156.594 8.2214L157.361 8.39484C157.381 8.39818 157.395 8.42153 157.391 8.44154L157.221 9.19537C157.218 9.21538 157.195 9.22872 157.175 9.22539L156.407 9.05194Z" fill="#5E5E5D"/>
<path d="M157.932 8.39483L158.699 8.56828C158.786 8.58829 158.842 8.67502 158.822 8.76508L158.652 9.51891C158.632 9.60563 158.545 9.66233 158.455 9.64232L157.688 9.46887C157.602 9.44886 157.545 9.36214 157.565 9.27208L157.735 8.51825C157.755 8.43152 157.842 8.37482 157.932 8.39483Z" fill="#585857"/>
<path d="M157.718 9.34546C157.698 9.34213 157.685 9.31878 157.688 9.29876L157.858 8.54493C157.861 8.52492 157.885 8.51158 157.905 8.51492L158.672 8.68836C158.692 8.6917 158.705 8.71505 158.702 8.73506L158.532 9.48889C158.529 9.5089 158.505 9.52224 158.485 9.51891L157.718 9.34546Z" fill="#5E5E5D"/>
<path d="M141.921 6.07654L142.688 6.24998C142.775 6.27 142.832 6.35672 142.812 6.44678L142.642 7.20061C142.622 7.28733 142.535 7.34403 142.445 7.32402L141.678 7.15057C141.591 7.13056 141.534 7.04384 141.554 6.95378L141.724 6.19995C141.748 6.11323 141.834 6.05652 141.921 6.07654Z" fill="#585857"/>
<path d="M141.708 7.02716C141.687 7.02383 141.674 7.00048 141.677 6.98046L141.848 6.22664C141.851 6.20662 141.874 6.19328 141.894 6.19662L142.661 6.37006C142.681 6.3734 142.695 6.39675 142.691 6.41676L142.521 7.17059C142.518 7.1906 142.495 7.20394 142.475 7.20061L141.708 7.02716Z" fill="#5E5E5D"/>
<path d="M143.232 6.36999L143.999 6.54343C144.086 6.56345 144.142 6.65017 144.122 6.74023L143.952 7.49406C143.932 7.58078 143.846 7.63749 143.755 7.61747L142.988 7.44402C142.902 7.42401 142.845 7.33729 142.865 7.24723L143.035 6.4934C143.058 6.40668 143.145 6.35331 143.232 6.36999Z" fill="#585857"/>
<path d="M143.019 7.32422C142.999 7.32088 142.985 7.29754 142.989 7.27752L143.159 6.52369C143.162 6.50368 143.185 6.49034 143.205 6.49367L143.973 6.66712C143.993 6.67046 144.006 6.69381 144.003 6.71382L143.832 7.46765C143.829 7.48766 143.806 7.501 143.786 7.49767L143.019 7.32422Z" fill="#5E5E5D"/>
<path d="M144.542 6.66693L145.31 6.84038C145.396 6.86039 145.453 6.94711 145.433 7.03717L145.263 7.791C145.243 7.87772 145.156 7.93443 145.066 7.91441L144.299 7.74097C144.212 7.72095 144.155 7.63423 144.176 7.54417L144.346 6.79034C144.369 6.70362 144.456 6.64692 144.542 6.66693Z" fill="#585857"/>
<path d="M144.329 7.61755C144.309 7.61422 144.296 7.59087 144.299 7.57086L144.469 6.81703C144.473 6.79702 144.496 6.78367 144.516 6.78701L145.283 6.96046C145.303 6.96379 145.316 6.98714 145.313 7.00715L145.143 7.76098C145.14 7.781 145.116 7.79434 145.096 7.791L144.329 7.61755Z" fill="#5E5E5D"/>
<path d="M145.857 6.96045L146.624 7.13389C146.711 7.15391 146.768 7.24063 146.748 7.33069L146.578 8.08452C146.557 8.17124 146.471 8.22795 146.381 8.20793L145.614 8.03449C145.527 8.01447 145.47 7.92775 145.49 7.83769L145.66 7.08386C145.68 6.99714 145.767 6.94043 145.857 6.96045Z" fill="#585857"/>
<path d="M145.64 7.91107C145.62 7.90774 145.607 7.88439 145.61 7.86438L145.78 7.11055C145.784 7.09053 145.807 7.07719 145.827 7.08053L146.594 7.25398C146.614 7.25731 146.628 7.28066 146.624 7.30067L146.454 8.0545C146.451 8.07451 146.427 8.08786 146.407 8.08452L145.64 7.91107Z" fill="#5E5E5D"/>
<path d="M147.168 7.25749L147.935 7.43093C148.022 7.45095 148.078 7.53767 148.058 7.62773L147.888 8.38156C147.868 8.46828 147.781 8.52499 147.691 8.50497L146.924 8.33153C146.837 8.31151 146.781 8.22479 146.801 8.13473L146.971 7.3809C146.991 7.29084 147.078 7.23747 147.168 7.25749Z" fill="#585857"/>
<path d="M146.954 8.20795C146.934 8.20461 146.921 8.18127 146.924 8.16125L147.094 7.40742C147.098 7.38741 147.121 7.37407 147.141 7.3774L147.908 7.55085C147.928 7.55419 147.942 7.57753 147.938 7.59755L147.768 8.35138C147.765 8.37139 147.742 8.38473 147.722 8.3814L146.954 8.20795Z" fill="#5E5E5D"/>
<path d="M148.479 7.55084L149.246 7.72429C149.333 7.7443 149.389 7.83102 149.369 7.92108L149.199 8.67491C149.179 8.76164 149.092 8.81834 149.002 8.79833L148.235 8.62488C148.148 8.60487 148.092 8.51814 148.112 8.42808L148.282 7.67426C148.302 7.58753 148.389 7.53083 148.479 7.55084Z" fill="#585857"/>
<path d="M148.265 8.50147C148.245 8.49813 148.232 8.47478 148.235 8.45477L148.405 7.70094C148.408 7.68093 148.432 7.66759 148.452 7.67092L149.219 7.84437C149.239 7.8477 149.252 7.87105 149.249 7.89107L149.079 8.64489C149.076 8.66491 149.052 8.67825 149.032 8.67491L148.265 8.50147Z" fill="#5E5E5D"/>
<path d="M149.79 7.84429L150.557 8.01774C150.644 8.03775 150.7 8.12448 150.68 8.21453L150.51 8.96836C150.49 9.05509 150.403 9.11179 150.313 9.09178L149.546 8.91833C149.46 8.89832 149.403 8.81159 149.423 8.72153L149.593 7.9677C149.613 7.88098 149.7 7.82761 149.79 7.84429Z" fill="#585857"/>
<path d="M149.576 8.79834C149.556 8.79501 149.543 8.77166 149.546 8.75165L149.716 7.99782C149.719 7.9778 149.743 7.96446 149.763 7.9678L150.53 8.14124C150.55 8.14458 150.563 8.16793 150.56 8.18794L150.39 8.94177C150.387 8.96178 150.363 8.97513 150.343 8.97179L149.576 8.79834Z" fill="#5E5E5D"/>
<path d="M151.1 8.14122L151.868 8.31466C151.954 8.33468 152.011 8.4214 151.991 8.51146L151.821 9.26529C151.801 9.35201 151.714 9.40872 151.624 9.3887L150.857 9.21526C150.77 9.19524 150.713 9.10852 150.733 9.01846L150.904 8.26463C150.924 8.17457 151.014 8.1212 151.1 8.14122Z" fill="#585857"/>
<path d="M150.887 9.09186C150.867 9.08852 150.854 9.06517 150.857 9.04516L151.027 8.29133C151.03 8.27132 151.054 8.25798 151.074 8.26131L151.841 8.43476C151.861 8.4381 151.874 8.46145 151.871 8.48146L151.701 9.23529C151.698 9.2553 151.674 9.26864 151.654 9.26531L150.887 9.09186Z" fill="#5E5E5D"/>
<path d="M152.411 8.43475L153.178 8.6082C153.265 8.62821 153.322 8.71494 153.302 8.80499L153.131 9.55882C153.111 9.64555 153.025 9.70225 152.935 9.68224L152.167 9.50879C152.081 9.48878 152.024 9.40205 152.044 9.31199L152.214 8.55817C152.234 8.47144 152.324 8.41474 152.411 8.43475Z" fill="#585857"/>
<path d="M152.198 9.38538C152.178 9.38204 152.164 9.35869 152.168 9.33868L152.338 8.58485C152.341 8.56484 152.364 8.5515 152.384 8.55483L153.152 8.72828C153.172 8.73162 153.185 8.75496 153.182 8.77498L153.008 9.5288C153.005 9.54882 152.982 9.56216 152.962 9.55882L152.198 9.38538Z" fill="#5E5E5D"/>
<path d="M153.722 8.73161L154.489 8.90506C154.576 8.92507 154.633 9.01179 154.613 9.10185L154.442 9.85568C154.422 9.9424 154.336 9.99911 154.246 9.9791L153.478 9.80565C153.392 9.78563 153.335 9.69891 153.355 9.60885L153.525 8.85502C153.549 8.76496 153.635 8.7116 153.722 8.73161Z" fill="#585857"/>
<path d="M153.508 9.68225C153.488 9.67892 153.475 9.6589 153.478 9.63555L153.648 8.88173C153.652 8.86171 153.675 8.84837 153.695 8.85171L154.462 9.02515C154.482 9.02849 154.496 9.05184 154.492 9.07185L154.322 9.82568C154.319 9.84569 154.295 9.85904 154.275 9.8557L153.508 9.68225Z" fill="#5E5E5D"/>
<path d="M155.033 9.02514L155.8 9.19859C155.887 9.2186 155.944 9.30533 155.924 9.39539L155.754 10.1492C155.734 10.2359 155.647 10.2926 155.557 10.2726L154.79 10.0992C154.703 10.0792 154.646 9.99245 154.666 9.90239L154.836 9.14856C154.86 9.06183 154.946 9.00513 155.033 9.02514Z" fill="#585857"/>
<path d="M154.819 9.97577C154.799 9.97243 154.786 9.94909 154.789 9.92907L154.959 9.17524C154.963 9.15523 154.986 9.14189 155.006 9.14523L155.773 9.31867C155.793 9.32201 155.807 9.34536 155.803 9.36537L155.633 10.1192C155.63 10.1392 155.607 10.1526 155.587 10.1492L154.819 9.97577Z" fill="#5E5E5D"/>
<path d="M156.344 9.31872L157.111 9.49217C157.198 9.51218 157.254 9.59891 157.234 9.68897L157.064 10.4428C157.044 10.5295 156.957 10.5862 156.867 10.5662L156.1 10.3928C156.013 10.3727 155.957 10.286 155.977 10.196L156.147 9.44214C156.17 9.35541 156.257 9.29871 156.344 9.31872Z" fill="#585857"/>
<path d="M156.13 10.2726C156.11 10.2693 156.097 10.246 156.1 10.2259L156.27 9.47212C156.274 9.45211 156.297 9.43876 156.317 9.4421L157.084 9.61555C157.104 9.61888 157.118 9.64223 157.114 9.66224L156.944 10.4127C156.941 10.4328 156.918 10.4461 156.898 10.4428L156.13 10.2726Z" fill="#5E5E5D"/>
<path d="M157.658 9.61552L158.425 9.78897C158.512 9.80898 158.568 9.8957 158.548 9.98576L158.378 10.7396C158.358 10.8263 158.272 10.883 158.182 10.863L157.414 10.6896C157.328 10.6695 157.271 10.5828 157.291 10.4928L157.461 9.73893C157.481 9.64887 157.568 9.59551 157.658 9.61552Z" fill="#585857"/>
<path d="M157.441 10.5662C157.421 10.5628 157.408 10.5395 157.411 10.5195L157.581 9.76564C157.584 9.74562 157.608 9.73228 157.628 9.73562L158.395 9.90907C158.415 9.9124 158.428 9.93575 158.425 9.95576L158.255 10.7096C158.252 10.7296 158.228 10.7429 158.208 10.7396L157.441 10.5662Z" fill="#5E5E5D"/>
<path d="M141.647 7.29748L142.414 7.47093C142.501 7.49094 142.558 7.57767 142.538 7.66773L142.368 8.42155C142.348 8.50828 142.261 8.56498 142.171 8.54497L141.404 8.37152C141.317 8.35151 141.26 8.26479 141.28 8.17473L141.451 7.4209C141.471 7.33417 141.561 7.27747 141.647 7.29748Z" fill="#585857"/>
<path d="M141.434 8.24805C141.414 8.24471 141.401 8.22136 141.404 8.20135L141.574 7.44752C141.577 7.42751 141.601 7.41417 141.621 7.4175L142.388 7.59095C142.408 7.59429 142.421 7.61763 142.418 7.63765L142.248 8.39148C142.245 8.41149 142.221 8.42483 142.201 8.4215L141.434 8.24805Z" fill="#5E5E5D"/>
<path d="M142.958 7.591L143.726 7.76445C143.812 7.78446 143.869 7.87118 143.849 7.96124L143.679 8.71507C143.659 8.8018 143.572 8.8585 143.482 8.83849L142.715 8.66504C142.628 8.64503 142.571 8.5583 142.591 8.46824L142.762 7.71442C142.782 7.62769 142.872 7.57099 142.958 7.591Z" fill="#585857"/>
<path d="M142.745 8.54163C142.725 8.53829 142.712 8.51494 142.715 8.49493L142.885 7.7411C142.889 7.72109 142.912 7.70775 142.932 7.71108L143.699 7.88453C143.719 7.88787 143.732 7.91121 143.729 7.93123L143.559 8.68506C143.556 8.70507 143.532 8.71841 143.512 8.71508L142.745 8.54163Z" fill="#5E5E5D"/>
<path d="M144.269 7.8878L145.037 8.06125C145.123 8.08126 145.18 8.16798 145.16 8.25804L144.99 9.01187C144.97 9.09859 144.883 9.1553 144.793 9.13528L144.026 8.96184C143.939 8.94182 143.882 8.8551 143.903 8.76504L144.076 8.01121C144.096 7.92115 144.183 7.86778 144.269 7.8878Z" fill="#585857"/>
<path d="M144.056 8.83826C144.036 8.83492 144.022 8.81157 144.026 8.79156L144.196 8.03773C144.199 8.01772 144.222 8.00438 144.242 8.00771L145.01 8.18116C145.03 8.18449 145.043 8.20784 145.04 8.22786L144.87 8.98169C144.866 9.0017 144.843 9.01504 144.823 9.01171L144.056 8.83826Z" fill="#5E5E5D"/>
<path d="M145.58 8.18139L146.347 8.35484C146.434 8.37485 146.491 8.46158 146.471 8.55164L146.3 9.30547C146.28 9.39219 146.194 9.44889 146.104 9.42888L145.337 9.25543C145.25 9.23542 145.193 9.1487 145.213 9.05864L145.383 8.30481C145.407 8.21809 145.493 8.16138 145.58 8.18139Z" fill="#585857"/>
<path d="M145.367 9.13202C145.347 9.12869 145.333 9.10534 145.337 9.08532L145.507 8.33149C145.51 8.31148 145.534 8.29814 145.554 8.30148L146.321 8.47492C146.341 8.47826 146.354 8.50161 146.351 8.52162L146.181 9.27545C146.177 9.29546 146.154 9.3088 146.134 9.30547L145.367 9.13202Z" fill="#5E5E5D"/>
<path d="M151.59 9.53227L146.884 8.4749C146.797 8.45489 146.714 8.50826 146.694 8.59498L146.51 9.40552C146.497 9.46556 146.534 9.5256 146.594 9.53894L151.344 10.6063C151.43 10.6263 151.52 10.5696 151.54 10.4829L151.71 9.72906C151.734 9.64234 151.68 9.55228 151.59 9.53227Z" fill="#585857"/>
<path d="M146.641 9.41879L146.821 8.6216C146.824 8.60492 146.844 8.59158 146.861 8.59825L151.567 9.65561C151.587 9.65895 151.601 9.6823 151.597 9.70231L151.427 10.4561C151.424 10.4762 151.4 10.4895 151.38 10.4862L146.641 9.41879Z" fill="#5E5E5D"/>
<path d="M152.138 9.6557L152.905 9.82915C152.992 9.84916 153.049 9.93588 153.029 10.0259L152.858 10.7798C152.838 10.8665 152.752 10.9232 152.662 10.9032L151.894 10.7297C151.808 10.7097 151.751 10.623 151.771 10.5329L151.941 9.77911C151.961 9.69239 152.048 9.63569 152.138 9.6557Z" fill="#585857"/>
<path d="M151.924 10.6063C151.904 10.603 151.891 10.5796 151.894 10.5596L152.064 9.8058C152.068 9.78579 152.091 9.77244 152.111 9.77578L152.878 9.94923C152.898 9.95256 152.912 9.97591 152.908 9.99592L152.738 10.7498C152.735 10.7698 152.711 10.7831 152.691 10.7798L151.924 10.6063Z" fill="#5E5E5D"/>
<path d="M153.449 9.95256L154.216 10.126C154.302 10.146 154.359 10.2327 154.339 10.3228L154.169 11.0766C154.149 11.1634 154.062 11.2201 153.972 11.2L153.205 11.0266C153.118 11.0066 153.062 10.9199 153.082 10.8298L153.252 10.076C153.272 9.98591 153.362 9.93254 153.449 9.95256Z" fill="#585857"/>
<path d="M153.235 10.9032C153.215 10.8999 153.202 10.8765 153.205 10.8565L153.375 10.1027C153.379 10.0827 153.402 10.0693 153.422 10.0727L154.189 10.2461C154.209 10.2494 154.223 10.2728 154.219 10.2928L154.049 11.0466C154.046 11.0666 154.022 11.08 154.002 11.0766L153.235 10.9032Z" fill="#5E5E5D"/>
<path d="M154.759 10.2461L155.526 10.4195C155.613 10.4396 155.67 10.5263 155.65 10.6163L155.48 11.3702C155.46 11.4569 155.373 11.5136 155.283 11.4936L154.516 11.3201C154.429 11.3001 154.372 11.2134 154.392 11.1233L154.562 10.3695C154.582 10.2828 154.672 10.2261 154.759 10.2461Z" fill="#585857"/>
<path d="M154.546 11.1967C154.526 11.1934 154.513 11.17 154.516 11.15L154.686 10.3962C154.689 10.3762 154.713 10.3628 154.733 10.3662L155.5 10.5396C155.52 10.543 155.533 10.5663 155.53 10.5863L155.36 11.3401C155.356 11.3602 155.336 11.3735 155.313 11.3702L154.546 11.1967Z" fill="#5E5E5D"/>
<path d="M156.07 10.5394L156.837 10.7129C156.924 10.7329 156.981 10.8196 156.961 10.9097L156.791 11.6635C156.771 11.7502 156.684 11.8069 156.594 11.7869L155.827 11.6135C155.74 11.5935 155.683 11.5067 155.703 11.4167L155.873 10.6628C155.897 10.5761 155.983 10.5194 156.07 10.5394Z" fill="#585857"/>
<path d="M155.856 11.4902C155.836 11.4869 155.823 11.4636 155.826 11.4435L155.997 10.6897C156 10.6697 156.023 10.6564 156.043 10.6597L156.81 10.8331C156.83 10.8365 156.844 10.8598 156.84 10.8798L156.67 11.6337C156.667 11.6537 156.644 11.667 156.624 11.6637L155.856 11.4902Z" fill="#5E5E5D"/>
<path d="M157.381 10.8365L158.148 11.0099C158.235 11.0299 158.292 11.1167 158.272 11.2067L158.102 11.9605C158.082 12.0473 157.995 12.104 157.905 12.084L157.138 11.9105C157.051 11.8905 156.994 11.8038 157.014 11.7137L157.184 10.9599C157.208 10.8698 157.295 10.8165 157.381 10.8365Z" fill="#585857"/>
<path d="M157.168 11.7871C157.148 11.7838 157.135 11.7604 157.138 11.7404L157.308 10.9866C157.311 10.9666 157.335 10.9532 157.355 10.9566L158.122 11.13C158.142 11.1333 158.155 11.1567 158.152 11.1767L157.982 11.9305C157.979 11.9506 157.955 11.9639 157.935 11.9606L157.168 11.7871Z" fill="#5E5E5D"/>
<path d="M151.354 11.6602L147.504 10.7963C147.331 10.7563 147.158 10.8664 147.121 11.0398L146.657 13.0978C146.617 13.2713 146.727 13.4447 146.901 13.4814L150.75 14.3453C150.923 14.3853 151.097 14.2753 151.134 14.1018L151.597 12.0438C151.637 11.8703 151.527 11.7002 151.354 11.6602Z" fill="#EDEDED"/>
<path d="M151.384 11.5367L147.534 10.6728C147.294 10.6194 147.054 10.7695 147.001 11.0097L146.537 13.0677C146.484 13.3079 146.634 13.548 146.874 13.6014L150.723 14.4653C150.963 14.5187 151.204 14.3686 151.257 14.1284L151.721 12.0704C151.774 11.8302 151.624 11.5934 151.384 11.5367ZM151.137 14.1017C151.097 14.2752 150.927 14.3853 150.753 14.3452L146.904 13.4813C146.731 13.4413 146.621 13.2712 146.661 13.0977L147.124 11.0397C147.164 10.8663 147.334 10.7562 147.508 10.7962L151.357 11.6601C151.53 11.7002 151.641 11.8703 151.6 12.0437L151.137 14.1017Z" fill="#9D9B9B"/>
<path d="M146.888 12.0837L146.661 13.0977C146.621 13.2712 146.731 13.4446 146.904 13.4813L150.754 14.3452C150.927 14.3853 151.1 14.2752 151.137 14.1017L151.364 13.0877L146.888 12.0837Z" fill="#DFDFDE"/>
<path d="M149.109 12.581L146.888 12.0806L146.661 13.0946C146.621 13.2681 146.731 13.4415 146.904 13.4782L148.812 13.9085L149.109 12.581Z" fill="#D9D9DA"/>
<path d="M160.59 5.75305L141.691 1.50359C141.581 1.47691 141.504 1.3735 141.514 1.2601L143.492 -9.55367C143.519 -9.85054 143.799 -10.054 144.089 -9.98729L163.338 -5.65778C163.629 -5.59107 163.795 -5.28754 163.692 -5.00735L160.854 5.60962C160.813 5.71636 160.703 5.77973 160.59 5.75305Z" fill="#E3E1E1"/>
<path d="M142.338 0.466161L144.163 -8.66317C144.189 -8.94336 144.453 -9.13682 144.726 -9.07344L162.368 -5.1075C162.641 -5.04746 162.798 -4.75727 162.701 -4.49376L160.447 4.5355C160.367 4.75565 160.136 4.87906 159.906 4.82903L142.702 0.959819C142.471 0.909785 142.318 0.696312 142.338 0.466161Z" fill="#C7C7C6"/>
<path d="M142.465 0.479475L144.289 -8.65653C144.309 -8.85999 144.499 -9.00009 144.699 -8.95339L162.348 -4.98411C162.544 -4.94075 162.661 -4.73061 162.591 -4.54049L160.33 4.49545C160.273 4.65555 160.106 4.74561 159.939 4.70892L142.725 0.836377C142.561 0.799686 142.448 0.646252 142.465 0.479475Z" fill="#C6E6F2"/>
<path opacity="0.24" d="M142.738 -0.394444C143.065 -0.981496 143.512 -1.53519 144.006 -1.9955C145.286 -3.18628 147.071 -3.84338 148.752 -4.20361C150.733 -4.63056 152.952 -5.50447 154.966 -5.32768C157.761 -5.08753 159.653 -4.66058 162.301 -3.74998L162.591 -4.5405C162.661 -4.73063 162.548 -4.94076 162.348 -4.98413L144.699 -8.9534C144.503 -8.99676 144.309 -8.85667 144.289 -8.65654L142.495 0.149247C142.555 -0.0475483 142.651 -0.237674 142.738 -0.394444Z" fill="#B6E0ED"/>
<path d="M157.851 5.13922L144.403 2.1139L144.409 1.88708L157.968 4.93575L157.851 5.13922Z" fill="#585857"/>
</g>
<path d="M33.8077 67.6373C32.9108 63.8457 29.1193 61.5074 25.3483 62.4079C21.5721 63.3085 19.2432 67.1154 20.1401 70.9018C20.772 73.5625 22.8308 75.5069 25.3075 76.1158C25.4502 76.4945 25.7152 78.7919 26.1891 79.5287C26.4031 79.8613 26.6732 79.9176 27.086 79.8306C27.4173 81.0126 28.8034 82.0974 29.9449 81.9899C30.745 81.9132 31.3259 81.3605 31.5858 80.6186C31.7896 80.0404 31.9527 79.3752 32.0546 78.7305C32.605 78.7152 32.87 78.6589 32.8445 78.1421C32.7987 77.2466 31.8304 74.7803 31.7947 74.4017C33.5529 72.7285 34.409 70.1803 33.8077 67.6373Z" fill="#FDFFFC"/>
<path d="M30.1538 67.3816C30.0468 66.9979 29.6697 66.742 29.2722 66.8393C28.9002 66.9262 28.6199 67.3407 28.732 67.7245C28.7983 67.9598 28.9715 68.1492 29.1805 68.2361C29.0276 69.2288 28.8339 70.2061 28.7524 71.209C28.676 72.1403 28.5995 73.051 28.3957 73.9567C27.2898 72.2938 26.1891 70.6359 24.9712 69.0548C25.3075 68.7325 25.0527 68.011 24.487 68.144C23.8195 68.3027 24.0641 69.3465 24.7367 69.1879C24.7418 69.1879 24.7469 69.1827 24.752 69.1776C26.0158 70.9736 27.2542 72.7952 28.2836 74.7396C28.3957 74.9494 28.7014 74.9033 28.7728 74.6884C29.1091 73.6855 29.206 72.6622 29.2773 71.6132C29.3588 70.4824 29.578 69.3721 29.6697 68.2464C30.0111 68.1338 30.2557 67.7449 30.1538 67.3816Z" fill="#AEB4FC"/>
<path d="M21.6685 61.2006C20.2467 60.4944 18.8198 59.7832 17.398 59.072C17.1024 58.9287 16.8323 59.3534 17.1279 59.512C18.514 60.2795 19.9052 61.0419 21.2914 61.8095C21.699 62.0346 22.0761 61.4052 21.6685 61.2006Z" fill="#808AFF"/>
<path d="M24.3441 55.7767C24.2269 55.5157 23.8906 55.705 23.9161 55.9404C24.0893 57.414 24.6346 58.9184 25.0627 60.3409C25.1697 60.6888 25.7048 60.5711 25.6181 60.2078C25.2665 58.7444 24.9607 57.1531 24.3441 55.7767Z" fill="#808AFF"/>
<path d="M30.9691 55.347C30.6022 55.6693 30.378 56.181 30.1487 56.6108C29.9092 57.0611 29.6951 57.5216 29.4913 57.9872C29.3282 58.3659 29.955 58.5654 30.113 58.1766C30.3016 57.7007 30.5054 57.2402 30.7398 56.7848C30.9386 56.3908 31.229 56.007 31.3462 55.5823C31.4125 55.3521 31.1373 55.1935 30.9691 55.347Z" fill="#808AFF"/>
</g>
<defs>
<clipPath id="clip0">
<rect width="14" height="17" fill="white" transform="translate(151 27)"/>
</clipPath>
<clipPath id="clip1">
<rect width="32" height="26" fill="white" transform="translate(136 61)"/>
</clipPath>
<clipPath id="clip2">
<rect width="35" height="35" fill="white" transform="translate(38 -14)"/>
</clipPath>
</defs>
</svg>
