<svg width="177" height="97" viewBox="0 0 177 97" fill="none" xmlns="http://www.w3.org/2000/svg">
<path fill-rule="evenodd" clip-rule="evenodd" d="M1.09517 48.7978C5.59644 57.4866 12.6005 71.0065 37 66.8156C56.6432 63.4417 62.4405 73.9291 67.8765 83.7629C68.7514 85.3456 69.617 86.9115 70.5294 88.3999C71.9713 90.7517 74.6102 92 77.3689 92H88.5H99.6311C102.39 92 105.029 90.7517 106.471 88.3999C107.383 86.9115 108.249 85.3456 109.124 83.7629C114.56 73.9291 120.357 63.4417 140 66.8156C164.399 71.0065 171.404 57.4866 175.905 48.7978C176.294 48.0456 176.5 47.2111 176.5 46.3639V7.4764C176.5 1.06043 169.978 -3.29497 164.052 -0.836859L91.9481 29.0698C89.7406 29.9855 87.2594 29.9855 85.0519 29.0698L12.9481 -0.836859C7.0217 -3.29497 0.5 1.06043 0.5 7.4764V46.3639C0.5 47.2111 0.705497 48.0456 1.09517 48.7978Z" fill="#F4A17C"/>
<path d="M104.752 10.2928C104.752 10.2928 105.814 10.4108 106.723 11.2242C107.632 12.0376 108.471 9.96439 106.966 9.54101C105.464 9.11764 104.752 10.2928 104.752 10.2928Z" fill="#F5E2D5"/>
<path d="M103.742 10.1978C103.742 10.1978 104.436 9.39213 105.625 9.10218C106.813 8.81223 105.549 6.96223 104.353 7.95779C103.159 8.95592 103.742 10.1978 103.742 10.1978Z" fill="#F5E2D5"/>
<path d="M89.8798 15.0139C89.8798 15.0139 89.1418 15.7785 88.9709 16.9819C88.7999 18.1828 86.8138 17.1256 87.6942 15.8453C88.5721 14.5649 89.8798 15.0139 89.8798 15.0139Z" fill="#F5E2D5"/>
<path d="M90.5951 14.3006C90.5951 14.3006 89.5411 14.1235 88.4405 14.6572C87.34 15.1909 87.1121 12.9689 88.6762 12.9714C90.2377 12.974 90.5951 14.3006 90.5951 14.3006Z" fill="#F5E2D5"/>
<path d="M105.904 21.318C108.207 17.558 106.999 12.6593 103.204 10.3763C99.4097 8.09342 94.4657 9.29082 92.1617 13.0508C89.8578 16.8108 91.0662 21.7096 94.8609 23.9925C98.6556 26.2754 103.6 25.078 105.904 21.318Z" fill="#F5E2D5"/>
<path d="M92.8036 15.8272C92.6663 15.8631 92.5187 15.8041 92.4488 15.6758C92.3685 15.527 92.4229 15.3397 92.5757 15.2602L94.5774 14.1902L93.236 14.144C93.0651 14.1389 92.9305 13.9952 92.9356 13.8258C92.9408 13.6565 93.0858 13.5231 93.2568 13.5282L95.7427 13.6129C95.8826 13.618 96.0017 13.7155 96.0353 13.8515C96.0664 13.9875 96.0043 14.126 95.88 14.1928L92.8683 15.8016C92.8476 15.8118 92.8269 15.8195 92.8036 15.8272Z" fill="#3F4553"/>
<path d="M103.519 12.9072C103.496 12.9123 103.473 12.9175 103.447 12.9175L100.176 13.0201C100.036 13.0252 99.9095 12.9354 99.868 12.802C99.8266 12.6686 99.881 12.5249 100 12.4505L102.209 11.0854C102.354 10.9956 102.546 11.0393 102.636 11.1829C102.727 11.3266 102.683 11.5165 102.538 11.6063L101.308 12.3658L103.426 12.2991C103.597 12.294 103.742 12.4274 103.747 12.5967C103.75 12.7456 103.654 12.8687 103.519 12.9072Z" fill="#3F4553"/>
<path d="M92.6687 17.213C94.3726 20.3254 97.3972 22.0984 100.184 21.3389C102.967 20.5794 104.653 17.5209 104.511 13.9851L103.436 14.0954C99.9946 14.4469 96.6463 15.3681 93.5155 16.8204L92.6687 17.213Z" fill="#3F4553"/>
<path d="M103.592 17.9802C102.385 17.5876 100.86 17.5543 99.3035 17.9802C97.7161 18.4138 96.4031 19.2375 95.5719 20.2125C96.9832 21.1183 98.5784 21.4672 100.104 21.0516C101.647 20.6282 102.849 19.5018 103.592 17.9802Z" fill="#4E5567"/>
<path d="M50.1748 48.2888C51.4058 44.0625 48.9461 39.6477 44.6808 38.4279C40.4156 37.2081 35.96 39.6454 34.7289 43.8717C33.4979 48.0979 35.9577 52.5128 40.2229 53.7325C44.4882 54.9523 48.9438 52.515 50.1748 48.2888Z" fill="#F5E2D5"/>
<path d="M38.3447 41.2449C38.2127 41.191 38.1324 41.055 38.1557 40.9114C38.1842 40.7446 38.3421 40.6291 38.513 40.6573L40.7582 41.0166L39.7224 40.1724C39.5903 40.0646 39.5722 39.8696 39.6809 39.7387C39.7897 39.6079 39.9865 39.5899 40.1186 39.6977L42.04 41.2655C42.1488 41.3527 42.1825 41.5041 42.1255 41.6298C42.0685 41.7555 41.9313 41.8299 41.794 41.8069L38.4146 41.268C38.3887 41.2603 38.3654 41.2552 38.3447 41.2449Z" fill="#3F4553"/>
<path d="M48.641 45.3889C48.6177 45.3787 48.597 45.3684 48.5763 45.353L45.9194 43.4619C45.8055 43.3798 45.7614 43.2336 45.8106 43.1027C45.8598 42.9719 45.9919 42.8923 46.1317 42.9051L48.7213 43.154C48.8922 43.1694 49.0165 43.3208 49.001 43.4902C48.9854 43.6595 48.8327 43.7827 48.6617 43.7673L47.2194 43.6287L48.9414 44.8527C49.0813 44.9527 49.1123 45.1426 49.0113 45.2812C48.9233 45.4018 48.7705 45.4428 48.641 45.3889Z" fill="#3F4553"/>
<path d="M43.4645 49.4275C42.2914 49.4275 41.2453 49.1658 40.3337 48.6449C37.9332 47.2722 37.379 44.6088 37.3557 44.4959C37.3143 44.288 37.4516 44.0853 37.6613 44.0443C37.8711 44.0032 38.0756 44.1392 38.1171 44.347C38.1222 44.3701 38.6324 46.7872 40.7299 47.9829C42.2578 48.8553 44.2569 48.8835 46.673 48.0676C46.8776 47.9983 47.0977 48.1061 47.165 48.3088C47.2349 48.5089 47.1262 48.7296 46.9216 48.7963C45.6708 49.2145 44.5159 49.4275 43.4645 49.4275Z" fill="#3F4553"/>
<path d="M90.947 70.8079C94.3985 67.3879 94.3985 61.8431 90.947 58.4232C87.4955 55.0033 81.8996 55.0033 78.4481 58.4232C74.9966 61.8431 74.9966 67.3879 78.4481 70.8079C81.8996 74.2278 87.4955 74.2278 90.947 70.8079Z" fill="#F5E2D5"/>
<path d="M79.7186 67.4809C79.7186 67.4809 85.4027 64.2658 90.8796 63.4883C90.8796 63.4883 92.4515 68.6201 87.2154 70.6061C82.6759 72.3279 79.7186 67.4809 79.7186 67.4809Z" fill="#3F4553"/>
<path d="M80.8401 65.0074C80.6536 65.0074 80.4723 64.9074 80.3791 64.7303L79.0895 62.2619C78.9574 62.0105 79.0584 61.7 79.3122 61.5692C79.566 61.4383 79.8793 61.5384 80.0114 61.7898L81.301 64.2582C81.4331 64.5097 81.3321 64.8201 81.0783 64.951C81.0006 64.9895 80.9203 65.0074 80.8401 65.0074Z" fill="#3F4553"/>
<path d="M87.7127 62.5364C87.4744 62.5364 87.2595 62.3722 87.2077 62.131L86.6069 59.3214C86.5474 59.0443 86.726 58.7723 87.0057 58.7133C87.2854 58.6543 87.5599 58.8313 87.6194 59.1084L88.2202 61.9181C88.2798 62.1952 88.1011 62.4672 87.8214 62.5262C87.7826 62.5339 87.7463 62.5364 87.7127 62.5364Z" fill="#3F4553"/>
<path d="M88.606 69.5823C88.1295 68.42 86.4644 67.9453 84.8382 68.5252C83.937 68.8485 83.2378 69.4284 82.8571 70.0827C84.0354 70.6703 85.5011 70.9346 87.1843 70.2956C87.7307 70.0904 88.1968 69.8492 88.606 69.5823Z" fill="#4E5567"/>
<path d="M135.828 41.9172C140.313 40.0082 142.387 34.8582 140.461 30.4143C138.534 25.9705 133.336 23.9156 128.852 25.8246C124.367 27.7336 122.293 32.8836 124.219 37.3274C126.146 41.7713 131.344 43.8262 135.828 41.9172Z" fill="#F5E2D5"/>
<path d="M133.467 35.8207C130.414 35.8207 128.096 34.0605 128.063 34.0348C127.951 33.9476 127.931 33.7859 128.019 33.6756C128.107 33.5653 128.27 33.5448 128.381 33.632C128.568 33.7757 132.998 37.1293 137.613 33.9989C137.732 33.9194 137.893 33.9502 137.973 34.0656C138.053 34.1837 138.025 34.3427 137.906 34.4223C136.373 35.4615 134.845 35.8207 133.467 35.8207Z" fill="#3F4553"/>
<path d="M135.987 31.1714C135.987 31.7102 135.775 32.149 135.51 32.149C135.246 32.149 135.034 31.7128 135.034 31.1714C135.034 30.63 135.246 30.1937 135.51 30.1937C135.775 30.1937 135.987 30.6325 135.987 31.1714Z" fill="#3F4553"/>
<path d="M131.411 30.984C131.411 31.5229 131.199 31.9616 130.935 31.9616C130.671 31.9616 130.458 31.5254 130.458 30.984C130.458 30.4452 130.671 30.0064 130.935 30.0064C131.199 30.0064 131.411 30.4426 131.411 30.984Z" fill="#3F4553"/>
<path d="M109.989 94.8773C121.9 94.8773 131.556 92.7152 131.556 90.0482C131.556 87.3813 121.9 85.2192 109.989 85.2192C98.0781 85.2192 88.4221 87.3813 88.4221 90.0482C88.4221 92.7152 98.0781 94.8773 109.989 94.8773Z" fill="#F4A17C"/>
<path opacity="0.5" d="M109.989 94.8773C121.9 94.8773 131.556 92.7152 131.556 90.0482C131.556 87.3813 121.9 85.2192 109.989 85.2192C98.0781 85.2192 88.4221 87.3813 88.4221 90.0482C88.4221 92.7152 98.0781 94.8773 109.989 94.8773Z" fill="#F4A17C"/>
<path d="M108.32 26.2114C108.32 26.2114 106.668 26.0626 106.518 24.5744C106.368 23.0862 110.275 21.2233 112.753 21.1489C115.234 21.0745 117.637 23.7559 117.637 25.9138C117.637 28.0717 118.013 31.1251 119.89 31.7204C121.768 32.3157 123.047 35.9644 121.918 37.3038C120.791 38.6432 120.867 38.6432 121.993 39.8363C123.119 41.0269 122.143 43.1129 121.392 43.5594C120.641 44.0059 118.386 44.6756 113.352 44.2291C108.317 43.7826 105.311 39.241 105.086 37.3782C104.86 35.5179 106.588 34.2503 107.188 33.4318C107.789 32.6133 106.738 31.9436 106.813 31.0481C106.888 30.1552 108.015 29.4111 108.315 28.6644C108.62 27.9229 108.32 26.2114 108.32 26.2114Z" fill="#3F4553"/>
<path d="M116.428 44.5036C115.545 44.5036 114.524 44.46 113.344 44.3548C108.066 43.8853 105.171 39.123 104.961 37.3936C104.777 35.8848 105.813 34.7712 106.567 33.9578C106.779 33.7295 106.96 33.5319 107.09 33.3574C107.393 32.9417 107.209 32.5697 106.997 32.136C106.828 31.7973 106.657 31.4484 106.691 31.0404C106.738 30.4733 107.157 29.9858 107.564 29.5163C107.833 29.2032 108.087 28.9082 108.203 28.6208C108.449 28.0127 108.265 26.6861 108.211 26.3243C107.833 26.2602 106.528 25.9394 106.391 24.5846C106.354 24.2331 106.512 23.8585 106.854 23.471C107.939 22.2471 110.749 21.0771 112.751 21.018C113.882 20.9873 115.092 21.5133 116.086 22.4703C117.124 23.4685 117.769 24.7873 117.769 25.9138C117.769 27.7817 118.051 31.0019 119.934 31.5998C120.921 31.9128 121.835 33.0598 122.265 34.5198C122.617 35.718 122.526 36.7906 122.024 37.3884C121.003 38.5995 121.003 38.5995 121.995 39.6438L122.096 39.749C122.658 40.3418 122.687 41.0859 122.614 41.6042C122.482 42.5484 121.925 43.3952 121.467 43.6697C121.079 43.8955 119.742 44.5036 116.428 44.5036ZM112.852 21.2746C112.82 21.2746 112.789 21.2746 112.756 21.2772C110.847 21.3336 108.071 22.4832 107.046 23.6429C106.751 23.9739 106.616 24.2844 106.644 24.5615C106.782 25.9292 108.315 26.0831 108.33 26.0857C108.39 26.0908 108.436 26.1344 108.447 26.1909C108.46 26.2627 108.75 27.9485 108.439 28.7183C108.307 29.0441 108.04 29.3546 107.758 29.6831C107.38 30.1244 106.986 30.5785 106.947 31.0635C106.919 31.4022 107.077 31.7178 107.227 32.0257C107.457 32.4901 107.693 32.97 107.3 33.5114C107.162 33.6987 106.976 33.9014 106.758 34.1349C106.038 34.9123 105.052 35.9772 105.22 37.3679C105.422 39.0434 108.237 43.6492 113.369 44.1059C118.911 44.5986 120.864 43.7313 121.332 43.4542C121.731 43.2181 122.236 42.4304 122.358 41.5734C122.423 41.109 122.397 40.447 121.907 39.9287L121.809 39.8235C120.742 38.6996 120.69 38.5816 121.83 37.2268C122.278 36.6931 122.35 35.7103 122.021 34.5942C121.69 33.4626 120.892 32.1745 119.861 31.8487C117.821 31.2021 117.518 27.8561 117.518 25.9189C117.518 24.8592 116.904 23.6122 115.915 22.6602C114.988 21.775 113.88 21.2746 112.852 21.2746Z" fill="#3F4553"/>
<path d="M120.304 38.1788C120.258 38.1788 120.229 38.1736 120.221 38.1711C120.152 38.1557 120.108 38.0864 120.123 38.0171C120.139 37.9478 120.208 37.9042 120.278 37.9196C120.281 37.9196 120.405 37.9401 120.561 37.8272C120.76 37.6836 121.024 37.3218 121.156 36.4006C121.327 35.2152 119.432 33.6602 117.427 32.0155C116.536 31.2842 115.615 30.5273 114.807 29.7524C112.129 27.1839 111.751 24.1459 111.746 24.1151C111.738 24.0459 111.79 23.9817 111.86 23.974C111.924 23.9663 111.994 24.0176 112.002 24.0869C112.005 24.1151 112.375 27.0685 114.985 29.5676C115.786 30.3349 116.702 31.0892 117.59 31.8154C119.742 33.5807 121.602 35.1074 121.41 36.434C121.291 37.2576 121.05 37.799 120.693 38.0428C120.535 38.1582 120.39 38.1788 120.304 38.1788Z" fill="#AC9B8F"/>
<path d="M107.533 24.9926C106.694 24.9926 106.427 24.6693 106.414 24.6514C106.37 24.5949 106.38 24.5154 106.437 24.4718C106.492 24.4281 106.575 24.4384 106.619 24.4949C106.621 24.4974 107.054 24.9772 108.651 24.5795C110.329 24.1639 112.038 22.8219 112.054 22.8065C112.111 22.7629 112.191 22.7706 112.235 22.827C112.279 22.8835 112.272 22.963 112.215 23.0066C112.142 23.0631 110.446 24.3974 108.713 24.8259C108.232 24.949 107.843 24.9926 107.533 24.9926Z" fill="#AC9B8F"/>
<path d="M100.43 87.4387C100.43 87.4387 101.548 88.8936 102.799 89.5787C104.05 90.2638 106.295 89.7916 105.648 88.1674C105 86.5432 103.964 85.6862 103.187 85.3886C102.411 85.0884 100.391 85.8556 100.43 87.4387Z" fill="#E49621"/>
<path d="M104.07 90.0122C103.61 90.0122 103.133 89.907 102.737 89.6915C101.476 89.0013 100.373 87.5772 100.326 87.5182C100.31 87.4977 100.3 87.4695 100.3 87.4438C100.285 86.769 100.621 86.1557 101.253 85.7144C101.89 85.2705 102.742 85.078 103.234 85.2679C103.622 85.4167 104.948 86.0633 105.767 88.1212C105.997 88.6985 105.901 89.2117 105.497 89.5632C105.158 89.8609 104.625 90.0122 104.07 90.0122ZM100.559 87.395C100.733 87.6131 101.753 88.8602 102.861 89.4683C103.633 89.8891 104.785 89.8429 105.329 89.3708C105.65 89.0911 105.717 88.6934 105.528 88.2161C104.749 86.2558 103.503 85.6477 103.141 85.5091C102.781 85.3706 102.032 85.4886 101.403 85.9274C101.085 86.1455 100.559 86.6278 100.559 87.395Z" fill="#3F4553"/>
<path d="M102.022 89.0218L102.035 89.0603C102.278 89.2527 102.535 89.4323 102.799 89.576C104.05 90.2611 106.295 89.789 105.648 88.1648C103.62 86.928 102.022 89.0218 102.022 89.0218Z" fill="#F1BD54"/>
<path d="M104.07 90.0123C103.61 90.0123 103.133 89.9071 102.737 89.6915C102.488 89.5555 102.227 89.3785 101.955 89.163C101.934 89.1476 101.919 89.1245 101.911 89.0988L101.898 89.0578C101.885 89.0193 101.893 88.9757 101.919 88.9423C101.937 88.9218 103.61 86.769 105.715 88.0545C105.738 88.0699 105.756 88.0904 105.767 88.1161C105.997 88.6934 105.901 89.2066 105.497 89.5581C105.158 89.8609 104.625 90.0123 104.07 90.0123ZM102.19 89.0218C102.424 89.2015 102.649 89.3503 102.861 89.4683C103.633 89.8891 104.785 89.8429 105.329 89.3708C105.64 89.0988 105.715 88.7165 105.544 88.2572C103.853 87.2539 102.499 88.6575 102.19 89.0218Z" fill="#3F4553"/>
<path d="M102.799 89.5787C103.972 90.2202 106.018 89.8481 105.735 88.46C105.316 88.9039 104.479 89.4479 103.317 89.0219C102.069 88.5678 100.999 87.3233 100.556 86.7511C100.473 86.959 100.422 87.1873 100.429 87.4388C100.429 87.4388 101.548 88.8936 102.799 89.5787Z" fill="#F1BD54"/>
<path d="M104.07 90.0097C103.607 90.0097 103.128 89.9045 102.737 89.689C101.475 88.9988 100.372 87.5747 100.326 87.5157C100.31 87.4952 100.3 87.467 100.3 87.4413C100.295 87.1924 100.339 86.9435 100.437 86.7023C100.455 86.6587 100.494 86.6279 100.541 86.6228C100.585 86.6151 100.631 86.6356 100.66 86.6715C101.064 87.1924 102.133 88.4523 103.361 88.9013C104.554 89.3375 105.352 88.6755 105.64 88.3701C105.673 88.3342 105.722 88.3214 105.769 88.3342C105.816 88.3471 105.852 88.3855 105.86 88.4317C105.958 88.9192 105.795 89.3477 105.399 89.6351C105.062 89.8866 104.575 90.0097 104.07 90.0097ZM100.559 87.3951C100.732 87.6132 101.753 88.8602 102.861 89.4683C103.583 89.8635 104.679 89.8481 105.248 89.4324C105.497 89.2528 105.627 89.0193 105.632 88.7371C105.21 89.0963 104.397 89.5556 103.27 89.145C102.113 88.7217 101.1 87.6312 100.603 87.0205C100.574 87.1437 100.559 87.2668 100.559 87.3951Z" fill="#3F4553"/>
<path d="M119.188 87.3849C119.188 87.3849 118.07 88.8397 116.819 89.5248C115.568 90.2099 113.323 89.7378 113.97 88.1136C114.618 86.4894 115.654 85.6324 116.431 85.3347C117.207 85.0345 119.227 85.8017 119.188 87.3849Z" fill="#E49621"/>
<path d="M115.548 89.9585C114.994 89.9585 114.46 89.8045 114.118 89.5069C113.714 89.1553 113.619 88.6447 113.849 88.0648C114.667 86.0096 115.996 85.363 116.382 85.2116C116.874 85.0217 117.726 85.2141 118.363 85.658C118.994 86.0968 119.334 86.7126 119.316 87.3874C119.316 87.4131 119.305 87.4413 119.29 87.4619C119.243 87.5234 118.14 88.9475 116.879 89.6352C116.485 89.8507 116.009 89.9585 115.548 89.9585ZM116.83 85.3963C116.69 85.3963 116.571 85.4143 116.475 85.4502C116.112 85.5888 114.869 86.1994 114.087 88.1572C113.898 88.6345 113.966 89.0322 114.287 89.3119C114.83 89.7866 115.983 89.8302 116.755 89.4094C117.863 88.8038 118.883 87.5568 119.057 87.3387C119.057 86.5715 118.531 86.0891 118.212 85.8684C117.749 85.5451 117.221 85.3963 116.83 85.3963Z" fill="#3F4553"/>
<path d="M117.596 88.9679L117.583 89.0064C117.339 89.1988 117.083 89.3784 116.819 89.5221C115.568 90.2072 113.323 89.7351 113.97 88.1109C115.998 86.8715 117.596 88.9679 117.596 88.9679Z" fill="#F1BD54"/>
<path d="M115.547 89.9585C114.993 89.9585 114.46 89.8045 114.118 89.5069C113.714 89.1554 113.618 88.6447 113.849 88.0648C113.859 88.0392 113.877 88.0161 113.9 88.0033C116.006 86.7177 117.681 88.868 117.697 88.8911C117.723 88.9244 117.73 88.968 117.718 89.0065L117.705 89.045C117.697 89.0707 117.681 89.0912 117.661 89.1066C117.389 89.3221 117.125 89.4992 116.879 89.6352C116.485 89.8507 116.008 89.9585 115.547 89.9585ZM114.074 88.1983C113.903 88.6576 113.978 89.0425 114.289 89.3119C114.833 89.7866 115.985 89.8302 116.757 89.4094C116.969 89.2939 117.194 89.1451 117.428 88.9629C117.117 88.6011 115.762 87.2001 114.074 88.1983Z" fill="#3F4553"/>
<path d="M116.819 89.5247C115.646 90.1662 113.6 89.7942 113.882 88.406C114.302 88.8499 115.138 89.3939 116.301 88.968C117.549 88.5138 118.619 87.2693 119.062 86.6971C119.144 86.905 119.196 87.1333 119.189 87.3848C119.189 87.3848 118.07 88.8397 116.819 89.5247Z" fill="#F1BD54"/>
<path d="M115.548 89.956C115.043 89.956 114.556 89.8302 114.214 89.5839C113.818 89.2965 113.655 88.868 113.753 88.3805C113.763 88.3343 113.797 88.2958 113.844 88.283C113.89 88.2702 113.942 88.283 113.973 88.3189C114.261 88.6243 115.058 89.2837 116.252 88.8501C117.479 88.401 118.552 87.1412 118.953 86.6203C118.981 86.5844 119.028 86.5664 119.072 86.5716C119.119 86.5767 119.157 86.6075 119.176 86.6511C119.271 86.8923 119.318 87.1412 119.313 87.3901C119.313 87.4183 119.302 87.444 119.287 87.4645C119.24 87.5261 118.137 88.9501 116.876 89.6378C116.49 89.8508 116.011 89.956 115.548 89.956ZM113.984 88.6807C113.991 88.963 114.118 89.1965 114.367 89.3761C114.936 89.7918 116.032 89.8072 116.754 89.412C117.863 88.8064 118.883 87.5594 119.056 87.3413C119.056 87.2156 119.041 87.0899 119.01 86.9667C118.513 87.5748 117.5 88.6679 116.343 89.0913C115.219 89.4992 114.406 89.0399 113.984 88.6807Z" fill="#3F4553"/>
<path d="M110.423 31.6178C110.423 31.6178 110.122 34.076 109.897 34.5968C109.672 35.1177 106.891 35.2665 105.689 35.713C104.487 36.1595 101.932 38.3199 100.355 39.8082C98.7775 41.2964 97.3481 45.2427 97.3481 45.7636C97.3481 46.2845 98.9251 44.2754 100.355 42.859C101.781 41.4452 104.938 39.6568 104.938 39.6568C104.938 39.6568 106.067 45.1965 106.217 45.7944C106.368 46.3897 106.215 47.3827 106.215 47.6059C106.215 47.8291 103.058 53.2637 102.532 57.8053C102.007 62.347 102.983 70.9837 102.983 70.9837C102.983 70.9837 101.256 74.3348 101.106 78.0579C100.955 81.781 100.129 86.1738 100.204 86.4715C100.279 86.7691 100.054 87.3644 100.43 87.4388C100.805 87.5132 101.106 86.4715 102.007 86.2482C102.908 86.025 104.109 86.6203 104.262 86.025C104.412 85.4297 104.262 84.2391 104.412 82.674C104.563 81.1113 107.043 74.7069 107.194 72.5489C107.344 70.391 109.146 59.817 109.524 59.2961C109.9 58.7752 109.9 58.7752 109.9 58.7752C109.9 58.7752 110.275 57.8823 110.5 58.8496C110.726 59.817 110.5 69.4211 110.951 70.8375C111.402 72.2513 114.952 81.7502 115.402 82.8664C115.853 83.9826 114.877 85.3245 115.177 85.9198C115.478 86.5151 116.304 86.2919 117.055 86.2919C117.806 86.2919 118.588 87.3849 119.188 87.3849C119.789 87.3849 119.986 86.5151 119.986 85.5477C119.986 84.5804 117.337 75.1559 117.187 72.8466C117.037 70.5373 116.511 68.7514 116.511 68.7514C116.511 68.7514 117.487 58.1055 117.262 55.7962C117.037 53.4869 115.084 47.6059 115.084 47.6059L116.436 40.2546C116.436 40.2546 120.569 42.5639 121.996 44.4242C123.422 46.2845 124.401 46.2101 124.248 44.7218C124.098 43.2336 120.566 38.8408 118.689 36.9036C116.811 34.9689 114.255 35.3409 113.504 34.8201C112.753 34.2992 113.204 29.1623 113.204 29.1623L110.423 31.6178Z" fill="#FED9CE"/>
<path d="M100.471 87.5721C100.45 87.5721 100.427 87.5696 100.406 87.5644C100.044 87.4926 100.067 87.1077 100.085 86.828C100.093 86.7074 100.101 86.5817 100.08 86.5022C100.049 86.3816 100.101 85.9813 100.272 84.7702C100.515 83.0433 100.883 80.4338 100.979 78.0527C101.121 74.5477 102.67 71.33 102.853 70.9606C102.784 70.3319 101.903 62.1416 102.405 57.7924C102.828 54.1463 104.959 49.8792 105.762 48.273C105.93 47.9368 106.075 47.6469 106.088 47.5904C106.085 47.5519 106.096 47.4519 106.106 47.321C106.142 46.9233 106.202 46.2613 106.093 45.8277C105.958 45.2888 105.044 40.8242 104.847 39.862C104.197 40.2417 101.665 41.7453 100.445 42.9539C99.948 43.4465 99.4301 44.0161 98.9717 44.5191C97.8349 45.7661 97.5475 46.0483 97.3377 45.9688C97.2937 45.9508 97.2186 45.9046 97.2186 45.7686C97.2186 45.1836 98.661 41.2321 100.264 39.7183C101.548 38.5072 104.324 36.085 105.642 35.5975C106.15 35.4101 106.919 35.2742 107.665 35.1433C108.558 34.9868 109.672 34.7918 109.775 34.5506C109.99 34.0528 110.288 31.6332 110.291 31.6075C110.293 31.5767 110.309 31.5485 110.332 31.5279L113.113 29.0698C113.152 29.0339 113.212 29.0288 113.258 29.0519C113.305 29.075 113.333 29.1263 113.328 29.1776C113.157 31.1354 113.072 34.371 113.574 34.7199C113.8 34.8764 114.248 34.9508 114.768 35.0381C115.918 35.2305 117.49 35.4948 118.777 36.8214C120.646 38.7484 124.215 43.1566 124.373 44.7141C124.461 45.5942 124.155 45.8507 123.964 45.9252C123.474 46.1176 122.736 45.6121 121.887 44.5062C120.649 42.8923 117.293 40.9037 116.524 40.4624L115.211 47.6033C115.382 48.1164 117.169 53.5561 117.386 55.791C117.606 58.0516 116.7 68.0508 116.638 68.7462C116.7 68.9669 117.171 70.6911 117.311 72.8439C117.396 74.1474 118.311 77.8474 119.046 80.8213C119.639 83.223 120.11 85.1217 120.11 85.5528C120.11 86.8203 119.781 87.5182 119.183 87.5182C118.857 87.5182 118.515 87.2617 118.155 86.9922C117.785 86.7151 117.402 86.4252 117.049 86.4252C116.889 86.4252 116.723 86.4354 116.563 86.4457C115.957 86.4842 115.33 86.5227 115.056 85.9813C114.9 85.6759 115.022 85.25 115.162 84.7574C115.327 84.1698 115.514 83.5052 115.278 82.9202C114.822 81.7912 111.283 72.3179 110.824 70.881C110.555 70.0317 110.524 66.4497 110.495 63.2885C110.477 61.2204 110.462 59.2704 110.371 58.8829C110.296 58.5647 110.223 58.5314 110.223 58.5314C110.182 58.5391 110.076 58.6879 110.016 58.829C110.014 58.8393 110.008 58.847 110.003 58.8547L109.628 59.3756C109.296 59.8349 107.489 70.1857 107.323 72.5617C107.238 73.7728 106.43 76.3079 105.715 78.5453C105.145 80.3261 104.609 82.0093 104.542 82.6918C104.467 83.4667 104.467 84.1595 104.467 84.7189C104.467 85.2936 104.467 85.7504 104.389 86.0634C104.275 86.5176 103.752 86.4534 103.198 86.3867C102.822 86.3405 102.398 86.2892 102.04 86.379C101.577 86.4945 101.279 86.8537 101.038 87.1436C100.847 87.3694 100.681 87.5721 100.471 87.5721ZM104.938 39.531C104.956 39.531 104.974 39.5335 104.992 39.5412C105.031 39.5592 105.057 39.5925 105.065 39.6336C105.075 39.69 106.197 45.1785 106.344 45.7635C106.463 46.2382 106.401 46.9284 106.365 47.3415C106.355 47.4621 106.344 47.5545 106.344 47.6058C106.344 47.6751 106.295 47.7777 105.992 48.3859C105.194 49.9818 103.079 54.2181 102.662 57.8206C102.144 62.2955 103.102 70.8836 103.112 70.9708C103.115 70.9965 103.11 71.0221 103.099 71.0427C103.081 71.076 101.383 74.4117 101.235 78.063C101.139 80.4569 100.771 83.0741 100.528 84.8061C100.412 85.6272 100.313 86.3354 100.331 86.4431C100.36 86.5586 100.352 86.7049 100.342 86.8434C100.323 87.1539 100.334 87.2899 100.456 87.313C100.546 87.3284 100.694 87.1488 100.839 86.9743C101.087 86.6715 101.429 86.2584 101.978 86.1224C102.385 86.0223 102.833 86.0762 103.229 86.125C103.757 86.1891 104.081 86.2148 104.138 85.9941C104.21 85.7119 104.21 85.2705 104.21 84.7137C104.21 84.1518 104.21 83.4513 104.286 82.6636C104.353 81.9528 104.871 80.3363 105.469 78.4632C106.178 76.2412 106.984 73.7215 107.067 72.5411C107.196 70.6732 108.986 59.8246 109.421 59.2216L109.788 58.711C109.843 58.5853 110.008 58.2543 110.252 58.2697C110.48 58.2876 110.576 58.593 110.627 58.8188C110.723 59.2319 110.739 61.0177 110.759 63.2783C110.785 66.265 110.816 69.983 111.075 70.7938C111.534 72.2281 115.068 81.6885 115.524 82.815C115.794 83.4821 115.584 84.2211 115.418 84.8164C115.299 85.2397 115.185 85.64 115.296 85.8581C115.493 86.2481 115.985 86.2173 116.555 86.1814C116.723 86.1712 116.892 86.1609 117.06 86.1609C117.5 86.1609 117.917 86.4765 118.321 86.7793C118.645 87.023 118.953 87.254 119.191 87.254C119.794 87.254 119.859 86.0583 119.859 85.5451C119.859 85.1448 119.346 83.069 118.803 80.8752C118.026 77.7371 117.148 74.1808 117.06 72.8542C116.912 70.5885 116.394 68.8052 116.389 68.7872C116.384 68.7719 116.384 68.7565 116.384 68.7411C116.394 68.6333 117.358 58.0798 117.135 55.809C116.915 53.5407 114.98 47.7059 114.962 47.6469C114.955 47.6263 114.955 47.6058 114.957 47.5827L116.309 40.2314C116.317 40.1904 116.343 40.157 116.381 40.1391C116.42 40.1211 116.464 40.1237 116.5 40.1442C116.671 40.2391 120.672 42.4869 122.102 44.3471C122.985 45.4992 123.609 45.7866 123.876 45.6814C124.085 45.5993 124.176 45.2555 124.124 44.7346C123.974 43.2566 120.395 38.8459 118.601 36.9933C117.373 35.7283 115.848 35.4717 114.734 35.2844C114.16 35.1869 113.706 35.1125 113.434 34.9226C112.733 34.4351 112.961 30.6735 113.054 29.4675L110.552 31.6793C110.508 32.036 110.239 34.1477 110.024 34.6455C109.871 34.997 109.048 35.1587 107.719 35.3896C106.986 35.5179 106.225 35.6513 105.741 35.8309C104.63 36.2441 102.219 38.2301 100.45 39.8979C98.9458 41.3168 97.6252 44.9219 97.4957 45.666C97.7391 45.4864 98.2907 44.8834 98.7853 44.3394C99.2462 43.834 99.7667 43.2618 100.269 42.7666C101.693 41.3553 104.752 39.6182 104.881 39.5438C104.894 39.5361 104.917 39.531 104.938 39.531Z" fill="#3F4553"/>
<path d="M115.174 85.9198C115.475 86.5151 116.301 86.2919 117.052 86.2919C117.803 86.2919 118.585 87.3849 119.185 87.3849C119.786 87.3849 119.983 86.5151 119.983 85.5478C119.983 84.5804 117.334 75.1559 117.184 72.8466C117.033 70.5373 116.508 68.7514 116.508 68.7514C116.508 68.7514 117.484 58.1056 117.259 55.7963C117.222 55.4293 117.142 54.9701 117.033 54.462L103.726 53.1791C103.177 54.6698 102.708 56.2889 102.532 57.8079C102.006 62.3496 102.982 70.9863 102.982 70.9863C102.982 70.9863 101.255 74.3374 101.105 78.0605C100.955 81.7836 100.129 86.1764 100.204 86.474C100.279 86.7717 100.054 87.367 100.429 87.4414C100.805 87.5158 101.105 86.474 102.006 86.2508C102.907 86.0276 104.109 86.6229 104.262 86.0276C104.412 85.4323 104.262 84.2417 104.412 82.6765C104.562 81.1139 107.043 74.7094 107.193 72.5515C107.343 70.3936 109.146 59.8196 109.524 59.2987C109.899 58.7778 109.899 58.7778 109.899 58.7778C109.899 58.7778 110.275 57.8849 110.5 58.8522C110.725 59.8196 110.5 69.4237 110.951 70.8401C111.401 72.2539 114.951 81.7528 115.402 82.869C115.853 83.9826 114.874 85.3245 115.174 85.9198Z" fill="#3F4553"/>
<path d="M100.471 87.5722C100.45 87.5722 100.427 87.5696 100.406 87.5645C100.044 87.4926 100.067 87.1077 100.085 86.8281C100.093 86.7075 100.101 86.5817 100.08 86.5022C100.049 86.3816 100.101 85.9813 100.271 84.7702C100.515 83.0434 100.883 80.4339 100.978 78.0527C101.121 74.5477 102.669 71.3301 102.853 70.9606C102.783 70.3319 101.903 62.1416 102.405 57.7924C102.561 56.4453 102.965 54.8776 103.607 53.1328C103.628 53.0789 103.679 53.0455 103.742 53.0481L117.049 54.3311C117.106 54.3362 117.153 54.3772 117.163 54.4311C117.28 54.9751 117.355 55.4293 117.391 55.7808C117.611 58.0413 116.705 68.0406 116.643 68.736C116.705 68.9566 117.176 70.6809 117.316 72.8337C117.401 74.1372 118.316 77.8372 119.051 80.8111C119.644 83.2127 120.115 85.1115 120.115 85.5426C120.115 86.8101 119.786 87.508 119.188 87.508C118.862 87.508 118.52 87.2514 118.16 86.982C117.79 86.7049 117.407 86.415 117.054 86.415C116.894 86.415 116.728 86.4252 116.568 86.4355C115.962 86.474 115.335 86.5125 115.06 85.9711C114.905 85.6657 115.027 85.2398 115.167 84.7471C115.332 84.1595 115.519 83.495 115.283 82.9099C114.827 81.781 111.287 72.3077 110.829 70.8708C110.56 70.0215 110.529 66.4395 110.5 63.2783C110.482 61.2102 110.467 59.2601 110.376 58.8727C110.301 58.5545 110.228 58.5212 110.228 58.5212C110.187 58.5289 110.081 58.6777 110.021 58.8188C110.019 58.8291 110.013 58.8368 110.008 58.8445L109.633 59.3653C109.301 59.8246 107.494 70.1754 107.328 72.5514C107.243 73.7625 106.435 76.2976 105.72 78.5351C105.15 80.3158 104.614 81.9991 104.547 82.6816C104.472 83.4565 104.472 84.1493 104.472 84.7086C104.472 85.2834 104.472 85.7376 104.394 86.0532C104.28 86.5073 103.757 86.4432 103.203 86.3765C102.827 86.3303 102.403 86.279 102.045 86.3688C101.582 86.4842 101.284 86.8435 101.043 87.1334C100.846 87.3695 100.681 87.5722 100.471 87.5722ZM103.817 53.315C103.203 55.0033 102.814 56.5198 102.662 57.8207C102.144 62.2956 103.102 70.8836 103.112 70.9709C103.115 70.9965 103.11 71.0222 103.099 71.0427C103.081 71.0761 101.382 74.4117 101.235 78.063C101.139 80.457 100.771 83.0742 100.528 84.8061C100.411 85.6272 100.313 86.3354 100.331 86.4432C100.36 86.5586 100.352 86.7049 100.341 86.8435C100.323 87.1539 100.334 87.2899 100.455 87.313C100.546 87.3284 100.694 87.1488 100.839 86.9743C101.087 86.6715 101.429 86.2584 101.978 86.1224C102.385 86.0224 102.833 86.0763 103.229 86.125C103.757 86.1892 104.081 86.2148 104.138 85.9942C104.21 85.7119 104.21 85.2706 104.21 84.7138C104.21 84.1518 104.21 83.4514 104.285 82.6636C104.353 81.9529 104.871 80.3364 105.469 78.4633C106.178 76.2412 106.984 73.7215 107.066 72.5412C107.196 70.6732 108.985 59.8246 109.42 59.2216L109.788 58.711C109.843 58.5853 110.008 58.2543 110.252 58.2697C110.48 58.2877 110.575 58.593 110.627 58.8188C110.723 59.2319 110.738 61.0178 110.759 63.2783C110.785 66.265 110.816 69.983 111.075 70.7938C111.533 72.2281 115.068 81.6886 115.524 82.815C115.793 83.4821 115.584 84.2211 115.418 84.8164C115.299 85.2398 115.185 85.6401 115.296 85.8582C115.493 86.2482 115.985 86.2174 116.555 86.1815C116.723 86.1712 116.891 86.1609 117.06 86.1609C117.5 86.1609 117.917 86.4765 118.321 86.7793C118.644 87.0231 118.953 87.254 119.191 87.254C119.794 87.254 119.859 86.0583 119.859 85.5451C119.859 85.1448 119.346 83.069 118.802 80.8752C118.026 77.7371 117.148 74.1808 117.06 72.8542C116.912 70.586 116.394 68.8052 116.389 68.7873C116.384 68.7719 116.384 68.7565 116.384 68.7411C116.394 68.6333 117.357 58.0798 117.135 55.809C117.104 55.4857 117.036 55.0726 116.933 54.5799L103.817 53.315Z" fill="#3F4553"/>
<path d="M118.689 36.906C116.811 34.9713 114.255 35.3434 113.504 34.8225C112.955 34.4428 113.048 31.6074 113.137 30.1013L112.652 29.6497L110.423 31.6203C110.423 31.6203 110.122 34.0784 109.897 34.5993C109.672 35.1202 106.891 35.269 105.689 35.7154C104.506 36.1542 102.017 38.2505 100.435 39.7336L101.991 41.5349C103.402 40.529 104.938 39.6618 104.938 39.6618C104.938 39.6618 106.067 45.2015 106.217 45.7994C106.367 46.3947 106.215 47.3877 106.215 47.6109C106.215 47.7751 104.493 50.7849 103.382 54.1745C105.536 55.1572 109.778 56.2734 117.207 55.3856C116.824 52.8607 115.081 47.6083 115.081 47.6083L116.433 40.2571C116.433 40.2571 117.733 40.9832 119.126 41.948L121.276 39.8901C120.359 38.7355 119.403 37.6424 118.689 36.906Z" fill="#9776A5"/>
<path d="M112.088 55.8372C107.789 55.8372 105.021 55.0598 103.33 54.2874C103.27 54.2592 103.242 54.1925 103.26 54.1309C104.07 51.66 105.212 49.3712 105.761 48.273C105.93 47.9369 106.075 47.6444 106.088 47.5879C106.085 47.5494 106.095 47.4493 106.106 47.3185C106.142 46.9208 106.202 46.2588 106.093 45.8251C105.958 45.2863 105.044 40.8216 104.847 39.8594C104.423 40.1058 103.2 40.8319 102.069 41.635C102.014 41.6735 101.939 41.6658 101.895 41.6145L100.339 39.8158C100.295 39.7645 100.297 39.6875 100.349 39.6388C101.711 38.361 104.358 36.0696 105.647 35.5924C106.155 35.4051 106.924 35.2691 107.67 35.1382C108.563 34.9817 109.677 34.7867 109.78 34.5455C109.995 34.0477 110.293 31.6255 110.296 31.6024C110.298 31.5716 110.314 31.5434 110.337 31.5229L112.567 29.5523C112.616 29.5086 112.694 29.5086 112.743 29.5548L113.227 30.0064C113.256 30.0321 113.271 30.0706 113.269 30.1065C113.082 33.2163 113.307 34.5275 113.582 34.7148C113.807 34.8713 114.255 34.9458 114.776 35.033C115.925 35.2254 117.497 35.4897 118.784 36.8163C119.533 37.5861 120.501 38.7048 121.379 39.8107C121.421 39.862 121.415 39.9364 121.369 39.9826L119.219 42.0404C119.175 42.0841 119.105 42.0892 119.056 42.0533C117.963 41.2963 116.92 40.6831 116.531 40.4599L115.219 47.6007C115.364 48.0395 116.977 52.9609 117.339 55.3677C117.345 55.401 117.337 55.437 117.313 55.4652C117.29 55.4934 117.262 55.5114 117.225 55.5139C115.309 55.7397 113.603 55.8372 112.088 55.8372ZM103.542 54.1027C105.808 55.1085 109.969 56.1015 117.06 55.2727C116.645 52.7402 114.978 47.6982 114.96 47.6469C114.952 47.6264 114.952 47.6059 114.954 47.5828L116.306 40.2315C116.314 40.1904 116.34 40.1571 116.379 40.1391C116.417 40.1212 116.461 40.1237 116.498 40.1443C116.511 40.1519 117.764 40.8524 119.113 41.7813L121.102 39.8774C120.25 38.81 119.318 37.7374 118.595 36.9933C117.368 35.7284 115.843 35.4718 114.729 35.2845C114.154 35.1869 113.701 35.1125 113.429 34.9227C112.981 34.6122 112.836 33.0059 113.004 30.1475L112.652 29.8165L110.547 31.6768C110.503 32.0335 110.234 34.1452 110.019 34.643C109.866 34.9945 109.042 35.1562 107.714 35.3871C106.981 35.5154 106.22 35.6488 105.736 35.8284C104.666 36.2261 102.354 38.1146 100.613 39.7363L102.014 41.3554C103.389 40.3854 104.86 39.5515 104.873 39.5438C104.909 39.5233 104.953 39.5207 104.992 39.5387C105.031 39.5567 105.057 39.59 105.065 39.6311C105.075 39.6875 106.196 45.176 106.344 45.761C106.463 46.2357 106.401 46.9259 106.365 47.339C106.354 47.4596 106.344 47.552 106.344 47.6033C106.344 47.6726 106.295 47.7752 105.992 48.3833C105.456 49.4661 104.345 51.6908 103.542 54.1027Z" fill="#3F4553"/>
<path d="M115.03 35.2072C114.349 35.0892 113.794 35.0199 113.504 34.8198C112.955 34.44 113.049 31.6047 113.137 30.0986L112.652 29.647L110.423 31.6176C110.423 31.6176 110.122 34.0757 109.897 34.5966C109.809 34.7967 109.34 34.943 108.732 35.0712C109.232 36.5595 110.33 39.2229 111.772 39.2229C113.176 39.2254 114.413 36.716 115.03 35.2072Z" fill="#FED9CE"/>
<path d="M111.772 39.3539C110.257 39.3539 109.141 36.6982 108.608 35.1125C108.597 35.0766 108.6 35.0406 108.618 35.0073C108.636 34.9765 108.667 34.9534 108.703 34.9457C109.524 34.7738 109.739 34.6327 109.778 34.5454C109.993 34.0476 110.291 31.6254 110.293 31.6024C110.296 31.5716 110.312 31.5433 110.335 31.5228L112.564 29.5522C112.614 29.5086 112.691 29.5086 112.741 29.5548L113.225 30.0064C113.253 30.032 113.269 30.0705 113.266 30.1064C113.08 33.2163 113.305 34.5275 113.58 34.7148C113.805 34.8713 114.255 34.9457 114.776 35.0329L115.05 35.0791C115.089 35.0868 115.123 35.1099 115.141 35.1433C115.159 35.1766 115.162 35.2177 115.149 35.2536C114.385 37.1241 113.178 39.3539 111.772 39.3539ZM108.9 35.1664C109.343 36.4493 110.42 39.0947 111.772 39.0947C113.054 39.0947 114.227 36.7854 114.848 35.3049L114.734 35.2844C114.16 35.1869 113.704 35.1125 113.432 34.9226C112.984 34.6121 112.839 33.0059 113.007 30.1475L112.655 29.8165L110.55 31.6768C110.506 32.0334 110.236 34.1451 110.021 34.6429C109.926 34.8559 109.599 35.0099 108.9 35.1664Z" fill="#3F4553"/>
<path d="M113.121 30.3705C112.844 30.3885 112.538 30.4578 112.323 30.5117C112.013 30.5886 111.412 30.9145 110.84 31.2506L110.425 31.6176C110.425 31.6176 110.304 32.6183 110.156 33.4778C110.674 33.2931 112.178 32.7106 113.074 31.8639C113.077 31.3353 113.098 30.8144 113.121 30.3705Z" fill="#C6FF00"/>
<path d="M113.121 30.3705C112.844 30.3885 112.538 30.4578 112.323 30.5117C112.013 30.5886 111.412 30.9145 110.84 31.2506L110.425 31.6176C110.425 31.6176 110.304 32.6183 110.156 33.4778C110.674 33.2931 112.178 32.7106 113.074 31.8639C113.077 31.3353 113.098 30.8144 113.121 30.3705Z" fill="#BFB2AA"/>
<path d="M110.195 68.5717C118.42 68.5717 125.088 61.965 125.088 53.8153C125.088 45.6655 118.42 39.0589 110.195 39.0589C101.97 39.0589 95.3023 45.6655 95.3023 53.8153C95.3023 61.965 101.97 68.5717 110.195 68.5717Z" fill="#FA6E5A"/>
<path d="M115.092 66.0828C106.867 66.0828 100.199 59.4756 100.199 51.3264C100.199 46.582 102.462 42.3637 105.974 39.6644C99.8053 41.4682 95.302 47.1183 95.302 53.8153C95.302 61.9645 101.97 68.5717 110.195 68.5717C113.631 68.5717 116.793 67.4145 119.312 65.4798C117.974 65.8698 116.557 66.0828 115.092 66.0828Z" fill="#E3604D"/>
<path d="M99.7456 48.3552C99.4841 48.3552 99.2458 48.1756 99.1863 47.9138C99.1138 47.6059 99.308 47.3006 99.6187 47.2313L103.726 46.2948L101.354 45.5609C101.051 45.466 100.882 45.1478 100.976 44.8476C101.069 44.5474 101.393 44.3806 101.696 44.473L106.095 45.8355C106.344 45.9124 106.51 46.1434 106.499 46.4025C106.489 46.6591 106.308 46.8772 106.054 46.9362L99.8751 48.3449C99.8311 48.3526 99.787 48.3552 99.7456 48.3552Z" fill="#3F4553"/>
<path d="M120.333 48.3553C120.289 48.3553 120.242 48.3501 120.198 48.3399L114.307 46.9312C114.053 46.8696 113.874 46.649 113.867 46.3924C113.859 46.1358 114.027 45.9048 114.278 45.8304L118.901 44.4679C119.206 44.3781 119.525 44.5501 119.615 44.8528C119.706 45.1556 119.533 45.4712 119.23 45.561L116.656 46.3205L120.47 47.2314C120.778 47.3058 120.97 47.6137 120.895 47.9191C120.827 48.1808 120.592 48.3553 120.333 48.3553Z" fill="#3F4553"/>
<path d="M98.8186 50.7672C100.321 57.1563 104.845 61.798 110.195 61.798C115.545 61.798 120.071 57.1563 121.57 50.7672L119.595 50.4413C113.274 49.3944 106.836 49.4073 100.52 50.4798L98.8186 50.7672Z" fill="#3F4553"/>
<path d="M117.95 57.4538C115.988 56.1632 113.281 55.3652 110.288 55.3652C107.237 55.3652 104.485 56.1991 102.514 57.5334C104.588 59.8401 107.266 61.2385 110.195 61.2385C113.16 61.2385 115.866 59.8093 117.95 57.4538Z" fill="#4E5567"/>
<path d="M108.245 25.3904C108.245 25.3904 107.719 26.953 107.269 27.8485C106.818 28.7414 107.494 31.4972 108.02 32.3157C108.545 33.1342 109.522 32.9854 109.897 32.911C110.273 32.8366 111.925 31.7948 112.528 31.1995C113.129 30.6042 113.429 30.3066 113.429 30.3066C113.429 30.3066 113.73 30.3066 114.03 29.7113C114.33 29.116 113.129 27.7766 112.077 26.137C111.026 24.5 110.576 24.5744 110.576 24.5744L108.245 25.3904Z" fill="#FED9CE"/>
<path d="M109.333 33.0983C108.553 33.0983 108.134 32.7288 107.911 32.3824C107.37 31.5382 106.673 28.7414 107.152 27.7894C107.595 26.9145 108.118 25.3647 108.123 25.3493C108.136 25.3108 108.165 25.2826 108.204 25.2697L110.534 24.4512C110.643 24.4332 111.145 24.4409 112.189 26.0677C112.469 26.5039 112.756 26.9119 113.033 27.307C113.831 28.4437 114.406 29.2648 114.149 29.7677C113.89 30.2809 113.616 30.3989 113.494 30.4272L112.621 31.2919C112.005 31.9026 110.327 32.9597 109.926 33.0392C109.706 33.0803 109.509 33.0983 109.333 33.0983ZM108.349 25.4904C108.248 25.788 107.789 27.1018 107.385 27.9049C106.955 28.7542 107.639 31.4843 108.131 32.2464C108.465 32.7673 109.053 32.9469 109.876 32.7852C110.2 32.7211 111.837 31.705 112.44 31.1071L113.341 30.2142C113.365 30.1911 113.398 30.1757 113.432 30.1757C113.429 30.1757 113.665 30.15 113.916 29.6523C114.103 29.2853 113.507 28.436 112.818 27.4533C112.541 27.0556 112.254 26.645 111.969 26.2063C111.099 24.8515 110.666 24.7155 110.596 24.7027L108.349 25.4904Z" fill="#3F4553"/>
<path d="M108.773 29.1032C108.757 29.1032 108.742 29.1007 108.726 29.0955C107.942 28.7953 108.012 28.5926 108.032 28.5285C108.084 28.372 108.688 27.4893 108.871 27.2224C108.913 27.1634 108.993 27.148 109.05 27.1891C109.11 27.2301 109.125 27.3097 109.084 27.3661C108.739 27.8665 108.369 28.4258 108.289 28.5798C108.353 28.6465 108.584 28.7671 108.817 28.8569C108.884 28.8826 108.918 28.957 108.892 29.0237C108.874 29.0699 108.825 29.1032 108.773 29.1032Z" fill="#3F4553"/>
<path d="M111.396 27.9305C111.347 27.9305 111.3 27.9023 111.28 27.8561C111.161 27.6046 111.005 27.4456 110.816 27.3814C110.562 27.2967 110.327 27.4071 110.324 27.4071C110.259 27.4379 110.182 27.4122 110.151 27.3506C110.12 27.2865 110.146 27.2095 110.208 27.1787C110.221 27.171 110.542 27.0171 110.902 27.1402C111.158 27.2275 111.365 27.4327 111.515 27.7483C111.546 27.8125 111.518 27.8895 111.453 27.9202C111.433 27.9254 111.414 27.9305 111.396 27.9305Z" fill="#3F4553"/>
<path d="M108.618 27.2172C108.576 27.2172 108.537 27.1993 108.512 27.1634C108.509 27.1582 108.387 26.9966 108.206 26.9761C108.089 26.9632 107.96 27.0171 107.828 27.1326C107.774 27.1788 107.693 27.1762 107.644 27.1223C107.597 27.0684 107.6 26.9889 107.654 26.9401C107.843 26.7708 108.038 26.6989 108.237 26.7195C108.535 26.7528 108.716 27.0017 108.721 27.012C108.763 27.071 108.747 27.1505 108.69 27.1916C108.67 27.2095 108.644 27.2172 108.618 27.2172Z" fill="#3F4553"/>
<path d="M111.808 27.1146C111.754 27.1146 111.705 27.0812 111.687 27.0273C111.324 25.9907 110.684 26.1344 110.659 26.1421C110.589 26.1575 110.519 26.119 110.501 26.0497C110.483 25.9804 110.524 25.9112 110.591 25.8932C110.599 25.8906 111.485 25.6725 111.93 26.9427C111.953 27.0094 111.917 27.0838 111.85 27.1069C111.837 27.112 111.821 27.1146 111.808 27.1146Z" fill="#3F4553"/>
<path d="M108.001 26.6039C107.98 26.6039 107.962 26.5987 107.944 26.591C107.879 26.5602 107.854 26.4833 107.887 26.4191C108.032 26.1292 108.226 25.9573 108.465 25.9034C108.827 25.8213 109.148 26.0599 109.161 26.0702C109.218 26.1138 109.229 26.1933 109.185 26.2498C109.141 26.3062 109.06 26.3165 109.003 26.2729C109.001 26.2703 108.762 26.0958 108.519 26.1523C108.361 26.1882 108.226 26.3165 108.118 26.532C108.094 26.5782 108.048 26.6039 108.001 26.6039Z" fill="#3F4553"/>
<path d="M108.31 29.6882C108.31 29.6882 109.234 30.0448 110.418 29.3828C110.418 29.3828 109.801 30.2988 109.081 30.4015C108.361 30.5016 108.31 29.6882 108.31 29.6882Z" fill="#3F4553"/>
<path d="M99.9428 40.2827C99.9428 40.2827 96.6877 42.9897 96.1672 44.7319C95.6467 46.4742 96.0378 50.4718 95.973 51.6958C95.9083 52.9197 96.7551 54.2745 97.1435 54.5336C97.5345 54.7928 97.5993 54.3412 97.5345 53.8896C97.4698 53.438 97.4698 51.1159 97.4698 51.1159C97.4698 51.1159 98.055 52.7914 98.1198 52.4707C98.1845 52.1474 98.1845 51.5675 97.9256 50.6643C97.6666 49.7611 97.014 48.473 97.0788 48.2138C97.1435 47.9547 99.2255 44.0879 99.5518 42.8614" fill="#FED9CE"/>
<path d="M97.3428 54.7365C97.2703 54.7365 97.1797 54.7108 97.0709 54.639C96.6618 54.3696 95.7736 52.9737 95.8409 51.6882C95.859 51.3239 95.8383 50.7004 95.8124 49.9768C95.7528 48.2705 95.67 45.9329 96.0403 44.6962C96.566 42.9385 99.7201 40.2957 99.8547 40.1853C99.9091 40.1392 99.992 40.1469 100.036 40.2007C100.083 40.2546 100.075 40.3367 100.02 40.3803C99.9894 40.406 96.7913 43.0848 96.2863 44.768C95.9289 45.9663 96.0092 48.2782 96.0688 49.9691C96.0947 50.6978 96.1154 51.329 96.0973 51.7036C96.0351 52.8788 96.8508 54.19 97.2108 54.4286C97.2859 54.4773 97.3377 54.4876 97.3532 54.4799C97.4024 54.4491 97.4516 54.2515 97.4024 53.9103C97.3377 53.4561 97.3351 51.2161 97.3351 51.1186C97.3351 51.057 97.3817 51.0031 97.4438 50.9929C97.506 50.9826 97.5681 51.0185 97.5889 51.0775C97.7261 51.4727 97.8996 51.9166 98.0213 52.1783C98.0343 51.8781 97.998 51.4008 97.7986 50.7029C97.6873 50.3129 97.4956 49.8408 97.3273 49.4251C97.0476 48.7323 96.9052 48.3628 96.9492 48.1858C96.9725 48.0934 97.1409 47.7573 97.5189 47.008C98.1508 45.7533 99.2047 43.6544 99.4249 42.8333C99.443 42.7641 99.5155 42.723 99.5828 42.741C99.6527 42.7589 99.6942 42.8282 99.676 42.8975C99.4508 43.7442 98.4279 45.7764 97.752 47.1209C97.4801 47.6623 97.2237 48.1704 97.203 48.2474C97.1797 48.3603 97.3972 48.8965 97.5707 49.3276C97.7416 49.751 97.9333 50.2282 98.0498 50.6311C98.3424 51.6497 98.301 52.2373 98.2466 52.4965C98.2207 52.6222 98.1301 52.6376 98.1016 52.6402C98.0239 52.6453 97.9177 52.653 97.6018 51.8499C97.607 52.5683 97.6225 53.5921 97.6614 53.8692C97.6976 54.1156 97.7235 54.5518 97.493 54.6929C97.4594 54.7185 97.4076 54.7365 97.3428 54.7365Z" fill="#3F4553"/>
<path d="M97.3195 54.6389C97.2677 54.6389 97.2159 54.6055 97.1978 54.5542C97.1926 54.544 96.7783 53.4021 96.5737 51.9755C96.5634 51.9062 96.6126 51.8395 96.6825 51.8293C96.7524 51.819 96.8197 51.8677 96.8301 51.937C97.0321 53.3354 97.4386 54.4516 97.4412 54.4644C97.4645 54.5311 97.4309 54.6055 97.3635 54.6286C97.348 54.6363 97.3325 54.6389 97.3195 54.6389Z" fill="#3F4553"/>
<path d="M96.856 54.3311C96.8094 54.3311 96.7628 54.3054 96.7395 54.2593C96.7214 54.2259 96.3174 53.4125 96.0585 52.0808C96.0455 52.0116 96.0921 51.9448 96.162 51.9294C96.232 51.9166 96.2993 51.9602 96.3148 52.0321C96.566 53.3278 96.97 54.1361 96.9726 54.1438C97.0036 54.2079 96.9777 54.2849 96.9156 54.3157C96.8949 54.3285 96.8742 54.3311 96.856 54.3311Z" fill="#3F4553"/>
<path d="M121.403 40.2827C121.403 40.2827 124.658 42.9897 125.178 44.7319C125.699 46.4742 125.308 50.4718 125.372 51.6958C125.437 52.9197 124.59 54.2745 124.202 54.5336C123.814 54.7928 123.746 54.3412 123.811 53.8896C123.876 53.438 123.876 51.1159 123.876 51.1159C123.876 51.1159 123.29 52.7914 123.226 52.4707C123.161 52.1499 123.161 51.5675 123.42 50.6643C123.681 49.7611 124.331 48.473 124.267 48.2138C124.202 47.9547 122.12 44.0879 121.794 42.8614" fill="#FED9CE"/>
<path d="M124.003 54.7365C123.938 54.7365 123.889 54.716 123.85 54.6929C123.622 54.5518 123.648 54.1156 123.682 53.8692C123.72 53.5921 123.736 52.5658 123.741 51.8499C123.425 52.6504 123.324 52.6453 123.241 52.6402C123.213 52.6376 123.122 52.6222 123.096 52.4965C123.045 52.2373 123.001 51.6497 123.293 50.6311C123.41 50.2282 123.601 49.751 123.772 49.3276C123.946 48.8965 124.161 48.3603 124.137 48.2474C124.117 48.173 123.86 47.6598 123.588 47.1184C122.912 45.7738 121.89 43.7417 121.667 42.8975C121.649 42.8282 121.69 42.7589 121.76 42.741C121.827 42.723 121.9 42.7641 121.918 42.8333C122.136 43.6519 123.192 45.7533 123.821 47.0055C124.199 47.7573 124.368 48.0934 124.391 48.1858C124.435 48.3628 124.293 48.7323 124.013 49.4251C123.845 49.8408 123.656 50.3129 123.542 50.7029C123.34 51.4008 123.303 51.8781 123.319 52.1783C123.441 51.914 123.612 51.4727 123.751 51.0775C123.772 51.0185 123.832 50.9826 123.897 50.9929C123.959 51.0031 124.005 51.057 124.005 51.1186C124.005 51.2135 124.005 53.4536 123.938 53.9103C123.889 54.2515 123.938 54.4491 123.987 54.4799C124.003 54.4902 124.054 54.4799 124.13 54.4286C124.49 54.19 125.305 52.8788 125.243 51.7036C125.222 51.329 125.246 50.6978 125.272 49.9691C125.331 48.2807 125.411 45.9663 125.054 44.768C124.549 43.0848 121.354 40.4086 121.32 40.3803C121.266 40.3342 121.258 40.2546 121.304 40.2007C121.351 40.1469 121.431 40.1392 121.486 40.1853C121.62 40.2957 124.774 42.9385 125.3 44.6962C125.67 45.9329 125.587 48.2705 125.528 49.9768C125.502 50.7004 125.481 51.3264 125.499 51.6882C125.567 52.9737 124.679 54.3696 124.269 54.639C124.163 54.7134 124.075 54.7365 124.003 54.7365Z" fill="#3F4553"/>
<path d="M124.008 54.5363C123.997 54.5363 123.987 54.5363 123.974 54.5312C123.904 54.5132 123.863 54.4439 123.881 54.3746C123.886 54.3592 124.29 52.7941 124.29 51.7523C124.29 51.6805 124.347 51.624 124.419 51.624C124.492 51.624 124.549 51.6805 124.549 51.7523C124.549 52.8274 124.15 54.3746 124.132 54.4388C124.119 54.4978 124.065 54.5363 124.008 54.5363Z" fill="#3F4553"/>
<path d="M124.471 54.485C124.456 54.485 124.443 54.4824 124.427 54.4773C124.36 54.4542 124.326 54.3798 124.349 54.3131C124.355 54.2977 124.961 52.6427 124.961 52.0089C124.961 51.937 125.018 51.8806 125.09 51.8806C125.163 51.8806 125.22 51.937 125.22 52.0089C125.22 52.6863 124.619 54.331 124.593 54.4003C124.575 54.4542 124.523 54.485 124.471 54.485Z" fill="#3F4553"/>
<path d="M64.719 94.9976C76.4465 94.9976 85.9535 92.7816 85.9535 90.048C85.9535 87.3144 76.4465 85.0984 64.719 85.0984C52.9916 85.0984 43.4846 87.3144 43.4846 90.048C43.4846 92.7816 52.9916 94.9976 64.719 94.9976Z" fill="#F4A17C"/>
<path d="M65.9436 94.9994C78.3581 94.9994 88.422 92.7902 88.422 90.0651C88.422 87.34 78.3581 85.1308 65.9436 85.1308C53.529 85.1308 43.4651 87.34 43.4651 90.0651C43.4651 92.7902 53.529 94.9994 65.9436 94.9994Z" fill="#F4A17C"/>
<path d="M55.796 86.6072C55.796 86.6072 52.6471 88.2469 52.0541 89.0962C51.4611 89.9455 52.2509 90.6203 53.4343 90.7024C54.6178 90.7845 59.4887 89.1603 59.929 88.9499C60.3718 88.7395 60.0507 87.4643 59.7296 86.8074C59.4111 86.148 55.796 86.6072 55.796 86.6072Z" fill="#E49621"/>
<path d="M53.525 90.8332C53.4888 90.8332 53.4551 90.8332 53.4241 90.8306C52.6394 90.7768 52.0205 90.4663 51.8056 90.025C51.702 89.8094 51.6398 89.4605 51.9454 89.0243C52.5514 88.1596 55.6045 86.5636 55.7339 86.4943C55.7469 86.4866 55.7624 86.4815 55.778 86.4815C56.3969 86.4019 59.5018 86.0478 59.8436 86.7509C60.0223 87.1178 60.1776 87.6182 60.2398 88.0261C60.3252 88.5932 60.2398 88.9422 59.9808 89.0653C59.5458 89.2732 54.8949 90.8332 53.525 90.8332ZM55.8349 86.7304C55.563 86.8741 52.7042 88.3879 52.1578 89.168C51.9687 89.4374 51.9299 89.6888 52.0386 89.9121C52.2121 90.2713 52.7508 90.5253 53.4422 90.5741C54.6075 90.6587 59.4344 89.0422 59.8721 88.8344C60.0067 88.7702 60.0507 88.4829 59.986 88.0646C59.929 87.6797 59.7814 87.2076 59.6131 86.8612C59.4215 86.4661 57.298 86.5482 55.8349 86.7304Z" fill="#3F4553"/>
<path d="M60.0917 87.9081C58.8436 88.4495 55.3995 89.9095 54.2108 90.0608C53.2423 90.184 52.3515 89.8222 51.8595 89.5631C51.7792 90.1814 52.4784 90.6356 53.434 90.7023C54.6174 90.7844 59.4884 89.1602 59.9286 88.9498C60.172 88.8318 60.1824 88.3905 60.0917 87.9081Z" fill="#F1BD54"/>
<path d="M53.5247 90.8333C53.4885 90.8333 53.4548 90.8333 53.4237 90.8307C52.7608 90.7845 52.217 90.5613 51.9322 90.2175C51.769 90.0199 51.6991 89.789 51.7276 89.5478C51.7328 89.5067 51.7587 89.4682 51.7975 89.4503C51.8337 89.4297 51.8804 89.4297 51.9166 89.4503C52.3594 89.6838 53.2451 90.0558 54.1928 89.9352C55.3789 89.7838 58.9654 88.2571 60.0375 87.7927C60.0737 87.7773 60.1152 87.7773 60.1488 87.7978C60.1825 87.8158 60.2084 87.8492 60.2162 87.8876C60.3379 88.5266 60.2576 88.9345 59.9831 89.0654C59.5455 89.2732 54.8946 90.8333 53.5247 90.8333ZM51.9917 89.7736C52.0124 89.8736 52.059 89.966 52.1315 90.0558C52.3672 90.3406 52.8566 90.5331 53.4393 90.5741C54.6046 90.6588 59.4315 89.0423 59.8692 88.8345C60.0012 88.7703 60.0427 88.4932 59.9883 88.0929C58.5252 88.7241 55.3685 90.043 54.2239 90.1893C53.3357 90.2996 52.5019 90.0122 51.9917 89.7736Z" fill="#3F4553"/>
<path d="M71.0463 86.6072C71.0463 86.6072 74.1952 88.2469 74.7882 89.0962C75.3812 89.9455 74.5914 90.6203 73.4079 90.7024C72.2245 90.7845 67.3535 89.1603 66.9133 88.9499C66.4705 88.7395 66.7916 87.4643 67.1127 86.8074C67.4338 86.148 71.0463 86.6072 71.0463 86.6072Z" fill="#E49621"/>
<path d="M73.3199 90.8333C71.9474 90.8333 67.2992 89.2732 66.8589 89.0654C66.6026 88.9422 66.5145 88.5932 66.6 88.0262C66.6621 87.6182 66.8175 87.1179 66.9962 86.7509C67.338 86.0453 70.4429 86.402 71.0618 86.4815C71.0773 86.4841 71.0929 86.4892 71.1058 86.4943C71.2353 86.5611 74.291 88.157 74.8944 89.0243C75.1999 89.4605 75.1404 89.8095 75.0342 90.025C74.8193 90.4689 74.2004 90.7768 73.4157 90.8307C73.3872 90.8307 73.3536 90.8333 73.3199 90.8333ZM68.739 86.579C67.9543 86.579 67.3302 86.656 67.2292 86.8613C67.0609 87.2077 66.9133 87.6798 66.8563 88.0647C66.7916 88.4829 66.8356 88.7703 66.9703 88.8344C67.3976 89.0397 72.0096 90.5792 73.3095 90.5792C73.3432 90.5792 73.3717 90.5792 73.4002 90.5767C74.0916 90.5279 74.6276 90.2739 74.8037 89.9147C74.9125 89.6914 74.871 89.44 74.6846 89.1706C74.1408 88.3905 71.2793 86.8767 71.0074 86.733C70.3082 86.6432 69.4563 86.579 68.739 86.579Z" fill="#3F4553"/>
<path d="M66.7523 87.9082C68.0005 88.4496 71.4446 89.9096 72.6332 90.061C73.6017 90.1841 74.4925 89.8223 74.9845 89.5632C75.0648 90.1815 74.3656 90.6357 73.4101 90.7024C72.2267 90.7845 67.3557 89.1603 66.9155 88.9499C66.6695 88.8319 66.6591 88.3906 66.7523 87.9082Z" fill="#F1BD54"/>
<path d="M73.3195 90.8333C71.9471 90.8333 67.2988 89.2732 66.8586 89.0654C66.5841 88.9345 66.5038 88.5265 66.6255 87.8876C66.6333 87.8491 66.6566 87.8158 66.6928 87.7978C66.7291 87.7799 66.7679 87.7773 66.8042 87.7927C67.8763 88.2571 71.4654 89.7838 72.6488 89.9352C73.5966 90.0558 74.4822 89.6837 74.9251 89.4502C74.9639 89.4297 75.0079 89.4297 75.0442 89.4502C75.083 89.4708 75.1089 89.5067 75.1141 89.5477C75.1452 89.7889 75.0752 90.0199 74.9095 90.2174C74.6247 90.5613 74.0809 90.7845 73.4179 90.8307C73.3868 90.8307 73.3532 90.8333 73.3195 90.8333ZM66.8534 88.0929C66.7964 88.4932 66.8404 88.7703 66.9725 88.8344C67.3998 89.0397 72.0118 90.5767 73.3117 90.5792C73.3454 90.5792 73.3739 90.5792 73.4024 90.5767C73.985 90.5356 74.4745 90.3406 74.7101 90.0584C74.7826 89.9711 74.8292 89.8762 74.85 89.7761C74.3424 90.0147 73.5111 90.3047 72.6152 90.1918C71.4706 90.043 68.3165 88.7241 66.8534 88.0929Z" fill="#3F4553"/>
<path d="M57.3547 54.5002C57.3547 54.5002 54.4881 66.7908 54.0893 68.5459C53.6905 70.301 53.3979 72.2741 53.864 73.4544C54.3301 74.6348 55.8243 86.2172 55.8243 86.2172L60.1178 87.377C60.1178 87.377 60.1722 79.9359 60.0298 77.0108C59.8873 74.0857 59.7216 70.3882 59.7216 70.3882L64.2844 59.1214L65.038 60.1092L68.4536 70.2086L66.4441 87.1358L70.5279 86.0761C70.5279 86.0761 74.0367 75.3096 74.609 73.0696C75.1787 70.8295 75.4532 69.3234 75.0078 68.2944C74.5624 67.2655 71.6725 55.7831 71.6725 55.7831L57.3547 54.5002Z" fill="#3F4553"/>
<path d="M60.1152 87.5027C60.1049 87.5027 60.0919 87.5001 60.0816 87.4976L55.7881 86.3378C55.7389 86.325 55.7 86.2813 55.6949 86.23C55.6793 86.1146 54.1955 74.6502 53.7423 73.4981C53.3539 72.5102 53.4238 70.8809 53.9624 68.5151C54.356 66.7806 57.1994 54.5926 57.2279 54.4694C57.2434 54.4078 57.3004 54.3642 57.3651 54.3694L71.6777 55.6523C71.732 55.6574 71.7786 55.6959 71.7916 55.7498C71.8201 55.8653 74.6841 67.2347 75.1218 68.2406C75.5698 69.2721 75.3289 70.7423 74.7282 73.0978C74.1636 75.3173 70.6807 86.0042 70.647 86.112C70.6341 86.153 70.6004 86.1864 70.5564 86.1967L66.4726 87.2564C66.4312 87.2666 66.3872 87.2564 66.3535 87.2282C66.3198 87.1999 66.3043 87.1589 66.3095 87.1153L68.3164 70.2189L64.9163 60.1657L64.3129 59.3754L59.8511 70.4087C59.8666 70.7526 60.022 74.2242 60.1593 77.0031C60.3017 79.8974 60.2473 87.3026 60.2473 87.377C60.2473 87.418 60.2292 87.454 60.1955 87.4771C60.1722 87.495 60.1437 87.5027 60.1152 87.5027ZM55.9409 86.1146L59.9884 87.2076C59.9961 86.0889 60.0298 79.6588 59.9003 77.0133C59.7579 74.0882 59.5921 70.3908 59.5921 70.3908C59.5921 70.3728 59.5947 70.3549 59.6025 70.3369L64.1653 59.0701C64.1835 59.0264 64.2223 58.9957 64.2689 58.9905C64.3181 58.9854 64.3621 59.0034 64.3906 59.0418L65.1442 60.0297C65.1519 60.04 65.1597 60.0528 65.1623 60.0656L68.5779 70.165C68.5831 70.1829 68.5857 70.2009 68.5831 70.2214L66.5943 86.9613L70.4269 85.9657C70.7247 85.0523 73.9435 75.1531 74.4822 73.0336C75.0674 70.7346 75.3056 69.3028 74.8887 68.3406C74.4589 67.3528 71.8589 57.0481 71.5689 55.8986L57.4583 54.6336C57.1735 55.8576 54.5917 66.9243 54.2188 68.569C53.6931 70.8834 53.618 72.464 53.9883 73.4031C54.4337 74.5475 55.7933 84.9779 55.9409 86.1146Z" fill="#3F4553"/>
<path d="M67.8188 84.5647C67.8136 84.5647 67.8085 84.5647 67.8033 84.5647C67.7334 84.557 67.6816 84.4929 67.6893 84.421C67.7049 84.2979 69.1835 72.0791 69.2612 71.3966C69.3026 71.0476 69.313 70.9424 69.5538 70.9296C69.6678 70.9244 69.9086 70.9116 70.4369 70.5601C70.5638 70.4754 70.6466 70.4138 70.6984 70.3728C70.6285 70.3728 70.5405 70.3753 70.4654 70.3779C70.1442 70.3882 69.704 70.4036 69.3907 70.2676C68.663 69.952 66.7416 63.5886 66.3635 62.3133C66.3428 62.2466 66.3816 62.1748 66.4515 62.1542C66.5188 62.1337 66.5914 62.1722 66.6121 62.2415C67.6919 65.8799 69.0696 69.8468 69.4943 70.0315C69.7558 70.1444 70.1624 70.1316 70.4576 70.1213C70.7968 70.1111 70.9859 70.1034 71.0376 70.2573C71.0817 70.3907 70.9755 70.5113 70.5845 70.7731C69.9966 71.1656 69.7092 71.181 69.5694 71.1862C69.5642 71.1862 69.559 71.1862 69.5538 71.1862C69.5435 71.2324 69.5331 71.3222 69.5228 71.4248C69.4451 72.1099 67.9638 84.3286 67.9483 84.4518C67.9405 84.516 67.8836 84.5647 67.8188 84.5647Z" fill="#4E5567"/>
<path d="M59.8664 81.881C59.8016 81.881 59.7446 81.8322 59.7369 81.7681L59.6281 80.8521C59.6204 80.7828 59.6721 80.7186 59.7421 80.7109C59.812 80.7032 59.8767 80.7546 59.8845 80.8238L59.9932 81.7399C60.001 81.8091 59.9492 81.8733 59.8793 81.881C59.8767 81.881 59.8715 81.881 59.8664 81.881Z" fill="#4E5567"/>
<path d="M59.5997 79.5973C59.535 79.5973 59.478 79.5485 59.4703 79.4844L58.5044 71.2658C58.3334 71.2299 57.9372 71.1427 57.4167 70.999C57.3235 70.9733 57.1267 70.9195 57.1189 70.7655C57.1086 70.5936 57.3132 70.5115 57.7637 70.3319C58.1133 70.1933 58.551 70.0188 58.9498 69.7699C59.4262 69.4749 60.5579 67.0219 62.0521 63.0422C62.078 62.9755 62.1505 62.9421 62.2178 62.9678C62.2851 62.9934 62.3188 63.0653 62.2929 63.132C61.2053 66.0263 59.7655 69.5647 59.0844 69.988C58.6649 70.2472 58.1988 70.4345 57.857 70.5705C57.7094 70.6295 57.5488 70.6937 57.4478 70.7424C57.4582 70.745 57.4685 70.7475 57.4815 70.7527C58.1729 70.9425 58.639 71.0323 58.6442 71.0349C58.6986 71.0452 58.7426 71.0914 58.7478 71.1452L59.724 79.4562C59.7318 79.5254 59.68 79.5896 59.6101 79.5973C59.6101 79.5973 59.6049 79.5973 59.5997 79.5973Z" fill="#4E5567"/>
<path d="M62.6683 61.8745C62.6528 61.8745 62.6398 61.872 62.6243 61.8668C62.557 61.8437 62.5233 61.7693 62.5466 61.7026C62.7227 61.2202 62.8263 60.9251 62.8263 60.9251C62.8496 60.8584 62.9247 60.8225 62.992 60.8456C63.0594 60.8687 63.0956 60.9431 63.0723 61.0098C63.0723 61.0098 62.9687 61.3049 62.7926 61.7898C62.7719 61.8412 62.7227 61.8745 62.6683 61.8745Z" fill="#4E5567"/>
<path d="M66.027 34.5015C66.027 34.5015 59.0792 33.3699 56.2799 32.8721C53.4806 32.3743 51.0748 31.9048 51.0748 31.9048L49.8552 35.7767C49.8552 35.7767 55.4098 37.6293 56.8729 38.0629C58.336 38.4966 58.9135 38.7326 58.9135 38.7326C58.9135 38.7326 59.1051 48.0802 58.5043 50.0918C57.9035 52.1035 56.5518 56.1473 56.5518 56.1473L63.7093 60.1193L65.1465 57.9229L65.2579 59.9987C65.2579 59.9987 67.5082 59.8679 69.5359 59.2238C71.5635 58.5798 72.7909 57.8049 72.7909 57.8049L71.1828 50.8051L73.3762 41.7758C73.3762 41.7758 84.4285 39.5999 84.4932 38.8943C84.5579 38.1887 82.9731 35.6022 82.9731 35.6022L67.9977 34.6349L66.027 34.5015Z" fill="#FFF9F1"/>
<path d="M63.7099 60.2503C63.6892 60.2503 63.6659 60.2452 63.6477 60.2349L56.4902 56.2629C56.4358 56.2321 56.4099 56.168 56.4306 56.1115C56.4436 56.0705 57.7901 52.0471 58.3831 50.0586C58.9399 48.1906 58.8052 39.7668 58.7871 38.8226C58.5851 38.7456 57.9818 38.5249 56.8372 38.1862C55.3896 37.7577 49.8712 35.918 49.8169 35.9C49.7495 35.8769 49.7133 35.8076 49.734 35.7409L50.9537 31.869C50.9744 31.8074 51.0365 31.7664 51.1013 31.7818C51.1246 31.7869 53.5381 32.2564 56.3037 32.7465C59.0357 33.2315 65.8048 34.3348 66.0431 34.3759L68.0086 34.5119L82.984 35.4792C83.0254 35.4818 83.0643 35.5049 83.0876 35.5408C83.2507 35.8102 84.6931 38.1862 84.6258 38.9124C84.6077 39.0997 84.5766 39.4461 78.9417 40.7316C76.4635 41.2961 73.962 41.799 73.4855 41.8939L71.318 50.8155L72.9184 57.7845C72.9313 57.8384 72.908 57.8922 72.8614 57.9205C72.8485 57.9282 71.5951 58.7133 69.5752 59.3548C67.5554 59.9963 65.2895 60.1348 65.2662 60.1348C65.2325 60.1374 65.1989 60.1246 65.173 60.1015C65.1471 60.0784 65.1315 60.0476 65.129 60.0117L65.0383 58.3285L63.8186 60.1939C63.7927 60.2298 63.7513 60.2503 63.7099 60.2503ZM56.7077 56.091L63.6659 59.9527L65.0357 57.8589C65.0668 57.8127 65.1238 57.7922 65.1782 57.805C65.2325 57.8204 65.2714 57.8666 65.274 57.923L65.3801 59.868C65.8877 59.8295 67.7833 59.6524 69.495 59.1085C71.1989 58.5671 72.3435 57.9256 72.6439 57.7486L71.0565 50.8412C71.0513 50.8207 71.0513 50.8027 71.0565 50.7822L73.2498 41.7528C73.2628 41.704 73.3016 41.6681 73.3508 41.6579C78.5092 40.6418 84.1234 39.3229 84.3694 38.8764C84.4134 38.3607 83.3543 36.485 82.8986 35.7332L67.9904 34.771L66.0172 34.635C66.012 34.635 66.0094 34.635 66.0042 34.6325C65.9343 34.6222 59.0254 33.4932 56.2571 33.0031C53.8281 32.572 51.6736 32.1564 51.1634 32.0589L50.0163 35.7024C50.8346 35.9744 55.5838 37.5524 56.9097 37.9476C58.3624 38.3787 58.9399 38.6122 58.9632 38.6224C59.0098 38.6429 59.0409 38.6866 59.0435 38.7379C59.0513 39.1202 59.2273 48.129 58.6292 50.1356C58.0879 51.9445 56.9226 55.4521 56.7077 56.091Z" fill="#3F4553"/>
<path d="M63.5953 34.0192L63.2924 38.4505L66.9618 37.0264L70.8616 40.008L70.7373 34.1834L63.5953 34.0192Z" fill="white"/>
<path d="M70.862 40.1363C70.8335 40.1363 70.805 40.126 70.7817 40.1106L66.9414 37.1753L63.3393 38.5737C63.2978 38.5891 63.2512 38.5839 63.215 38.5583C63.1787 38.5326 63.1606 38.489 63.1632 38.4454L63.4662 34.0141C63.4713 33.9448 63.5361 33.896 63.5982 33.8935L70.7377 34.0577C70.8076 34.0603 70.862 34.1141 70.8645 34.1834L70.9888 40.008C70.9888 40.0567 70.9629 40.1029 70.9189 40.126C70.9008 40.1312 70.8827 40.1363 70.862 40.1363ZM66.9621 36.8981C66.9906 36.8981 67.019 36.9084 67.0423 36.9238L70.7273 39.7411L70.6108 34.3092L63.7173 34.1501L63.4351 38.2581L66.9155 36.9084C66.931 36.9007 66.9465 36.8981 66.9621 36.8981Z" fill="#3F4553"/>
<path d="M65.2891 57.6305C65.2865 57.6305 65.2813 57.6305 65.2787 57.6305C65.2062 57.6254 65.1544 57.5638 65.1596 57.4919L66.5994 40.5211C66.6046 40.4493 66.6693 40.4005 66.7393 40.4031C66.8118 40.4082 66.8636 40.4698 66.8584 40.5417L65.4186 57.5125C65.4108 57.5817 65.3538 57.6305 65.2891 57.6305Z" fill="#3F4553"/>
<path d="M73.3766 41.9066C73.3507 41.9066 73.3248 41.8989 73.3041 41.8835C73.2523 41.8476 73.2316 41.7809 73.26 41.7218L74.9925 38.0988C75.0235 38.0347 75.1012 38.009 75.166 38.0372C75.2307 38.068 75.2592 38.145 75.2281 38.2091L73.8505 41.0881L76.9942 37.755C77.0434 37.7037 77.1237 37.7011 77.1781 37.7498C77.2299 37.7986 77.2324 37.8781 77.1832 37.932L73.4724 41.8681C73.4465 41.8938 73.4102 41.9066 73.3766 41.9066Z" fill="#3F4553"/>
<path d="M58.9139 38.8635C58.875 38.8635 58.8362 38.8455 58.8103 38.8122L55.9669 35.1122C55.9229 35.0557 55.9333 34.9762 55.9902 34.9326C56.0472 34.8889 56.1275 34.8992 56.1715 34.9556L58.4192 37.8782L57.6346 35.9846C57.6087 35.9204 57.6398 35.8434 57.7045 35.8178C57.7693 35.7921 57.847 35.8229 57.8729 35.8871L59.0304 38.6839C59.0537 38.7429 59.0304 38.8122 58.976 38.843C58.9579 38.8558 58.9346 38.8635 58.9139 38.8635Z" fill="#3F4553"/>
<path d="M65.2789 34.3785L66.7264 40.5315L69.3212 34.7249L67.9953 34.6402L66.0247 34.5042C66.0273 34.5016 65.745 34.4555 65.2789 34.3785Z" fill="white"/>
<path d="M66.7266 40.6597C66.7215 40.6597 66.7189 40.6597 66.7137 40.6597C66.6593 40.6546 66.6127 40.6161 66.5998 40.5622L65.1522 34.4092C65.1418 34.3682 65.1548 34.3245 65.1833 34.2912C65.2118 34.2578 65.2558 34.245 65.2998 34.2527L66.0482 34.3759L69.3317 34.5965C69.3732 34.5991 69.412 34.6222 69.4353 34.6581C69.456 34.694 69.4612 34.7376 69.4431 34.7761L66.8484 40.5828C66.825 40.6289 66.7784 40.6597 66.7266 40.6597ZM65.45 34.5375L66.7655 40.1286L69.1297 34.8403L66.0171 34.6299L65.45 34.5375Z" fill="#3F4553"/>
<path d="M65.2789 34.3785L66.7264 40.5315L69.3212 34.7249L67.9953 34.6402L66.0247 34.5042C66.0273 34.5016 65.745 34.4555 65.2789 34.3785Z" fill="#C6FF00"/>
<path d="M65.2789 34.3785L66.7264 40.5315L69.3212 34.7249L67.9953 34.6402L66.0247 34.5042C66.0273 34.5016 65.745 34.4555 65.2789 34.3785Z" fill="#FED9CE"/>
<path d="M87.2337 37.4909C87.2337 37.4909 87.3606 38.5147 86.7857 38.9637C86.2134 39.4128 83.7922 40.1902 83.1137 39.7874C82.4352 39.3845 81.4745 37.2523 81.85 35.7512C82.2255 34.2528 84.4939 34.8096 84.4939 34.8096C84.4939 34.8096 86.7106 35.5126 87.2337 37.4909Z" fill="white"/>
<path d="M83.6804 40.0261C83.4189 40.0261 83.1988 39.9876 83.0486 39.8978C82.2924 39.4488 81.3524 37.2139 81.7253 35.7205C81.8936 35.0482 82.4374 34.6582 83.3024 34.5889C83.9316 34.5402 84.5013 34.6762 84.5246 34.6839C84.6256 34.7147 86.8242 35.4331 87.3576 37.4551C87.3602 37.4602 87.3602 37.4653 87.3602 37.473C87.3654 37.5166 87.4871 38.5738 86.8656 39.0613C86.415 39.418 84.724 40.0261 83.6804 40.0261ZM83.5846 34.8378C82.9502 34.8378 82.1681 35.0046 81.9739 35.7821C81.6088 37.2395 82.5721 39.3153 83.1806 39.6771C83.7944 40.0415 86.1405 39.3051 86.705 38.8637C87.1893 38.484 87.1142 37.6064 87.1064 37.5141C86.604 35.6358 84.4754 34.9405 84.4547 34.9328C84.4469 34.9302 84.0559 34.8378 83.5846 34.8378Z" fill="#575C69"/>
<path d="M85.1825 38.5763C84.1207 38.6353 83.1859 37.8809 82.9166 36.8623C82.2407 34.2861 80.5937 28.2229 79.9671 27.8073C79.1695 27.2813 78.5583 27.1478 78.5687 26.6603C78.5791 26.1754 78.6205 24.2304 78.6205 24.2304C78.6205 24.2304 78.9753 23.7018 79.2109 24.1945C79.4466 24.6846 79.3896 25.072 79.3896 25.072C79.3896 25.072 79.7806 23.9866 79.7392 23.6454C79.6978 23.3041 79.6175 22.3804 79.6227 22.1366C79.6278 21.8929 79.9515 21.6825 80.4306 22.1777C80.9097 22.6729 81.8445 23.7378 81.6632 24.2432C81.482 24.7487 81.1583 27.2453 81.1583 27.2453C81.1583 27.2453 87.1557 35.9693 87.0418 36.7442C86.9589 37.301 86.4747 38.5044 85.1825 38.5763Z" fill="#FED9CE"/>
<path d="M85.0659 38.7071C84.0171 38.7071 83.072 37.9604 82.7923 36.893C81.4095 31.6201 80.2985 28.1793 79.8972 27.9124C79.6667 27.761 79.4517 27.643 79.2627 27.5378C78.781 27.2709 78.4315 27.0785 78.4418 26.6577L78.4936 24.2278C78.4936 24.2047 78.5014 24.179 78.5143 24.1585C78.535 24.1252 78.7344 23.8378 78.9908 23.8557C79.1306 23.866 79.2446 23.9609 79.33 24.138C79.3844 24.2509 79.4233 24.3612 79.4543 24.4613C79.5501 24.1303 79.6278 23.7993 79.6123 23.6607C79.5709 23.3297 79.4906 22.3932 79.4958 22.134C79.4984 21.9749 79.5968 21.8338 79.7444 21.7774C79.8738 21.726 80.1509 21.7004 80.5264 22.0904C81.0858 22.6677 81.9921 23.7197 81.7875 24.2894C81.6244 24.7384 81.3421 26.8681 81.2955 27.2171C82.3624 28.7694 87.2878 35.9898 87.1738 36.7673C87.0806 37.4036 86.5446 38.6301 85.1954 38.7045C85.1462 38.7071 85.1048 38.7071 85.0659 38.7071ZM78.7474 24.274L78.6982 26.6628C78.693 26.9168 78.9183 27.0528 79.387 27.3146C79.5812 27.4223 79.8013 27.5429 80.0396 27.6994C80.6481 28.0997 82.0076 32.8851 83.0435 36.8289C83.3024 37.8219 84.1984 38.5018 85.1747 38.448C86.3581 38.3812 86.8294 37.2959 86.9123 36.7288C86.99 36.2002 83.3568 30.6784 81.0495 27.3197C81.0314 27.294 81.0236 27.2632 81.0288 27.2324C81.0417 27.1298 81.3551 24.7179 81.5389 24.2021C81.6477 23.8968 81.1764 23.1373 80.3348 22.2674C80.1043 22.0288 79.9256 21.9801 79.8324 22.016C79.7729 22.0391 79.7495 22.0955 79.7495 22.1392C79.7444 22.3701 79.8195 23.2733 79.8635 23.6299C79.9075 23.9917 79.5501 25.0001 79.5087 25.1156C79.4854 25.1772 79.4207 25.2131 79.3559 25.1977C79.2912 25.1823 79.2498 25.1207 79.2601 25.054C79.2601 25.0514 79.3067 24.6948 79.0944 24.2483C79.0555 24.1662 79.0089 24.1149 78.9701 24.1123C78.9157 24.1046 78.8095 24.197 78.7474 24.274Z" fill="#3F4553"/>
<path d="M80.674 25.1619C80.661 25.1619 80.6481 25.1593 80.6377 25.1568C80.5704 25.1362 80.5289 25.0644 80.5523 24.9977L80.8319 24.0714C80.7724 23.9379 80.6066 23.5479 80.5885 23.1913C80.5782 22.9937 80.6584 22.9039 80.7258 22.8628C80.8993 22.7576 81.1427 22.8911 81.1893 22.9167C81.2514 22.9526 81.2696 23.0322 81.2333 23.0912C81.1971 23.1528 81.1168 23.1733 81.0572 23.1374C80.9795 23.0912 80.8811 23.0681 80.8578 23.0809C80.8578 23.0809 80.8397 23.1015 80.8449 23.1784C80.8656 23.5582 81.0831 24.0021 81.0857 24.0072C81.1013 24.0355 81.1038 24.0688 81.0935 24.0996L80.7983 25.0746C80.7801 25.126 80.7283 25.1619 80.674 25.1619Z" fill="#263238"/>
<path d="M80.2311 25.0463C80.2208 25.0463 80.2104 25.0463 80.2 25.0437C80.1301 25.0258 80.0887 24.9565 80.1042 24.8898L80.3218 24.0097C80.257 23.8711 80.0861 23.4324 80.1871 22.9705C80.2337 22.7627 80.3269 22.6241 80.4668 22.5625C80.6584 22.4753 80.8474 22.5754 80.8682 22.5856C80.9303 22.619 80.9536 22.6985 80.92 22.7601C80.8863 22.8217 80.8086 22.8448 80.7439 22.8114C80.7413 22.8089 80.6455 22.7627 80.5729 22.796C80.4979 22.8294 80.459 22.9397 80.4409 23.0244C80.3399 23.4811 80.5704 23.9301 80.5729 23.9353C80.5885 23.9635 80.5911 23.9943 80.5833 24.0251L80.3554 24.9514C80.3425 25.0078 80.2881 25.0463 80.2311 25.0463Z" fill="#263238"/>
<path d="M79.8609 25.0206C79.8531 25.0206 79.8454 25.0206 79.8376 25.018C79.7677 25.0052 79.7211 24.9385 79.7314 24.8692L79.9412 23.6966C79.9075 23.5631 79.7677 22.9832 79.747 22.5676C79.7366 22.3726 79.8169 22.2571 79.8868 22.193C80.0836 22.0108 80.4073 22.0467 80.4435 22.0518C80.5135 22.0621 80.5653 22.1237 80.5549 22.1955C80.5471 22.2648 80.4824 22.3161 80.4099 22.3059C80.3426 22.2982 80.1535 22.2956 80.0603 22.3803C80.0189 22.4188 80.0007 22.4752 80.0033 22.5547C80.0266 22.9909 80.1949 23.6555 80.1975 23.6606C80.2027 23.6786 80.2027 23.6966 80.2001 23.7145L79.9852 24.9128C79.9774 24.9769 79.923 25.0206 79.8609 25.0206Z" fill="#263238"/>
<path d="M69.0826 35.8231C77.9511 35.8231 85.1405 28.6994 85.1405 19.912C85.1405 11.1245 77.9511 4.00088 69.0826 4.00088C60.2141 4.00088 53.0247 11.1245 53.0247 19.912C53.0247 28.6994 60.2141 35.8231 69.0826 35.8231Z" fill="#FA6E5A"/>
<path opacity="0.3" d="M57.9996 19.2654C58.3207 11.5369 64.1576 5.32748 71.5922 4.19849C70.9863 4.10355 70.37 4.03941 69.7433 4.01375C60.8818 3.65196 53.4031 10.4747 53.0354 19.2526C52.6703 28.0331 59.5559 35.4433 68.4148 35.8077C69.4766 35.8513 70.515 35.7897 71.5275 35.6358C63.5827 34.399 57.6604 27.4249 57.9996 19.2654Z" fill="#AC3E2F"/>
<path d="M59.3515 21.3412C59.3515 21.3412 71.1366 19.8043 80.8889 22.2239C80.8889 22.2239 79.9748 31.923 69.7926 31.6997C60.9648 31.5073 59.3515 21.3412 59.3515 21.3412Z" fill="#3F4553"/>
<path d="M70.2819 16.302C69.896 16.302 69.562 16.0197 69.5128 15.6297C69.2668 13.7335 67.5266 12.3043 65.4627 12.3043C63.6241 12.3043 62.0056 13.4538 61.5266 15.096C61.4074 15.504 60.975 15.74 60.5632 15.622C60.1515 15.504 59.9132 15.078 60.0324 14.6675C60.7031 12.3684 62.9353 10.7648 65.4627 10.7648C68.3034 10.7648 70.7066 12.7713 71.0536 15.4347C71.1079 15.8555 70.8076 16.2429 70.3829 16.2968C70.3492 16.2994 70.3155 16.302 70.2819 16.302Z" fill="#3F4553"/>
<path d="M81.5958 18.1288C81.1763 18.1288 80.8319 17.7978 80.819 17.3795C80.7724 15.6886 79.3662 14.2774 77.5484 14.0978C75.9299 13.9387 74.3995 14.8059 73.8297 16.2095C73.6692 16.6046 73.216 16.7945 72.8198 16.638C72.421 16.4789 72.2294 16.0324 72.3874 15.6373C73.2134 13.6 75.3964 12.3376 77.7011 12.5659C80.2933 12.8225 82.3002 14.8752 82.3701 17.3359C82.3831 17.7619 82.0438 18.116 81.614 18.1262C81.6114 18.1288 81.6036 18.1288 81.5958 18.1288Z" fill="#3F4553"/>
<path d="M60.8846 21.639C60.9804 22.0239 61.6925 24.1305 65.8514 24.3024C70.4297 24.4897 75.0029 24.8464 77.3827 24.7745C78.807 24.7309 79.488 23.5172 79.8065 22.5473C72.5972 20.9128 64.4841 21.3285 60.8846 21.639Z" fill="white"/>
<path d="M72.838 30.9223C72.8406 28.6412 70.3701 26.7117 67.2342 26.5834C65.4966 26.5115 63.9195 27.0119 62.8215 27.8561C64.396 29.6445 66.6774 31.0891 69.9506 31.1609C71.0123 31.184 71.9705 31.0942 72.838 30.9223Z" fill="#4E5567"/>
<path d="M55.3347 86.6636L60.4647 88.2596L60.5061 86.1633L55.1276 85.0651L55.3347 86.6636Z" fill="#4E5567"/>
<path d="M60.465 88.3878C60.452 88.3878 60.4391 88.3853 60.4262 88.3827L55.2962 86.7867C55.247 86.7713 55.2134 86.7303 55.2056 86.6815L54.9984 85.0804C54.9932 85.0394 55.0088 84.9983 55.0399 84.9701C55.0709 84.9419 55.1124 84.929 55.1538 84.9393L60.5323 86.0375C60.5945 86.0503 60.6359 86.1042 60.6359 86.1658L60.5945 88.2621C60.5945 88.3032 60.5738 88.3391 60.5401 88.3647C60.5194 88.3801 60.4935 88.3878 60.465 88.3878ZM55.4516 86.5661L60.3381 88.0851L60.3744 86.2659L55.2781 85.2241L55.4516 86.5661Z" fill="#3F4553"/>
<path d="M65.8719 86.9741L66.5037 88.8318L71.556 86.7945L71.1753 85.0625L65.8719 86.9741Z" fill="#4E5567"/>
<path d="M66.5037 88.9576C66.4856 88.9576 66.4674 88.9525 66.4493 88.9448C66.4156 88.9294 66.3923 88.9037 66.3794 88.8704L65.7475 87.0152C65.7242 86.9485 65.7605 86.8767 65.8252 86.8536L71.1287 84.942C71.1649 84.9292 71.2038 84.9317 71.2348 84.9497C71.2685 84.9677 71.2918 84.9984 71.2996 85.0344L71.6802 86.7663C71.6932 86.8279 71.6595 86.8895 71.6025 86.9126L66.5503 88.9473C66.5374 88.955 66.5192 88.9576 66.5037 88.9576ZM66.035 87.0512L66.5814 88.66L71.4057 86.7176L71.0794 85.2345L66.035 87.0512Z" fill="#3F4553"/>
<path d="M47.0411 33.3474C47.0411 33.3474 46.6967 34.3199 47.1602 34.8818C47.6238 35.4437 49.8197 36.7139 50.5681 36.4624C51.3165 36.2135 52.7149 34.3301 52.6734 32.788C52.6294 31.2434 50.2936 31.3075 50.2936 31.3075C50.2936 31.3075 47.9785 31.5256 47.0411 33.3474Z" fill="white"/>
<path d="M50.3476 36.6211C49.3791 36.6211 47.4731 35.4613 47.0588 34.961C46.5564 34.3528 46.9009 33.347 46.9164 33.3034C46.919 33.2983 46.9216 33.2931 46.9242 33.288C47.8823 31.4226 50.1844 31.1891 50.2802 31.1788C51.1451 31.1609 52.7636 31.4611 52.8025 32.7825C52.8465 34.3195 51.4455 36.3029 50.6091 36.5826C50.534 36.6083 50.446 36.6211 50.3476 36.6211ZM47.1598 33.3958C47.1313 33.4856 46.8698 34.3246 47.2608 34.7993C47.7166 35.351 49.8504 36.5646 50.5288 36.3414C51.2021 36.1156 52.5875 34.2938 52.5461 32.7928C52.5073 31.3944 50.3217 31.438 50.2984 31.438C50.2828 31.438 48.0558 31.6689 47.1598 33.3958Z" fill="#3F4553"/>
<path d="M48.2759 34.6967C49.3014 34.9789 50.376 34.4401 50.8577 33.501C52.0722 31.1275 54.9881 25.5519 55.6898 25.2799C56.5832 24.9335 57.2073 24.9335 57.3031 24.4562C57.3989 23.979 57.777 22.0725 57.777 22.0725C57.777 22.0725 57.544 21.4824 57.2099 21.9134C56.8758 22.3419 56.8474 22.7345 56.8474 22.7345C56.8474 22.7345 56.6998 21.5927 56.8137 21.2668C56.9276 20.9435 57.2047 20.0557 57.2513 19.8171C57.2979 19.5785 57.0286 19.3039 56.4537 19.6863C55.8789 20.0686 54.7369 20.9102 54.8042 21.4439C54.8741 21.9776 54.6488 24.4845 54.6488 24.4845C54.6488 24.4845 46.9086 31.7382 46.8542 32.5208C46.8154 33.0776 47.0277 34.3529 48.2759 34.6967Z" fill="#FED9CE"/>
<path d="M48.8326 34.902C48.6358 34.902 48.439 34.8764 48.2422 34.8225C46.9396 34.4632 46.6806 33.1546 46.7247 32.5106C46.779 31.7254 53.1468 25.7136 54.5244 24.4229C54.5555 24.0714 54.7368 21.9314 54.6746 21.4593C54.5969 20.8615 55.7105 20.025 56.3786 19.5785C56.8317 19.2783 57.0933 19.363 57.2098 19.44C57.3419 19.5272 57.4066 19.6837 57.3756 19.8428C57.3263 20.0968 57.0441 20.9949 56.9327 21.3105C56.8861 21.4439 56.8913 21.7826 56.9146 22.1264C56.9638 22.0341 57.026 21.9366 57.1036 21.8365C57.2228 21.6825 57.3548 21.6133 57.4947 21.6338C57.7459 21.6697 57.8805 21.993 57.8935 22.0289C57.9012 22.052 57.9038 22.0751 57.8986 22.1008L57.4299 24.4794C57.3471 24.8925 56.9664 25.0054 56.4381 25.1645C56.231 25.226 55.9953 25.2979 55.7364 25.398C55.2858 25.5724 53.4601 28.7003 50.9741 33.5575C50.5469 34.394 49.7027 34.902 48.8326 34.902ZM48.3121 34.5736C49.2521 34.8327 50.275 34.358 50.7437 33.442C52.603 29.8087 54.9621 25.421 55.6431 25.1593C55.9099 25.0567 56.1507 24.9848 56.363 24.9207C56.8784 24.7667 57.127 24.6821 57.1762 24.4306L57.6423 22.0854C57.6008 21.9981 57.5232 21.8904 57.461 21.8827C57.4196 21.875 57.3678 21.916 57.3108 21.9879C57.0052 22.3779 56.9742 22.7371 56.9742 22.7397C56.969 22.8064 56.9146 22.8577 56.8473 22.8577C56.7722 22.8603 56.723 22.8115 56.7152 22.7448C56.6997 22.6242 56.5676 21.5619 56.6893 21.2181C56.8084 20.8794 57.0778 20.0121 57.1218 19.7864C57.1295 19.7427 57.1218 19.6837 57.0674 19.6478C56.9845 19.5939 56.8007 19.6016 56.5236 19.7864C55.5137 20.4586 54.8896 21.1001 54.931 21.4208C55.0009 21.9622 54.786 24.3844 54.7782 24.4896C54.7756 24.5204 54.7601 24.5512 54.7394 24.5717C51.7614 27.3634 47.0225 31.9923 46.9862 32.5234C46.9422 33.0982 47.1701 34.2605 48.3121 34.5736Z" fill="#3F4553"/>
<path d="M55.8478 22.6832C55.8452 22.6832 55.8426 22.6832 55.8426 22.6832C55.7701 22.6806 55.7157 22.6191 55.7209 22.5498C55.7209 22.5421 55.7546 21.8442 55.7365 21.5029C55.7157 21.1334 56.2699 19.7889 56.3346 19.6375C56.3605 19.5708 56.4382 19.54 56.503 19.5682C56.5677 19.5939 56.6014 19.6709 56.5729 19.735C56.3424 20.2892 55.9825 21.254 55.9954 21.4901C56.0135 21.8442 55.9799 22.5344 55.9799 22.5626C55.9747 22.6293 55.9177 22.6832 55.8478 22.6832Z" fill="#263238"/>
<path d="M55.4177 22.5395L55.1588 22.5343C55.1588 22.5343 55.1769 21.7851 55.1898 21.5054C55.2028 21.2206 55.4902 20.3379 55.5213 20.2404C55.542 20.1737 55.6171 20.1352 55.6844 20.1583C55.7518 20.1789 55.7906 20.2533 55.7673 20.32C55.6818 20.5817 55.4566 21.3053 55.4462 21.5183C55.4358 21.7954 55.4177 22.5395 55.4177 22.5395Z" fill="#263238"/>
</svg>
