<svg width="140" height="123" viewBox="0 0 140 123" fill="none" xmlns="http://www.w3.org/2000/svg">
<path fill-rule="evenodd" clip-rule="evenodd" d="M44.3188 30.8275C46.3525 35.567 50.4914 37.2273 54.0609 36.4149C56.8657 35.7765 60.5169 29.8895 60.3879 27.1707C60.0024 19.0154 51.0365 3.47927 46.1571 2.44733C42.2149 5.4873 41.0978 23.3183 44.3188 30.8275Z" fill="#FEDEA6"/>
<path d="M52.3094 36.8186C50.9995 36.8186 49.6961 36.5025 48.5165 35.8869C46.6155 34.8943 45.0976 33.1732 44.1261 30.9087C42.6209 27.3991 41.9366 21.2837 42.3426 14.9474C42.6618 9.95269 43.798 4.00223 46.0283 2.28107L46.1049 2.22141L46.1993 2.24172C51.191 3.29777 60.2055 18.8999 60.5961 27.1592C60.7314 30.0177 57.0023 35.9567 54.1069 36.6168C53.5158 36.7526 52.912 36.8186 52.3094 36.8186ZM46.2096 2.67201C44.4733 4.1152 43.1558 8.80651 42.7613 14.974C42.3605 21.2494 43.0307 27.2925 44.5116 30.745C46.2325 34.756 49.4459 36.3959 52.349 36.3959C52.9209 36.3959 53.4801 36.3324 54.015 36.2106C56.7023 35.5988 60.3063 29.8438 60.1799 27.1783C60.0037 23.4402 57.933 17.717 54.7771 12.24C51.6825 6.86957 48.4131 3.22289 46.2096 2.67201Z" fill="#F5C371"/>
<path d="M46.2927 2.37778L45.8847 2.4716L53.7909 36.4401L54.1989 36.3462L46.2927 2.37778Z" fill="#F9CF88"/>
<path d="M49.2659 15.4817L48.9276 15.2355C48.9531 15.2012 51.4834 11.7614 53.1852 9.49065L53.5209 9.73944C51.8204 12.0089 49.2914 15.4474 49.2659 15.4817Z" fill="#F9CF88"/>
<path d="M54.3212 11.2817L49.3677 17.0675L49.6865 17.3374L54.6401 11.5515L54.3212 11.2817Z" fill="#F9CF88"/>
<path d="M42.4857 19.513L42.2807 19.8761L51.1576 24.8289L51.3625 24.4658L42.4857 19.513Z" fill="#F9CF88"/>
<path d="M59.533 23.1929L52.4681 30.3485L52.7669 30.6401L59.8318 23.4845L59.533 23.1929Z" fill="#F9CF88"/>
<path d="M42.924 25.2342L42.7771 25.6241L52.1827 29.126L52.3296 28.7361L42.924 25.2342Z" fill="#F9CF88"/>
<path d="M48.1539 12.0609C47.4263 11.4009 45.5087 9.65183 43.4291 7.65269L43.7202 7.35313C45.796 9.3472 47.7109 11.0937 48.4374 11.7525L48.1539 12.0609Z" fill="#F9CF88"/>
<path fill-rule="evenodd" clip-rule="evenodd" d="M44.8053 26.3279C44.0381 25.5549 43.2031 24.7793 42.3159 24.0102C34.0815 16.8716 21.3801 10.298 16.7038 11.7805C14.2488 17.67 24.2641 38.423 32.667 44.7682C37.9714 48.7728 43.6551 48.0062 47.1199 44.8406C47.7008 44.31 48.2191 43.7109 48.6633 43.0572C50.8681 39.8078 51.2345 35.1711 48.265 30.5166C47.4071 29.1686 46.2211 27.7533 44.8053 26.3279Z" fill="#FEDEA6"/>
<path d="M40.2196 47.7079C37.5973 47.7079 34.9508 46.7534 32.5405 44.9345C28.6327 41.9833 23.9896 35.5696 20.4252 28.1937C17.6242 22.3994 15.1245 15.0248 16.5097 11.7005L16.5467 11.6117L16.6399 11.5825C18.8855 10.8704 23.0155 11.8985 28.2676 14.4765C33.2006 16.8983 38.371 20.3165 42.4524 23.854C43.3537 24.6359 44.195 25.419 44.9534 26.1819C46.4292 27.667 47.6024 29.0873 48.4425 30.4036C51.1911 34.7128 51.3379 39.4854 48.8369 43.1727C48.3863 43.8378 47.8552 44.4509 47.2616 44.9928C45.4436 46.6531 43.0754 47.6152 40.5898 47.7015C40.4672 47.7053 40.3434 47.7079 40.2196 47.7079ZM16.8608 11.9506C15.8152 14.6719 17.3178 20.8052 20.8018 28.0135C24.3394 35.3322 28.9353 41.6889 32.7933 44.6019C38.1935 48.6789 43.8082 47.5822 46.9781 44.6869C47.5488 44.1653 48.0569 43.5776 48.4897 42.9404C50.8949 39.3953 50.7443 34.7928 48.0888 30.627C47.2654 29.3361 46.11 27.9386 44.6559 26.4751C43.9052 25.7199 43.0716 24.9431 42.1779 24.1688C34.3227 17.3578 21.6175 10.5848 16.8608 11.9506Z" fill="#F5C371"/>
<path d="M16.8584 11.6397L16.5495 11.9207L46.9679 44.9822L47.2769 44.7012L16.8584 11.6397Z" fill="#F5C371"/>
<path d="M19.077 24.8745L19.0616 24.4582C22.718 24.3199 28.2241 24.1612 28.279 24.1599L28.2905 24.5763C28.2356 24.5788 22.732 24.7375 19.077 24.8745Z" fill="#F5C371"/>
<path d="M29.9157 25.9587L20.1465 26.9605L20.1895 27.3746L29.9587 26.3728L29.9157 25.9587Z" fill="#F5C371"/>
<path d="M37.5888 20.44L36.3985 33.3919L36.8155 33.4297L38.0059 20.4779L37.5888 20.44Z" fill="#F5C371"/>
<path d="M41.8033 38.8982L29.0371 41.1249L29.1095 41.535L41.8756 39.3083L41.8033 38.8982Z" fill="#F5C371"/>
<path d="M43.3549 25.0729L40.2366 37.5256L40.643 37.6262L43.7613 25.1735L43.3549 25.0729Z" fill="#F5C371"/>
<path d="M24.988 21.0387C24.8156 19.7923 24.3484 16.4997 23.7381 12.8683L24.1517 12.7997C24.7633 16.4363 25.2318 19.7339 25.4041 20.9829L24.988 21.0387Z" fill="#F5C371"/>
<path fill-rule="evenodd" clip-rule="evenodd" d="M112.072 93.8867C106.988 92.8788 103.275 95.34 101.934 98.7277C100.881 101.389 103.707 107.709 106.037 109.139C113.024 113.426 130.984 114.839 134.596 111.416C134.297 106.465 120.125 95.4822 112.072 93.8867Z" fill="#FEDEA6"/>
<path d="M125.487 113.54C118.736 113.54 110.268 111.981 105.927 109.316C103.479 107.813 100.652 101.4 101.74 98.6516C102.447 96.8645 103.784 95.3807 105.502 94.4756C107.399 93.4754 109.685 93.2025 112.114 93.6836C115.878 94.4287 121.34 97.3214 126.372 101.231C130.338 104.313 134.637 108.604 134.806 111.407L134.813 111.503L134.743 111.571C133.312 112.921 129.739 113.54 125.487 113.54ZM109.844 93.8689C105.883 93.8689 103.166 96.1816 102.128 98.8039C101.12 101.355 103.862 107.561 106.146 108.962C109.349 110.927 115.269 112.459 121.598 112.962C127.805 113.454 132.678 112.83 134.379 111.332C134.16 109.092 131.01 105.362 126.113 101.557C121.13 97.6857 115.733 94.8247 112.031 94.0911C111.266 93.9387 110.536 93.8689 109.844 93.8689Z" fill="#F5C371"/>
<path d="M102.071 98.4951L101.918 98.8829L134.58 111.574L134.732 111.186L102.071 98.4951Z" fill="#F5C371"/>
<path d="M124.384 113.342C123.461 110.665 122.034 106.649 122.02 106.609L122.414 106.47C122.428 106.511 123.855 110.528 124.78 113.208L124.384 113.342Z" fill="#F5C371"/>
<path d="M120.642 105.792L120.238 105.902L122.245 113.233L122.649 113.124L120.642 105.792Z" fill="#F5C371"/>
<path d="M122.314 98.4004L113.191 102.889L113.376 103.262L122.499 98.7736L122.314 98.4004Z" fill="#F5C371"/>
<path d="M107.87 100.845L107.46 100.925L109.412 110.763L109.822 110.682L107.87 100.845Z" fill="#F5C371"/>
<path d="M117.266 95.5538L109.049 101.296L109.29 101.637L117.507 95.8944L117.266 95.5538Z" fill="#F5C371"/>
<path d="M125.583 108.032L125.487 107.627C126.448 107.401 128.989 106.814 131.814 106.237L131.898 106.644C129.079 107.221 126.543 107.807 125.583 108.032Z" fill="#F5C371"/>
<path fill-rule="evenodd" clip-rule="evenodd" d="M111.18 87.7547C106.805 90.5179 105.829 94.8475 107.214 98.2187C108.303 100.866 114.738 103.495 117.415 102.928C125.446 101.228 139.411 89.9125 139.645 84.9571C135.989 81.5821 118.111 83.3769 111.18 87.7547Z" fill="#FEDEA6"/>
<path d="M116.566 103.215C113.458 103.215 108.039 100.771 107.022 98.2975C106.291 96.5192 106.226 94.5289 106.839 92.6935C107.516 90.6677 108.977 88.8996 111.069 87.5795C114.307 85.5334 120.267 83.8719 126.621 83.2424C131.63 82.7461 137.72 82.8958 139.789 84.8049L139.861 84.8709L139.856 84.9673C139.616 90.0356 125.593 101.41 117.459 103.131C117.191 103.188 116.891 103.215 116.566 103.215ZM131.418 83.4061C129.957 83.4061 128.358 83.4886 126.662 83.6562C120.369 84.2794 114.48 85.918 111.293 87.9311C106.862 90.7299 106.15 95.076 107.41 98.1401C108.453 100.677 114.748 103.279 117.373 102.724C121.053 101.944 126.399 98.9854 131.324 95.0011C136.153 91.0942 139.243 87.2952 139.432 85.0448C138.186 83.9786 135.281 83.4061 131.418 83.4061Z" fill="#F5C371"/>
<path d="M139.573 84.691L107.143 97.9537L107.303 98.3387L139.733 85.076L139.573 84.691Z" fill="#F5C371"/>
<path d="M133.601 93.3637C131.074 92.0627 127.251 90.1397 127.213 90.1194L127.402 89.7475C127.44 89.7665 131.264 91.6908 133.793 92.9931L133.601 93.3637Z" fill="#F5C371"/>
<path d="M125.654 90.4811L125.438 90.8377L131.982 94.7605L132.198 94.404L125.654 90.4811Z" fill="#F5C371"/>
<path d="M121.714 83.9752L118.236 93.4861L118.629 93.6283L122.107 84.1175L121.714 83.9752Z" fill="#F5C371"/>
<path d="M112.973 95.6715L112.732 96.0119L120.979 101.784L121.22 101.443L112.973 95.6715Z" fill="#F5C371"/>
<path d="M116.091 85.4005L114.14 95.1953L114.551 95.2762L116.502 85.4814L116.091 85.4005Z" fill="#F5C371"/>
<path d="M130.777 88.7004L130.426 88.4732C130.964 87.6507 132.392 85.4814 134.035 83.1218L134.38 83.3592C132.741 85.715 131.315 87.8791 130.777 88.7004Z" fill="#F5C371"/>
<path fill-rule="evenodd" clip-rule="evenodd" d="M59.4999 43.0001C23.4999 30.0001 5.46124 38.0286 1.26672 64.4616C-2.92781 90.8947 22.3462 116.323 59.5001 121.5C89.2611 125.647 119.5 107 124.5 63.0002C129.5 19.0002 95.4999 56 59.4999 43.0001Z" fill="#F5C371"/>
<path fill-rule="evenodd" clip-rule="evenodd" d="M54.9718 42.7314C54.6424 42.7886 54.3143 42.852 53.9862 42.918C53.1449 43.0856 52.3061 43.2684 51.4712 43.4638C50.3005 43.738 49.1362 44.0375 47.9808 44.3676C46.6633 44.7433 45.3561 45.1583 44.0692 45.6292C42.693 46.1332 41.3231 46.7043 40.0248 47.3847C39.998 47.3986 39.9661 47.3885 39.952 47.3618C39.938 47.3352 39.9482 47.3034 39.975 47.2895C41.2772 46.6053 42.6508 46.0329 44.0322 45.5277C45.3203 45.0568 46.6314 44.6405 47.9502 44.2635C49.1068 43.9335 50.2737 43.6326 51.4457 43.3585C52.2819 43.163 53.1219 42.979 53.9645 42.8127C54.2926 42.7479 54.6219 42.6832 54.9526 42.6261C54.982 42.621 55.0101 42.6401 55.0152 42.6692C55.0215 42.6984 55.0011 42.7264 54.9718 42.7314Z" fill="white"/>
<path d="M40.0001 47.4185C39.9707 47.4185 39.9426 47.4033 39.9273 47.3753C39.9171 47.3563 39.9146 47.3347 39.9209 47.3131C39.9273 47.2928 39.9414 47.2751 39.9605 47.2649C41.135 46.648 42.4627 46.0718 44.0215 45.5018C45.2395 45.0563 46.5225 44.6425 47.9421 44.2376C49.063 43.9178 50.2401 43.6131 51.4388 43.3326C52.298 43.1321 53.1457 42.948 53.9589 42.7868C54.2564 42.7272 54.6037 42.6599 54.9471 42.6002C54.9688 42.5964 54.9905 42.6015 55.0083 42.6142C55.0262 42.6269 55.0377 42.6459 55.0415 42.6662C55.0454 42.6878 55.0403 42.7094 55.0275 42.7272C55.0147 42.7449 54.9956 42.7564 54.9752 42.7602C54.6368 42.8186 54.2896 42.8871 53.9909 42.9455C53.1789 43.1067 52.3338 43.2895 51.4771 43.4913C50.2822 43.7705 49.1077 44.0752 47.9881 44.395C46.571 44.7999 45.2931 45.2124 44.079 45.6554C42.5279 46.2228 41.2065 46.7965 40.0384 47.4096C40.0269 47.4147 40.0129 47.4185 40.0001 47.4185ZM54.9624 42.6523C54.9611 42.6523 54.9598 42.6523 54.9573 42.6523C54.6139 42.7119 54.2679 42.7792 53.9704 42.8389C53.1585 43.0001 52.3121 43.1841 51.4529 43.3847C50.2554 43.6652 49.0796 43.9698 47.9587 44.2897C46.5404 44.6946 45.2586 45.1084 44.042 45.5526C42.4857 46.1225 41.1593 46.6975 39.9873 47.3131C39.9809 47.3157 39.9771 47.322 39.9746 47.3284C39.972 47.3347 39.9733 47.3423 39.9758 47.3487C39.9822 47.3614 39.9988 47.3664 40.0116 47.3588C41.1823 46.7445 42.5062 46.1695 44.0598 45.6009C45.2752 45.1566 46.5544 44.7441 47.9728 44.3392C49.0936 44.0193 50.2682 43.7147 51.4644 43.4354C52.3223 43.2349 53.1687 43.0508 53.9807 42.8896C54.2794 42.83 54.6266 42.7627 54.9662 42.703C54.9726 42.7018 54.979 42.698 54.9828 42.6929C54.9866 42.6878 54.9879 42.6802 54.9866 42.6739C54.9854 42.6675 54.9815 42.6612 54.9764 42.6574C54.9726 42.6535 54.9675 42.6523 54.9624 42.6523Z" fill="white"/>
<path fill-rule="evenodd" clip-rule="evenodd" d="M87.3765 30.9709C90.1992 26.093 92.1014 20.979 92.6874 19.315C92.8763 17.4123 89.6757 11.3425 89.6757 11.3425C86.8748 11.4898 77.1442 11.9277 72.9312 11.1864C72.9312 11.1864 70.3039 9.67216 68.2485 11.3756C66.1931 13.0789 69.7332 15.4259 69.7332 15.4259L54.9624 42.6776C63.3372 52.3674 70.4941 47.0681 70.4941 47.0681L72.6261 40.709C77.5067 42.7792 81.9137 39.0716 85.362 34.1454C85.9709 33.1846 86.6705 32.0663 87.3765 30.9709Z" fill="#FDBCA0"/>
<path fill-rule="evenodd" clip-rule="evenodd" d="M77.2514 111.155L73.235 116.599L91.3558 116.675C87.3216 113.42 77.2514 111.155 77.2514 111.155Z" fill="#FDBCA0"/>
<path fill-rule="evenodd" clip-rule="evenodd" d="M87.3765 30.9709C86.7496 32.0549 86.0768 33.1262 85.3632 34.1467C83.3027 37.4037 82.6771 39.6123 82.6771 40.5211C82.6771 41.4299 83.138 44.3683 83.138 44.3683L88.5395 44.2541C88.5395 44.2541 88.5395 41.3537 88.9953 39.9156C89.4523 38.4775 92.3452 26.1387 91.4311 25.9864C91.2192 25.9508 90.8898 26.1971 90.4825 26.635C90.4966 26.6439 90.1532 27.0132 89.9502 27.2595C89.197 28.2051 88.2803 29.5696 87.3765 30.9709Z" fill="#FDBCA0"/>
<path fill-rule="evenodd" clip-rule="evenodd" d="M69.1242 2.06528C59.2264 7.66667 40.0001 47.3359 40.0001 47.3359C45.8854 44.2465 54.9624 42.6776 54.9624 42.6776L69.7332 15.4259C69.7332 15.4259 66.1931 13.0789 68.2485 11.3756C70.3039 9.67216 72.9312 11.1864 72.9312 11.1864C77.1441 11.9277 86.8747 11.4885 89.6757 11.3426C89.6757 11.3426 92.8763 17.4123 92.6873 19.315C92.1001 20.979 90.1991 26.0943 87.3765 30.9709C89.0617 28.3575 90.789 25.8798 91.4324 25.9864C92.3465 26.1375 89.4523 38.4775 88.9965 39.9156C88.5395 41.3538 88.5408 44.2541 88.5408 44.2541L89.6821 44.23C89.6821 44.23 90.2438 49.4163 90.9166 56.8328C91.2319 60.3005 91.5703 64.2569 91.8881 68.3974C92.9733 67.0024 95.3517 63.706 95.4691 61.4899C95.6211 58.6136 98.362 34.9946 97.1441 18.9469C95.9249 2.89793 88.9965 4.03395 88.9965 4.03395C88.9965 4.03395 79.0221 -3.53612 69.1242 2.06528Z" fill="#3F4553"/>
<path fill-rule="evenodd" clip-rule="evenodd" d="M85.3631 34.1467C81.9149 39.0728 77.5079 42.7804 72.6273 40.7102L70.4953 47.0694C70.4953 47.0694 79.262 50.2883 81.237 54.5265C81.92 48.4047 82.5251 44.3823 82.5251 44.3823L83.1392 44.3696C83.1392 44.3696 82.6783 41.4299 82.6783 40.5224C82.677 39.6123 83.3013 37.4037 85.3631 34.1467Z" fill="#3F4553"/>
<path fill-rule="evenodd" clip-rule="evenodd" d="M36.345 97.0987C34.8258 96.9641 33.267 96.855 31.6712 96.7725C32.6887 95.6771 34.1288 92.8846 35.6582 89.4727C35.8612 91.7905 36.1765 95.2556 36.345 97.0987ZM37.2987 49.0749C32.1206 53.3143 8.66988 89.6504 16.8928 107.516C16.8928 107.516 23.2888 113.875 73.235 116.6L77.2514 111.156L78.2612 109.788C78.2612 109.788 74.8896 107.441 68.4131 104.728C68.4131 104.728 70.0638 101.124 71.9865 96.8029C71.9865 96.8029 78.8714 109.486 85.1142 112.967C76.8211 104.945 79.3323 71.5871 81.2371 54.5278C79.2634 50.2896 70.4953 47.0707 70.4953 47.0707C70.4953 47.0707 63.3385 52.37 54.9637 42.6802C54.9637 42.6802 45.8867 44.249 40.0014 47.3385C38.9826 47.8703 38.0609 48.4504 37.2987 49.0749Z" fill="#63A6DC"/>
<path fill-rule="evenodd" clip-rule="evenodd" d="M81.2358 54.5265C79.331 71.5858 76.8199 104.944 85.113 112.966C85.113 112.966 91.3558 118.113 92.8788 102.974C93.6307 95.4968 92.8597 81.0789 91.8868 68.3986C91.569 64.2582 91.2307 60.3018 90.9153 56.8341C90.2425 49.4176 89.6808 44.2313 89.6808 44.2313L88.5395 44.2554L83.138 44.3696L82.5239 44.3823C82.5239 44.3823 81.9188 48.4047 81.2358 54.5265Z" fill="#63A6DC"/>
<path fill-rule="evenodd" clip-rule="evenodd" d="M73.4393 65.1087C73.6997 66.0149 73.9576 66.9212 74.2142 67.8288C74.7721 69.8025 75.3236 71.7788 75.8611 73.7589C76.3564 75.5778 76.8441 77.4018 77.2948 79.2321C77.4582 79.8985 77.619 80.5699 77.7582 81.2426C77.8054 81.4737 77.8514 81.7059 77.8871 81.9382C77.9089 82.0804 77.9331 82.239 77.9331 82.3837C77.9331 82.5373 77.8731 82.7506 77.8323 82.8991C77.7505 83.191 77.651 83.4804 77.5501 83.766C77.2399 84.6431 76.8914 85.5126 76.5415 86.3744C76.0743 87.5231 75.593 88.6655 75.1053 89.8053C74.5576 91.0873 74.001 92.3655 73.4418 93.6411C72.9758 94.7035 72.506 95.7646 72.0337 96.8245C72.0222 96.8512 71.9903 96.8638 71.9622 96.8524C71.9354 96.841 71.9226 96.8093 71.9341 96.7813C72.4052 95.7215 72.875 94.6604 73.341 93.598C73.9014 92.3223 74.4568 91.0441 75.0044 89.7621C75.4909 88.6223 75.9734 87.4812 76.4394 86.3325C76.7892 85.4719 77.1365 84.6037 77.4467 83.7292C77.5476 83.4461 77.6459 83.158 77.7263 82.8699C77.7646 82.7341 77.8233 82.5259 77.8233 82.3837C77.8233 82.2454 77.8003 82.0918 77.7786 81.9547C77.7429 81.7237 77.6969 81.4927 77.6497 81.2642C77.5118 80.5928 77.351 79.9239 77.1875 79.2575C76.7382 77.4284 76.2492 75.6044 75.7551 73.7868C75.2164 71.808 74.6661 69.8317 74.1082 67.8579C73.8516 66.9504 73.595 66.0441 73.3333 65.1378C73.3256 65.1099 73.3422 65.0795 73.3703 65.0718C73.4022 65.0642 73.4316 65.0807 73.4393 65.1087Z" fill="#A7D1F3"/>
<path d="M71.9852 96.8829C71.9737 96.8829 71.9635 96.8804 71.952 96.8753C71.9112 96.8575 71.892 96.8093 71.9099 96.7674C72.4103 95.6441 72.8699 94.6032 73.3168 93.584C73.9372 92.1687 74.4823 90.9147 74.9802 89.7495C75.5534 88.4078 76.0105 87.3175 76.4152 86.3211C76.7343 85.5354 77.102 84.6215 77.4212 83.719C77.5169 83.4474 77.6178 83.1555 77.7007 82.861C77.739 82.7239 77.7965 82.5195 77.7965 82.3825C77.7965 82.2441 77.7722 82.0855 77.7518 81.9573C77.7135 81.7123 77.6663 81.4711 77.6242 81.268C77.4837 80.5902 77.319 79.9035 77.162 79.2625C76.7075 77.4132 76.2045 75.5397 75.7296 73.7919C75.2368 71.978 74.6981 70.0386 74.0827 67.863C73.8402 67.0049 73.5785 66.0809 73.3078 65.1441C73.3014 65.1238 73.304 65.101 73.3155 65.082C73.3257 65.0629 73.3436 65.049 73.364 65.0426C73.3844 65.0363 73.4074 65.0388 73.4266 65.0502C73.4457 65.0604 73.4597 65.0781 73.4661 65.0985C73.7419 66.0542 74.0125 67.01 74.2411 67.8186C74.8551 69.9916 75.3939 71.9311 75.8879 73.7487C76.3641 75.4978 76.8671 77.3726 77.3216 79.2232C77.4799 79.8655 77.6446 80.5547 77.785 81.2338C77.8271 81.4394 77.8756 81.6831 77.9139 81.9306C77.9331 82.0563 77.9599 82.2289 77.9599 82.3799C77.9599 82.5386 77.8986 82.7569 77.8578 82.9016C77.7735 83.2012 77.6727 83.4956 77.5756 83.7698C77.2552 84.6761 76.8863 85.5925 76.5671 86.3795C76.1624 87.3772 75.7054 88.4675 75.1309 89.8104C74.6304 90.9794 74.0866 92.2347 73.4661 93.6475C73.0193 94.6642 72.5597 95.7063 72.058 96.8309C72.0465 96.8651 72.0171 96.8829 71.9852 96.8829ZM73.3883 65.0972C73.3857 65.0972 73.3831 65.0972 73.3806 65.0985C73.3742 65.101 73.3678 65.1048 73.3653 65.1111C73.3614 65.1175 73.3614 65.1238 73.3627 65.1302C73.6334 66.0682 73.8951 66.991 74.1376 67.8503C74.753 70.0259 75.2917 71.9654 75.7845 73.7792C76.2594 75.527 76.7624 77.4005 77.2169 79.2511C77.3739 79.8921 77.5399 80.5788 77.679 81.2579C77.7212 81.4622 77.7697 81.7034 77.808 81.9496C77.8284 82.0791 77.8527 82.239 77.8527 82.3825C77.8527 82.5272 77.7939 82.7353 77.7556 82.8737C77.6714 83.172 77.5705 83.4652 77.4748 83.7381C77.1543 84.6418 76.7867 85.557 76.4675 86.3427C76.0628 87.3403 75.6058 88.4294 75.0326 89.7723C74.5334 90.9388 73.9896 92.1929 73.3691 93.6081C72.9223 94.6274 72.4614 95.6682 71.9622 96.7915C71.9559 96.8042 71.9622 96.8194 71.975 96.8258C71.9878 96.8309 72.0031 96.8258 72.0095 96.8131C72.5099 95.6885 72.9708 94.6464 73.4163 93.6297C74.0355 92.2182 74.5806 90.9629 75.0798 89.7939C75.6543 88.451 76.1101 87.3606 76.516 86.363C76.8352 85.576 77.2041 84.6609 77.5246 83.7558C77.6216 83.4829 77.7225 83.1885 77.8067 82.8915C77.8463 82.7493 77.9063 82.536 77.9063 82.3837C77.9063 82.2365 77.8795 82.0664 77.8603 81.9433C77.822 81.697 77.7735 81.4533 77.7314 81.249C77.591 80.5699 77.4263 79.882 77.268 79.2397C76.8135 77.3891 76.3105 75.5156 75.8343 73.7665C75.3402 71.9501 74.8015 70.0106 74.1874 67.8376C73.9589 67.0291 73.6883 66.0733 73.4125 65.1175C73.4112 65.1112 73.4061 65.1061 73.3997 65.1023C73.3972 65.0985 73.3921 65.0972 73.3883 65.0972Z" fill="#A7D1F3"/>
<path fill-rule="evenodd" clip-rule="evenodd" d="M31.7887 96.7243C37.5068 97.02 43.207 97.6953 48.8242 98.7945C54.2934 99.8645 59.7038 101.339 64.9279 103.275C66.8697 103.995 68.7897 104.779 70.6741 105.636C72.0835 106.277 73.475 106.96 74.8385 107.694C75.7015 108.158 76.5556 108.643 77.3892 109.158C77.6918 109.346 77.9995 109.539 78.2918 109.742C78.3046 109.751 78.3123 109.762 78.3135 109.778C78.3161 109.793 78.3123 109.806 78.3033 109.818L73.2784 116.632C73.2606 116.656 73.2274 116.661 73.2031 116.643C73.1789 116.626 73.1737 116.593 73.1916 116.568L78.1846 109.799C77.9076 109.609 77.6178 109.426 77.3318 109.25C76.5007 108.736 75.6479 108.251 74.7874 107.787C73.4265 107.055 72.0363 106.373 70.6294 105.734C68.7476 104.877 66.8301 104.094 64.8909 103.375C59.6719 101.442 54.2666 99.9698 48.8038 98.8998C43.1572 97.7943 37.4276 97.1177 31.6789 96.8258C31.6725 96.8271 31.6661 96.8258 31.6597 96.8245C30.0371 96.742 28.4145 96.69 26.7906 96.6684C26.7612 96.6684 26.737 96.643 26.737 96.6138C26.737 96.5846 26.7625 96.5605 26.7919 96.5605C28.4119 96.5821 30.0307 96.6341 31.6495 96.7166C31.8729 96.4729 32.0746 96.1975 32.261 95.9259C32.5138 95.5552 32.7487 95.1694 32.9734 94.781C33.5543 93.7744 34.0802 92.7247 34.582 91.6775C35.1948 90.3981 35.7756 89.1021 36.3386 87.7998C36.9527 86.3808 37.5476 84.9528 38.1298 83.5198C39.4613 80.2437 40.7329 76.9398 41.9674 73.6256C42.5342 72.1012 43.0985 70.5743 43.6436 69.0422C43.6538 69.0143 43.6845 68.9991 43.7126 69.0092C43.7406 69.0194 43.756 69.0498 43.7457 69.0778C43.2006 70.6098 42.6376 72.138 42.0695 73.6625C40.835 76.9779 39.5634 80.2818 38.2319 83.5604C37.6498 84.9934 37.0548 86.4227 36.4395 87.8417C35.8752 89.144 35.2943 90.4413 34.6815 91.722C34.1785 92.7717 33.6513 93.8239 33.0691 94.833C32.8432 95.224 32.6083 95.6124 32.3529 95.9855C32.178 96.2381 31.9917 96.4932 31.7887 96.7243Z" fill="#A7D1F3"/>
<path fill-rule="evenodd" clip-rule="evenodd" d="M72.9196 11.2397C72.9145 11.2385 72.9094 11.2372 72.9043 11.2334C72.7664 11.1534 72.6068 11.0836 72.4613 11.0227C72.1038 10.8742 71.7259 10.7612 71.3455 10.6927C70.2348 10.4921 69.1663 10.6876 68.2841 11.4187C67.9126 11.7271 67.6534 12.1168 67.6598 12.6118C67.6662 13.1094 67.9394 13.593 68.2369 13.9776C68.5215 14.347 68.8701 14.6833 69.2301 14.9791C69.3986 15.1187 69.5812 15.2609 69.7637 15.3814C69.788 15.3979 69.7956 15.4309 69.779 15.4563C69.7624 15.4805 69.7293 15.4881 69.7037 15.4716C69.5173 15.3484 69.3322 15.2037 69.1611 15.0616C68.7948 14.7595 68.4411 14.4181 68.1513 14.0423C67.4517 13.1373 67.2347 12.1486 68.2152 11.3349C69.1216 10.5835 70.2233 10.3804 71.3646 10.586C71.7527 10.6559 72.1383 10.7714 72.5034 10.9224C72.6515 10.9833 72.8111 11.0544 72.9515 11.1344C73.4724 11.2258 73.9996 11.288 74.5256 11.3375C75.1537 11.3971 75.7844 11.4377 76.4138 11.4682C77.8398 11.5368 79.2709 11.5558 80.6982 11.552C82.9221 11.5469 85.1499 11.4872 87.3725 11.3959C88.1359 11.3641 88.9007 11.3311 89.6641 11.2905C89.6718 11.2892 89.6781 11.288 89.6858 11.2892C89.9386 11.2753 90.1901 11.2613 90.4416 11.2461C90.4709 11.2448 90.4965 11.2664 90.499 11.2969C90.5003 11.326 90.4786 11.3514 90.448 11.354C90.2207 11.3679 89.9922 11.3806 89.7649 11.3933C89.9692 11.783 90.1658 12.1777 90.3599 12.5725C90.808 13.4851 91.2369 14.4092 91.6301 15.3459C91.9378 16.0796 92.2327 16.8348 92.4599 17.5964C92.5774 17.9911 92.7217 18.523 92.7485 18.985C92.7766 18.9037 92.8046 18.8212 92.8315 18.74C92.8404 18.7121 92.871 18.6968 92.8991 18.7057C92.9272 18.7146 92.9425 18.7451 92.9336 18.773C92.8723 18.9596 92.8072 19.1462 92.7408 19.3315C92.7408 19.3328 92.7408 19.3328 92.7395 19.334C92.7357 19.3442 92.728 19.3531 92.7191 19.3594C92.7089 19.3658 92.6974 19.3696 92.6846 19.3683C92.6795 19.3683 92.6744 19.367 92.6706 19.3645C92.6604 19.3607 92.6514 19.3531 92.6451 19.3442C92.6387 19.334 92.6348 19.3226 92.6361 19.3099C92.6591 19.0738 92.6285 18.8123 92.5889 18.5788C92.534 18.2589 92.4497 17.9391 92.3565 17.6281C92.1293 16.8703 91.8369 16.1176 91.5306 15.3878C91.1386 14.4523 90.7097 13.5295 90.2628 12.6195C90.0624 12.2107 89.8581 11.802 89.6475 11.3997C88.8917 11.4403 88.1334 11.4733 87.3776 11.5037C85.1537 11.5951 82.9247 11.6548 80.6995 11.6599C79.2709 11.6637 77.8372 11.6446 76.4099 11.5761C75.778 11.5456 75.1461 11.505 74.5167 11.4454C73.9843 11.3946 73.4507 11.3324 72.9247 11.2397C72.9209 11.2397 72.9209 11.2397 72.9196 11.2397Z" fill="white"/>
<path d="M92.6873 19.3963C92.6847 19.3963 92.6821 19.3963 92.6783 19.3963C92.6707 19.395 92.663 19.3937 92.6566 19.3912C92.6413 19.3848 92.6273 19.3747 92.6183 19.3594C92.6081 19.3442 92.603 19.3252 92.6055 19.3074C92.6247 19.1132 92.6094 18.8822 92.5583 18.5839C92.5098 18.3047 92.437 18.0038 92.3272 17.637C92.1332 16.9871 91.8791 16.2979 91.5025 15.4005C91.1425 14.5437 90.7289 13.6387 90.2361 12.6335C90.0727 12.3009 89.8569 11.8655 89.6284 11.4302C88.9773 11.4644 88.2815 11.4962 87.3764 11.5342C84.9252 11.6345 82.7396 11.6853 80.697 11.6904C79.0361 11.6942 77.6726 11.6675 76.4062 11.6066C75.704 11.5723 75.0849 11.5304 74.5116 11.4759C73.8899 11.4175 73.3831 11.3515 72.9171 11.2702H72.9133C72.9056 11.269 72.8967 11.2652 72.8903 11.2613C72.7409 11.175 72.5673 11.1001 72.4499 11.0519C72.086 10.9009 71.7119 10.7904 71.3392 10.7232C70.1736 10.5125 69.1229 10.7612 68.3008 11.4429C67.8871 11.7856 67.6803 12.179 67.6867 12.6144C67.6918 13.0269 67.8846 13.4801 68.2573 13.9637C68.5139 14.2962 68.8472 14.6313 69.2467 14.9613C69.4523 15.1302 69.6208 15.2584 69.7778 15.3624C69.7957 15.3739 69.8085 15.3929 69.8123 15.4145C69.8161 15.4361 69.8123 15.4576 69.8008 15.4754C69.7753 15.5122 69.7242 15.5224 69.6872 15.4982C69.5251 15.3904 69.3514 15.2596 69.1421 15.087C68.7323 14.7494 68.3914 14.4054 68.1271 14.0627C67.2986 12.9901 67.3216 12.0407 68.1948 11.3172C69.0552 10.6038 70.1519 10.3436 71.3673 10.562C71.7515 10.6318 72.1371 10.7447 72.5111 10.9009C72.6975 10.9783 72.8405 11.0456 72.958 11.1128C73.415 11.1928 73.9142 11.2575 74.5257 11.3147C75.0938 11.368 75.7117 11.4111 76.4126 11.4441C77.6752 11.505 79.0361 11.5304 80.6944 11.5279C82.7345 11.5228 84.9176 11.472 87.3675 11.3718C88.2867 11.3337 88.9926 11.302 89.659 11.2664C89.6642 11.2639 89.6756 11.2639 89.6859 11.2652C89.9323 11.2512 90.1838 11.2372 90.4365 11.222C90.4582 11.2207 90.4799 11.2283 90.4953 11.2423C90.5119 11.2563 90.5221 11.2766 90.5233 11.2982C90.5259 11.3426 90.4914 11.3819 90.4467 11.3845C90.2335 11.3972 90.0203 11.4099 89.8059 11.4213C89.9757 11.7462 90.1544 12.1016 90.3804 12.5636C90.8744 13.5702 91.2893 14.4777 91.6506 15.3396C92.0298 16.2433 92.2864 16.9389 92.4817 17.5926C92.5826 17.9289 92.7153 18.4113 92.76 18.853C92.7728 18.8136 92.7868 18.7743 92.7996 18.735C92.806 18.7146 92.8213 18.6981 92.8405 18.688C92.8596 18.6778 92.8826 18.6766 92.903 18.6829C92.9234 18.6893 92.94 18.7045 92.9502 18.7235C92.9605 18.7426 92.9617 18.7654 92.9553 18.7857C92.8928 18.9748 92.8264 19.1652 92.7626 19.3442C92.7549 19.3633 92.7447 19.3759 92.7294 19.3861C92.7192 19.3912 92.7039 19.3963 92.6873 19.3963ZM89.6616 11.3705L89.6705 11.387C89.9029 11.8287 90.1212 12.2717 90.2872 12.6081C90.7799 13.6133 91.1949 14.5196 91.5549 15.3777C91.9328 16.2776 92.1868 16.9694 92.3821 17.6205C92.4919 17.9899 92.566 18.2932 92.6145 18.575C92.6668 18.8797 92.6821 19.1132 92.663 19.3138C92.663 19.3201 92.6643 19.3252 92.6668 19.3302C92.6694 19.3353 92.6745 19.3379 92.6796 19.3404L92.6873 19.3417C92.6949 19.3417 92.7 19.3404 92.7039 19.3379C92.709 19.3353 92.7115 19.3303 92.7141 19.3252C92.7779 19.1449 92.8443 18.9558 92.9068 18.7654C92.9094 18.7591 92.9081 18.7515 92.9056 18.7451C92.903 18.7388 92.8966 18.7337 92.8902 18.7324C92.8839 18.7299 92.8762 18.7311 92.8698 18.7337C92.8634 18.7362 92.8583 18.7426 92.8571 18.7489C92.8302 18.8314 92.8022 18.9127 92.7741 18.9952L92.7281 19.1284L92.7204 18.9875C92.6936 18.5179 92.543 17.9734 92.4332 17.6053C92.2379 16.9529 91.9825 16.2598 91.6047 15.3574C91.2434 14.4968 90.8285 13.5905 90.3357 12.5852C90.1008 12.1054 89.9169 11.7411 89.742 11.406L89.7216 11.368L89.765 11.3654C89.9923 11.3527 90.2208 11.34 90.448 11.3261C90.4621 11.3248 90.4736 11.3134 90.4723 11.2982C90.4723 11.2918 90.4684 11.2855 90.4633 11.2804C90.4582 11.2753 90.4518 11.2728 90.4442 11.274C90.1927 11.2893 89.9399 11.3032 89.6884 11.3172C89.6795 11.3159 89.6756 11.3159 89.6731 11.3172C89.0016 11.354 88.2956 11.3857 87.3751 11.4238C84.924 11.5241 82.7409 11.5749 80.6995 11.5799C79.0399 11.5837 77.6777 11.5571 76.4138 11.4962C75.7117 11.4619 75.0938 11.42 74.5244 11.3654C73.9091 11.307 73.4086 11.2423 72.9477 11.1623L72.9388 11.1585C72.8226 11.0925 72.6809 11.0253 72.4945 10.9478C72.123 10.7942 71.7426 10.6813 71.3621 10.6127C70.1634 10.3957 69.0821 10.6534 68.2356 11.3553C67.1671 12.2412 67.6139 13.2948 68.1756 14.0233C68.4374 14.3622 68.7757 14.7037 69.1816 15.0388C69.3897 15.2101 69.5621 15.3409 69.7217 15.4462C69.7331 15.4538 69.7497 15.4513 69.7574 15.4386C69.7612 15.4322 69.7625 15.4259 69.7612 15.4196C69.76 15.4132 69.7561 15.4069 69.7497 15.4031C69.5914 15.2977 69.4204 15.1695 69.2136 14.9981C68.8101 14.6656 68.4744 14.3267 68.2152 13.9916C67.8335 13.4978 67.6382 13.0333 67.6331 12.6093C67.6267 12.1575 67.8412 11.7488 68.2676 11.3946C69.1025 10.7029 70.1685 10.4503 71.3519 10.6635C71.7285 10.7308 72.1064 10.8437 72.4741 10.9961C72.5928 11.0456 72.769 11.1205 72.9209 11.2093C72.9235 11.2106 72.926 11.2118 72.9286 11.2118C73.3946 11.2943 73.8988 11.3591 74.5193 11.4175C75.0912 11.4708 75.7104 11.5139 76.4113 11.5482C77.6764 11.6091 79.0399 11.6358 80.6995 11.632C82.7422 11.6269 84.9265 11.5761 87.3764 11.4759C88.2892 11.439 88.9888 11.406 89.645 11.3718L89.6616 11.3705Z" fill="#F0A38B"/>
<path fill-rule="evenodd" clip-rule="evenodd" d="M81.1991 54.329C81.457 52.0341 81.7366 49.7418 82.0417 47.4533C82.1783 46.4264 82.3174 45.3983 82.4719 44.374C82.4757 44.3473 82.4974 44.3283 82.5242 44.3283L83.0758 44.3168C82.9724 43.6568 82.8779 42.993 82.7923 42.3304C82.7489 41.9877 82.7068 41.6437 82.6736 41.301C82.6481 41.0459 82.6225 40.778 82.6225 40.5216C82.6225 40.2157 82.6838 39.8845 82.754 39.5887C82.8651 39.1165 83.0221 38.6494 83.1958 38.1963C83.4371 37.5718 83.7192 36.9613 84.0243 36.366C84.4188 35.5981 84.8541 34.8492 85.3163 34.1193C85.3316 34.0939 85.3661 34.0863 85.3903 34.1028C85.4159 34.1181 85.4235 34.1523 85.4069 34.1764C84.9473 34.9037 84.5133 35.6488 84.1201 36.4142C83.8162 37.007 83.5353 37.6137 83.2953 38.2344C83.123 38.6824 82.9672 39.1457 82.8575 39.6128C82.7898 39.901 82.7285 40.2246 82.7285 40.5216C82.7285 40.7742 82.754 41.0382 82.7783 41.2896C82.8115 41.6323 82.8536 41.975 82.897 42.3164C82.9826 42.9828 83.077 43.6505 83.1817 44.3143L89.6773 44.1772C89.7054 44.1772 89.7296 44.1975 89.7322 44.2254C89.8599 45.4046 89.9799 46.5851 90.0986 47.7655C90.4037 50.7852 90.6922 53.8074 90.9667 56.8295C91.3165 60.6819 91.6421 64.538 91.9382 68.3941C91.9408 68.4233 91.9178 68.4499 91.8885 68.4512C91.8591 68.4538 91.8323 68.4309 91.831 68.4017C91.5348 64.5456 91.2093 60.6907 90.8595 56.8384C90.585 53.8162 90.2965 50.7941 89.9914 47.7744C89.8739 46.6105 89.7552 45.4465 89.6301 44.2838L82.5676 44.4336C82.4157 45.4427 82.2791 46.4556 82.1451 47.466C81.8336 49.8103 81.5476 52.1585 81.2846 54.5093C81.2897 54.5245 81.2872 54.5397 81.2795 54.5524C81.2476 54.8342 81.217 55.1173 81.1863 55.3991C80.7791 59.1181 80.4267 62.8447 80.1395 66.5752C79.8114 70.8375 79.5688 75.1099 79.4488 79.3836C79.3505 82.9123 79.3365 86.4485 79.459 89.9772C79.5177 91.6527 79.6084 93.3294 79.7424 95.0011C79.8688 96.5699 80.0322 98.1362 80.2518 99.6936C80.4522 101.119 80.6999 102.541 81.0178 103.945C81.2999 105.192 81.6395 106.435 82.0698 107.642C82.7349 109.51 83.7013 111.529 85.1478 112.929C85.1695 112.949 85.1695 112.983 85.149 113.005C85.1286 113.026 85.0941 113.026 85.0724 113.006C83.6132 111.595 82.6391 109.564 81.9676 107.679C81.5361 106.468 81.1953 105.221 80.9118 103.969C80.594 102.561 80.3463 101.137 80.1446 99.7089C79.925 98.1489 79.7603 96.5801 79.6352 95.0099C79.5011 93.337 79.4105 91.659 79.3518 89.9823C79.2279 86.4523 79.2433 82.9136 79.3416 79.3824C79.4603 75.1074 79.7041 70.8337 80.0322 66.5688C80.3195 62.8371 80.6706 59.1092 81.0791 55.3889C81.111 55.102 81.1429 54.8152 81.1748 54.5283C80.405 52.8947 78.6675 51.496 77.1904 50.5123C75.7733 49.5679 74.2337 48.7556 72.6851 48.0473C72.163 47.8087 71.6344 47.5802 71.1021 47.3644C70.894 47.2806 70.6846 47.1969 70.474 47.1194C70.4459 47.1093 70.4318 47.0788 70.4421 47.0509L72.5638 40.7222C72.3762 40.4988 72.1974 40.2538 72.0289 40.0177C71.5681 39.3717 71.1455 38.6926 70.7587 37.9983C69.5024 35.7427 68.6024 33.2676 68.1556 30.7265C68.1505 30.6973 68.1696 30.6694 68.199 30.6643C68.2283 30.6592 68.2564 30.6783 68.2615 30.7075C68.7071 33.2359 69.6033 35.7009 70.8531 37.945C71.2374 38.6342 71.6574 39.3107 72.117 39.9543C72.2894 40.1954 72.4732 40.448 72.666 40.674C72.6724 40.6816 72.6762 40.6892 72.6775 40.6981C72.6787 40.707 72.6787 40.7158 72.6762 40.726L70.5608 47.0357C70.7561 47.108 70.9502 47.1854 71.1429 47.2641C71.6766 47.4799 72.2064 47.7097 72.7311 47.9483C74.286 48.6591 75.8308 49.474 77.2517 50.4209C78.702 51.3881 80.3871 52.7411 81.1991 54.329Z" fill="#F0A38B"/>
<path d="M85.1129 113.047C85.0912 113.047 85.0708 113.04 85.0555 113.025C83.8133 111.823 82.7958 110.077 81.9443 107.687C81.546 106.568 81.2 105.353 80.8885 103.974C80.591 102.658 80.3395 101.263 80.1212 99.7122C79.9131 98.2347 79.7459 96.6976 79.6106 95.0107C79.4816 93.4101 79.3897 91.7651 79.3272 89.9817C79.2123 86.7082 79.2084 83.2405 79.3169 79.3806C79.4293 75.3404 79.6553 71.1492 80.0076 66.5658C80.2859 62.9458 80.6383 59.1836 81.0545 55.3859C81.0851 55.1015 81.117 54.8172 81.1489 54.5329C80.5285 53.223 79.1931 51.8788 77.1786 50.5346C75.8789 49.6677 74.4057 48.8629 72.6771 48.0722C72.1422 47.8272 71.6098 47.5975 71.0953 47.3906C70.9064 47.3144 70.6855 47.2256 70.4685 47.1456C70.4264 47.1304 70.4047 47.0834 70.42 47.0415L72.5367 40.7268C72.3516 40.5059 72.1741 40.2622 72.0094 40.0325C71.569 39.4156 71.1413 38.7352 70.7379 38.0105C69.4523 35.7029 68.5765 33.2532 68.1322 30.7298C68.1284 30.7082 68.1335 30.6866 68.1463 30.6689C68.159 30.6511 68.1782 30.6397 68.1986 30.6359C68.2433 30.6283 68.2854 30.6575 68.2931 30.7019C68.7335 33.2062 69.6042 35.6394 70.8809 37.9305C71.2817 38.6502 71.7056 39.3242 72.1435 39.9373C72.3145 40.1772 72.4996 40.4297 72.6911 40.6557C72.7001 40.6658 72.7065 40.6785 72.709 40.6925C72.7116 40.7065 72.7116 40.7217 72.7065 40.7344L70.6 47.0187C70.7762 47.0847 70.9511 47.1545 71.1579 47.237C71.6737 47.4451 72.2086 47.6762 72.746 47.9224C74.4823 48.7157 75.9632 49.5255 77.2705 50.3975C79.1944 51.6795 80.5106 52.9691 81.1834 54.2333C81.4438 51.9181 81.7247 49.6359 82.0158 47.449C82.1396 46.5173 82.2851 45.4358 82.446 44.3696C82.4524 44.3303 82.4856 44.3011 82.5252 44.2998L83.0447 44.2884C82.9439 43.6436 82.8507 42.9861 82.7664 42.3324C82.7128 41.9199 82.6771 41.6026 82.6477 41.3018C82.6247 41.072 82.5967 40.7852 82.5967 40.5199C82.5967 40.2609 82.6388 39.9626 82.7281 39.5806C82.8277 39.1554 82.9733 38.6997 83.1711 38.1844C83.3958 37.6018 83.6678 37.0014 84.001 36.3515C84.375 35.6204 84.7989 34.8855 85.2942 34.1023C85.3057 34.0845 85.3236 34.0719 85.3453 34.0668C85.367 34.0617 85.3887 34.0655 85.4065 34.0769C85.4257 34.0884 85.4385 34.1061 85.4423 34.1277C85.4474 34.1493 85.4436 34.1709 85.4321 34.1886C84.9393 34.9667 84.5193 35.6978 84.1465 36.4251C83.8158 37.0712 83.5465 37.6652 83.3231 38.2428C83.1277 38.7505 82.9847 39.1998 82.8864 39.6174C82.7996 39.988 82.7588 40.2749 82.7588 40.5199C82.7588 40.7775 82.7856 41.0479 82.8086 41.2853C82.8379 41.5823 82.875 41.8983 82.9273 42.3108C83.0116 42.9696 83.106 43.6335 83.2082 44.2846L89.6795 44.1475C89.7216 44.1462 89.7586 44.178 89.7625 44.2199C89.8952 45.4511 90.0216 46.6924 90.1289 47.7599C90.425 50.6971 90.7174 53.7472 90.997 56.8252C91.3583 60.8095 91.6851 64.6999 91.9685 68.391C91.9698 68.4126 91.9634 68.4342 91.9494 68.4507C91.9353 68.4672 91.9149 68.4774 91.8932 68.4786C91.8715 68.4799 91.8498 68.4735 91.8332 68.4596C91.8166 68.4456 91.8064 68.4253 91.8051 68.4037C91.5217 64.7114 91.1949 60.821 90.8336 56.8405C90.554 53.7599 90.2616 50.711 89.9655 47.7777C89.8608 46.7343 89.7369 45.5209 89.6067 44.3138L82.5941 44.4623C82.4383 45.5031 82.2954 46.5604 82.1754 47.4718C81.8741 49.7362 81.5843 52.1035 81.3149 54.5088C81.3187 54.5265 81.3174 54.5456 81.3085 54.5621C81.2766 54.8426 81.246 55.1231 81.2153 55.4036C80.7991 59.2014 80.4468 62.961 80.1685 66.5785C79.8161 71.1594 79.5914 75.348 79.4791 79.3857C79.3718 83.2418 79.3757 86.707 79.4893 89.9767C79.5518 91.7575 79.6438 93.4012 79.7727 94.9993C79.908 96.6824 80.074 98.2169 80.2821 99.6906C80.5004 101.237 80.7506 102.626 81.0468 103.939C81.357 105.311 81.7017 106.519 82.0975 107.633C82.9286 109.966 83.9614 111.74 85.1691 112.908C85.1844 112.923 85.1933 112.943 85.1933 112.965C85.1933 112.986 85.1857 113.007 85.1704 113.023C85.1563 113.038 85.1359 113.047 85.1129 113.047C85.1142 113.047 85.1142 113.047 85.1129 113.047ZM68.2101 30.6917C68.2088 30.6917 68.2076 30.6917 68.205 30.6917C68.1986 30.693 68.1922 30.6968 68.1884 30.7019C68.1846 30.7082 68.1833 30.7146 68.1846 30.7209C68.6276 33.2379 69.5021 35.6813 70.7851 37.9838C71.1873 38.706 71.6149 39.3851 72.0541 40.0007C72.2201 40.2343 72.4001 40.4805 72.5877 40.7039L72.5979 40.7153L72.5928 40.7306L70.4711 47.0593C70.466 47.0732 70.4736 47.0872 70.4864 47.0923C70.7047 47.1722 70.9255 47.2611 71.1145 47.3373C71.629 47.5454 72.1626 47.7752 72.6988 48.0201C74.4312 48.8109 75.9057 49.6182 77.2092 50.4864C79.2365 51.8382 80.5795 53.1925 81.2025 54.5138L81.2064 54.5215L81.2051 54.5291C81.1732 54.8159 81.1413 55.1028 81.1094 55.3897C80.6932 59.1874 80.3408 62.9483 80.0625 66.5683C79.7101 71.1505 79.4842 75.3417 79.3718 79.3806C79.2646 83.2393 79.2684 86.7057 79.382 89.9779C79.4446 91.7613 79.5378 93.405 79.6655 95.0056C79.8008 96.69 79.9668 98.2271 80.1748 99.7033C80.3932 101.253 80.6434 102.646 80.9421 103.96C81.2536 105.336 81.5983 106.55 81.9966 107.667C82.8443 110.048 83.858 111.787 85.0938 112.983C85.0989 112.988 85.104 112.993 85.1129 112.99C85.1193 112.99 85.127 112.988 85.1308 112.983C85.1359 112.978 85.1385 112.971 85.1385 112.964C85.1385 112.957 85.1359 112.95 85.1308 112.946C83.9001 111.755 82.8916 110.023 82.0464 107.649C81.6494 106.533 81.3047 105.322 80.9932 103.949C80.6957 102.635 80.4455 101.244 80.2272 99.6957C80.0191 98.2207 79.8531 96.6849 79.7178 95.0005C79.5901 93.4012 79.4969 91.7575 79.4344 89.9754C79.3195 86.7044 79.3157 83.238 79.4242 79.3806C79.5365 75.343 79.7625 71.153 80.1148 66.5709C80.3932 62.9521 80.7455 59.1925 81.1617 55.3935C81.1923 55.1117 81.2243 54.8286 81.2549 54.5468L81.2587 54.5354C81.2625 54.5291 81.2638 54.5215 81.2613 54.5151L81.26 54.51L81.2613 54.5037C81.5306 52.0958 81.8204 49.7261 82.1217 47.4604C82.2443 46.5427 82.3873 45.4752 82.5443 44.4268L82.5481 44.4039H82.5711L89.6591 44.2541L89.6616 44.2795C89.7931 45.4968 89.9169 46.7191 90.0229 47.7701C90.3191 50.7034 90.6114 53.7535 90.891 56.8341C91.2523 60.8146 91.5791 64.7063 91.8625 68.3987C91.8625 68.405 91.8664 68.4114 91.8715 68.4164C91.8766 68.4215 91.883 68.4228 91.8906 68.4228C91.897 68.4228 91.9034 68.419 91.9085 68.4139C91.9136 68.4088 91.9149 68.4025 91.9149 68.3949C91.6315 64.705 91.3047 60.8134 90.9434 56.8303C90.6638 53.7523 90.3714 50.7034 90.0752 47.7663C89.968 46.6988 89.8416 45.4574 89.7088 44.2262C89.7076 44.2122 89.6961 44.2046 89.682 44.2034L83.1609 44.3417L83.1571 44.3176C83.0537 43.6588 82.9579 42.9861 82.8724 42.3185C82.8188 41.9059 82.783 41.5886 82.7537 41.2916C82.7307 41.0517 82.7039 40.7801 82.7039 40.5199C82.7039 40.2698 82.7447 39.9792 82.8328 39.6047C82.9311 39.1846 83.0754 38.7327 83.272 38.2224C83.4954 37.6437 83.7661 37.0471 84.098 36.3997C84.4708 35.6724 84.8921 34.9388 85.3861 34.1594C85.39 34.1531 85.3912 34.1467 85.39 34.1404C85.3887 34.134 85.3848 34.1277 85.3785 34.1239C85.3721 34.1201 85.3657 34.1188 85.3593 34.1201C85.3529 34.1214 85.3465 34.1252 85.3427 34.1315C84.8486 34.9134 84.4261 35.647 84.052 36.3756C83.7188 37.0242 83.4482 37.6221 83.2248 38.2034C83.0269 38.7149 82.8826 39.1693 82.783 39.592C82.6937 39.9703 82.6528 40.2647 82.6528 40.5186C82.6528 40.7813 82.6809 41.0657 82.7039 41.2954C82.7332 41.595 82.7703 41.9123 82.8226 42.3248C82.9081 42.9887 83.0026 43.6563 83.1048 44.3113L83.1099 44.343L82.5264 44.3557C82.5137 44.3557 82.5035 44.3646 82.5009 44.3773C82.34 45.4435 82.1945 46.5249 82.0707 47.4566C81.7758 49.6715 81.4923 51.9841 81.2281 54.3311L81.2179 54.4237L81.1757 54.3412C80.5195 53.0605 79.1957 51.7493 77.2386 50.4458C75.9338 49.575 74.4555 48.7677 72.7218 47.9757C72.1843 47.7307 71.6507 47.4997 71.1349 47.2916C70.9192 47.204 70.7379 47.1316 70.554 47.0644L70.5285 47.0555L70.5374 47.0301L72.6516 40.7179C72.6528 40.7141 72.6528 40.709 72.6528 40.7052C72.6516 40.7014 72.6503 40.6976 72.6477 40.6938C72.455 40.4666 72.2686 40.2127 72.0975 39.9715C71.6596 39.3572 71.2332 38.6807 70.8323 37.9597C69.5531 35.6623 68.6799 33.224 68.2382 30.7133C68.2344 30.7006 68.2229 30.6917 68.2101 30.6917Z" fill="#A7D1F3"/>
<path fill-rule="evenodd" clip-rule="evenodd" d="M87.7148 18.6626C87.7901 18.8606 87.8807 19.0599 87.9701 19.2516C88.1642 19.6653 88.385 20.0779 88.6403 20.4587C88.7923 20.6859 88.9595 20.908 89.1497 21.1047C89.1702 21.1263 89.1689 21.1606 89.1484 21.1809C89.1267 21.2012 89.0923 21.2012 89.0719 21.1796C88.8778 20.9778 88.7055 20.7506 88.551 20.5183C88.2931 20.1324 88.0697 19.7161 87.8731 19.2972C87.7824 19.103 87.6918 18.9012 87.6139 18.7007C87.6037 18.6728 87.6178 18.6423 87.6446 18.6309C87.6726 18.6207 87.7033 18.6347 87.7148 18.6626Z" fill="#3F4553"/>
<path d="M89.1101 21.2989C89.1088 21.2989 89.1076 21.2989 89.1063 21.2989C89.0642 21.2977 89.0246 21.2812 88.9952 21.2507C88.8165 21.0641 88.6416 20.8445 88.4629 20.5754C88.2229 20.2162 87.9982 19.8126 87.7773 19.3404C87.6624 19.0967 87.582 18.9101 87.5156 18.7362C87.5003 18.6969 87.5016 18.6537 87.5194 18.6156C87.5373 18.5776 87.5679 18.5484 87.6075 18.5331C87.6471 18.5179 87.6905 18.5192 87.7288 18.537C87.7671 18.5547 87.7965 18.5852 87.8118 18.6245C87.8756 18.7908 87.9535 18.9711 88.0646 19.2071C88.279 19.6654 88.4961 20.055 88.7271 20.4003C88.8969 20.6529 89.0591 20.8598 89.225 21.0324C89.285 21.0959 89.2838 21.1961 89.2199 21.2558C89.1906 21.2837 89.1523 21.2989 89.1101 21.2989Z" fill="#3F4553"/>
<path fill-rule="evenodd" clip-rule="evenodd" d="M80.9741 16.4338C81.1656 16.4731 81.3584 16.5087 81.5511 16.5429C81.9686 16.6178 82.3899 16.6851 82.8099 16.7384C83.0844 16.7727 83.3614 16.8019 83.6385 16.8184C83.8555 16.8311 84.0904 16.8374 84.3061 16.812C84.3355 16.8082 84.3623 16.8298 84.3662 16.859C84.37 16.8882 84.3483 16.9148 84.3189 16.9186C84.0968 16.9453 83.8555 16.9377 83.6321 16.925C83.3525 16.9098 83.0729 16.8793 82.7959 16.845C82.3733 16.7917 81.9507 16.7244 81.5307 16.6495C81.3379 16.6153 81.1439 16.5797 80.9511 16.5404C80.9218 16.534 80.9026 16.5061 80.909 16.4769C80.9166 16.4465 80.946 16.4274 80.9741 16.4338Z" fill="#3F4553"/>
<path d="M83.978 17.0405C83.8568 17.0405 83.7367 17.0354 83.6282 17.029C83.378 17.0151 83.1099 16.9884 82.7844 16.9478C82.395 16.8983 81.9801 16.8348 81.5141 16.7511C81.3533 16.7219 81.1426 16.6838 80.932 16.6406C80.8464 16.6229 80.7915 16.5391 80.8081 16.454C80.8171 16.4122 80.8413 16.3766 80.8771 16.3538C80.9128 16.3309 80.9549 16.3233 80.9958 16.3309C81.195 16.3715 81.3979 16.4084 81.5703 16.4401C82.0299 16.5226 82.4397 16.5861 82.824 16.6343C83.1431 16.6749 83.4035 16.7003 83.6461 16.713C83.8478 16.7244 84.0827 16.7333 84.2959 16.7079C84.3381 16.7028 84.3789 16.7143 84.4134 16.7409C84.4466 16.7676 84.4683 16.8044 84.4734 16.8463C84.4836 16.9326 84.421 17.0113 84.3342 17.0214C84.2155 17.0354 84.0955 17.0405 83.978 17.0405Z" fill="#3F4553"/>
<path fill-rule="evenodd" clip-rule="evenodd" d="M86.9562 24.0926C86.9601 24.2449 86.9767 24.4049 86.9958 24.5546C87.0367 24.877 87.1056 25.2058 87.2167 25.5117C87.3137 25.777 87.4542 26.0549 87.6622 26.2504C87.6839 26.2707 87.6852 26.305 87.6648 26.3266C87.6444 26.3481 87.6099 26.3494 87.5882 26.3291C87.3661 26.1209 87.218 25.8315 87.1146 25.5485C87.0009 25.2362 86.9307 24.8986 86.8886 24.5686C86.8682 24.415 86.8516 24.2513 86.8477 24.0951C86.8465 24.066 86.8707 24.0406 86.9001 24.0406C86.9307 24.0393 86.955 24.0634 86.9562 24.0926Z" fill="#3F4553"/>
<path d="M87.6253 26.4472C87.5857 26.4472 87.5474 26.4332 87.5168 26.404C87.3138 26.2136 87.1453 25.9369 87.0163 25.584C86.9104 25.2934 86.8325 24.9557 86.784 24.5826C86.7597 24.3909 86.7457 24.2373 86.7431 24.099C86.7419 24.0571 86.7572 24.0165 86.7865 23.986C86.8159 23.9555 86.8555 23.9378 86.8976 23.9378C86.9397 23.9352 86.9806 23.9517 87.0112 23.9809C87.0419 24.0101 87.0597 24.0495 87.061 24.0913C87.0636 24.2183 87.0763 24.3617 87.0993 24.5432C87.144 24.8948 87.2168 25.2083 87.3151 25.4774C87.4261 25.7846 87.5678 26.0194 87.7338 26.1755C87.7976 26.2352 87.8002 26.3355 87.7402 26.3989C87.7095 26.4307 87.6674 26.4472 87.6253 26.4472Z" fill="#3F4553"/>
<path fill-rule="evenodd" clip-rule="evenodd" d="M78.1794 20.418C78.284 20.4967 78.4028 20.5716 78.5151 20.6401C78.8036 20.8153 79.1088 20.9702 79.4203 21.1009C80.3573 21.4969 81.3863 21.6949 82.4051 21.5807C82.4345 21.5769 82.4613 21.5984 82.4651 21.6276C82.4689 21.6568 82.4472 21.6835 82.4179 21.6873C81.3812 21.8041 80.3344 21.6035 79.3794 21.1999C79.0628 21.0666 78.7539 20.9092 78.4602 20.7315C78.3453 20.6617 78.2228 20.5843 78.1155 20.5031C78.0913 20.4853 78.0874 20.451 78.1053 20.4282C78.1219 20.404 78.1551 20.4002 78.1794 20.418Z" fill="#3F4553"/>
<path d="M81.8293 21.8231C81.0123 21.8231 80.1621 21.6442 79.3373 21.2951C79.0105 21.1568 78.6977 20.9968 78.4054 20.8191C78.2956 20.7519 78.1667 20.6719 78.0518 20.5856C77.9815 20.5323 77.9688 20.4333 78.0211 20.3647C78.0467 20.3317 78.0837 20.3102 78.1258 20.3038C78.1679 20.2975 78.2101 20.3089 78.2433 20.3343C78.3467 20.413 78.4667 20.4879 78.5701 20.55C78.8484 20.7189 79.1484 20.8724 79.4612 21.0045C80.4404 21.4182 81.454 21.582 82.3923 21.4766C82.4345 21.4716 82.4753 21.4842 82.5085 21.5096C82.5417 21.5363 82.5621 21.5731 82.5672 21.615C82.5775 21.7013 82.5149 21.78 82.4281 21.7901C82.2315 21.813 82.0311 21.8231 81.8293 21.8231Z" fill="#3F4553"/>
<path fill-rule="evenodd" clip-rule="evenodd" d="M76.7995 32.6375C77.0229 32.7416 77.2833 32.9878 77.4403 33.1693C77.9344 33.7393 78.214 34.4818 78.3518 35.2129C78.3569 35.2421 78.3378 35.27 78.3084 35.2751C78.2791 35.2802 78.251 35.2611 78.2459 35.232C78.1106 34.5199 77.8399 33.7938 77.3586 33.2392C77.2335 33.0945 77.0905 32.9586 76.9348 32.8469C76.8812 32.8089 76.8148 32.7632 76.7548 32.7352C76.728 32.7225 76.7165 32.6908 76.7292 32.6642C76.7395 32.6362 76.7726 32.6248 76.7995 32.6375Z" fill="#3F4553"/>
<path d="M78.2994 35.3792C78.2241 35.3792 78.1577 35.3258 78.1437 35.251C77.993 34.4576 77.6943 33.7849 77.2794 33.3064C77.1492 33.1566 77.0126 33.0297 76.8734 32.9294C76.83 32.8977 76.7649 32.8532 76.71 32.8279C76.6717 32.8101 76.6424 32.7784 76.6283 32.739C76.6143 32.6997 76.6155 32.6565 76.6334 32.6184C76.6513 32.5803 76.6832 32.5512 76.7228 32.5372C76.7624 32.5232 76.8058 32.5245 76.8441 32.5423C77.0815 32.6527 77.3483 32.9027 77.5194 33.0995C77.9764 33.6275 78.2918 34.3307 78.4552 35.1913C78.4628 35.2332 78.4539 35.2751 78.4309 35.3093C78.4067 35.3436 78.3709 35.3677 78.3288 35.3753C78.3186 35.3792 78.3084 35.3792 78.2994 35.3792ZM76.7968 32.64C76.7968 32.64 76.7981 32.64 76.7968 32.64C76.7981 32.64 76.7968 32.64 76.7968 32.64Z" fill="#3F4553"/>
<path fill-rule="evenodd" clip-rule="evenodd" d="M84.5933 26.2288C84.338 27.0462 84.0699 27.8637 83.789 28.6735C83.6014 29.2155 83.406 29.7638 83.1864 30.2931C83.1111 30.4746 83.0307 30.6625 82.9362 30.8338C82.8979 30.9036 82.8111 31.0623 82.7205 31.0725C82.4626 31.1004 82.1983 30.9976 81.9826 30.8656C81.5664 30.6117 81.2025 30.189 80.9204 29.8006C80.9025 29.7765 80.9089 29.7435 80.9319 29.7257C80.9562 29.708 80.9893 29.7143 81.0072 29.7372C81.2804 30.1129 81.6366 30.5279 82.0387 30.7729C82.2341 30.8909 82.4754 30.9899 82.7077 30.9646C82.746 30.9519 82.8341 30.7945 82.8532 30.7589C82.9452 30.5889 83.023 30.4048 83.0971 30.2258C83.3128 29.7054 83.5031 29.1672 83.6882 28.6354C83.969 27.8269 84.2358 27.0107 84.4912 26.1945C84.5001 26.1666 84.5308 26.1501 84.5588 26.159C84.5869 26.1704 84.6022 26.2009 84.5933 26.2288Z" fill="#3F4553"/>
<path d="M82.635 31.1829C82.4154 31.1829 82.1728 31.1055 81.9277 30.957C81.569 30.7386 81.2115 30.3807 80.8349 29.8641C80.8106 29.8298 80.8004 29.7879 80.8068 29.7473C80.8132 29.7054 80.8362 29.6686 80.8707 29.6445C80.9421 29.5937 81.0404 29.609 81.0928 29.68C81.4388 30.1548 81.7758 30.4937 82.0937 30.6879C82.2405 30.7767 82.4562 30.8783 82.6643 30.8668C82.6873 30.8376 82.7282 30.7742 82.7601 30.7132C82.852 30.5432 82.9312 30.354 83.0001 30.1903C83.2222 29.6521 83.4201 29.0898 83.5886 28.6062C83.8618 27.818 84.1325 26.998 84.3904 26.1679C84.4031 26.1273 84.4299 26.0943 84.4682 26.0752C84.5053 26.0549 84.5487 26.0511 84.5895 26.0638C84.6291 26.0765 84.6623 26.1032 84.6827 26.1412C84.7031 26.178 84.707 26.2212 84.6942 26.2618C84.435 27.0945 84.1631 27.9183 83.8886 28.709C83.7163 29.2079 83.512 29.7854 83.2835 30.335C83.2082 30.5152 83.1265 30.7069 83.0282 30.8859C82.9478 31.0306 82.8584 31.1638 82.7333 31.1778C82.7001 31.1804 82.6682 31.1829 82.635 31.1829Z" fill="#3F4553"/>
</svg>
