<?xml version="1.0" encoding="utf-8"?>
<!-- Generator: Adobe Illustrator 23.0.3, SVG Export Plug-In . SVG Version: 6.00 Build 0)  -->
<svg version="1.1" id="Icons" xmlns="http://www.w3.org/2000/svg" xmlns:xlink="http://www.w3.org/1999/xlink" x="0px" y="0px"
	 viewBox="0 0 32 32" style="enable-background:new 0 0 32 32;" xml:space="preserve">
<style type="text/css">
	.st0{fill:none;stroke:#000000;stroke-width:2;stroke-linecap:round;stroke-linejoin:round;stroke-miterlimit:10;}
</style>
<path class="st0" d="M18.7,9.6L18.4,9H16h-2.4l-0.2,0.7c-0.6,1.7-1.8,3.2-3.4,4.3l0,0C3.9,18.1,5,26.5,12,29.2l0,0c2.6,1,5.5,1,8,0
	l0,0c7-2.7,8.1-11.2,2.1-15.3l0,0C20.5,12.8,19.3,11.4,18.7,9.6z"/>
<line class="st0" x1="10.4" y1="3.5" x2="13.8" y2="9"/>
<path class="st0" d="M11.6,4.6l1.1-1.1c0.6-0.6,1.6-0.6,2.2,0l0,0c0.6,0.6,1.6,0.6,2.2,0l0,0c0.6-0.6,1.6-0.6,2.2,0l1.1,1.1"/>
<polyline class="st0" points="21.6,9 18.2,9 21.6,3.5 "/>
<line class="st0" x1="16" y1="16" x2="16" y2="17"/>
<line class="st0" x1="16" y1="23" x2="16" y2="24"/>
<path class="st0" d="M17,17h-1.5c-0.8,0-1.5,0.7-1.5,1.5v0c0,0.8,0.7,1.5,1.5,1.5h1c0.8,0,1.5,0.7,1.5,1.5v0c0,0.8-0.7,1.5-1.5,1.5
	H15"/>
</svg>
