<?xml version="1.0" ?><svg id="Layer_1_1_" style="enable-background:new 0 0 64 64;" version="1.1" viewBox="0 0 64 64" xml:space="preserve" xmlns="http://www.w3.org/2000/svg" xmlns:xlink="http://www.w3.org/1999/xlink"><g><path d="M32,1C14.906,1,1,14.907,1,32c0,2.983,0.438,5.923,1.271,8.754C1.454,42.674,1,44.785,1,47   c0,8.822,7.178,16,16,16c2.215,0,4.325-0.453,6.245-1.271C26.079,62.562,29.018,63,32,63c17.094,0,31-13.907,31-31S49.094,1,32,1z    M3,47c0-7.72,6.28-14,14-14s14,6.28,14,14s-6.28,14-14,14S3,54.72,3,47z M8.014,33h1.258c-0.423,0.234-0.836,0.484-1.235,0.754   C8.027,33.497,8.02,33.243,8.014,33z M31,55.96c-0.244-0.01-0.488-0.012-0.731-0.029c0.262-0.388,0.503-0.791,0.731-1.202V55.96z    M32,61c-2.087,0-4.151-0.233-6.169-0.67c1.089-0.724,2.075-1.586,2.956-2.547C29.85,57.913,30.924,58,32,58   c9.309,0,17.964-5.026,22.589-13.117l-1.736-0.992c-0.273,0.477-0.562,0.942-0.864,1.396l-4.03-2.928l-1.176,1.618l4.02,2.92   c-1.157,1.456-2.469,2.763-3.909,3.902l-2.917-4.016l-1.617,1.176l2.919,4.018c-1.537,1.02-3.191,1.855-4.923,2.501l-1.533-4.717   l-1.902,0.618l1.536,4.726C36.693,55.6,34.864,55.888,33,55.966V51h-0.527C32.805,49.719,33,48.383,33,47c0-8.822-7.178-16-16-16   c-1.383,0-2.719,0.195-4,0.527V31H8.025c0.078-1.883,0.375-3.709,0.864-5.457l4.73,1.537l0.619-1.902l-4.734-1.539   c0.65-1.744,1.498-3.392,2.516-4.919l4.02,2.921l1.176-1.618l-4.015-2.917c1.148-1.446,2.459-2.757,3.905-3.905l2.917,4.016   l1.617-1.176l-2.92-4.02c1.526-1.018,3.174-1.866,4.919-2.516l1.539,4.734l1.902-0.618L25.543,8.89   C27.29,8.401,29.117,8.103,31,8.025V13h2V8.025c1.883,0.078,3.71,0.375,5.457,0.864l-1.538,4.731l1.902,0.618l1.539-4.734   c1.744,0.65,3.392,1.498,4.919,2.516l-2.92,4.02l1.617,1.176l2.917-4.016c1.446,1.148,2.757,2.458,3.905,3.905l-4.015,2.917   l1.176,1.618l4.02-2.921c1.018,1.526,1.866,3.174,2.516,4.919l-4.734,1.539l0.619,1.902l4.73-1.537   c0.489,1.748,0.787,3.574,0.864,5.457H51v2h4.974c-0.076,1.864-0.359,3.689-0.854,5.461l-4.74-1.541l-0.619,1.902l4.736,1.539   c-0.2,0.536-0.412,1.067-0.651,1.591l1.818,0.831C57.214,39.39,58,35.762,58,32C58,17.664,46.337,6,32,6S6,17.664,6,32   c0,0.837,0.039,2.246,0.113,3.308c-0.919,0.857-1.745,1.811-2.443,2.861C3.233,36.152,3,34.088,3,32C3,16.009,16.01,3,32,3   s29,13.009,29,29S47.99,61,32,61z" style="fill:#3F3A34;"/><path d="M34.019,28.567C33.424,28.215,32.74,28,32,28c-2.206,0-4,1.794-4,4s1.794,4,4,4s4-1.794,4-4   c0-0.74-0.215-1.424-0.567-2.019l9.274-9.274l-1.414-1.414L34.019,28.567z M32,34c-1.103,0-2-0.897-2-2s0.897-2,2-2s2,0.897,2,2   S33.103,34,32,34z" style="fill:#3F3A34;"/><path d="M17,35c-6.617,0-12,5.383-12,12s5.383,12,12,12s12-5.383,12-12S23.617,35,17,35z M23.648,54.449   l-1.725-2.374l-1.617,1.176l1.727,2.376c-1.208,0.708-2.572,1.176-4.032,1.322V54h-2v2.949c-1.461-0.146-2.824-0.615-4.032-1.322   l1.727-2.376l-1.617-1.176l-1.725,2.374c-1.059-0.946-1.918-2.109-2.5-3.426l2.799-0.91l-0.617-1.902l-2.802,0.911   C7.083,48.438,7,47.729,7,47s0.083-1.438,0.232-2.123l2.802,0.911l0.617-1.902l-2.799-0.91c0.581-1.316,1.44-2.479,2.5-3.426   l1.725,2.374l1.617-1.176l-1.727-2.376c1.208-0.708,2.572-1.176,4.032-1.322V40h2v-2.949c1.461,0.146,2.824,0.615,4.032,1.322   l-1.727,2.376l1.617,1.176l1.725-2.374c1.059,0.946,1.919,2.109,2.5,3.426l-2.799,0.91l0.617,1.902l2.802-0.911   C26.917,45.562,27,46.271,27,47s-0.083,1.438-0.232,2.123l-2.802-0.911l-0.617,1.902l2.799,0.91   C25.566,52.34,24.707,53.503,23.648,54.449z" style="fill:#3F3A34;"/><path d="M17,45c-0.08,0-0.155,0.014-0.232,0.023L14.8,42.4l-1.6,1.2l1.961,2.615   C15.058,46.456,15,46.721,15,47c0,1.103,0.897,2,2,2s2-0.897,2-2S18.103,45,17,45z" style="fill:#3F3A34;"/></g></svg>