<svg width="22" height="19" viewBox="0 0 22 19" fill="none" xmlns="http://www.w3.org/2000/svg">
<path d="M9.48242 17.4346C9.48242 18.2719 10.1626 18.9521 11 18.9521C11.8373 18.9521 12.5175 18.2719 12.5175 17.4346C12.5175 16.5972 11.8373 15.917 11 15.917C10.1626 15.917 9.48242 16.5972 9.48242 17.4346Z" fill="white"/>
<path d="M4.04755 4.37158C2.67143 5.00464 1.43898 5.80607 0.44449 6.72872C0.170612 6.98913 0 7.35505 0 7.76362C0 8.54934 0.630817 9.18689 1.4098 9.18689C1.86551 9.18689 2.24714 8.90627 2.52776 8.63015C3.50653 7.85342 4.5751 7.22036 5.70653 6.74219L4.04755 4.37158Z" fill="white"/>
<path d="M21.6026 6.77534C18.801 4.29248 15.052 2.83105 11 2.83105C10.4275 2.83105 9.85507 2.86473 9.28711 2.92534L11.2155 5.67759C14.2483 5.72473 17.1196 6.75738 19.4722 8.62514C19.8022 8.93943 20.1345 9.18412 20.5902 9.18412C21.3692 9.18412 22 8.54657 22 7.76085C22 7.37922 21.8496 7.03126 21.6026 6.77534Z" fill="white"/>
<path d="M12.3267 7.26709L14.8522 10.8746C15.4538 11.1485 16.024 11.483 16.5493 11.8736C16.8524 12.1183 17.1756 12.3159 17.5797 12.3159C18.3587 12.3159 18.9895 11.6783 18.9895 10.8926C18.9895 10.484 18.8189 10.1181 18.545 9.8577C16.794 8.46138 14.6636 7.52525 12.3267 7.26709Z" fill="white"/>
<path d="M6.59341 8.00781C5.41034 8.45679 4.34177 9.07414 3.50218 9.81271C3.20136 10.0731 3.0083 10.4592 3.0083 10.8925C3.0083 11.6782 3.63912 12.3158 4.4181 12.3158C4.84687 12.3158 5.37218 11.9521 5.50238 11.8331C6.33973 11.2225 7.28259 10.7488 8.29504 10.4413L6.59341 8.00781Z" fill="white"/>
<path d="M11.0718 14.4034L9.22423 11.7656C8.16464 12.0081 7.19708 12.4481 6.64933 12.9891C6.43157 13.2405 6.29688 13.566 6.29688 13.9275C6.29688 14.7132 6.92769 15.3507 7.70667 15.3507C8.0681 15.3507 8.38688 15.1532 8.64504 14.9871C9.3477 14.6144 10.1491 14.4034 10.9955 14.4034C11.0246 14.4011 11.0471 14.4011 11.0718 14.4034Z" fill="white"/>
<path d="M6.79515 1.3519C6.34393 0.707612 5.45719 0.552714 4.81515 1.00169C4.17311 1.45067 4.01597 2.33966 4.46495 2.9817L14.255 16.9652C14.7062 17.6095 15.5929 17.7644 16.2372 17.3154C16.8815 16.8642 17.0364 15.9774 16.5874 15.3354L6.79515 1.3519Z" fill="white"/>
</svg>
