<svg width="119" height="85" viewBox="0 0 119 85" fill="none" xmlns="http://www.w3.org/2000/svg">
<g clip-path="url(#clip0)">
<path d="M29.0651 77.7199C29.0651 78.1247 26.6935 78.4511 23.7695 78.4511C20.8456 78.4511 18.474 78.1247 18.474 77.7199C18.474 77.3151 20.8456 76.9888 23.7695 76.9888C26.6935 76.9888 29.0651 77.3151 29.0651 77.7199Z" fill="#FDF9E7"/>
<path d="M40.9233 84.9998C51.288 84.9998 59.6902 83.838 59.6902 82.4048C59.6902 80.9716 51.288 79.8097 40.9233 79.8097C30.5586 79.8097 22.1564 80.9716 22.1564 82.4048C22.1564 83.838 30.5586 84.9998 40.9233 84.9998Z" fill="#F05D48"/>
<path d="M89.4853 84.1119C101.822 84.1119 111.822 82.7295 111.822 81.0242C111.822 79.3189 101.822 77.9365 89.4853 77.9365C77.149 77.9365 67.1485 79.3189 67.1485 81.0242C67.1485 82.7295 77.149 84.1119 89.4853 84.1119Z" fill="#F05D48"/>
<path d="M60.8323 78.9091C74.5887 78.9091 85.7405 77.3679 85.7405 75.4668C85.7405 73.5657 74.5887 72.0245 60.8323 72.0245C47.076 72.0245 35.9242 73.5657 35.9242 75.4668C35.9242 77.3679 47.076 78.9091 60.8323 78.9091Z" fill="#F05D48"/>
<path d="M117.57 74.7076C117.57 75.5862 112.412 76.3016 106.046 76.3016C99.6829 76.3016 94.5215 75.5893 94.5215 74.7076C94.5215 73.829 99.6797 73.1135 106.046 73.1135C112.408 73.1135 117.57 73.8258 117.57 74.7076Z" fill="#F05D48"/>
<path d="M18.0778 69.8878C12.1457 68.5259 6.58179 63.8724 3.64848 58.4375C0.718294 53.0026 -0.417582 46.4475 1.32056 40.5168C3.05558 34.5862 7.89865 29.4839 13.9119 28.2005C21.2296 26.6378 28.6097 30.692 34.1985 35.6907C36.4828 37.7335 38.636 39.9803 41.279 41.5241C43.9253 43.0648 47.2362 43.8242 50.0571 42.6381C53.4429 41.2135 55.181 37.5295 56.8287 34.2347C60.8854 26.1201 66.209 18.52 73.224 12.7996C80.239 7.07603 89.0483 3.32935 98.0791 3.36073C103.705 3.37956 109.578 5.01441 113.498 9.07175C118.466 14.2148 119.333 22.2416 117.851 29.2549C116.369 36.2681 112.902 42.6663 110.146 49.2779C107.391 55.8895 105.3 63.1664 106.776 70.1796L18.0778 69.8878Z" fill="#F05D48"/>
<path d="M55.7051 26.6315C57.4214 23.7979 58.9099 20.7761 59.5683 17.5284C60.4296 13.2796 59.6932 8.79554 56.7661 5.4819C52.6407 0.815811 44.1498 -1.39642 38.3331 0.931914C35.9365 1.89212 33.8551 3.90666 33.3059 6.43896C32.3729 10.7254 35.6245 14.4344 37.6403 17.8547C38.7232 19.6935 39.5314 21.8336 39.6094 23.9894C39.6812 26.0478 38.3986 27.9494 38.7107 30.0267C38.8854 31.194 39.5844 32.239 40.4894 32.9952C42.4678 34.6489 45.2638 35.2514 47.7446 34.6144C51.5798 33.6322 53.7829 29.8071 55.7051 26.6315Z" fill="#F05D48"/>
<path d="M46.9178 13.8068H4.33811C4.25698 13.8068 4.18832 13.8727 4.18832 13.9574V47.5677C4.18832 47.6493 4.25386 47.7183 4.33811 47.7183H46.9178C46.999 47.7183 47.0676 47.6524 47.0676 47.5677V13.9574C47.0676 13.8759 46.999 13.8068 46.9178 13.8068ZM34.0082 30.6135H30.042V26.7382H34.0082V30.6135ZM34.3077 26.7382H38.2739V30.6135H34.3077V26.7382ZM25.4797 30.9148V34.7901H21.5135V30.9148H25.4797ZM21.5135 30.6135V26.7382H25.4797V30.6135H21.5135ZM25.7793 30.9148H29.7455V34.7901H25.7793V30.9148ZM25.7793 30.6135V26.7382H29.7455V30.6135H25.7793ZM30.042 26.4401V22.5648H34.0082V26.4401H30.042ZM29.7455 26.4401H25.7793V22.5648H29.7455V26.4401ZM25.4797 26.4401H21.5135V22.5648H25.4797V26.4401ZM21.214 26.4401H17.2478V22.5648H21.214V26.4401ZM21.214 26.7382V30.6135H17.2478V26.7382H21.214ZM16.9513 30.6135H12.9851V26.7382H16.9513V30.6135ZM12.6855 30.6135H8.71934V26.7382H12.6855V30.6135ZM12.6855 30.9148V34.7901H8.71934V30.9148H12.6855ZM12.9851 30.9148H16.9513V34.7901H12.9851V30.9148ZM17.2478 30.9148H21.214V34.7901H17.2478V30.9148ZM21.214 35.0882V38.9635H17.2478V35.0882H21.214ZM21.5135 35.0882H25.4797V38.9635H21.5135V35.0882ZM25.7793 35.0882H29.7455V38.9635H25.7793V35.0882ZM30.042 35.0882H34.0082V38.9635H30.042V35.0882ZM30.042 34.787V30.9148H34.0082V34.7901H30.042V34.787ZM34.3077 30.9148H38.2739V34.7901H34.3077V30.9148ZM38.5704 30.9148H42.5366V34.7901H38.5704V30.9148ZM38.5704 30.6135V26.7382H42.5366V30.6135H38.5704ZM38.5704 26.4401V22.5648H42.5366V26.4401H38.5704ZM38.2739 26.4401H34.3077V22.5648H38.2739V26.4401ZM34.3077 22.2635V18.3913H38.2739V22.2667H34.3077V22.2635ZM34.0082 22.2635H30.042V18.3913H34.0082V22.2635ZM29.7455 22.2635H25.7793V18.3913H29.7455V22.2635ZM25.4797 22.2635H21.5135V18.3913H25.4797V22.2635ZM21.214 22.2635H17.2478V18.3913H21.214V22.2635ZM16.9513 22.2635H12.9851V18.3913H16.9513V22.2635ZM16.9513 22.5648V26.4401H12.9851V22.5648H16.9513ZM12.6855 26.4401H8.71934V22.5648H12.6855V26.4401ZM8.41977 26.4401H4.4879V22.5648H8.41977V26.4401ZM8.41977 26.7382V30.6135H4.4879V26.7382H8.41977ZM8.41977 30.9148V34.7901H4.4879V30.9148H8.41977ZM8.41977 35.0882V38.9635H4.4879V35.0882H8.41977ZM8.71934 35.0882H12.6855V38.9635H8.71934V35.0882ZM12.9851 35.0882H16.9513V38.9635H12.9851V35.0882ZM16.9513 39.2616V43.137H12.9851V39.2616H16.9513ZM17.2478 39.2616H21.214V43.137H17.2478V39.2616ZM21.5135 39.2616H25.4797V43.137H21.5135V39.2616ZM25.7793 39.2616H29.7455V43.137H25.7793V39.2616ZM30.042 39.2616H34.0082V43.137H30.042V39.2616ZM34.3077 39.2616H38.2739V43.137H34.3077V39.2616ZM34.3077 38.9635V35.0882H38.2739V38.9635H34.3077ZM38.5704 35.0882H42.5366V38.9635H38.5704V35.0882ZM42.8362 35.0882H46.7681V38.9635H42.8362V35.0882ZM42.8362 34.787V30.9148H46.7681V34.7901H42.8362V34.787ZM42.8362 30.6135V26.7382H46.7681V30.6135H42.8362ZM42.8362 26.4401V22.5648H46.7681V26.4401H42.8362ZM42.8362 22.2635V18.3913H46.7681V22.2667H42.8362V22.2635ZM42.5366 22.2635H38.5704V18.3913H42.5366V22.2635ZM38.5704 18.0901V14.1081H42.5366V18.0901H38.5704ZM38.2739 18.0901H34.3077V14.1081H38.2739V18.0901ZM34.0082 18.0901H30.042V14.1081H34.0082V18.0901ZM29.7455 18.0901H25.7793V14.1081H29.7455V18.0901ZM25.4797 18.0901H21.5135V14.1081H25.4797V18.0901ZM21.214 18.0901H17.2478V14.1081H21.214V18.0901ZM16.9513 18.0901H12.9851V14.1081H16.9513V18.0901ZM12.6855 18.0901H8.71934V14.1081H12.6855V18.0901ZM12.6855 18.3913V22.2667H8.71934V18.3913H12.6855ZM8.41977 22.2635H4.4879V18.3913H8.41977V22.2635ZM4.4879 39.2616H8.41977V43.137H4.4879V39.2616ZM8.71934 39.2616H12.6855V43.137H8.71934V39.2616ZM12.6855 43.4382V47.4202H8.71934V43.4382H12.6855ZM12.9851 43.4382H16.9513V47.4202H12.9851V43.4382ZM17.2478 43.4382H21.214V47.4202H17.2478V43.4382ZM21.5135 43.4382H25.4797V47.4202H21.5135V43.4382ZM25.7793 43.4382H29.7455V47.4202H25.7793V43.4382ZM30.042 43.4382H34.0082V47.4202H30.042V43.4382ZM34.3077 43.4382H38.2739V47.4202H34.3077V43.4382ZM38.5704 43.4382H42.5366V47.4202H38.5704V43.4382ZM38.5704 43.137V39.2616H42.5366V43.137H38.5704ZM42.8362 39.2616H46.7681V43.137H42.8362V39.2616ZM46.7681 18.0901H42.8362V14.1081H46.7681V18.0901ZM8.41977 14.1081V18.0901H4.4879V14.1081H8.41977ZM4.4879 43.4382H8.41977V47.4202H4.4879V43.4382ZM42.8362 47.4202V43.4382H46.7681V47.4202H42.8362Z" fill="#E7DFC2"/>
<path d="M21.7506 23.4183C21.7506 23.4183 22.7023 31.9629 27.4237 33.4503L36.1113 30.9995C36.1113 30.9995 30.925 28.599 30.3945 23.4183H21.7506Z" fill="#FEDEA6"/>
<path d="M17.2479 31.3166C17.2479 31.3166 16.524 41.0441 12.9291 42.7355L6.31357 39.9458C6.31357 39.9458 10.2642 37.2159 10.6667 31.3166H17.2479Z" fill="#F7F4E3"/>
<path d="M39.5885 16.6176L33.8025 18.3093L35.8047 25.2333L41.5906 23.5415L39.5885 16.6176Z" fill="#F7F4E3"/>
<path d="M39.2876 17.3036L34.4246 18.7255L35.7175 23.1968L40.5806 21.7749L39.2876 17.3036Z" fill="#FDFDFD"/>
<path d="M23.1468 37.6212L18.6959 36.3946L17.2451 41.7177L21.6961 42.9443L23.1468 37.6212Z" fill="#D2CDB8"/>
<path d="M22.6788 37.9474L18.9381 36.9165L18.0004 40.3573L21.7411 41.3882L22.6788 37.9474Z" fill="#E7DFC2"/>
<path d="M93.0114 34.9343C92.3779 34.9343 91.7413 34.9312 91.1078 34.9312C90.7958 34.9312 90.4962 35.2073 90.5118 35.5305C90.5274 35.8569 90.7739 36.1299 91.1078 36.1299C91.7413 36.1299 92.3779 36.133 93.0114 36.133C93.3234 36.133 93.623 35.8569 93.6074 35.5336C93.5918 35.2104 93.3453 34.9374 93.0114 34.9343Z" fill="#CCC6AD"/>
<path d="M111.644 50.8594C105.802 45.6379 99.9606 40.4196 94.119 35.1981C93.2608 34.4324 91.9908 35.7001 92.8551 36.4689L110.38 52.1303C111.235 52.8991 112.505 51.6313 111.644 50.8594Z" fill="#CCC6AD"/>
<path d="M114.272 73.0161H112.586C111.042 72.5706 108.577 72.285 105.796 72.285C103.016 72.285 100.554 72.5737 99.0059 73.0161H97.3208C97.2428 73.4711 97.3208 74.1081 97.3208 74.1081C97.3208 75.1154 101.115 75.9313 105.793 75.9313C110.474 75.9313 114.265 75.1154 114.265 74.1081C114.424 73.4335 114.272 73.0161 114.272 73.0161Z" fill="#CCC6AD"/>
<path d="M114.272 73.0164C114.272 74.0237 110.48 74.8427 105.803 74.8427C101.122 74.8427 97.3304 74.0237 97.3304 73.0164C97.3304 72.0123 101.125 71.1933 105.803 71.1933C106.143 71.1933 106.477 71.1964 106.804 71.2058C107.107 71.2152 107.404 71.2247 107.697 71.2403C111.463 71.4223 114.272 72.1535 114.272 73.0164Z" fill="#E7DFC2"/>
<path d="M107.697 71.2371L106.82 72.7559L106.804 72.781V71.2057C107.104 71.2152 107.403 71.2214 107.697 71.2371Z" fill="#E7DFC2"/>
<path d="M110.371 51.2611L105.079 72.3009C104.795 73.4242 106.52 73.9043 106.804 72.7778C108.567 65.7646 110.334 58.7513 112.097 51.7381C112.381 50.6147 110.655 50.1377 110.371 51.2611Z" fill="#E7DFC2"/>
<path d="M112.037 50.4639C106.195 45.2424 100.354 40.0241 94.5121 34.8026C93.654 34.0369 92.3839 35.3046 93.2483 36.0766L110.773 51.7379C111.628 52.5036 112.898 51.2359 112.037 50.4639Z" fill="#E7DFC2"/>
<path d="M76.417 34.9313C76.417 34.9313 81.5284 26.5625 88.144 30.5508C94.7595 34.5391 89.8291 43.0146 89.8291 43.0146L76.417 34.9313Z" fill="#E7DFC2"/>
<path d="M89.8284 43.0178C89.4601 43.636 87.1166 42.93 84.2364 41.4175C83.6154 41.0912 82.9694 40.7272 82.3141 40.3318C81.6588 39.9364 81.0347 39.5347 80.4574 39.1394C77.7737 37.2974 76.0512 35.5527 76.4194 34.9345C76.7627 34.3603 78.8191 34.9314 81.431 36.2368C82.2236 36.6322 83.0724 37.0966 83.9368 37.6206C84.8012 38.1415 85.6063 38.6718 86.3302 39.1927C88.6956 40.8872 90.1685 42.4405 89.8284 43.0178Z" fill="#C1B894"/>
<path d="M86.3238 39.1864C86.0835 40.2564 85.2784 41.113 84.2361 41.4143C83.9709 41.4927 83.6869 41.5335 83.3936 41.5335C81.9457 41.5335 80.738 40.5043 80.454 39.133C80.4135 38.9322 80.3916 38.722 80.3916 38.5086C80.3916 37.5954 80.7911 36.7827 81.4277 36.2304C82.2203 36.6258 83.0691 37.0902 83.9334 37.6143C84.7947 38.1383 85.5998 38.6686 86.3238 39.1864Z" fill="#FAC978"/>
<path d="M93.523 33.9836C91.6038 33.9836 91.6007 36.9834 93.523 36.9834C95.4421 36.9834 95.4453 33.9836 93.523 33.9836Z" fill="#E7DFC2"/>
<path d="M93.523 34.8653C92.7335 34.8653 92.7303 36.1016 93.523 36.1016C94.3156 36.1016 94.3156 34.8653 93.523 34.8653Z" fill="#E7DFC2"/>
<path d="M111.07 49.4724C108.602 49.4724 108.599 53.3289 111.07 53.3289C113.539 53.3289 113.542 49.4724 111.07 49.4724Z" fill="#E7DFC2"/>
<path d="M111.07 50.6209C110.071 50.6209 110.068 52.1835 111.07 52.1835C112.068 52.1835 112.071 50.6209 111.07 50.6209Z" fill="#E7DFC2"/>
<path d="M29.0591 68.9308H18.4805C18.4805 68.9308 18.1934 75.2882 21.367 77.5413C21.6291 77.7264 21.9568 77.8237 22.2907 77.8237H23.7698H25.2489C25.5828 77.8237 25.9105 77.7264 26.1726 77.5413C29.3462 75.2914 29.0591 68.9308 29.0591 68.9308Z" fill="#536969"/>
<path d="M29.0652 68.9338C29.0652 69.1221 27.3365 69.2852 25.0085 69.326C24.6122 69.3355 24.1941 69.3386 23.7666 69.3386C23.4015 69.3386 23.0488 69.3355 22.7025 69.3292C20.2903 69.2947 18.4741 69.1283 18.4741 68.9338C18.4741 68.7549 20.0126 68.6012 22.1376 68.5478C22.6494 68.5353 23.1986 68.529 23.7697 68.529C24.219 68.529 24.6559 68.5321 25.071 68.5416C27.3645 68.5855 29.0652 68.7455 29.0652 68.9338Z" fill="#405050"/>
<path d="M30.5757 70.7946C30.014 70.1137 29.1028 69.9913 28.2759 70.0195C27.5114 70.0447 27.5082 71.2433 28.2759 71.2182C28.8781 71.1994 29.5241 71.2151 29.833 71.8176C30.1201 72.3698 30.0702 73.0884 29.7893 73.6344C29.1184 74.9524 27.5862 75.3164 26.2257 75.1312C25.9074 75.0873 25.6297 75.4387 25.6297 75.7306C25.6297 76.0914 25.9043 76.286 26.2257 76.3299C27.6923 76.5276 29.3057 76.1228 30.3105 74.9712C31.3028 73.8321 31.5868 72.0215 30.5757 70.7946Z" fill="#536969"/>
<path opacity="0.5" d="M26.753 65.3472C25.951 66.1568 25.0866 67.0825 25.0616 68.2278C25.0585 68.3565 25.0679 68.4851 25.0741 68.6169C25.0897 68.8899 25.1053 69.1629 25.0148 69.4014C24.6185 69.4108 24.2004 69.414 23.7728 69.414C23.4077 69.414 23.0551 69.4108 22.7087 69.4045C22.4809 69.1943 22.2875 68.9182 22.1408 68.6232C21.9879 68.3408 21.8756 68.0427 21.8069 67.776C21.6758 67.2708 21.6665 66.731 21.7975 66.2258C22.1377 64.9048 23.3235 63.8253 23.2985 62.4635C23.2829 61.5817 22.7524 60.7972 22.1626 60.1477C21.5697 59.5013 20.8863 58.9207 20.4432 58.1614C19.6849 56.8685 19.7723 55.1144 20.6929 53.9346C21.6103 52.7547 23.3235 52.2558 24.709 52.8018C26.0976 53.3509 27.0213 54.9262 26.7779 56.4041C26.6188 57.3675 26.029 58.3528 26.4035 59.2565C26.6094 59.7492 27.0588 60.0849 27.4364 60.4646C27.9606 60.998 28.3663 61.6978 28.3819 62.4478C28.4068 63.59 27.5549 64.5376 26.753 65.3472Z" fill="#54C1BB"/>
<path d="M34.342 70.3208C34.342 70.3208 27.611 43.4978 30.6286 40.2564C33.6461 37.0149 58.7353 35.515 61.4845 38.0253C64.2337 40.5356 64.0121 70.2863 64.0121 70.2863L34.342 70.3208Z" fill="#54C1BB"/>
<path d="M61.4874 38.0253C61.4032 37.95 61.2971 37.8747 61.1722 37.8057C52.8467 37.2879 37.9679 38.7408 35.6868 41.1915C33.0094 44.0721 38.0147 65.5418 39.1693 70.3145L64.0119 70.2863C64.0119 70.2863 64.2366 40.5357 61.4874 38.0253Z" fill="#8DD1CD"/>
<path d="M69.0861 47.9943C69.0861 47.9943 74.2631 63.6337 75.6548 64.0228C77.0466 64.4119 91.3074 67.1137 91.3074 67.1137L90.6116 70.6125C90.6116 70.6125 73.2364 71.1585 69.0861 68.2025C64.9327 65.2466 69.0861 47.9943 69.0861 47.9943Z" fill="#DDBB8F"/>
<path d="M69.0861 47.9943C69.0861 47.9943 64.9327 65.2466 69.0861 68.2025C70.6776 69.3353 74.2069 69.9535 77.9578 70.2861L78.9626 65.2466L78.8191 65.1587L78.713 64.6724C77.1683 64.3617 76.0075 64.117 75.658 64.0197C74.2631 63.6337 69.0861 47.9943 69.0861 47.9943Z" fill="#405050"/>
<path d="M80.4387 65.0177C79.7678 65.73 79.3153 66.6149 79.0625 67.5405C78.8098 68.4662 78.7474 69.4296 78.7942 70.3835C78.8004 70.4871 78.6943 70.6 78.5882 70.6251C78.4821 70.6502 78.3698 70.6283 78.2606 70.6126C78.1513 70.5969 78.0328 70.5906 77.9391 70.6471C77.8455 70.7036 77.7925 70.8134 77.6926 70.8542C77.5647 70.9044 77.4274 70.8322 77.2994 70.7852C77.0217 70.6816 76.7128 70.7036 76.4163 70.6816C76.1199 70.6628 75.7953 70.5843 75.6237 70.3521C75.4989 70.1858 75.4802 69.9693 75.4646 69.7653C75.3928 68.8177 75.3304 67.8135 75.7766 66.9632C76.0606 66.4234 76.5287 65.981 76.7721 65.4256C76.8906 65.1557 76.9499 64.8639 77.1122 64.616C77.2714 64.3681 77.574 64.1673 77.8736 64.2332C78.1233 64.2897 78.298 64.5124 78.5414 64.5815C78.763 64.6411 78.9939 64.5658 79.2217 64.5407C79.7022 64.4873 80.1329 64.6537 80.4387 65.0177Z" fill="#536969"/>
<path d="M43.2758 70.3206H69.6007C68.8643 65.1806 68.1809 59.4916 68.2589 56.5419C68.3244 54.1257 69.0827 48.0319 69.0827 48.0319C68.7925 47.6867 62.2924 42.6253 57 42.7822C48.0222 43.052 43.46 49.4283 43.46 49.4283C43.46 49.4283 43.7627 54.1571 43.9842 56.6141C44.2495 59.5387 43.7595 65.1995 43.2758 70.3206Z" fill="#F7F4E3"/>
<path d="M68.2558 57.0974C68.2558 56.8903 68.2558 56.6926 68.262 56.5043C68.3244 54.1823 69.0265 48.4744 69.0827 48.0257C68.8081 47.7119 64.1304 44.0625 59.5027 43.0426L59.5432 47.5079C59.5432 47.5079 61.2658 58.1329 62.0272 70.2829H69.5976C68.9079 65.4599 68.2651 60.16 68.2558 57.0974Z" fill="#405050"/>
<path d="M60.1081 42.4025L64.2647 47.3761L61.1816 46.4441L59.5402 47.5079L57.671 42.8136L60.1081 42.4025Z" fill="#536969"/>
<path d="M43.2758 70.2862H55.3336C54.0979 59.4165 53.6953 49.1084 53.6953 49.1084L52.341 43.4852C46.4494 45.2236 43.46 49.3939 43.46 49.3939C43.46 49.3939 43.7627 54.1228 43.9842 56.5798C44.2495 59.5043 43.7595 65.162 43.2758 70.2862Z" fill="#405050"/>
<path d="M68.0469 31.1688C70.0971 29.7316 71.6043 27.3907 72.1535 24.7831C72.3283 23.9579 72.4094 23.0949 72.2471 22.2634C72.088 21.4318 71.6605 20.6348 70.9989 20.1923C70.3374 19.7499 69.4262 19.7279 68.8239 20.2488C68.412 19.524 67.532 19.1976 66.7706 19.3357C66.0092 19.4738 65.3351 19.9413 64.7017 20.4214C62.2084 19.32 59.2033 19.957 57.2592 21.9559C55.6084 22.2414 54.123 23.5217 53.4584 25.2005C52.7937 26.8793 52.7843 28.8122 53.1588 30.6071C53.4272 31.8874 53.914 33.1708 54.8189 34.0337C55.908 35.0692 57.4339 35.3422 58.8663 35.3203C62.2052 35.2669 65.2446 33.1331 68.0469 31.1688Z" fill="#405050"/>
<path d="M54.9782 29.1073C54.3697 34.9846 52.8531 45.3868 52.8531 45.3868C54.1762 47.7402 59.1659 47.4421 59.0505 46.6545C58.9849 46.2089 59.091 45.4339 59.35 44.7373C59.5497 44.1975 59.8431 43.7017 60.2175 43.4382C60.3736 43.3283 60.6513 43.2938 61.0102 43.2907C61.0695 43.2938 61.1007 43.2907 61.1007 43.2907C62.7514 43.3032 65.95 43.9371 67.3449 41.9288C69.0799 39.431 69.2702 32.4774 69.083 29.1261C68.9738 27.2088 67.3355 24.5196 64.0371 23.936C60.0053 23.2205 55.5898 23.1923 54.9782 29.1073Z" fill="#FDBCA0"/>
<path d="M55.5521 41.6526C55.5521 41.6526 56.8003 43.4632 59.3498 44.734C59.5495 44.1943 59.8428 43.6985 60.2173 43.4349C60.3733 43.3251 60.651 43.2906 61.0099 43.2874C60.5168 43.2749 58.0641 43.1243 55.5521 41.6526Z" fill="#F0A38B"/>
<path d="M65.0073 35.6844C65.232 35.6812 65.466 35.6875 65.6533 35.8287C65.7999 35.9386 65.8686 36.1205 65.8561 36.3025C65.8218 36.7168 65.4504 36.949 65.0822 37.0368C64.9636 37.0651 64.9074 36.8831 65.026 36.8548C65.3069 36.7889 65.6221 36.6352 65.6657 36.3151C65.6845 36.1864 65.6408 36.0547 65.5347 35.9762C65.388 35.8695 65.1914 35.8758 65.0167 35.8758C64.8918 35.8789 64.8856 35.6875 65.0073 35.6844Z" fill="#3F4553"/>
<path d="M62.6608 33.4C62.6484 33.7514 62.8699 34.0433 63.157 34.0527C63.4441 34.0621 63.6844 33.786 63.6969 33.4345C63.7094 33.0831 63.4878 32.7912 63.2007 32.7818C62.9136 32.7724 62.6733 33.0486 62.6608 33.4Z" fill="#3F4553"/>
<path d="M66.1183 33.7356C66.1058 34.0871 66.3274 34.3789 66.6144 34.3883C66.9015 34.3977 67.1418 34.1216 67.1543 33.7701C67.1668 33.4187 66.9452 33.1269 66.6581 33.1174C66.3742 33.108 66.1308 33.3842 66.1183 33.7356Z" fill="#3F4553"/>
<path d="M61.7774 30.4252C62.3952 30.0392 63.1785 29.9639 63.8525 30.262C63.9462 30.3028 64.0023 30.4095 63.9649 30.5099C63.9305 30.604 63.8151 30.6636 63.7183 30.6228C63.1785 30.3844 62.5232 30.4095 62.0177 30.7264C61.9303 30.7797 61.8211 30.786 61.7493 30.6982C61.69 30.6228 61.69 30.4816 61.7774 30.4252Z" fill="#3F4553"/>
<path d="M68.3589 31.0433C67.8658 30.5036 67.1325 30.2212 66.4054 30.3247C66.3024 30.3404 66.2244 30.4252 66.2338 30.5318C66.2431 30.6323 66.3367 30.7201 66.4397 30.7044C67.0233 30.6197 67.6474 30.8237 68.0499 31.263C68.1186 31.3383 68.2247 31.3728 68.3152 31.3069C68.3901 31.2567 68.4275 31.1218 68.3589 31.0433Z" fill="#3F4553"/>
<path d="M61.0381 34.787C61.0163 35.0569 61.4095 35.311 61.915 35.355C62.4236 35.3989 62.8543 35.2169 62.8761 34.947C62.8979 34.6772 62.5048 34.423 61.9992 34.3791C61.4906 34.3351 61.06 34.5171 61.0381 34.787Z" fill="#FBAD8B"/>
<path d="M66.6393 35.2857C66.6175 35.5556 67.0107 35.8098 67.5162 35.8537C68.0248 35.8976 68.4555 35.7156 68.4773 35.4458C68.4992 35.1759 68.106 34.9217 67.6005 34.8778C67.0918 34.8339 66.6612 35.0159 66.6393 35.2857Z" fill="#FBAD8B"/>
<path d="M65.959 38.9225C65.8997 39.2551 65.7156 39.5564 65.4629 39.7792C65.416 39.8231 65.3724 39.8576 65.3224 39.8921C65.001 40.1243 64.6016 40.2373 64.2053 40.2498C63.6249 40.2718 63.032 40.071 62.6138 39.6662C62.4515 39.5093 62.3174 39.3242 62.2237 39.1202C62.0677 38.797 62.0053 38.4299 62.0677 38.0784C62.102 37.8807 62.1988 37.6705 62.386 37.6203C62.5077 37.5889 62.6263 37.6297 62.7386 37.6956C62.7979 37.7301 62.8541 37.7709 62.9071 37.8086C63.3409 38.1318 63.809 38.4267 64.3332 38.5522C64.7014 38.6401 65.104 38.6338 65.4597 38.4989C65.5783 38.4518 65.7562 38.2949 65.8872 38.3765C65.8904 38.3797 65.8904 38.3797 65.8935 38.3797C66.0308 38.4863 65.9871 38.7813 65.959 38.9225Z" fill="#4E5567"/>
<path d="M65.8839 38.3827C65.8589 38.4737 65.8121 38.5647 65.7528 38.64C65.6218 38.8032 65.4252 38.9099 65.2255 38.9758C64.5514 39.1986 63.7869 39.0228 63.2034 38.6181C63.0161 38.4863 62.8382 38.3262 62.754 38.1097C62.7041 37.9811 62.6947 37.8336 62.7353 37.7018C62.7946 37.7363 62.8507 37.7771 62.9038 37.8147C63.3375 38.138 63.8056 38.4329 64.3299 38.5584C64.6981 38.6463 65.1006 38.64 65.4564 38.5051C65.575 38.458 65.7528 38.3011 65.8839 38.3827Z" fill="white"/>
<path d="M65.4631 39.7824C65.4163 39.8263 65.3726 39.8609 65.3227 39.8954C65.0013 40.1276 64.6019 40.2405 64.2056 40.2531C63.6251 40.2751 63.0322 40.0742 62.6141 39.6694C62.4518 39.5126 62.3176 39.3274 62.224 39.1235C62.6734 39.0764 63.1321 39.0701 63.5846 39.1046C64.1244 39.1454 64.6736 39.249 65.1355 39.5282C65.2478 39.6036 65.3602 39.6851 65.4631 39.7824Z" fill="#3F4553"/>
<path d="M65.828 27.8268C64.4113 28.1186 62.8479 27.4942 62.0178 26.3018C61.9148 26.6627 61.6153 26.9608 61.2533 27.0643C60.8944 27.1679 60.4825 27.0706 60.2048 26.8164C60.1486 27.9774 59.8459 29.1479 59.1813 30.0955C58.5166 31.0463 57.4618 31.7524 56.3104 31.8434C55.6675 31.8936 54.9841 31.7398 54.5036 31.3036C54.0573 30.8957 53.8358 30.2964 53.7016 29.7064C53.3802 28.285 53.4769 26.7537 54.0604 25.4169C54.6409 24.0801 55.7175 22.9505 57.0562 22.3857C58.3356 21.8428 59.771 21.8303 61.1597 21.8773C62.5889 21.9275 64.0306 22.0405 65.388 22.4955C66.4895 22.8626 67.5349 23.4714 68.3057 24.3531C68.4555 24.5257 68.7176 24.7673 68.7145 25.009C68.7114 25.2443 68.546 25.5518 68.443 25.7589C68.2027 26.2453 67.8595 26.6752 67.4475 27.0235C66.9857 27.422 66.424 27.7044 65.828 27.8268Z" fill="#405050"/>
<path d="M55.5772 31.9187C55.0935 31.3476 54.3914 30.9145 53.6238 30.9773C52.8655 31.0401 52.2694 31.5578 52.076 32.2952C51.948 32.791 51.9886 33.3151 52.0822 33.8203C52.179 34.3506 52.3287 34.8746 52.5815 35.3484C53.0589 36.2427 54.0544 37.0586 55.1247 36.704C56.5508 36.2302 56.6476 34.4635 56.2918 33.2303C56.1545 32.7722 55.9049 32.3078 55.5772 31.9187Z" fill="#FDBCA0"/>
<path d="M53.6924 32.2544C53.5613 32.1853 53.449 32.383 53.5769 32.452C54.4881 32.9259 54.9968 33.9457 54.8127 34.9655C54.7877 35.1099 55.0062 35.1695 55.0311 35.0251C55.234 33.9112 54.7003 32.7784 53.6924 32.2544Z" fill="#F0A38B"/>
<path d="M54.7346 33.4375C54.3476 33.2774 53.9201 33.2429 53.5145 33.3276C53.4552 33.3402 53.4208 33.4124 53.4364 33.4688C53.4552 33.5316 53.5144 33.5598 53.5769 33.5473C53.9451 33.472 54.3289 33.5128 54.6784 33.6571C54.7346 33.6791 54.8032 33.632 54.8188 33.5787C54.8313 33.5128 54.7908 33.4626 54.7346 33.4375Z" fill="#F0A38B"/>
<path d="M53.3367 42.4025L50.7966 43.4819L48.5342 49.9335L52.3911 47.8468L53.6986 49.1082L53.3367 42.4025Z" fill="#536969"/>
<path d="M43.4633 49.3952C43.4633 49.3952 33.4526 67.1151 35.6183 70.1495C37.7839 73.1838 57.1219 76.1397 57.1219 76.1397L57.9177 72.2048C57.9177 72.2048 43.8378 68.3389 43.5476 67.2312L43.9033 62.791C43.9002 62.791 45.061 50.9799 43.4633 49.3952Z" fill="#FDBCA0"/>
<path d="M43.5445 67.2297L43.9002 62.7896C43.9002 62.7896 45.061 50.9784 43.4633 49.3906C43.4633 49.3906 33.4526 67.1105 35.6183 70.1448C36.3173 71.1239 38.8137 72.0966 41.8687 72.9658L42.8142 72.6364L44.6741 67.964C44.0094 67.6659 43.5913 67.4117 43.5445 67.2297Z" fill="#405050"/>
<path d="M46.9364 68.4817C45.3855 69.8655 44.3557 71.8298 44.0936 73.8977C43.6848 73.904 43.3072 73.7345 42.9702 73.5023C42.5739 73.7722 42.0496 73.7126 41.5784 73.6404C41.3912 73.6122 41.1821 73.5714 41.0729 73.4176C41.0011 73.3172 40.9887 73.1885 40.9762 73.0662C40.9294 72.5829 40.8826 72.0903 40.998 71.6196C41.1103 71.1614 41.3694 70.7535 41.6252 70.355C42.0684 69.6678 42.5115 68.9775 42.9546 68.2903C43.1075 68.0549 43.2604 67.8133 43.482 67.6438C43.7035 67.4713 44.0031 67.3771 44.2652 67.4713C44.4275 67.5309 44.5585 67.6533 44.7114 67.7348C44.9673 67.8698 45.2669 67.8792 45.554 67.8698C45.8411 67.8604 46.1344 67.8321 46.4121 67.9074C46.6899 67.9827 46.8771 68.1961 46.9364 68.4817Z" fill="#536969"/>
<path d="M43.9345 52.3248C43.894 56.1624 43.7473 60.0001 43.4914 63.8315C43.4196 64.9204 43.3354 66.0092 43.2449 67.0981C43.2199 67.3899 43.6755 67.3805 43.7005 67.0887C44.0188 63.2635 44.2279 59.429 44.3308 55.5913C44.3589 54.4993 44.3776 53.4073 44.3901 52.3185C44.3932 52.0204 43.9376 52.0298 43.9345 52.3248Z" fill="#A1B8B8"/>
<path d="M57.1188 76.1353C57.1188 76.1353 64.8141 79.2858 65.1636 78.6425C65.5131 78.0024 61.8652 76.7849 61.8652 76.7849C61.8652 76.7849 66.9797 77.8267 67.1139 77.2995C67.2481 76.7755 62.327 75.4638 62.327 75.4638C62.327 75.4638 68.203 76.5433 68.2747 75.9282C68.3465 75.3132 63.0915 74.1584 63.0915 74.1584C63.0915 74.1584 68.0282 74.4408 68.0625 73.9921C68.1218 73.1857 57.9146 72.2004 57.9146 72.2004L57.1188 76.1353Z" fill="#FDBCA0"/>
<path d="M58.6477 72.2787C58.6477 72.2787 62.5733 70.8478 62.9697 71.1585C63.366 71.4692 61.2378 73.035 61.2378 73.035L58.6477 72.2787Z" fill="#FDBCA0"/>
<path d="M47.0675 68.0708H26.7466C26.5312 68.0708 26.4033 68.2466 26.4626 68.4631L29.9982 81.3819C30.0575 81.5984 30.279 81.7741 30.4943 81.7741H50.8153C51.0306 81.7741 51.1585 81.5984 51.0992 81.3819L47.5637 68.4631C47.5075 68.2466 47.2828 68.0708 47.0675 68.0708Z" fill="#E7DFC2"/>
<path d="M49.5731 81.6173L46.5711 70.6534C46.5212 70.4683 46.3308 70.3208 46.1498 70.3208H28.9058C28.7216 70.3208 28.6155 70.4683 28.6655 70.6534L31.6674 81.6173C31.6643 81.611 31.6862 81.6895 31.7111 81.7711H49.6199L49.5731 81.6173Z" fill="#F7F4E3"/>
<path d="M28.2224 69.0405C28.2224 69.3072 28.0071 69.5206 27.7449 69.5206C27.4797 69.5206 27.2675 69.3041 27.2675 69.0405C27.2675 68.7769 27.4828 68.5604 27.7449 68.5604C28.0071 68.5604 28.2224 68.7769 28.2224 69.0405Z" fill="#405050"/>
<path d="M27.9668 69.0405C27.9668 69.1628 27.8669 69.2633 27.7452 69.2633C27.6235 69.2633 27.5236 69.1628 27.5236 69.0405C27.5236 68.9181 27.6235 68.8177 27.7452 68.8177C27.8669 68.8177 27.9668 68.9181 27.9668 69.0405Z" fill="#576E6E"/>
<path d="M45.7695 70.4714H28.5254C28.3413 70.4714 28.2352 70.6189 28.2851 70.804L31.2871 81.7679C31.284 81.7554 31.3807 82.1005 31.3807 82.1005H49.2864L49.1959 81.7679L46.1939 70.804C46.1408 70.6189 45.9536 70.4714 45.7695 70.4714Z" fill="#EBB254"/>
<path d="M49.1926 81.7679L47.261 74.7076H29.3522L31.2838 81.7679C31.2807 81.7554 31.3774 82.1005 31.3774 82.1005H49.2831L49.1926 81.7679Z" fill="#FEDEA6"/>
<path d="M45.8035 83.7982H27.9072L31.3866 82.1006H49.2829L45.8035 83.7982Z" fill="#EBB254"/>
<path d="M68.6242 49.5947L105.106 43.4977C105.702 43.3973 106.245 43.868 106.242 44.483L106.086 67.7601C106.083 68.2308 105.759 68.6324 105.306 68.7266L69.7163 76.1321C68.8426 76.3392 67.8035 75.7806 67.8035 74.4909V50.5737C67.8066 50.0905 68.153 49.6763 68.6242 49.5947Z" fill="#FEDEA6"/>
<path d="M70.2749 49.5287L105.106 43.7204C105.702 43.62 106.245 44.0875 106.242 44.6963L106.092 67.7976C106.089 68.2621 105.765 68.6606 105.312 68.7547L70.6307 75.9186C70.0253 76.0441 69.4574 75.5797 69.4574 74.9552V50.5014C69.4605 50.0151 69.8037 49.6071 70.2749 49.5287Z" fill="#FAC978"/>
<path d="M86.0179 61.6411L83.9989 73.151L94.9707 70.8854L86.0179 61.6411Z" fill="#EBB254"/>
<path d="M85.5622 82.7059L80.7472 81.0616C79.9764 80.7981 80.0232 79.6872 80.8127 79.4895L88.976 77.4342C89.1196 77.3997 89.2663 77.4028 89.4067 77.4436L94.1468 78.8682C94.93 79.1036 94.9207 80.2207 94.1343 80.4435L86.0459 82.7185C85.8867 82.7624 85.7182 82.7593 85.5622 82.7059Z" fill="#EBB254"/>
<path d="M92.7647 60.5428C92.671 60.1098 92.256 59.8305 91.8223 59.909L86.6858 60.8441C86.302 60.9131 86.0212 61.2489 86.0149 61.6411L85.7996 82.7876L96.8463 79.6779L92.7647 60.5428ZM91.4509 76.9856C89.9031 77.1456 88.4646 75.4605 88.2368 73.22C88.009 70.9827 89.0793 69.0372 90.6271 68.8803C92.1749 68.7203 93.6134 70.4053 93.8412 72.6458C94.069 74.8831 92.9987 76.8255 91.4509 76.9856Z" fill="#FEDEA6"/>
<path d="M89.8753 22.5741C84.6484 22.5741 80.3951 18.2971 80.3951 13.0411C80.3951 7.7851 84.6484 3.50812 89.8753 3.50812C95.1022 3.50812 99.3555 7.7851 99.3555 13.0411C99.3555 18.2971 95.1022 22.5741 89.8753 22.5741ZM89.8753 6.20987C86.1275 6.20987 83.0787 9.27562 83.0787 13.0443C83.0787 16.8129 86.1275 19.8787 89.8753 19.8787C93.623 19.8787 96.6718 16.8129 96.6718 13.0443C96.6718 9.27562 93.623 6.20987 89.8753 6.20987Z" fill="#F5E2D5"/>
<path d="M86.3239 15.4478L85.9026 14.6539L89.4944 12.7366L91.0109 7.02873L91.8753 7.26094L90.2589 13.3485L86.3239 15.4478Z" fill="#F5E2D5"/>
</g>
<defs>
<clipPath id="clip0">
<rect width="118" height="85" fill="white" transform="translate(0.5)"/>
</clipPath>
</defs>
</svg>
