<svg width="186" height="220" viewBox="0 0 186 227" fill="none" xmlns="http://www.w3.org/2000/svg">
<mask id="mask0" mask-type="alpha" maskUnits="userSpaceOnUse" x="9" y="17" width="177" height="210">
<rect x="9.5" y="17.5" width="175.435" height="209" rx="9.5" fill="#FA6E5A" stroke="black"/>
</mask>
<g mask="url(#mask0)">
<path d="M7.2731 52.4473C-18.2269 56.8272 -24.7269 41.8626 -29.2269 33.2853V-20.3683H58.7731V77.6317H43.2731C34.9398 67.047 32.7731 48.0674 7.2731 52.4473Z" fill="#808AFF"/>
<path d="M110.273 52.4473C135.773 56.8272 142.273 41.8626 146.773 33.2853V-20.3683H58.7731V77.6317H74.2731C82.6064 67.0469 84.7731 48.0674 110.273 52.4473Z" fill="#808AFF"/>
</g>
<g clip-path="url(#clip0)">
<path d="M150.886 41.3394H147.5V58.3394H150.886V41.3394Z" fill="#9BA3FF"/>
<path d="M156.193 47.0536H152.807V58.3391H156.193V47.0536Z" fill="#9BA3FF"/>
<path d="M161.507 52.4393H158.121V58.3394H161.507V52.4393Z" fill="#9BA3FF"/>
</g>
<g clip-path="url(#clip1)">
<path d="M86 146.339C105.054 146.339 120.5 143.653 120.5 140.339C120.5 137.026 105.054 134.339 86 134.339C66.9462 134.339 51.5 137.026 51.5 140.339C51.5 143.653 66.9462 146.339 86 146.339Z" fill="#808AFF"/>
</g>
<path d="M72.6836 84.1566C72.6836 84.1566 71.3321 99.0971 76.9304 98.872C82.9358 98.6274 81.3205 84.1566 81.3205 84.1566C80.5356 81.8242 80.223 80.441 80.5747 77.9944H73.2829C73.6346 80.441 73.4653 81.8242 72.6836 84.1566Z" fill="#FDBCA0"/>
<path d="M73.4294 80.8845C74.2566 81.1324 75.0903 81.3608 75.9533 81.4325C76.7708 81.501 77.611 81.4488 78.4252 81.3608C79.1026 81.2857 79.8256 81.165 80.503 80.9399C80.3955 80.0526 80.4118 79.1392 80.5779 77.991H73.2861C73.4457 79.1164 73.4945 80.0168 73.4294 80.8845Z" fill="#F0A38B"/>
<path d="M76.9303 80.0332C79.0113 80.0332 81.0142 79.2112 82.4797 77.7302C84.2253 75.9686 85.5932 74.0048 85.9937 71.6985C86.5083 68.7365 85.5085 65.7777 83.3265 63.3964H70.5308C68.3488 65.7745 67.349 68.7365 67.8635 71.6985C68.2641 74.0048 69.6352 75.9686 71.3775 77.7302C72.8463 79.2079 74.8492 80.0332 76.9303 80.0332Z" fill="#FDBCA0"/>
<path d="M77.5655 85.8986C77.3017 86.189 77.0542 86.5054 76.8197 86.8218C76.5363 86.6261 76.3116 86.388 76.0641 86.1433C76.0413 86.1205 75.9957 86.1433 76.0055 86.1759C76.1455 86.5609 76.4386 86.874 76.7383 87.1415C76.8034 87.197 76.8946 87.2035 76.9597 87.1415C77.2756 86.8316 77.585 86.4695 77.8293 86.0976C77.9335 85.9443 77.6925 85.7584 77.5655 85.8986Z" fill="#DF8370"/>
<path d="M84.6066 85.3277C82.6623 85.4941 80.7441 85.8105 78.8519 86.2933C78.7379 86.3227 78.7868 86.4956 78.9008 86.4695C80.7832 86.0519 82.6851 85.7681 84.6066 85.6376C84.8085 85.6246 84.8052 85.3114 84.6066 85.3277Z" fill="#DF8370"/>
<path d="M69.251 85.3277C71.1953 85.4941 73.1135 85.8105 75.0057 86.2933C75.1197 86.3227 75.0708 86.4956 74.9568 86.4695C73.0744 86.0519 71.1725 85.7681 69.251 85.6376C69.0524 85.6246 69.0524 85.3114 69.251 85.3277Z" fill="#DF8370"/>
<path d="M69.5864 58.4706C66.867 60.0299 64.952 62.4863 64.9195 65.7876C64.8869 69.5097 69.4137 75.437 69.3519 75.2902C67.8473 71.6692 67.4532 66.6847 71.2082 64.1892C71.5827 63.9412 72.0517 63.7977 72.3871 63.5074C72.3774 61.5403 71.2929 59.6352 69.5864 58.4706Z" fill="#3F4553"/>
<path d="M84.0069 58.4706C86.7262 60.0299 88.6412 62.4863 88.6738 65.7876C88.7063 69.5097 86.482 72.8207 84.2674 75.6327C84.8308 74.4061 86.1368 66.6814 82.3818 64.1892C82.0072 63.9412 81.5383 63.7977 81.2028 63.5074C81.2158 61.5403 82.3036 59.6352 84.0069 58.4706Z" fill="#424495"/>
<path d="M123.052 56.5004C120.974 55.4663 118.548 55.2445 116.288 55.7044C115.194 55.9262 114.158 56.3144 113.171 56.8396C112.517 57.1854 111.852 57.6813 111.09 57.74C110.165 57.8085 109.354 57.205 108.667 56.67C106.531 55.0063 104.359 53.5481 101.61 53.1469C100.281 52.9512 98.7962 53.0947 97.767 53.9102C96.7119 52.514 95.1389 51.5191 93.4063 51.1537C91.1135 50.6709 88.9348 51.3593 87.1338 52.7424C86.1177 52.2433 84.3395 51.5256 84.1148 51.4636C77.3408 49.5977 68.0917 54.3311 69.2902 62.3135C70.3193 69.1737 78.992 72.3445 85.0007 70.9353C86.2968 73.3917 89.4038 73.9625 91.7975 72.6838C91.9798 72.8241 92.1622 72.9643 92.3478 73.1013C96.168 75.9068 100.613 77.7303 105.414 76.9017C107.238 76.5853 108.944 75.9263 110.514 74.9803C112.005 76.1025 113.969 76.4581 115.777 75.5903C117.122 74.9477 118.024 73.7603 118.346 72.4163C118.369 72.4163 118.392 72.4163 118.415 72.4163C122.407 72.3674 126.641 70.3807 127.661 66.1889C128.589 62.3787 126.524 58.226 123.052 56.5004Z" fill="#4E5567"/>
<path d="M104.899 55.2575C106.212 56.3308 106.99 57.802 106.173 59.4233C105.508 60.7444 104.313 61.7068 103.443 62.8779C102.424 64.248 102.248 66.0063 103.919 67.0077C105.564 67.9929 107.625 66.7663 108.996 65.8366C110.69 64.6851 112.507 61.3545 113.966 59.9256C120.447 53.5808 126.882 60.3628 126.908 60.3856C126.068 58.735 124.726 57.3355 123.052 56.5004C120.974 55.4663 118.548 55.2445 116.288 55.7045C115.194 55.9263 114.158 56.3145 113.171 56.8397C112.517 57.1855 111.852 57.6813 111.09 57.74C110.165 57.8085 109.354 57.205 108.667 56.67C106.531 55.0064 104.359 53.5482 101.61 53.1469C100.31 52.9577 98.8612 53.0947 97.8353 53.8646C100.073 52.9936 103.105 53.7863 104.899 55.2575Z" fill="#3F4553"/>
<path d="M122.16 71.3399C120.574 71.5258 119.089 71.4378 117.63 70.7886C117.001 72.4229 115.715 74.0736 113.897 74.3313C112.676 74.5042 111.233 74.1225 110.983 72.8274C102.398 79.8279 92.7742 72.0184 91.846 70.5537C89.169 72.3022 85.795 70.1688 84.7952 67.4384C82.7565 68.2311 80.4051 67.9864 78.425 67.135C74.7352 65.5529 72.6899 61.1914 73.9796 57.3421C75.0543 54.142 77.917 51.9531 81.089 51.0625C74.9045 51.0266 68.264 55.4762 69.2899 62.3136C70.319 69.1738 78.9885 72.3446 85.0004 70.9354C86.2966 73.3918 89.4035 73.9626 91.7972 72.6839C91.9795 72.8242 92.1619 72.9644 92.3476 73.1014C96.1677 75.9069 100.613 77.7304 105.414 76.9018C107.237 76.5854 108.944 75.9264 110.514 74.9804C112.005 76.1026 113.969 76.4582 115.776 75.5904C117.121 74.9478 118.024 73.7604 118.346 72.4164C118.369 72.4164 118.392 72.4164 118.414 72.4164C120.32 72.3936 122.277 71.9271 123.918 70.9941C123.342 71.167 122.743 71.2714 122.16 71.3399Z" fill="#3F4553"/>
<path d="M74.644 73.4472C73.5041 73.6364 71.651 73.6984 70.5991 72.5697C70.3907 72.3446 70.1074 72.599 70.3679 72.8241C70.4102 72.86 70.4526 72.8926 70.4949 72.9252C70.3711 72.9611 70.2409 72.9774 70.1041 72.9676C70.1008 72.9676 70.1008 72.9709 70.1041 72.9742C70.2702 73.0296 70.4395 73.0459 70.6056 73.0133C70.6089 73.0166 70.6121 73.0198 70.6154 73.0198C70.4721 73.1144 70.2995 73.1536 70.1302 73.209C70.1269 73.209 70.1269 73.2123 70.1302 73.2156C70.3386 73.2351 70.5568 73.209 70.7294 73.0981C70.7489 73.1112 70.7685 73.1177 70.788 73.1307C70.6577 73.2319 70.5112 73.3069 70.3451 73.346C70.3288 73.3493 70.3321 73.3754 70.3484 73.3754C70.56 73.3852 70.762 73.333 70.9313 73.2156C70.9671 73.2351 71.0062 73.2514 71.042 73.271C70.9215 73.3591 70.7978 73.4374 70.6577 73.5026C70.6447 73.5091 70.6512 73.532 70.6643 73.532C70.8499 73.5385 71.0127 73.4439 71.1593 73.333C71.2049 73.3558 71.2505 73.3721 71.2993 73.3917C71.2374 73.4537 71.1658 73.5124 71.0974 73.5711C71.0876 73.5809 71.0974 73.594 71.1104 73.594C71.2277 73.5646 71.3351 73.5157 71.4263 73.4472C72.4717 73.8778 73.6963 73.8908 74.7449 73.5124C74.8557 73.4667 74.771 73.4276 74.644 73.4472Z" fill="#3F4553"/>
<path d="M79.3239 73.4472C80.4637 73.6364 82.3168 73.6984 83.3687 72.5697C83.5772 72.3446 83.8605 72.599 83.6 72.8241C83.5576 72.86 83.5153 72.8926 83.4729 72.9252C83.6 72.9611 83.727 72.9774 83.8638 72.9676C83.867 72.9676 83.867 72.9709 83.8638 72.9742C83.6977 73.0296 83.5283 73.0459 83.3622 73.0133C83.359 73.0166 83.3557 73.0198 83.3524 73.0198C83.4957 73.1144 83.6683 73.1536 83.8377 73.209C83.841 73.209 83.841 73.2123 83.8377 73.2156C83.6293 73.2351 83.4111 73.209 83.2385 73.0981C83.2189 73.1112 83.1994 73.1177 83.1798 73.1307C83.3101 73.2319 83.4567 73.3069 83.6228 73.346C83.639 73.3493 83.6358 73.3754 83.6195 73.3754C83.4078 73.3852 83.2059 73.333 83.0365 73.2156C83.0007 73.2351 82.9616 73.2514 82.9258 73.271C83.0463 73.3591 83.1701 73.4374 83.3101 73.5026C83.3231 73.5091 83.3166 73.532 83.3036 73.532C83.118 73.5385 82.9551 73.4439 82.8086 73.333C82.763 73.3558 82.7174 73.3721 82.6718 73.3917C82.7337 73.4537 82.8053 73.5124 82.8737 73.5711C82.8835 73.5809 82.8737 73.594 82.8607 73.594C82.7434 73.5646 82.636 73.5157 82.5448 73.4472C81.4994 73.8778 80.2748 73.8908 79.2229 73.5124C79.1154 73.4667 79.1969 73.4276 79.3239 73.4472Z" fill="#3F4553"/>
<path d="M77.7021 75.8253C77.168 76.1026 76.6371 76.2135 76.0867 75.8808C76.0477 75.8579 76.0021 75.9134 76.0379 75.946C76.5101 76.3668 77.3503 76.4745 77.8226 75.9819C77.9007 75.8971 77.803 75.7731 77.7021 75.8253Z" fill="#3F4553"/>
<path d="M78.9232 77.7498C78.2556 77.9488 77.5977 78.0238 76.9464 77.9945C76.295 78.0238 75.6372 77.9488 74.9695 77.7498C74.9533 77.7433 74.9402 77.7726 74.9565 77.7792C75.5981 78.0532 76.2722 78.2 76.9464 78.2163C77.6205 78.2 78.2947 78.0532 78.9362 77.7792C78.9525 77.7726 78.9395 77.7465 78.9232 77.7498Z" fill="#3F4553"/>
<path d="M73.885 75.0456C73.8296 75.0195 73.771 74.9967 73.7124 74.9804C72.9666 74.7879 72.084 74.4226 71.3057 74.5563C70.7553 74.6509 70.6283 75.3196 70.9409 75.7144C71.2764 76.1384 71.9342 76.2591 72.4423 76.2983C72.9536 76.3374 73.7547 76.3929 74.1358 75.9916C74.481 75.6295 74.2465 75.2218 73.885 75.0456Z" fill="#FBAD8B"/>
<path d="M79.9814 75.0456C80.0368 75.0195 80.0954 74.9967 80.154 74.9804C80.8998 74.7879 81.7824 74.4226 82.5607 74.5563C83.1111 74.6509 83.2381 75.3196 82.9255 75.7144C82.59 76.1384 81.9322 76.2591 81.4241 76.2983C80.9128 76.3374 80.1117 76.3929 79.7306 75.9916C79.3854 75.6295 79.6232 75.2218 79.9814 75.0456Z" fill="#FBAD8B"/>
<path d="M67.0951 70.1621C66.3232 70.0479 65.496 70.3676 65.636 71.2843C65.7468 72.015 66.5316 72.7424 67.7301 72.5239C67.4044 71.7671 67.1797 70.9711 67.0951 70.1621Z" fill="#F9CDB9"/>
<path d="M66.3492 70.8799C66.5609 70.7037 66.8898 70.6254 67.1731 70.6711C67.1569 70.583 67.1471 70.4917 67.1341 70.4036C66.7465 70.3677 66.2906 70.5276 66.0691 70.8081C65.7239 71.2485 65.9844 71.7378 66.3655 72.0379C66.4208 72.0836 66.499 72.0118 66.4469 71.9564C66.1701 71.6628 65.9779 71.1898 66.3492 70.8799Z" fill="#F8C4AB"/>
<path d="M67.3263 71.3691C67.1244 71.1864 66.8606 71.0853 66.5578 71.0983C66.4894 71.1016 66.4633 71.2158 66.5415 71.2256C66.8183 71.2647 67.056 71.4082 67.2026 71.6301C67.0332 71.7214 66.9095 71.9204 67.0821 72.0835C67.2189 72.214 67.4208 72.2433 67.6129 72.2238C67.5055 71.9432 67.4045 71.6594 67.3263 71.3691Z" fill="#F8C4AB"/>
<path d="M67.0268 72.3119C67.0235 72.3086 67.017 72.3119 67.0203 72.3151C67.144 72.6218 67.3199 73.3394 66.8965 73.4862C66.6132 73.5841 66.5871 73.2187 66.6295 73.0263C66.6686 72.8501 66.7663 72.6674 66.8477 72.5109C66.8477 72.5109 66.6523 72.4684 66.4732 72.3771C66.2289 72.5859 66.141 72.8958 66.1833 73.222C66.2224 73.5188 66.4113 73.8451 66.7467 73.8548C67.0463 73.8646 67.2613 73.6069 67.3069 73.3329C67.359 72.9773 67.2157 72.6022 67.0268 72.3119Z" fill="#FDCA27"/>
<path d="M129.347 128.492C127.517 126.31 123.557 126.134 120.958 125.863C113.145 125.047 105.134 125.25 97.3174 125.883C93.4256 126.199 89.5534 126.672 85.6974 127.295C82.9064 127.748 79.7897 128.065 77.0019 128.959C74.2142 128.065 71.0975 127.745 68.3065 127.295C64.4538 126.669 60.5783 126.196 56.6865 125.883C48.8703 125.25 40.8555 125.047 33.0459 125.863C30.4503 126.134 26.4868 126.31 24.6566 128.492C22.8881 130.6 25.0702 133.154 26.7506 134.495C29.0727 136.347 32.02 137.261 34.8338 138.06C38.3674 139.058 41.9823 139.737 45.6169 140.252C61.8842 142.549 70.7165 140.856 79.2198 140.751C79.5455 141.166 79.8516 141.596 80.1317 142.043C88.7522 142.099 99.8251 141.41 108.384 140.252C112.022 139.76 115.633 139.062 119.167 138.06C121.984 137.264 124.928 136.351 127.25 134.495C128.93 133.154 131.112 130.6 129.347 128.492Z" fill="#93BFA8"/>
<path d="M117.805 130.003C118.076 129.657 119.714 129.23 120.359 128.943C117.32 129.187 114.269 129.553 111.237 129.866C105.469 130.459 99.6948 131.989 94.23 133.904C91.6148 134.821 89.0062 135.783 86.4073 136.749C84.3491 137.512 82.3136 138.347 80.3824 139.388C80.6787 139.297 80.9751 139.205 81.2715 139.117C84.3523 138.21 96.907 131.409 120.154 130.57C119.616 130.453 117.701 130.136 117.805 130.003Z" fill="#66A986"/>
<path d="M36.5403 129.523C36.27 129.177 34.6319 128.75 33.9871 128.463C37.0256 128.707 40.0771 129.073 43.1092 129.386C48.8768 129.98 54.651 131.51 60.1158 133.425C62.7309 134.341 65.3396 135.304 67.9385 136.269C69.9967 137.032 72.0322 137.868 73.9634 138.908C73.667 138.817 73.3707 138.725 73.0743 138.637C69.9934 137.731 57.4388 130.929 34.1922 130.091C34.7263 129.973 36.6413 129.657 36.5403 129.523Z" fill="#66A986"/>
<path d="M84.8605 136.736C83.5513 136.211 82.1672 136.198 80.8938 136.742C78.7183 137.679 76.051 136.243 73.7909 136.501C71.7098 136.739 70.443 139.111 72.0355 140.624C72.4198 140.99 76.2823 142.392 82.4017 139.535C83.0725 139.221 83.7271 139.042 84.486 139.052C84.6618 139.055 84.8279 139.221 85.0136 139.202C85.4109 139.153 85.7365 139.081 85.958 138.696C86.4791 137.789 85.6095 137.036 84.8605 136.736Z" fill="#FDB597"/>
<path d="M69.5863 141.547C70.6903 140.67 72.0158 140.259 73.3869 140.419C75.7383 140.693 77.8845 138.553 80.1251 138.152C82.1866 137.783 84.0788 139.691 82.9845 141.603C82.7207 142.063 79.4184 144.513 72.7388 143.527C72.0061 143.42 71.3287 143.436 70.6057 143.661C70.4396 143.713 70.3256 143.922 70.14 143.955C69.7459 144.023 69.4137 144.046 69.0913 143.743C68.3357 143.022 68.9545 142.05 69.5863 141.547Z" fill="#FDBCA0"/>
<path d="M113.969 87.957C113.216 88.3452 112.425 88.7823 111.686 89.1901C112.077 88.8704 114.246 86.6587 115.089 86.1139C115.18 86.0552 114.965 85.1581 112.747 86.9327C112.086 87.4611 111.305 87.9961 110.683 88.5735C111.474 87.0697 112.135 85.5463 113.171 84.1697C113.213 84.1142 113.2 84.0522 113.164 84.0098C112.953 83.8434 112.422 84.0326 112.184 84.2871C111.761 84.7373 110.152 86.4792 109.37 88.3158C109.383 87.6862 109.328 86.6652 108.882 86.4564C108.602 86.3227 108.136 86.4988 107.836 86.5217C107.247 86.5641 106.475 86.6489 105.925 86.414C105.843 86.3814 105.638 86.3553 105.713 86.626C105.964 87.5133 107.201 87.6243 107.97 87.82C108.23 88.4528 107.498 89.4902 107.035 89.8033C106.283 90.3155 105.185 89.8131 105.374 88.8084C105.54 87.9244 106.068 87.5231 105.602 86.6554C105.449 86.3683 104.791 86.1074 104.938 86.5706C105.316 87.7547 104.231 88.7497 104.091 89.8947C103.98 90.8016 104.459 91.6073 104.941 92.3348C104.912 92.4098 104.889 92.4848 104.863 92.5566C104.208 93.6918 103.7 94.889 103.332 96.1417C104.172 96.4189 106.641 96.2428 106.631 96.2232C106.641 96.2428 106.928 94.4878 107.585 93.7473C108.305 92.935 109.211 92.3087 110.077 91.6693C111.897 90.322 113.747 89.0139 115.623 87.7417C115.731 87.6732 115.643 87.0925 113.969 87.957Z" fill="#FDBCA0"/>
<path d="M40.2334 87.957C40.9857 88.3452 41.7771 88.7823 42.5163 89.1901C42.1255 88.8704 39.9565 86.6587 39.1131 86.1139C39.0219 86.0552 39.2368 85.1581 41.4546 86.9327C42.1158 87.4611 42.8974 87.9961 43.5194 88.5735C42.728 87.0697 42.0669 85.5463 41.0313 84.1697C40.9889 84.1142 41.002 84.0522 41.0378 84.0098C41.2495 83.8434 41.7803 84.0326 42.0181 84.2871C42.4414 84.7373 44.0503 86.4792 44.8319 88.3158C44.8188 87.6862 44.8742 86.6652 45.3204 86.4564C45.6005 86.3227 46.0662 86.4988 46.3658 86.5217C46.9553 86.5641 47.7271 86.6489 48.2775 86.414C48.3589 86.3814 48.5641 86.3553 48.4892 86.626C48.2384 87.5133 47.0009 87.6243 46.2323 87.82C45.9717 88.4528 46.7045 89.4902 47.1669 89.8033C47.9192 90.3155 49.0168 89.8131 48.8279 88.8084C48.6618 87.9244 48.1342 87.5231 48.5999 86.6554C48.753 86.3683 49.4108 86.1074 49.2643 86.5706C48.8865 87.7547 49.971 88.7497 50.111 89.8947C50.2218 90.8016 49.743 91.6073 49.261 92.3348C49.2903 92.4098 49.3131 92.4848 49.3392 92.5566C49.9938 93.6918 50.5018 94.889 50.8698 96.1417C50.0296 96.4189 47.561 96.2428 47.5708 96.2232C47.561 96.2428 47.2744 94.4878 46.6166 93.7473C45.8968 92.935 44.9915 92.3087 44.1252 91.6693C42.3046 90.322 40.4548 89.0139 38.579 87.7417C38.4715 87.6732 38.5594 87.0925 40.2334 87.957Z" fill="#FDBCA0"/>
<path d="M102.453 94.9869C101.232 98.1414 97.0895 109.787 95.3602 114.726C94.3311 112.084 91.5498 100.611 89.2083 87.2916C88.4788 83.1519 83.8184 83.7424 81.3237 84.1567C81.1446 86.936 78.4513 94.6411 77.0053 94.6575C75.5593 94.6411 72.6934 87.4808 72.6869 84.1567C70.1955 83.7424 65.5318 83.1519 64.8023 87.2916C62.4575 100.611 59.6795 112.087 58.6504 114.726C56.9178 109.787 52.7785 98.1414 51.5572 94.9869C49.9907 95.7274 48.2582 96.1352 46.5288 96.2363C47.8674 99.8018 52.2867 125.051 58.8002 125.051C61.6238 125.051 63.4117 122.046 66.2907 110.916C66.434 112.775 66.4828 116.347 66.4112 120.102C66.3591 122.806 64.493 125.931 61.995 125.328C61.4902 125.207 60.8324 125.589 61.4577 126.267C61.627 126.453 61.8452 126.59 62.0699 126.695C66.0594 128.587 66.2158 131.415 68.5704 133.062C69.9936 134.057 71.7457 134.371 73.4164 134.71C75.2271 135.075 77.0932 135.349 78.9365 135.072C82.0011 134.612 84.3818 132.56 86.9188 130.955C88.3355 130.058 89.7749 129.34 91.4391 129.096C95.7217 128.466 95.4384 125.439 94.5428 125.501C91.5433 125.706 87.5929 121.877 87.5701 117.662C87.5538 114.857 87.6092 112.368 87.7199 110.916C90.5989 122.046 92.3868 125.051 95.2104 125.051C101.724 125.051 106.143 99.8018 107.482 96.2363C105.752 96.1352 104.02 95.7242 102.453 94.9869Z" fill="#F2EDE4"/>
<path d="M85.2222 106.013C85.1896 106.036 85.1636 106.059 85.1375 106.081C84.6067 106.6 84.1931 107.223 83.672 107.752C83.1509 108.277 82.4768 108.717 81.7375 108.714C79.9626 108.704 79.0735 106.571 78.0053 105.484C76.3639 103.821 74.7714 107.611 73.5501 108.355C72.2962 109.118 71.4462 108.658 70.5213 107.755C69.9546 107.2 69.4727 106.577 68.9483 105.984C68.8115 105.827 68.4989 105.993 68.5836 106.196C69.1958 107.67 70.5799 110.117 72.407 110.156C73.5273 110.179 74.4457 109.536 75.1817 108.747C75.5432 108.358 76.5398 106.274 77.1878 106.548C77.3083 106.6 77.393 106.708 77.4744 106.812C77.7969 107.236 78.0965 107.683 78.4417 108.088C78.6208 108.296 79.1386 108.642 79.1386 108.929C79.8714 109.676 80.8777 110.263 81.9166 110.136C82.9783 110.006 83.8186 109.174 84.4341 108.296C84.8705 107.673 85.2385 107.001 85.5283 106.297C85.5707 106.196 85.6065 106.068 85.5316 105.987C85.4502 105.902 85.3264 105.941 85.2222 106.013Z" fill="#D9C9AC"/>
<g clip-path="url(#clip2)">
<path d="M152.49 101.295L163.635 97.5589L158.048 81.1592L146.903 84.8949C146.466 85.0406 146.229 85.5101 146.38 85.9431L151.433 100.773C151.58 101.206 152.053 101.44 152.49 101.295Z" fill="#3F4553"/>
<path d="M152.498 100.971L163.921 97.1421L158.538 81.3454L147.115 85.1741C146.833 85.2672 146.682 85.5708 146.776 85.8541L151.812 100.635C151.91 100.914 152.216 101.064 152.498 100.971Z" fill="#DDDDE3"/>
<path d="M152.739 100.89L164.162 97.0613L158.779 81.2646L147.356 85.0933C147.074 85.1864 146.923 85.49 147.017 85.7733L152.053 100.554C152.151 100.833 152.457 100.987 152.739 100.89Z" fill="#E2E5FF"/>
<path d="M153.355 101.003L164.5 97.2675L158.913 80.8718L147.768 84.6075C147.331 84.7532 147.094 85.2227 147.245 85.6557L152.298 100.485C152.445 100.918 152.918 101.149 153.355 101.003Z" fill="#4E5567"/>
<path d="M158.289 81.0813L158.049 81.1616L163.636 97.5615L163.876 97.4812L158.289 81.0813Z" fill="#3F4553"/>
<path d="M159.881 93.892L160.13 93.3659L160.652 93.633L156.571 81.657C156.497 81.4465 156.314 81.4627 156.102 81.5356C155.889 81.6084 155.73 81.7056 155.804 81.916L159.881 93.892Z" fill="#93BFA8"/>
<path d="M134.838 85.4296L142.34 76.6092L140.823 75.3411L133.322 84.1614L134.838 85.4296Z" fill="#3F4553"/>
<path d="M133.321 84.1584L134.835 85.4253L132.647 86.6192C132.574 86.6597 132.476 86.5747 132.5 86.4978L133.321 84.1584Z" fill="#F2EDE4"/>
<path d="M132.651 86.6231L133.243 86.2994L132.729 85.8663L132.509 86.4977C132.48 86.5746 132.578 86.6596 132.651 86.6231Z" fill="#3F4553"/>
<path d="M134.336 85.0094L141.837 76.1891L141.322 75.7586L133.821 84.5789L134.336 85.0094Z" fill="#4E5567"/>
</g>
<g clip-path="url(#clip3)">
<path d="M52.0028 0.339355C42.3335 0.339355 34.5 8.17287 34.5 17.8421C34.5 27.5058 42.3335 35.3449 52.0028 35.3449C61.6665 35.3449 69.5055 27.5114 69.5055 17.8421C69.5 8.17287 61.6665 0.339355 52.0028 0.339355ZM52.0028 32.3846C43.9708 32.3846 37.4603 25.8741 37.4603 17.8421C37.4603 9.81014 43.9708 3.29966 52.0028 3.29966C60.0347 3.29966 66.5452 9.81014 66.5452 17.8421C66.5452 25.8741 60.0347 32.3846 52.0028 32.3846Z" fill="#808AFF"/>
<path d="M65.4209 23.4491C68.5195 16.0391 65.0244 7.52031 57.6145 4.42173C50.2046 1.32315 41.6857 4.81818 38.5872 12.2281C35.4886 19.638 38.9836 28.1569 46.3936 31.2555C53.8035 34.354 62.3223 30.859 65.4209 23.4491Z" fill="#AEB4FC"/>
<path d="M52.0311 4.60085C51.0113 4.60085 51.0058 6.1885 52.0311 6.1885C53.0565 6.1885 53.0565 4.60085 52.0311 4.60085Z" fill="#808AFF"/>
<path d="M65.2383 17.869C65.2383 16.8491 63.6506 16.8436 63.6506 17.869C63.6506 18.8943 65.2383 18.8943 65.2383 17.869Z" fill="#808AFF"/>
<path d="M51.969 31.0777C52.9888 31.0777 52.9943 29.49 51.969 29.49C50.9491 29.49 50.9436 31.0777 51.969 31.0777Z" fill="#808AFF"/>
<path d="M38.7618 17.8091C38.7618 18.829 40.3495 18.8345 40.3495 17.8091C40.3495 16.7893 38.7618 16.7838 38.7618 17.8091Z" fill="#808AFF"/>
<path d="M58.2544 22.0924C58.1607 22.0924 58.067 22.0703 57.9843 22.0152L51.7274 18.2941C51.5675 18.2004 51.4683 18.024 51.4683 17.8366V7.83657C51.4683 7.5444 51.7053 7.30736 51.9975 7.30736C52.2897 7.30736 52.5267 7.5444 52.5267 7.83657V17.5389L58.5245 21.1056C58.7781 21.2544 58.8608 21.5797 58.7064 21.8333C58.6127 21.9986 58.4363 22.0924 58.2544 22.0924Z" fill="#808AFF"/>
</g>
<path d="M17.1207 53.7459L16.7715 51.7649L14.7463 52.11C14.425 51.1851 13.9013 50.3706 13.2239 49.7079L14.4111 48.0444L12.749 46.8917L11.5688 48.5483C10.7168 48.1342 9.76706 47.9064 8.77541 47.9133L8.41925 45.9046L6.415 46.2498L6.76417 48.2515C5.82839 48.569 5.00434 49.0867 4.33392 49.7562L2.65091 48.5828L1.48467 50.2256L3.1607 51.3921C2.74169 52.2343 2.51124 53.173 2.51822 54.1531L0.5 54.4983L0.849173 56.4793L2.87438 56.1342C3.19562 57.0591 3.71938 57.8736 4.39677 58.5362L3.20959 60.1997L4.87165 61.3525L6.05186 59.6959C6.90384 60.11 7.85359 60.3378 8.84524 60.3309L9.2014 62.3395L11.2057 61.9944L10.8565 59.9927C11.7923 59.6752 12.6163 59.1575 13.2867 58.4879L14.9697 59.6614L16.136 58.0186L14.46 56.852C14.879 56.0099 15.1094 55.0712 15.1024 54.091L17.1207 53.7459ZM9.13157 55.9616C8.105 56.1411 7.12731 55.4577 6.94574 54.4431C6.76417 53.4284 7.45553 52.462 8.4821 52.2826C9.50867 52.1031 10.4864 52.7865 10.6679 53.8011C10.8495 54.8158 10.1651 55.7821 9.13157 55.9616Z" fill="#9BA3FF"/>
<path d="M36.2278 49.7492V47.2574H33.6788C33.4903 46.0564 33.0224 44.952 32.338 43.9994L34.1467 42.2117L32.3659 40.4515L30.5642 42.2324C29.6074 41.549 28.4971 41.0727 27.282 40.8726V38.3394H24.7609V40.8588C23.5458 41.0451 22.4215 41.5076 21.4647 42.1841L19.656 40.3963L17.8752 42.1564L19.677 43.9373C18.9856 44.8829 18.5037 45.9804 18.3012 47.1815H15.7383V49.6733H18.2872C18.4758 50.8743 18.9437 51.9787 19.6281 52.9313L17.8194 54.719L19.6001 56.4792L21.4019 54.6983C22.3586 55.3817 23.469 55.8579 24.6841 56.0581V58.5913H27.2051V56.0719C28.4203 55.8855 29.5376 55.4231 30.5013 54.7466L32.31 56.5344L34.0908 54.7742L32.2891 52.9934C32.9805 52.0477 33.4623 50.9502 33.6648 49.7492H36.2278ZM25.983 50.7846C24.6911 50.7846 23.6366 49.7492 23.6366 48.4653C23.6366 47.1884 24.6841 46.1461 25.983 46.1461C27.275 46.1461 28.3295 47.1815 28.3295 48.4653C28.3225 49.7423 27.275 50.7846 25.983 50.7846Z" fill="#AEB4FC"/>
<g opacity="0.3">
<path d="M154.495 31.2365L135.766 27.027C135.582 26.987 135.466 26.8035 135.509 26.6201L137.867 16.1199C137.907 15.9364 138.091 15.8197 138.274 15.863L157.003 20.0758C157.187 20.1158 157.303 20.2993 157.26 20.4827L154.898 30.983C154.858 31.1631 154.678 31.2798 154.495 31.2365Z" fill="#ECECEC"/>
<path d="M135.819 26.7802C135.769 26.7702 135.739 26.7201 135.753 26.6734L138.114 16.1732C138.124 16.1232 138.174 16.0932 138.221 16.1065L156.95 20.3193C157 20.3293 157.03 20.3793 157.017 20.426L154.655 30.9262C154.645 30.9763 154.595 31.0063 154.548 30.993L135.819 26.7802Z" fill="#F5F4F5"/>
<path d="M154.367 19.48L140.914 16.4546L140.859 16.6987L154.312 19.724L154.367 19.48Z" fill="#706F6E"/>
<path d="M139.605 17.9643L138.985 17.8242C138.908 17.8076 138.858 17.7308 138.875 17.6508L138.971 17.2138C138.988 17.1371 139.065 17.0871 139.145 17.1038L139.765 17.2439C139.842 17.2605 139.892 17.3373 139.875 17.4173L139.779 17.8543C139.759 17.931 139.682 17.981 139.605 17.9643Z" fill="#585857"/>
<path d="M139.011 17.7009C139.001 17.6975 138.994 17.6875 138.998 17.6775L139.094 17.2406C139.098 17.2306 139.108 17.2239 139.118 17.2272L139.738 17.3673C139.748 17.3707 139.755 17.3807 139.752 17.3907L139.655 17.8276C139.652 17.8376 139.642 17.8443 139.632 17.841L139.011 17.7009Z" fill="#5E5E5D"/>
<path d="M140.742 18.2179L140.122 18.0778C140.045 18.0612 139.995 17.9844 140.012 17.9044L140.109 17.4674C140.125 17.3907 140.202 17.3407 140.282 17.3574L140.902 17.4975C140.979 17.5141 141.029 17.5909 141.012 17.6709L140.916 18.1079C140.896 18.1879 140.819 18.2346 140.742 18.2179Z" fill="#585857"/>
<path d="M140.149 17.9576C140.139 17.9543 140.132 17.9442 140.135 17.9342L140.232 17.4973C140.235 17.4873 140.245 17.4806 140.255 17.4839L140.876 17.624C140.886 17.6274 140.892 17.6374 140.889 17.6474L140.792 18.0843C140.789 18.0943 140.779 18.101 140.769 18.0977L140.149 17.9576Z" fill="#5E5E5D"/>
<path d="M141.88 18.4747L141.259 18.3346C141.183 18.3179 141.133 18.2412 141.149 18.1611L141.246 17.7242C141.263 17.6475 141.339 17.5974 141.42 17.6141L142.04 17.7542C142.117 17.7709 142.167 17.8476 142.15 17.9276L142.053 18.3646C142.033 18.4413 141.957 18.4913 141.88 18.4747Z" fill="#585857"/>
<path d="M141.286 18.2112C141.276 18.2079 141.269 18.1978 141.273 18.1878L141.37 17.7509C141.373 17.7409 141.383 17.7342 141.393 17.7375L142.013 17.8776C142.023 17.881 142.03 17.891 142.027 17.901L141.93 18.3379C141.927 18.3479 141.917 18.3546 141.907 18.3513L141.286 18.2112Z" fill="#5E5E5D"/>
<path d="M143.017 18.728L142.397 18.5879C142.32 18.5713 142.27 18.4945 142.287 18.4145L142.384 17.9775C142.4 17.9008 142.477 17.8508 142.557 17.8675L143.177 18.0076C143.254 18.0242 143.304 18.101 143.287 18.181L143.191 18.618C143.171 18.698 143.094 18.748 143.017 18.728Z" fill="#585857"/>
<path d="M142.424 18.4679C142.414 18.4646 142.407 18.4546 142.41 18.4446L142.507 18.0076C142.51 17.9976 142.52 17.9909 142.53 17.9943L143.151 18.1344C143.161 18.1377 143.167 18.1477 143.164 18.1577L143.067 18.5947C143.064 18.6047 143.054 18.6113 143.044 18.608L142.424 18.4679Z" fill="#5E5E5D"/>
<path d="M144.151 18.985L143.531 18.8449C143.454 18.8282 143.404 18.7515 143.421 18.6715L143.518 18.2345C143.534 18.1578 143.611 18.1077 143.691 18.1244L144.311 18.2645C144.388 18.2812 144.438 18.3579 144.421 18.438L144.325 18.8749C144.308 18.955 144.231 19.0017 144.151 18.985Z" fill="#585857"/>
<path d="M143.561 18.7249C143.551 18.7215 143.544 18.7115 143.548 18.7015L143.645 18.2646C143.648 18.2546 143.658 18.2479 143.668 18.2512L144.288 18.3913C144.298 18.3946 144.305 18.4047 144.302 18.4147L144.205 18.8516C144.202 18.8616 144.192 18.8683 144.182 18.865L143.561 18.7249Z" fill="#5E5E5D"/>
<path d="M145.289 19.2417L144.668 19.1016C144.592 19.0849 144.542 19.0082 144.558 18.9282L144.655 18.4912C144.672 18.4145 144.748 18.3645 144.829 18.3811L145.449 18.5212C145.526 18.5379 145.576 18.6146 145.559 18.6947L145.462 19.1316C145.446 19.2083 145.369 19.2584 145.289 19.2417Z" fill="#585857"/>
<path d="M144.698 18.9782C144.688 18.9749 144.682 18.9649 144.685 18.9549L144.782 18.5179C144.785 18.5079 144.795 18.5013 144.805 18.5046L145.425 18.6447C145.435 18.648 145.442 18.658 145.439 18.668L145.342 19.105C145.339 19.115 145.329 19.1217 145.319 19.1183L144.698 18.9782Z" fill="#5E5E5D"/>
<path d="M146.426 19.4953L145.806 19.3552C145.729 19.3385 145.679 19.2618 145.696 19.1818L145.793 18.7448C145.809 18.6681 145.886 18.6181 145.966 18.6347L146.586 18.7748C146.663 18.7915 146.713 18.8682 146.696 18.9483L146.6 19.3852C146.583 19.4653 146.503 19.5153 146.426 19.4953Z" fill="#585857"/>
<path d="M145.836 19.2352C145.826 19.2319 145.819 19.2219 145.822 19.2118L145.919 18.7749C145.922 18.7649 145.933 18.7582 145.943 18.7615L146.563 18.9016C146.573 18.905 146.58 18.915 146.576 18.925L146.48 19.3619C146.476 19.3719 146.466 19.3786 146.456 19.3753L145.836 19.2352Z" fill="#5E5E5D"/>
<path d="M147.564 19.7522L146.943 19.6122C146.867 19.5955 146.817 19.5188 146.833 19.4387L146.93 19.0018C146.947 18.925 147.024 18.875 147.104 18.8917L147.724 19.0318C147.801 19.0485 147.851 19.1252 147.834 19.2052L147.737 19.6422C147.717 19.7222 147.641 19.7689 147.564 19.7522Z" fill="#585857"/>
<path d="M146.973 19.4919C146.963 19.4886 146.957 19.4786 146.96 19.4686L147.057 19.0316C147.06 19.0216 147.07 19.0149 147.08 19.0183L147.7 19.1584C147.71 19.1617 147.717 19.1717 147.714 19.1817L147.617 19.6187C147.614 19.6287 147.604 19.6353 147.594 19.632L146.973 19.4919Z" fill="#5E5E5D"/>
<path d="M148.701 20.009L148.081 19.8689C148.004 19.8522 147.954 19.7755 147.971 19.6954L148.068 19.2585C148.084 19.1818 148.161 19.1317 148.241 19.1484L148.861 19.2885C148.938 19.3052 148.988 19.3819 148.972 19.462L148.875 19.8989C148.855 19.9756 148.778 20.0257 148.701 20.009Z" fill="#585857"/>
<path d="M148.107 19.7455C148.097 19.7422 148.091 19.7322 148.094 19.7222L148.191 19.2852C148.194 19.2752 148.204 19.2685 148.214 19.2719L148.834 19.412C148.844 19.4153 148.851 19.4253 148.848 19.4353L148.751 19.8723C148.748 19.8823 148.738 19.8889 148.728 19.8856L148.107 19.7455Z" fill="#5E5E5D"/>
<path d="M149.838 20.2626L149.218 20.1225C149.141 20.1058 149.091 20.0291 149.108 19.949L149.205 19.5121C149.221 19.4354 149.298 19.3853 149.378 19.402L149.999 19.5421C150.075 19.5588 150.125 19.6355 150.109 19.7156L150.012 20.1525C149.992 20.2326 149.915 20.2826 149.838 20.2626Z" fill="#585857"/>
<path d="M149.245 20.0025C149.235 19.9991 149.228 19.9891 149.231 19.9791L149.328 19.5421C149.331 19.5321 149.342 19.5255 149.352 19.5288L149.972 19.6689C149.982 19.6722 149.989 19.6822 149.985 19.6922L149.889 20.1292C149.885 20.1392 149.875 20.1459 149.865 20.1425L149.245 20.0025Z" fill="#5E5E5D"/>
<path d="M150.976 20.5193L150.356 20.3792C150.279 20.3625 150.229 20.2858 150.245 20.2058L150.342 19.7688C150.359 19.6921 150.436 19.6421 150.516 19.6587L151.136 19.7988C151.213 19.8155 151.263 19.8922 151.246 19.9723L151.149 20.4092C151.129 20.4893 151.053 20.536 150.976 20.5193Z" fill="#585857"/>
<path d="M150.382 20.2592C150.372 20.2558 150.365 20.2458 150.368 20.2358L150.465 19.7989C150.469 19.7889 150.479 19.7822 150.489 19.7855L151.109 19.9256C151.119 19.929 151.126 19.939 151.122 19.949L151.026 20.3859C151.022 20.3959 151.012 20.4026 151.002 20.3993L150.382 20.2592Z" fill="#5E5E5D"/>
<path d="M152.113 20.7763L151.493 20.6362C151.416 20.6195 151.366 20.5428 151.383 20.4627L151.479 20.0258C151.496 19.949 151.573 19.899 151.653 19.9157L152.273 20.0558C152.35 20.0725 152.4 20.1492 152.383 20.2292L152.287 20.6662C152.266 20.7429 152.19 20.7929 152.113 20.7763Z" fill="#585857"/>
<path d="M151.519 20.5126C151.509 20.5092 151.503 20.4992 151.506 20.4892L151.603 20.0523C151.606 20.0422 151.616 20.0356 151.626 20.0389L152.247 20.179C152.257 20.1823 152.263 20.1923 152.26 20.2023L152.163 20.6393C152.16 20.6493 152.15 20.656 152.14 20.6526L151.519 20.5126Z" fill="#5E5E5D"/>
<path d="M153.251 21.0296L152.63 20.8895C152.553 20.8729 152.503 20.7961 152.52 20.7161L152.617 20.2791C152.633 20.2024 152.71 20.1524 152.79 20.1691L153.411 20.3092C153.487 20.3258 153.537 20.4025 153.521 20.4826L153.424 20.9196C153.404 20.9996 153.327 21.0496 153.251 21.0296Z" fill="#585857"/>
<path d="M152.657 20.7695C152.647 20.7662 152.64 20.7562 152.644 20.7462L152.74 20.3092C152.744 20.2992 152.754 20.2925 152.764 20.2959L153.384 20.436C153.394 20.4393 153.401 20.4493 153.397 20.4593L153.301 20.8963C153.297 20.9063 153.287 20.9129 153.277 20.9096L152.657 20.7695Z" fill="#5E5E5D"/>
<path d="M154.388 21.2864L153.768 21.1463C153.691 21.1296 153.641 21.0529 153.658 20.9728L153.754 20.5359C153.771 20.4591 153.848 20.4091 153.928 20.4258L154.548 20.5659C154.625 20.5826 154.675 20.6593 154.658 20.7393L154.562 21.1763C154.542 21.2563 154.465 21.303 154.388 21.2864Z" fill="#585857"/>
<path d="M153.794 21.0265C153.784 21.0231 153.778 21.0131 153.781 21.0031L153.878 20.5662C153.881 20.5561 153.891 20.5495 153.901 20.5528L154.522 20.6929C154.532 20.6962 154.538 20.7062 154.535 20.7162L154.438 21.1532C154.435 21.1632 154.425 21.1699 154.415 21.1665L153.794 21.0265Z" fill="#5E5E5D"/>
<path d="M155.522 21.5433L154.902 21.4032C154.825 21.3865 154.775 21.3098 154.792 21.2298L154.888 20.7928C154.905 20.7161 154.982 20.6661 155.062 20.6827L155.682 20.8228C155.759 20.8395 155.809 20.9162 155.792 20.9963L155.695 21.4332C155.679 21.5099 155.602 21.56 155.522 21.5433Z" fill="#585857"/>
<path d="M154.932 21.2798C154.922 21.2765 154.915 21.2665 154.919 21.2565L155.015 20.8195C155.019 20.8095 155.029 20.8028 155.039 20.8062L155.659 20.9463C155.669 20.9496 155.676 20.9596 155.672 20.9696L155.576 21.4066C155.572 21.4166 155.562 21.4233 155.552 21.4199L154.932 21.2798Z" fill="#5E5E5D"/>
<path d="M138.971 17.9745L139.738 18.1479C139.825 18.1679 139.882 18.2546 139.862 18.3447L139.692 19.0985C139.672 19.1852 139.585 19.242 139.495 19.2219L138.728 19.0485C138.641 19.0285 138.584 18.9418 138.604 18.8517L138.774 18.0979C138.794 18.0111 138.881 17.9544 138.971 17.9745Z" fill="#585857"/>
<path d="M138.758 18.9248C138.738 18.9215 138.725 18.8982 138.728 18.8781L138.898 18.1243C138.901 18.1043 138.925 18.091 138.945 18.0943L139.712 18.2677C139.732 18.2711 139.745 18.2944 139.742 18.3144L139.572 19.0683C139.569 19.0883 139.545 19.1016 139.525 19.0983L138.758 18.9248Z" fill="#5E5E5D"/>
<path d="M140.282 18.2711L141.049 18.4445C141.136 18.4645 141.192 18.5512 141.172 18.6413L141.002 19.3951C140.982 19.4818 140.896 19.5386 140.806 19.5185L140.038 19.3451C139.952 19.3251 139.895 19.2384 139.915 19.1483L140.085 18.3945C140.105 18.3044 140.192 18.251 140.282 18.2711Z" fill="#585857"/>
<path d="M140.069 19.2217C140.049 19.2184 140.035 19.195 140.039 19.175L140.209 18.4212C140.212 18.4012 140.235 18.3878 140.255 18.3912L141.023 18.5646C141.043 18.5679 141.056 18.5913 141.053 18.6113L140.882 19.3651C140.879 19.3851 140.856 19.3985 140.836 19.3951L140.069 19.2217Z" fill="#5E5E5D"/>
<path d="M141.593 18.5648L142.361 18.7383C142.447 18.7583 142.504 18.845 142.484 18.9351L142.314 19.6889C142.294 19.7756 142.207 19.8323 142.117 19.8123L141.35 19.6389C141.263 19.6189 141.206 19.5321 141.226 19.4421L141.397 18.6883C141.417 18.6015 141.507 18.5448 141.593 18.5648Z" fill="#585857"/>
<path d="M141.38 19.5152C141.36 19.5119 141.346 19.4885 141.35 19.4685L141.52 18.7147C141.523 18.6947 141.546 18.6813 141.566 18.6847L142.334 18.8581C142.354 18.8615 142.367 18.8848 142.364 18.9048L142.193 19.6587C142.19 19.6787 142.167 19.692 142.147 19.6887L141.38 19.5152Z" fill="#5E5E5D"/>
<path d="M142.904 18.8584L143.671 19.0318C143.758 19.0518 143.815 19.1386 143.795 19.2286L143.624 19.9825C143.604 20.0692 143.518 20.1259 143.428 20.1059L142.66 19.9324C142.574 19.9124 142.517 19.8257 142.537 19.7356L142.707 18.9818C142.727 18.8951 142.817 18.8384 142.904 18.8584Z" fill="#585857"/>
<path d="M142.691 19.8121C142.671 19.8088 142.657 19.7854 142.661 19.7654L142.831 19.0116C142.834 18.9916 142.857 18.9782 142.877 18.9816L143.645 19.155C143.665 19.1583 143.678 19.1817 143.675 19.2017L143.505 19.9555C143.501 19.9755 143.478 19.9889 143.458 19.9856L142.691 19.8121Z" fill="#5E5E5D"/>
<path d="M144.215 19.1552L144.982 19.3286C145.068 19.3487 145.125 19.4354 145.105 19.5254L144.935 20.2793C144.915 20.366 144.828 20.4227 144.738 20.4027L143.971 20.2292C143.884 20.2092 143.828 20.1225 143.848 20.0324L144.018 19.2786C144.041 19.1885 144.128 19.1352 144.215 19.1552Z" fill="#585857"/>
<path d="M144.001 20.1056C143.981 20.1023 143.968 20.0789 143.971 20.0589L144.141 19.3051C144.145 19.2851 144.168 19.2717 144.188 19.2751L144.955 19.4485C144.975 19.4519 144.989 19.4752 144.985 19.4952L144.815 20.2491C144.812 20.2691 144.788 20.2824 144.768 20.2791L144.001 20.1056Z" fill="#5E5E5D"/>
<path d="M145.526 19.4488L146.293 19.6222C146.379 19.6422 146.436 19.729 146.416 19.819L146.246 20.5728C146.226 20.6596 146.139 20.7163 146.049 20.6963L145.282 20.5228C145.195 20.5028 145.139 20.4161 145.159 20.326L145.329 19.5722C145.352 19.4855 145.439 19.4288 145.526 19.4488Z" fill="#585857"/>
<path d="M145.312 20.3994C145.292 20.396 145.279 20.3727 145.282 20.3527L145.452 19.5988C145.455 19.5788 145.479 19.5655 145.499 19.5688L146.266 19.7423C146.286 19.7456 146.299 19.769 146.296 19.789L146.126 20.5428C146.122 20.5628 146.099 20.5762 146.079 20.5728L145.312 20.3994Z" fill="#5E5E5D"/>
<path d="M146.837 19.7454L147.604 19.9188C147.691 19.9388 147.747 20.0256 147.727 20.1156L147.557 20.8694C147.537 20.9562 147.45 21.0129 147.36 20.9929L146.593 20.8194C146.506 20.7994 146.45 20.7127 146.47 20.6226L146.64 19.8688C146.663 19.7787 146.75 19.7254 146.837 19.7454Z" fill="#585857"/>
<path d="M146.623 20.696C146.603 20.6927 146.59 20.6693 146.593 20.6493L146.763 19.8955C146.766 19.8755 146.79 19.8621 146.81 19.8655L147.577 20.0389C147.597 20.0423 147.61 20.0656 147.607 20.0856L147.437 20.8394C147.433 20.8595 147.41 20.8728 147.39 20.8695L146.623 20.696Z" fill="#5E5E5D"/>
<path d="M148.151 20.0392L148.918 20.2126C149.005 20.2326 149.061 20.3194 149.041 20.4094L148.871 21.1632C148.851 21.25 148.765 21.3067 148.674 21.2867L147.907 21.1132C147.821 21.0932 147.764 21.0065 147.784 20.9164L147.954 20.1626C147.974 20.0759 148.061 20.0192 148.151 20.0392Z" fill="#585857"/>
<path d="M147.934 20.9898C147.914 20.9864 147.901 20.9631 147.904 20.9431L148.074 20.1892C148.077 20.1692 148.101 20.1559 148.121 20.1592L148.888 20.3327C148.908 20.336 148.921 20.3593 148.918 20.3794L148.748 21.1332C148.745 21.1532 148.721 21.1665 148.701 21.1632L147.934 20.9898Z" fill="#5E5E5D"/>
<path d="M149.461 20.3325L150.229 20.5059C150.315 20.5259 150.372 20.6127 150.352 20.7027L150.182 21.4565C150.162 21.5433 150.075 21.6 149.985 21.58L149.218 21.4065C149.131 21.3865 149.074 21.2998 149.095 21.2097L149.265 20.4559C149.285 20.3692 149.371 20.3125 149.461 20.3325Z" fill="#585857"/>
<path d="M149.248 21.2864C149.228 21.2831 149.215 21.2597 149.218 21.2397L149.388 20.4859C149.392 20.4659 149.415 20.4525 149.435 20.4559L150.202 20.6293C150.222 20.6326 150.235 20.656 150.232 20.676L150.062 21.4298C150.059 21.4499 150.035 21.4632 150.015 21.4599L149.248 21.2864Z" fill="#5E5E5D"/>
<path d="M150.772 20.6295L151.54 20.803C151.626 20.823 151.683 20.9097 151.663 20.9998L151.493 21.7536C151.473 21.8403 151.386 21.897 151.296 21.877L150.529 21.7036C150.442 21.6835 150.386 21.5968 150.406 21.5068L150.576 20.7529C150.596 20.6629 150.682 20.6095 150.772 20.6295Z" fill="#585857"/>
<path d="M150.559 21.5802C150.539 21.5768 150.525 21.5535 150.529 21.5335L150.699 20.7796C150.702 20.7596 150.726 20.7463 150.746 20.7496L151.513 20.9231C151.533 20.9264 151.546 20.9498 151.543 20.9698L151.373 21.7236C151.369 21.7436 151.346 21.757 151.326 21.7536L150.559 21.5802Z" fill="#5E5E5D"/>
<path d="M152.083 20.9229L152.85 21.0963C152.937 21.1163 152.994 21.203 152.974 21.2931L152.804 22.0469C152.784 22.1337 152.697 22.1904 152.607 22.1704L151.843 21.9969C151.756 21.9769 151.7 21.8902 151.72 21.8001L151.89 21.0463C151.907 20.9596 151.993 20.9029 152.083 20.9229Z" fill="#585857"/>
<path d="M151.87 21.8737C151.85 21.8704 151.836 21.847 151.84 21.827L152.01 21.0732C152.013 21.0531 152.037 21.0398 152.057 21.0431L152.824 21.2166C152.844 21.2199 152.857 21.2433 152.854 21.2633L152.68 22.0171C152.677 22.0371 152.654 22.0505 152.634 22.0471L151.87 21.8737Z" fill="#5E5E5D"/>
<path d="M153.394 21.2199L154.161 21.3934C154.248 21.4134 154.305 21.5001 154.285 21.5901L154.115 22.344C154.095 22.4307 154.008 22.4874 153.918 22.4674L153.151 22.2939C153.064 22.2739 153.007 22.1872 153.027 22.0971L153.197 21.3433C153.217 21.2533 153.307 21.1999 153.394 21.2199Z" fill="#585857"/>
<path d="M153.181 22.1706C153.161 22.1672 153.148 22.1439 153.151 22.1239L153.321 21.37C153.324 21.35 153.348 21.3367 153.368 21.34L154.135 21.5135C154.155 21.5168 154.168 21.5402 154.165 21.5602L153.995 22.314C153.991 22.334 153.968 22.3473 153.948 22.344L153.181 22.1706Z" fill="#5E5E5D"/>
<path d="M154.705 21.5133L155.472 21.6867C155.559 21.7067 155.615 21.7935 155.595 21.8835L155.425 22.6373C155.405 22.7241 155.318 22.7808 155.228 22.7608L154.461 22.5873C154.375 22.5673 154.318 22.4806 154.338 22.3905L154.511 21.6367C154.528 21.55 154.618 21.4933 154.705 21.5133Z" fill="#585857"/>
<path d="M154.491 22.4641C154.471 22.4607 154.458 22.4374 154.461 22.4174L154.632 21.6636C154.635 21.6435 154.658 21.6302 154.678 21.6335L155.445 21.807C155.465 21.8103 155.479 21.8337 155.475 21.8537L155.305 22.6075C155.302 22.6275 155.279 22.6409 155.259 22.6375L154.491 22.4641Z" fill="#5E5E5D"/>
<path d="M138.694 19.1952L139.461 19.3686C139.548 19.3886 139.605 19.4754 139.585 19.5654L139.415 20.3192C139.395 20.406 139.308 20.4627 139.218 20.4427L138.451 20.2692C138.364 20.2492 138.307 20.1625 138.327 20.0724L138.501 19.3186C138.521 19.2319 138.607 19.1752 138.694 19.1952Z" fill="#585857"/>
<path d="M138.481 20.1458C138.461 20.1424 138.448 20.1191 138.451 20.0991L138.621 19.3452C138.624 19.3252 138.648 19.3119 138.668 19.3152L139.435 19.4887C139.455 19.492 139.468 19.5154 139.465 19.5354L139.295 20.2892C139.291 20.3092 139.268 20.3226 139.248 20.3192L138.481 20.1458Z" fill="#5E5E5D"/>
<path d="M140.009 19.492L140.776 19.6654C140.863 19.6854 140.919 19.7722 140.899 19.8622L140.729 20.6161C140.709 20.7028 140.623 20.7595 140.533 20.7395L139.765 20.566C139.679 20.546 139.622 20.4593 139.642 20.3692L139.812 19.6154C139.832 19.5253 139.919 19.472 140.009 19.492Z" fill="#585857"/>
<path d="M139.792 20.4426C139.772 20.4393 139.759 20.416 139.762 20.3959L139.932 19.6421C139.935 19.6221 139.959 19.6088 139.979 19.6121L140.746 19.7855C140.766 19.7889 140.779 19.8122 140.776 19.8322L140.606 20.5861C140.603 20.6061 140.579 20.6194 140.559 20.6161L139.792 20.4426Z" fill="#5E5E5D"/>
<path d="M141.319 19.7856L142.087 19.959C142.173 19.979 142.23 20.0657 142.21 20.1558L142.04 20.9096C142.02 20.9964 141.933 21.0531 141.843 21.0331L141.076 20.8596C140.989 20.8396 140.933 20.7529 140.953 20.6628L141.123 19.909C141.143 19.8223 141.229 19.7656 141.319 19.7856Z" fill="#585857"/>
<path d="M141.106 20.7362C141.086 20.7328 141.073 20.7095 141.076 20.6895L141.246 19.9356C141.25 19.9156 141.273 19.9023 141.293 19.9056L142.06 20.0791C142.08 20.0824 142.093 20.1057 142.09 20.1258L141.92 20.8796C141.917 20.8996 141.893 20.9129 141.873 20.9096L141.106 20.7362Z" fill="#5E5E5D"/>
<path d="M142.63 20.0791L143.397 20.2525C143.484 20.2726 143.541 20.3593 143.521 20.4493L143.351 21.2032C143.33 21.2899 143.244 21.3466 143.154 21.3266L142.387 21.1531C142.3 21.1331 142.243 21.0464 142.263 20.9563L142.433 20.2025C142.453 20.1158 142.54 20.0591 142.63 20.0791Z" fill="#585857"/>
<path d="M142.417 21.0297C142.397 21.0264 142.383 21.003 142.387 20.983L142.557 20.2292C142.56 20.2092 142.584 20.1958 142.604 20.1991L143.371 20.3726C143.391 20.3759 143.404 20.3993 143.401 20.4193L143.231 21.1731C143.227 21.1931 143.204 21.2065 143.184 21.2031L142.417 21.0297Z" fill="#5E5E5D"/>
<path d="M143.942 20.3759L144.709 20.5494C144.795 20.5694 144.852 20.6561 144.832 20.7462L144.662 21.5C144.642 21.5867 144.555 21.6434 144.465 21.6234L143.698 21.4499C143.611 21.4299 143.555 21.3432 143.575 21.2532L143.745 20.4993C143.765 20.4093 143.855 20.3559 143.942 20.3759Z" fill="#585857"/>
<path d="M143.728 21.3266C143.708 21.3232 143.694 21.2999 143.698 21.2799L143.868 20.526C143.871 20.506 143.895 20.4927 143.915 20.496L144.682 20.6695C144.702 20.6728 144.715 20.6962 144.712 20.7162L144.542 21.47C144.538 21.49 144.515 21.5034 144.495 21.5L143.728 21.3266Z" fill="#5E5E5D"/>
<path d="M145.252 20.6693L146.019 20.8427C146.106 20.8627 146.163 20.9494 146.143 21.0395L145.973 21.7933C145.953 21.8801 145.866 21.9368 145.776 21.9168L145.009 21.7433C144.922 21.7233 144.865 21.6366 144.885 21.5465L145.055 20.7927C145.075 20.706 145.165 20.6493 145.252 20.6693Z" fill="#585857"/>
<path d="M145.039 21.6201C145.019 21.6168 145.006 21.5934 145.009 21.5734L145.179 20.8196C145.182 20.7995 145.206 20.7862 145.226 20.7895L145.993 20.963C146.013 20.9663 146.026 20.9897 146.023 21.0097L145.853 21.7635C145.849 21.7835 145.826 21.7969 145.806 21.7935L145.039 21.6201Z" fill="#5E5E5D"/>
<path d="M146.563 20.9663L147.33 21.1398C147.417 21.1598 147.473 21.2465 147.453 21.3365L147.283 22.0904C147.263 22.1771 147.176 22.2338 147.086 22.2138L146.319 22.0403C146.233 22.0203 146.176 21.9336 146.196 21.8435L146.366 21.0897C146.389 20.9997 146.476 20.9463 146.563 20.9663Z" fill="#585857"/>
<path d="M146.349 21.917C146.329 21.9136 146.316 21.8903 146.319 21.8703L146.49 21.1164C146.493 21.0964 146.516 21.0831 146.536 21.0864L147.303 21.2599C147.323 21.2632 147.337 21.2865 147.333 21.3066L147.163 22.0604C147.16 22.0804 147.137 22.0937 147.117 22.0904L146.349 21.917Z" fill="#5E5E5D"/>
<path d="M147.874 21.2597L148.641 21.4331C148.728 21.4531 148.784 21.5399 148.764 21.6299L148.594 22.3837C148.574 22.4705 148.488 22.5272 148.397 22.5072L147.63 22.3337C147.544 22.3137 147.487 22.227 147.507 22.1369L147.677 21.3831C147.7 21.2964 147.787 21.2397 147.874 21.2597Z" fill="#585857"/>
<path d="M147.66 22.2105C147.64 22.2071 147.627 22.1838 147.63 22.1638L147.8 21.41C147.804 21.3899 147.827 21.3766 147.847 21.3799L148.614 21.5534C148.634 21.5567 148.647 21.5801 148.644 21.6001L148.474 22.3539C148.471 22.3739 148.447 22.3873 148.427 22.3839L147.66 22.2105Z" fill="#5E5E5D"/>
<path d="M149.185 21.5534L149.952 21.7269C150.039 21.7469 150.095 21.8336 150.075 21.9237L149.905 22.6775C149.885 22.7642 149.799 22.8209 149.709 22.8009L148.941 22.6275C148.855 22.6074 148.798 22.5207 148.818 22.4307L148.988 21.6768C149.011 21.5901 149.098 21.5334 149.185 21.5534Z" fill="#585857"/>
<path d="M148.971 22.504C148.951 22.5007 148.938 22.4773 148.941 22.4573L149.111 21.7035C149.115 21.6835 149.138 21.6701 149.158 21.6735L149.925 21.8469C149.945 21.8503 149.958 21.8736 149.955 21.8936L149.785 22.6474C149.782 22.6675 149.758 22.6808 149.738 22.6775L148.971 22.504Z" fill="#5E5E5D"/>
<path d="M150.495 21.8502L151.263 22.0237C151.349 22.0437 151.406 22.1304 151.386 22.2205L151.216 22.9743C151.196 23.061 151.109 23.1177 151.019 23.0977L150.252 22.9243C150.165 22.9043 150.109 22.8175 150.129 22.7275L150.299 21.9736C150.322 21.8836 150.409 21.8302 150.495 21.8502Z" fill="#585857"/>
<path d="M150.282 22.8009C150.262 22.7975 150.249 22.7742 150.252 22.7542L150.422 22.0003C150.426 21.9803 150.449 21.967 150.469 21.9703L151.236 22.1438C151.256 22.1471 151.269 22.1705 151.266 22.1905L151.096 22.9443C151.093 22.9643 151.069 22.9777 151.049 22.9743L150.282 22.8009Z" fill="#5E5E5D"/>
<path d="M151.81 22.1438L152.577 22.3173C152.664 22.3373 152.72 22.424 152.7 22.5141L152.53 23.2679C152.51 23.3546 152.423 23.4113 152.333 23.3913L151.566 23.2178C151.479 23.1978 151.423 23.1111 151.443 23.0211L151.613 22.2672C151.633 22.1805 151.72 22.1238 151.81 22.1438Z" fill="#585857"/>
<path d="M151.593 23.0944C151.573 23.0911 151.559 23.0677 151.563 23.0477L151.733 22.2939C151.736 22.2739 151.76 22.2605 151.78 22.2639L152.547 22.4373C152.567 22.4406 152.58 22.464 152.577 22.484L152.407 23.2378C152.403 23.2578 152.38 23.2712 152.36 23.2679L151.593 23.0944Z" fill="#5E5E5D"/>
<path d="M153.121 22.4406L153.888 22.6141C153.975 22.6341 154.031 22.7208 154.011 22.8109L153.841 23.5647C153.821 23.6514 153.734 23.7081 153.644 23.6881L152.877 23.5147C152.79 23.4946 152.734 23.4079 152.754 23.3179L152.924 22.564C152.944 22.474 153.031 22.4206 153.121 22.4406Z" fill="#585857"/>
<path d="M152.907 23.3913C152.887 23.3879 152.874 23.3646 152.877 23.3446L153.047 22.5908C153.051 22.5707 153.074 22.5574 153.094 22.5607L153.861 22.7342C153.881 22.7375 153.895 22.7609 153.891 22.7809L153.721 23.5347C153.718 23.5547 153.695 23.5681 153.675 23.5647L152.907 23.3913Z" fill="#5E5E5D"/>
<path d="M154.432 22.7342L155.199 22.9077C155.286 22.9277 155.342 23.0144 155.322 23.1044L155.152 23.8583C155.132 23.945 155.045 24.0017 154.955 23.9817L154.188 23.8082C154.102 23.7882 154.045 23.7015 154.065 23.6114L154.235 22.8576C154.255 22.7709 154.342 22.7142 154.432 22.7342Z" fill="#585857"/>
<path d="M154.218 23.6848C154.198 23.6815 154.185 23.6581 154.188 23.6381L154.358 22.8843C154.361 22.8643 154.385 22.8509 154.405 22.8543L155.172 23.0277C155.192 23.031 155.205 23.0544 155.202 23.0744L155.032 23.8282C155.029 23.8482 155.005 23.8616 154.985 23.8582L154.218 23.6848Z" fill="#5E5E5D"/>
<path d="M138.421 20.4159L139.188 20.5893C139.275 20.6094 139.332 20.6961 139.312 20.7861L139.142 21.54C139.122 21.6267 139.035 21.6834 138.945 21.6634L138.178 21.4899C138.091 21.4699 138.034 21.3832 138.054 21.2931L138.224 20.5393C138.248 20.4526 138.335 20.3959 138.421 20.4159Z" fill="#585857"/>
<path d="M138.208 21.3665C138.187 21.3632 138.174 21.3398 138.177 21.3198L138.348 20.566C138.351 20.5459 138.374 20.5326 138.394 20.5359L139.161 20.7094C139.181 20.7127 139.195 20.7361 139.191 20.7561L139.021 21.5099C139.018 21.5299 138.995 21.5433 138.975 21.5399L138.208 21.3665Z" fill="#5E5E5D"/>
<path d="M139.732 20.7093L140.499 20.8828C140.586 20.9028 140.642 20.9895 140.622 21.0796L140.452 21.8334C140.432 21.9201 140.346 21.9768 140.255 21.9568L139.488 21.7834C139.402 21.7634 139.345 21.6766 139.365 21.5866L139.535 20.8327C139.558 20.746 139.645 20.6926 139.732 20.7093Z" fill="#585857"/>
<path d="M139.519 21.6636C139.499 21.6602 139.485 21.6369 139.489 21.6169L139.659 20.8631C139.662 20.843 139.685 20.8297 139.705 20.833L140.472 21.0065C140.493 21.0098 140.506 21.0332 140.503 21.0532L140.332 21.807C140.329 21.827 140.306 21.8404 140.286 21.837L139.519 21.6636Z" fill="#5E5E5D"/>
<path d="M141.042 21.0063L141.81 21.1797C141.896 21.1997 141.953 21.2865 141.933 21.3765L141.763 22.1304C141.743 22.2171 141.656 22.2738 141.566 22.2538L140.799 22.0803C140.712 22.0603 140.655 21.9736 140.676 21.8835L140.846 21.1297C140.869 21.043 140.956 20.9863 141.042 21.0063Z" fill="#585857"/>
<path d="M140.829 21.9569C140.809 21.9535 140.796 21.9302 140.799 21.9102L140.969 21.1564C140.973 21.1363 140.996 21.123 141.016 21.1263L141.783 21.2998C141.803 21.3031 141.816 21.3265 141.813 21.3465L141.643 22.1003C141.64 22.1203 141.616 22.1337 141.596 22.1303L140.829 21.9569Z" fill="#5E5E5D"/>
<path d="M142.357 21.2998L143.124 21.4733C143.211 21.4933 143.268 21.58 143.248 21.6701L143.078 22.4239C143.058 22.5106 142.971 22.5673 142.881 22.5473L142.114 22.3739C142.027 22.3538 141.97 22.2671 141.99 22.1771L142.16 21.4232C142.18 21.3365 142.267 21.2798 142.357 21.2998Z" fill="#585857"/>
<path d="M142.14 22.2504C142.12 22.2471 142.107 22.2237 142.11 22.2037L142.28 21.4499C142.284 21.4299 142.307 21.4165 142.327 21.4199L143.094 21.5933C143.114 21.5967 143.128 21.62 143.124 21.64L142.954 22.3938C142.951 22.4139 142.927 22.4272 142.907 22.4239L142.14 22.2504Z" fill="#5E5E5D"/>
<path d="M143.668 21.5968L144.435 21.7703C144.522 21.7903 144.578 21.877 144.558 21.9671L144.388 22.7209C144.368 22.8076 144.281 22.8643 144.191 22.8443L143.424 22.6709C143.337 22.6509 143.281 22.5641 143.301 22.4741L143.471 21.7203C143.491 21.6302 143.578 21.5768 143.668 21.5968Z" fill="#585857"/>
<path d="M143.454 22.5473C143.434 22.5439 143.421 22.5206 143.424 22.5006L143.594 21.7467C143.598 21.7267 143.621 21.7134 143.641 21.7167L144.408 21.8902C144.428 21.8935 144.442 21.9169 144.438 21.9369L144.268 22.6907C144.265 22.7107 144.242 22.7241 144.222 22.7207L143.454 22.5473Z" fill="#5E5E5D"/>
<path d="M144.979 21.8902L145.746 22.0637C145.833 22.0837 145.889 22.1704 145.869 22.2605L145.699 23.0143C145.679 23.101 145.592 23.1577 145.502 23.1377L144.735 22.9643C144.648 22.9442 144.592 22.8575 144.612 22.7675L144.782 22.0136C144.802 21.9269 144.889 21.8702 144.979 21.8902Z" fill="#585857"/>
<path d="M144.765 22.8408C144.745 22.8375 144.732 22.8141 144.735 22.7941L144.905 22.0403C144.908 22.0203 144.932 22.0069 144.952 22.0103L145.719 22.1837C145.739 22.187 145.752 22.2104 145.749 22.2304L145.579 22.9842C145.575 23.0042 145.552 23.0176 145.532 23.0143L144.765 22.8408Z" fill="#5E5E5D"/>
<path d="M146.29 22.1836L147.057 22.3571C147.144 22.3771 147.2 22.4638 147.18 22.5539L147.01 23.3077C146.99 23.3944 146.903 23.4511 146.813 23.4311L146.046 23.2577C145.96 23.2377 145.903 23.1509 145.923 23.0609L146.093 22.3071C146.113 22.2203 146.2 22.167 146.29 22.1836Z" fill="#585857"/>
<path d="M146.076 23.1377C146.056 23.1343 146.043 23.111 146.046 23.091L146.216 22.3372C146.219 22.3171 146.243 22.3038 146.263 22.3071L147.03 22.4806C147.05 22.4839 147.063 22.5073 147.06 22.5273L146.89 23.2811C146.887 23.3011 146.863 23.3145 146.843 23.3111L146.076 23.1377Z" fill="#5E5E5D"/>
<path d="M147.6 22.4805L148.368 22.654C148.454 22.674 148.511 22.7607 148.491 22.8508L148.321 23.6046C148.301 23.6913 148.214 23.748 148.124 23.728L147.357 23.5546C147.27 23.5346 147.213 23.4478 147.233 23.3578L147.404 22.604C147.424 22.5139 147.514 22.4605 147.6 22.4805Z" fill="#585857"/>
<path d="M147.387 23.4312C147.367 23.4279 147.354 23.4045 147.357 23.3845L147.527 22.6307C147.53 22.6107 147.554 22.5973 147.574 22.6007L148.341 22.7741C148.361 22.7774 148.374 22.8008 148.371 22.8208L148.201 23.5746C148.198 23.5946 148.174 23.608 148.154 23.6046L147.387 23.4312Z" fill="#5E5E5D"/>
<path d="M148.911 22.7741L149.678 22.9476C149.765 22.9676 149.822 23.0543 149.802 23.1444L149.631 23.8982C149.611 23.9849 149.525 24.0416 149.435 24.0216L148.667 23.8482C148.581 23.8282 148.524 23.7414 148.544 23.6514L148.714 22.8976C148.734 22.8108 148.824 22.7541 148.911 22.7741Z" fill="#585857"/>
<path d="M148.698 23.7247C148.678 23.7214 148.664 23.698 148.668 23.678L148.838 22.9242C148.841 22.9042 148.864 22.8909 148.884 22.8942L149.652 23.0676C149.672 23.071 149.685 23.0943 149.682 23.1143L149.508 23.8682C149.505 23.8882 149.482 23.9015 149.462 23.8982L148.698 23.7247Z" fill="#5E5E5D"/>
<path d="M150.222 23.0709L150.989 23.2444C151.076 23.2644 151.133 23.3511 151.113 23.4412L150.942 24.195C150.922 24.2817 150.836 24.3384 150.746 24.3184L149.979 24.145C149.892 24.125 149.835 24.0383 149.855 23.9482L150.025 23.1944C150.049 23.1043 150.135 23.0509 150.222 23.0709Z" fill="#585857"/>
<path d="M150.008 24.0216C149.988 24.0183 149.975 23.9982 149.978 23.9749L150.148 23.2211C150.152 23.2011 150.175 23.1877 150.195 23.191L150.962 23.3645C150.982 23.3678 150.996 23.3912 150.992 23.4112L150.822 24.165C150.819 24.185 150.795 24.1984 150.775 24.195L150.008 24.0216Z" fill="#5E5E5D"/>
<path d="M151.533 23.3645L152.3 23.538C152.387 23.558 152.444 23.6447 152.424 23.7348L152.254 24.4886C152.234 24.5753 152.147 24.632 152.057 24.612L151.29 24.4386C151.203 24.4186 151.146 24.3318 151.166 24.2418L151.336 23.4879C151.36 23.4012 151.446 23.3445 151.533 23.3645Z" fill="#585857"/>
<path d="M151.319 24.3151C151.299 24.3118 151.286 24.2884 151.289 24.2684L151.459 23.5146C151.463 23.4946 151.486 23.4812 151.506 23.4846L152.273 23.658C152.293 23.6614 152.307 23.6847 152.303 23.7047L152.133 24.4586C152.13 24.4786 152.107 24.4919 152.086 24.4886L151.319 24.3151Z" fill="#5E5E5D"/>
<path d="M152.844 23.658L153.611 23.8315C153.698 23.8515 153.754 23.9382 153.734 24.0283L153.564 24.7821C153.544 24.8688 153.457 24.9255 153.367 24.9055L152.6 24.7321C152.513 24.7121 152.457 24.6254 152.477 24.5353L152.647 23.7815C152.67 23.6947 152.757 23.638 152.844 23.658Z" fill="#585857"/>
<path d="M152.63 24.612C152.61 24.6087 152.597 24.5853 152.6 24.5653L152.77 23.8115C152.774 23.7915 152.797 23.7781 152.817 23.7815L153.584 23.9549C153.604 23.9582 153.618 23.9816 153.614 24.0016L153.444 24.7521C153.441 24.7721 153.418 24.7854 153.398 24.7821L152.63 24.612Z" fill="#5E5E5D"/>
<path d="M154.158 23.9549L154.925 24.1283C155.012 24.1483 155.068 24.235 155.048 24.3251L154.878 25.0789C154.858 25.1657 154.772 25.2224 154.682 25.2023L153.914 25.0289C153.828 25.0089 153.771 24.9222 153.791 24.8321L153.961 24.0783C153.981 23.9882 154.068 23.9348 154.158 23.9549Z" fill="#585857"/>
<path d="M153.941 24.9055C153.921 24.9022 153.908 24.8788 153.911 24.8588L154.081 24.105C154.084 24.085 154.108 24.0716 154.128 24.075L154.895 24.2484C154.915 24.2518 154.928 24.2751 154.925 24.2951L154.755 25.0489C154.752 25.069 154.728 25.0823 154.708 25.079L153.941 24.9055Z" fill="#5E5E5D"/>
<path d="M138.147 21.6368L138.914 21.8103C139.001 21.8303 139.058 21.917 139.038 22.0071L138.868 22.7609C138.848 22.8476 138.761 22.9043 138.671 22.8843L137.904 22.7109C137.817 22.6909 137.76 22.6041 137.78 22.5141L137.951 21.7603C137.971 21.6735 138.061 21.6168 138.147 21.6368Z" fill="#585857"/>
<path d="M137.934 22.5874C137.914 22.5841 137.901 22.5607 137.904 22.5407L138.074 21.7869C138.077 21.7669 138.101 21.7536 138.121 21.7569L138.888 21.9303C138.908 21.9337 138.921 21.957 138.918 21.977L138.748 22.7309C138.745 22.7509 138.721 22.7642 138.701 22.7609L137.934 22.5874Z" fill="#5E5E5D"/>
<path d="M139.458 21.9304L140.226 22.1038C140.312 22.1238 140.369 22.2105 140.349 22.3006L140.179 23.0544C140.159 23.1412 140.072 23.1979 139.982 23.1778L139.215 23.0044C139.128 22.9844 139.071 22.8977 139.091 22.8076L139.262 22.0538C139.282 21.967 139.372 21.9103 139.458 21.9304Z" fill="#585857"/>
<path d="M139.245 22.881C139.225 22.8776 139.212 22.8543 139.215 22.8343L139.385 22.0804C139.389 22.0604 139.412 22.0471 139.432 22.0504L140.199 22.2239C140.219 22.2272 140.232 22.2505 140.229 22.2706L140.059 23.0244C140.056 23.0444 140.032 23.0577 140.012 23.0544L139.245 22.881Z" fill="#5E5E5D"/>
<path d="M140.769 22.2272L141.537 22.4006C141.623 22.4206 141.68 22.5074 141.66 22.5974L141.49 23.3512C141.47 23.438 141.383 23.4947 141.293 23.4747L140.526 23.3012C140.439 23.2812 140.382 23.1945 140.402 23.1044L140.576 22.3506C140.596 22.2605 140.683 22.2072 140.769 22.2272Z" fill="#585857"/>
<path d="M140.556 23.1776C140.536 23.1743 140.522 23.1509 140.526 23.1309L140.696 22.3771C140.699 22.3571 140.722 22.3437 140.742 22.3471L141.51 22.5205C141.53 22.5238 141.543 22.5472 141.54 22.5672L141.37 23.321C141.366 23.341 141.343 23.3544 141.323 23.351L140.556 23.1776Z" fill="#5E5E5D"/>
<path d="M142.08 22.5207L142.847 22.6942C142.934 22.7142 142.991 22.8009 142.971 22.891L142.8 23.6448C142.78 23.7315 142.694 23.7882 142.604 23.7682L141.837 23.5948C141.75 23.5748 141.693 23.4881 141.713 23.398L141.883 22.6442C141.907 22.5574 141.993 22.5007 142.08 22.5207Z" fill="#585857"/>
<path d="M141.867 23.4713C141.847 23.468 141.833 23.4447 141.837 23.4246L142.007 22.6708C142.01 22.6508 142.034 22.6375 142.054 22.6408L142.821 22.8142C142.841 22.8176 142.854 22.8409 142.851 22.8609L142.681 23.6148C142.677 23.6348 142.654 23.6481 142.634 23.6448L141.867 23.4713Z" fill="#5E5E5D"/>
<path d="M148.09 23.8716L143.384 22.8142C143.297 22.7942 143.214 22.8476 143.194 22.9343L143.01 23.7448C142.997 23.8049 143.034 23.8649 143.094 23.8783L147.844 24.9456C147.93 24.9656 148.02 24.9089 148.04 24.8222L148.21 24.0684C148.234 23.9817 148.18 23.8916 148.09 23.8716Z" fill="#585857"/>
<path d="M143.141 23.7581L143.321 22.9609C143.324 22.9442 143.344 22.9309 143.361 22.9376L148.067 23.9949C148.087 23.9983 148.1 24.0216 148.097 24.0416L147.927 24.7955C147.924 24.8155 147.9 24.8288 147.88 24.8255L143.141 23.7581Z" fill="#5E5E5D"/>
<path d="M148.638 23.9951L149.405 24.1685C149.492 24.1885 149.549 24.2753 149.529 24.3653L149.358 25.1191C149.338 25.2059 149.252 25.2626 149.162 25.2426L148.394 25.0691C148.308 25.0491 148.251 24.9624 148.271 24.8723L148.441 24.1185C148.461 24.0318 148.548 23.9751 148.638 23.9951Z" fill="#585857"/>
<path d="M148.424 24.9457C148.404 24.9423 148.391 24.919 148.394 24.899L148.564 24.1451C148.568 24.1251 148.591 24.1118 148.611 24.1151L149.378 24.2886C149.398 24.2919 149.412 24.3153 149.408 24.3353L149.238 25.0891C149.235 25.1091 149.211 25.1224 149.191 25.1191L148.424 24.9457Z" fill="#5E5E5D"/>
<path d="M149.949 24.2919L150.716 24.4653C150.802 24.4853 150.859 24.5721 150.839 24.6621L150.669 25.416C150.649 25.5027 150.562 25.5594 150.472 25.5394L149.705 25.3659C149.618 25.3459 149.562 25.2592 149.582 25.1691L149.752 24.4153C149.772 24.3252 149.862 24.2719 149.949 24.2919Z" fill="#585857"/>
<path d="M149.735 25.2425C149.715 25.2392 149.702 25.2159 149.705 25.1958L149.875 24.442C149.879 24.422 149.902 24.4087 149.922 24.412L150.689 24.5854C150.709 24.5888 150.723 24.6121 150.719 24.6321L150.549 25.386C150.546 25.406 150.522 25.4193 150.502 25.416L149.735 25.2425Z" fill="#5E5E5D"/>
<path d="M151.259 24.5855L152.026 24.7589C152.113 24.7789 152.17 24.8656 152.15 24.9557L151.98 25.7095C151.96 25.7963 151.873 25.853 151.783 25.8329L151.016 25.6595C150.929 25.6395 150.872 25.5528 150.892 25.4627L151.062 24.7089C151.082 24.6222 151.172 24.5654 151.259 24.5855Z" fill="#585857"/>
<path d="M151.046 25.5361C151.026 25.5327 151.013 25.5094 151.016 25.4894L151.186 24.7355C151.189 24.7155 151.213 24.7022 151.233 24.7055L152 24.879C152.02 24.8823 152.033 24.9056 152.03 24.9257L151.86 25.6795C151.856 25.6995 151.836 25.7128 151.813 25.7095L151.046 25.5361Z" fill="#5E5E5D"/>
<path d="M152.57 24.8788L153.337 25.0522C153.424 25.0722 153.481 25.1589 153.461 25.249L153.291 26.0028C153.271 26.0896 153.184 26.1463 153.094 26.1263L152.327 25.9528C152.24 25.9328 152.183 25.8461 152.203 25.756L152.373 25.0022C152.397 24.9155 152.483 24.8588 152.57 24.8788Z" fill="#585857"/>
<path d="M152.356 25.8296C152.336 25.8263 152.323 25.8029 152.326 25.7829L152.497 25.0291C152.5 25.0091 152.523 24.9957 152.543 24.999L153.31 25.1725C153.33 25.1758 153.344 25.1992 153.34 25.2192L153.17 25.973C153.167 25.993 153.144 26.0064 153.124 26.003L152.356 25.8296Z" fill="#5E5E5D"/>
<path d="M153.881 25.1758L154.648 25.3493C154.735 25.3693 154.792 25.456 154.772 25.5461L154.602 26.2999C154.582 26.3866 154.495 26.4433 154.405 26.4233L153.638 26.2498C153.551 26.2298 153.494 26.1431 153.514 26.053L153.684 25.2992C153.708 25.2092 153.795 25.1558 153.881 25.1758Z" fill="#585857"/>
<path d="M153.668 26.1265C153.648 26.1231 153.635 26.0998 153.638 26.0798L153.808 25.3259C153.811 25.3059 153.835 25.2926 153.855 25.2959L154.622 25.4694C154.642 25.4727 154.655 25.4961 154.652 25.5161L154.482 26.2699C154.479 26.2899 154.455 26.3032 154.435 26.2999L153.668 26.1265Z" fill="#5E5E5D"/>
<path d="M147.854 25.9996L144.004 25.1357C143.831 25.0957 143.658 25.2057 143.621 25.3792L143.157 27.4372C143.117 27.6106 143.227 27.7841 143.401 27.8208L147.25 28.6847C147.423 28.7247 147.597 28.6146 147.634 28.4412L148.097 26.3832C148.137 26.2097 148.027 26.0396 147.854 25.9996Z" fill="#EDEDED"/>
<path d="M147.884 25.8761L144.034 25.0122C143.794 24.9588 143.554 25.1089 143.501 25.3491L143.037 27.4071C142.984 27.6473 143.134 27.8874 143.374 27.9408L147.223 28.8047C147.463 28.8581 147.704 28.708 147.757 28.4678L148.221 26.4098C148.274 26.1696 148.124 25.9328 147.884 25.8761ZM147.637 28.4411C147.597 28.6146 147.427 28.7246 147.253 28.6846L143.404 27.8207C143.231 27.7807 143.121 27.6106 143.161 27.4371L143.624 25.3791C143.664 25.2057 143.834 25.0956 144.008 25.1356L147.857 25.9995C148.03 26.0395 148.14 26.2097 148.1 26.3831L147.637 28.4411Z" fill="#9D9B9B"/>
<path d="M143.388 26.4231L143.161 27.4371C143.121 27.6106 143.231 27.784 143.404 27.8207L147.254 28.6846C147.427 28.7246 147.6 28.6146 147.637 28.4411L147.864 27.4271L143.388 26.4231Z" fill="#DFDFDE"/>
<path d="M145.609 26.9203L143.388 26.42L143.161 27.434C143.121 27.6074 143.231 27.7809 143.404 27.8176L145.312 28.2479L145.609 26.9203Z" fill="#D9D9DA"/>
<path d="M157.09 20.0924L138.191 15.8429C138.081 15.8163 138.004 15.7129 138.014 15.5995L139.992 4.78568C140.019 4.48882 140.299 4.28535 140.589 4.35206L159.838 8.68157C160.129 8.74829 160.295 9.05182 160.192 9.332L157.353 19.949C157.313 20.0557 157.203 20.1191 157.09 20.0924Z" fill="#E3E1E1"/>
<path d="M138.838 14.8055L140.663 5.67617C140.689 5.39598 140.953 5.20252 141.226 5.2659L158.868 9.23184C159.141 9.29188 159.298 9.58207 159.201 9.84558L156.947 18.8748C156.867 19.095 156.636 19.2184 156.406 19.1684L139.202 15.2992C138.971 15.2491 138.818 15.0357 138.838 14.8055Z" fill="#C7C7C6"/>
<path d="M138.965 14.8188L140.789 5.68283C140.809 5.47936 140.999 5.33927 141.199 5.38597L158.848 9.35524C159.044 9.3986 159.161 9.60874 159.091 9.79887L156.83 18.8348C156.773 18.9949 156.606 19.085 156.439 19.0483L139.225 15.1757C139.061 15.139 138.948 14.9856 138.965 14.8188Z" fill="#C6E6F2"/>
<path opacity="0.24" d="M139.238 13.9449C139.565 13.3579 140.012 12.8042 140.506 12.3439C141.786 11.1531 143.571 10.496 145.252 10.1358C147.233 9.70881 149.452 8.8349 151.466 9.01169C154.261 9.25184 156.153 9.67879 158.801 10.5894L159.091 9.79887C159.161 9.60875 159.048 9.39861 158.848 9.35525L141.199 5.38597C141.003 5.34261 140.809 5.4827 140.789 5.68283L138.995 14.4886C139.055 14.2918 139.151 14.1017 139.238 13.9449Z" fill="#B6E0ED"/>
<path d="M154.351 19.4786L140.903 16.4533L140.909 16.2265L154.468 19.2751L154.351 19.4786Z" fill="#585857"/>
<path d="M149.972 6.88702C149.992 6.80363 150.076 6.75027 150.159 6.77028C150.242 6.79029 150.296 6.87368 150.276 6.95707C150.256 7.04046 150.172 7.09382 150.089 7.07381C150.005 7.05713 149.952 6.97375 149.972 6.88702Z" fill="#3C3C3B"/>
<path d="M150.015 6.89702C150.029 6.83698 150.089 6.80029 150.149 6.81363C150.209 6.82698 150.245 6.88701 150.232 6.94705C150.219 7.00709 150.159 7.04378 150.099 7.03044C150.039 7.0171 150.002 6.95706 150.015 6.89702Z" fill="#585857"/>
<path d="M150.079 6.91376C150.085 6.89041 150.109 6.87373 150.132 6.8804C150.155 6.88707 150.172 6.91042 150.165 6.93377C150.159 6.95712 150.135 6.9738 150.112 6.96713C150.089 6.96046 150.072 6.93711 150.079 6.91376Z" fill="#B6E0ED"/>
</g>
<path d="M30.3077 81.9767C29.4108 78.1851 25.6193 75.8467 21.8483 76.7473C18.0721 77.6479 15.7432 81.4548 16.6401 85.2412C17.272 87.9019 19.3308 89.8463 21.8075 90.4552C21.9502 90.8338 22.2152 93.1313 22.6891 93.8681C22.9031 94.2007 23.1732 94.257 23.586 94.17C23.9173 95.352 25.3034 96.4367 26.4449 96.3293C27.245 96.2525 27.8259 95.6999 28.0858 94.958C28.2896 94.3798 28.4527 93.7146 28.5546 93.0699C29.105 93.0545 29.37 92.9982 29.3445 92.4815C29.2987 91.586 28.3304 89.1197 28.2947 88.7411C30.0529 87.0679 30.909 84.5197 30.3077 81.9767Z" fill="#FDFFFC"/>
<path d="M26.6538 81.721C26.5468 81.3372 26.1697 81.0814 25.7722 81.1786C25.4002 81.2656 25.1199 81.68 25.232 82.0638C25.2983 82.2992 25.4715 82.4885 25.6805 82.5755C25.5276 83.5681 25.3339 84.5454 25.2524 85.5483C25.176 86.4796 25.0995 87.3904 24.8957 88.296C23.7898 86.6331 22.6891 84.9752 21.4712 83.3941C21.8075 83.0718 21.5527 82.3503 20.987 82.4834C20.3195 82.642 20.5641 83.6858 21.2367 83.5272C21.2418 83.5272 21.2469 83.5221 21.252 83.517C22.5158 85.3129 23.7542 87.1345 24.7836 89.0789C24.8957 89.2887 25.2014 89.2426 25.2728 89.0277C25.6091 88.0249 25.7059 87.0015 25.7773 85.9525C25.8588 84.8217 26.078 83.7114 26.1697 82.5857C26.5111 82.4731 26.7557 82.0842 26.6538 81.721Z" fill="#AEB4FC"/>
<path d="M18.1685 75.5399C16.7467 74.8338 15.3198 74.1226 13.898 73.4113C13.6024 73.2681 13.3323 73.6927 13.6279 73.8514C15.014 74.6189 16.4052 75.3813 17.7914 76.1488C18.199 76.3739 18.5761 75.7446 18.1685 75.5399Z" fill="#808AFF"/>
<path d="M20.8441 70.116C20.7269 69.8551 20.3906 70.0444 20.416 70.2798C20.5893 71.7534 21.1346 73.2578 21.5626 74.6802C21.6697 75.0282 22.2047 74.9105 22.1181 74.5472C21.7665 73.0838 21.4607 71.4925 20.8441 70.116Z" fill="#808AFF"/>
<path d="M27.4691 69.6863C27.1022 70.0087 26.878 70.5204 26.6487 70.9502C26.4092 71.4004 26.1951 71.861 25.9913 72.3266C25.8282 72.7052 26.455 72.9048 26.613 72.5159C26.8016 72.04 27.0054 71.5795 27.2398 71.1241C27.4386 70.7301 27.729 70.3464 27.8462 69.9217C27.9125 69.6914 27.6373 69.5328 27.4691 69.6863Z" fill="#808AFF"/>
<defs>
<clipPath id="clip0">
<rect width="14" height="17" fill="white" transform="translate(147.5 41.3394)"/>
</clipPath>
<clipPath id="clip1">
<rect width="69" height="12" fill="white" transform="translate(51.5 134.339)"/>
</clipPath>
<clipPath id="clip2">
<rect width="32" height="26" fill="white" transform="translate(132.5 75.3394)"/>
</clipPath>
<clipPath id="clip3">
<rect width="35" height="35" fill="white" transform="translate(34.5 0.339355)"/>
</clipPath>
</defs>
</svg>
