<svg width="40" height="40" viewBox="0 0 40 40" fill="none" xmlns="http://www.w3.org/2000/svg">
<rect opacity="0.01" width="40" height="40" fill="white"/>
<path d="M20.0217 38.728C22.3249 38.728 24.192 36.861 24.192 34.5578C24.192 32.2547 22.3249 30.3876 20.0217 30.3876C17.7186 30.3876 15.8516 32.2547 15.8516 34.5578C15.8516 36.861 17.7186 38.728 20.0217 38.728Z" fill="#3E4958"/>
<path fill-rule="evenodd" clip-rule="evenodd" d="M20.0214 31.4134C18.2847 31.4134 16.8768 32.8213 16.8768 34.558C16.8768 36.2946 18.2847 37.7025 20.0214 37.7025C21.758 37.7025 23.1659 36.2946 23.1659 34.558C23.1659 32.8213 21.758 31.4134 20.0214 31.4134ZM14.8255 34.558C14.8255 31.6884 17.1518 29.3621 20.0214 29.3621C22.8909 29.3621 25.2172 31.6884 25.2172 34.558C25.2172 37.4276 22.8909 39.7538 20.0214 39.7538C17.1518 39.7538 14.8255 37.4276 14.8255 34.558Z" fill="#FDFDFD"/>
<path fill-rule="evenodd" clip-rule="evenodd" d="M19.0104 21.9514H20.8704V33.8215H19.0104V21.9514Z" fill="#3E4958"/>
<path d="M20.0222 22.4644C26.0103 22.4644 30.8647 17.6101 30.8647 11.6219C30.8647 5.63377 26.0103 0.779419 20.0222 0.779419C14.034 0.779419 9.17969 5.63377 9.17969 11.6219C9.17969 17.6101 14.034 22.4644 20.0222 22.4644Z" fill="#1152FD"/>
<path fill-rule="evenodd" clip-rule="evenodd" d="M20.022 1.29209C14.3171 1.29209 9.69231 5.91685 9.69231 11.6218C9.69231 17.3266 14.3171 21.9514 20.022 21.9514C25.7269 21.9514 30.3516 17.3266 30.3516 11.6218C30.3516 5.91685 25.7269 1.29209 20.022 1.29209ZM8.66667 11.6218C8.66667 5.35046 13.7506 0.26651 20.022 0.26651C26.2933 0.26651 31.3773 5.35046 31.3773 11.6218C31.3773 17.8932 26.2933 22.9771 20.022 22.9771C13.7506 22.9771 8.66667 17.8932 8.66667 11.6218Z" fill="#1152FD"/>
<path d="M20.0224 14.9581C21.8648 14.9581 23.3585 13.4644 23.3585 11.6219C23.3585 9.77944 21.8648 8.2858 20.0224 8.2858C18.1798 8.2858 16.6862 9.77944 16.6862 11.6219C16.6862 13.4644 18.1798 14.9581 20.0224 14.9581Z" fill="#F9FFFF"/>
</svg>
