<svg width="41" height="60" viewBox="0 0 41 60" fill="none" xmlns="http://www.w3.org/2000/svg">
<rect opacity="0.01" width="40" height="60" fill="white"/>
<path d="M20.0218 58.7285C22.325 58.7285 24.192 56.8614 24.192 54.5582C24.192 52.2551 22.325 50.3881 20.0218 50.3881C17.7186 50.3881 15.8516 52.2551 15.8516 54.5582C15.8516 56.8614 17.7186 58.7285 20.0218 58.7285Z" fill="#3E4958"/>
<path fill-rule="evenodd" clip-rule="evenodd" d="M20.0214 51.4139C18.2847 51.4139 16.8768 52.8218 16.8768 54.5584C16.8768 56.2951 18.2847 57.703 20.0214 57.703C21.758 57.703 23.1659 56.2951 23.1659 54.5584C23.1659 52.8218 21.758 51.4139 20.0214 51.4139ZM14.8255 54.5584C14.8255 51.6888 17.1518 49.3625 20.0214 49.3625C22.8909 49.3625 25.2172 51.6888 25.2172 54.5584C25.2172 57.428 22.8909 59.7543 20.0214 59.7543C17.1518 59.7543 14.8255 57.428 14.8255 54.5584Z" fill="#FDFDFD"/>
<path fill-rule="evenodd" clip-rule="evenodd" d="M19.0104 39.9518H20.8704V53.822H19.0104V39.9518Z" fill="#3E4958"/>
<path fill-rule="evenodd" clip-rule="evenodd" d="M20.3998 0C9.35413 0 0.399841 8.95431 0.399841 20C0.399841 31.0458 9.35413 40 20.3998 40C31.4455 40 40.3998 31.0458 40.3998 20C40.3998 8.95431 31.4455 0 20.3998 0Z" fill="#1152FD"/>
<path fill-rule="evenodd" clip-rule="evenodd" d="M20.2913 27C22.666 27 25.5833 20.0848 25.5833 17.2083C25.5833 14.3319 23.1678 12 20.2913 12C17.4149 12 15 14.3319 15 17.2083C15 20.0848 17.9167 27 20.2913 27ZM20.4141 19.916C21.7948 19.916 22.9141 18.7967 22.9141 17.416C22.9141 16.0353 21.7948 14.916 20.4141 14.916C19.0334 14.916 17.9141 16.0353 17.9141 17.416C17.9141 18.7967 19.0334 19.916 20.4141 19.916Z" fill="white"/>
</svg>
