<svg width="217" height="217" viewBox="0 0 217 217" fill="none" xmlns="http://www.w3.org/2000/svg">
<circle cx="108.5" cy="108.5" r="108.35" fill="#448AFF" fill-opacity="0.1" stroke="#90B8F9" stroke-width="0.3"/>
<circle cx="108.5" cy="108.5" r="54.35" fill="#448AFF" fill-opacity="0.3" stroke="#90B8F9" stroke-width="0.3"/>
<rect opacity="0.01" x="89" y="82" width="40" height="40" fill="white"/>
<path d="M109.022 120.728C111.325 120.728 113.192 118.861 113.192 116.558C113.192 114.255 111.325 112.388 109.022 112.388C106.719 112.388 104.852 114.255 104.852 116.558C104.852 118.861 106.719 120.728 109.022 120.728Z" fill="#3E4958"/>
<path fill-rule="evenodd" clip-rule="evenodd" d="M109.021 113.413C107.285 113.413 105.877 114.821 105.877 116.558C105.877 118.295 107.285 119.703 109.021 119.703C110.758 119.703 112.166 118.295 112.166 116.558C112.166 114.821 110.758 113.413 109.021 113.413ZM103.826 116.558C103.826 113.688 106.152 111.362 109.021 111.362C111.891 111.362 114.217 113.688 114.217 116.558C114.217 119.428 111.891 121.754 109.021 121.754C106.152 121.754 103.826 119.428 103.826 116.558Z" fill="#FDFDFD"/>
<path fill-rule="evenodd" clip-rule="evenodd" d="M108.01 103.951H109.87V115.822H108.01V103.951Z" fill="#3E4958"/>
<path d="M109.022 104.464C115.01 104.464 119.865 99.6101 119.865 93.6219C119.865 87.6338 115.01 82.7794 109.022 82.7794C103.034 82.7794 98.1797 87.6338 98.1797 93.6219C98.1797 99.6101 103.034 104.464 109.022 104.464Z" fill="#1152FD"/>
<path fill-rule="evenodd" clip-rule="evenodd" d="M109.022 83.2921C103.317 83.2921 98.6923 87.9169 98.6923 93.6218C98.6923 99.3267 103.317 103.951 109.022 103.951C114.727 103.951 119.352 99.3267 119.352 93.6218C119.352 87.9169 114.727 83.2921 109.022 83.2921ZM97.6667 93.6219C97.6667 87.3505 102.751 82.2665 109.022 82.2665C115.293 82.2665 120.377 87.3505 120.377 93.6219C120.377 99.8933 115.293 104.977 109.022 104.977C102.751 104.977 97.6667 99.8933 97.6667 93.6219Z" fill="#1152FD"/>
<path d="M109.022 96.9581C110.865 96.9581 112.359 95.4644 112.359 93.622C112.359 91.7795 110.865 90.2858 109.022 90.2858C107.18 90.2858 105.686 91.7795 105.686 93.622C105.686 95.4644 107.18 96.9581 109.022 96.9581Z" fill="#F9FFFF"/>
</svg>
