<?xml version="1.0" encoding="utf-8"?>
<!-- Generator: Adobe Illustrator 23.0.3, SVG Export Plug-In . SVG Version: 6.00 Build 0)  -->
<svg version="1.1" id="Icons" xmlns="http://www.w3.org/2000/svg" xmlns:xlink="http://www.w3.org/1999/xlink" x="0px" y="0px"
	 viewBox="0 0 32 32" style="enable-background:new 0 0 32 32;" xml:space="preserve">

<ellipse cx="11" cy="6" rx="6" ry="3"/>
<path  d="M5,6v4c0,1.7,2.7,3,6,3s6-1.3,6-3V6" fill="none" stroke="#000000" stroke-width="2" stroke-linecap="round" stroke-linejoin="round" stroke-miterlimit="10"/>
<path  d="M5,10v4c0,1.7,2.7,3,6,3s6-1.3,6-3v-4"  fill="none" stroke="#000000" stroke-width="2" stroke-linecap="round" stroke-linejoin="round" stroke-miterlimit="10"/>
<path  d="M5,14v4c0,1.7,2.7,3,6,3s6-1.3,6-3v-4"  fill="none" stroke="#000000" stroke-width="2" stroke-linecap="round" stroke-linejoin="round" stroke-miterlimit="10"/>
<path  d="M5,18v4c0,1.7,2.7,3,6,3s6-1.3,6-3v-4"  fill="none" stroke="#000000" stroke-width="2" stroke-linecap="round" stroke-linejoin="round" stroke-miterlimit="10"/>
<path  d="M5,22v4c0,1.7,2.7,3,6,3s6-1.3,6-3v-4"  fill="none" stroke="#000000" stroke-width="2" stroke-linecap="round" stroke-linejoin="round" stroke-miterlimit="10"/>
<path  d="M17,22.2c1.1,0.5,2.5,0.8,4,0.8c3.3,0,6-1.3,6-3v-4"  fill="none" stroke="#000000" stroke-width="2" stroke-linecap="round" stroke-linejoin="round" stroke-miterlimit="10"/>
<path  d="M17,13.8c1.1-0.5,2.5-0.8,4-0.8c3.3,0,6,1.3,6,3s-2.7,3-6,3c-1.5,0-2.9-0.3-4-0.8"  fill="none" stroke="#000000" stroke-width="2" stroke-linecap="round" stroke-linejoin="round" stroke-miterlimit="10"/>
<path  d="M17,26.2c1.1,0.5,2.5,0.8,4,0.8c3.3,0,6-1.3,6-3v-4"  fill="none" stroke="#000000" stroke-width="2" stroke-linecap="round" stroke-linejoin="round" stroke-miterlimit="10"/>
</svg>
