<svg width="32" height="31" viewBox="0 0 32 31" fill="none" xmlns="http://www.w3.org/2000/svg">
<rect x="1.16699" y="0.5" width="29.9173" height="30" rx="11.5" stroke="#E8EFF3"/>
<path d="M11.6377 15C11.6377 14.4477 12.0782 14 12.6217 14H19.6297C20.1731 14 20.6137 14.4477 20.6137 15C20.6137 15.5523 20.1731 16 19.6297 16H12.6217C12.0782 16 11.6377 15.5523 11.6377 15Z" fill="#30303B"/>
<path d="M16.1256 20C15.6299 20 15.228 19.5916 15.228 19.0878L15.228 10.9122C15.228 10.4084 15.6299 10 16.1256 10C16.6214 10 17.0232 10.4084 17.0232 10.9122L17.0232 19.0878C17.0232 19.5916 16.6214 20 16.1256 20Z" fill="#30303B"/>
</svg>
